<svg version="1.1" viewBox="0.0 0.0 593.0 371.0" fill="none" stroke="none" stroke-linecap="square" stroke-miterlimit="10" width="593" height="371" xmlns:xlink="http://www.w3.org/1999/xlink" xmlns="http://www.w3.org/2000/svg"><path fill="#ffffff" d="M0 0L593.0 0L593.0 371.0L0 371.0L0 0Z" fill-rule="nonzero"/><path fill="#4285f4" d="M296.5 54.916668C378.66156 54.916668 445.26666 121.521774 445.26666 203.68333C445.26666 285.8449 378.66156 352.45 296.5 352.45L296.5 203.68333Z" fill-rule="nonzero"/><path fill="#ea4335" d="M296.5 352.45C214.33844 352.45 147.73334 285.8449 147.73334 203.68333C147.73334 121.521774 214.33844 54.916668 296.5 54.916668L296.5 203.68333Z" fill-rule="nonzero"/><path stroke="#000000" stroke-width="1.0" stroke-linejoin="round" stroke-linecap="round" d="M296.5 203.68333L296.5 54.916668C378.66156 54.916668 445.26666 121.521774 445.26666 203.68333C445.26666 285.8449 378.66156 352.45 296.5 352.45" fill-rule="nonzero"/><path stroke="#000000" stroke-width="1.0" stroke-linejoin="round" stroke-linecap="round" d="M296.5 203.68333L296.5 352.45C214.33844 352.45 147.73334 285.8449 147.73334 203.68333C147.73334 121.521774 214.33844 54.916668 296.5 54.916668" fill-rule="nonzero"/><path fill="#1a1a1a" d="M19.471874 199.18333L19.471874 190.58958L22.721874 190.58958Q23.565624 190.58958 24.01875 190.66771Q24.659374 190.77708 25.08125 191.07396Q25.51875 191.37083 25.76875 191.90208Q26.034374 192.43333 26.034374 193.07396Q26.034374 194.16771 25.33125 194.93333Q24.64375 195.68333 22.815624 195.68333L20.6125 195.68333L20.6125 199.18333L19.471874 199.18333ZM20.6125 194.68333L22.83125 194.68333Q23.940624 194.68333 24.39375 194.27708Q24.8625 193.85521 24.8625 193.10521Q24.8625 192.57396 24.58125 192.19896Q24.315624 191.80833 23.878124 191.68333Q23.58125 191.60521 22.815624 191.60521L20.6125 191.60521L20.6125 194.68333ZM27.33125 199.18333L27.33125 192.96458L28.284374 192.96458L28.284374 193.90208Q28.64375 193.24583 28.940624 193.04271Q29.253124 192.82396 29.628124 192.82396Q30.159374 192.82396 30.70625 193.15208L30.346874 194.13646Q29.95625 193.90208 29.58125 193.90208Q29.221874 193.90208 28.940624 194.12083Q28.675 194.32396 28.565624 194.69896Q28.378124 195.26146 28.378124 195.91771L28.378124 199.18333L27.33125 199.18333ZM30.95625 196.07396Q30.95625 194.33958 31.909374 193.51146Q32.70625 192.82396 33.8625 192.82396Q35.14375 192.82396 35.95625 193.66771Q36.784374 194.49583 36.784374 195.98021Q36.784374 197.18333 36.425 197.87083Q36.065624 198.55833 35.3625 198.94896Q34.675 199.32396 33.8625 199.32396Q32.565624 199.32396 31.753124 198.49583Q30.95625 197.65208 30.95625 196.07396ZM32.034374 196.07396Q32.034374 197.26146 32.55 197.85521Q33.08125 198.44896 33.8625 198.44896Q34.659374 198.44896 35.175 197.85521Q35.690624 197.26146 35.690624 196.04271Q35.690624 194.88646 35.159374 194.29271Q34.64375 193.69896 33.8625 193.69896Q33.08125 193.69896 32.55 194.29271Q32.034374 194.87083 32.034374 196.07396ZM42.409374 196.90208L43.440624 197.04271Q43.26875 198.10521 42.565624 198.71458Q41.8625 199.32396 40.846874 199.32396Q39.565624 199.32396 38.784374 198.49583Q38.01875 197.65208 38.01875 196.08958Q38.01875 195.08958 38.346874 194.33958Q38.690624 193.57396 39.3625 193.19896Q40.05 192.82396 40.8625 192.82396Q41.8625 192.82396 42.503124 193.33958Q43.159374 193.83958 43.346874 194.79271L42.315624 194.94896Q42.175 194.32396 41.8 194.01146Q41.425 193.68333 40.89375 193.68333Q40.096874 193.68333 39.596874 194.26146Q39.096874 194.82396 39.096874 196.05833Q39.096874 197.32396 39.58125 197.88646Q40.065624 198.44896 40.83125 198.44896Q41.45625 198.44896 41.8625 198.07396Q42.284374 197.69896 42.409374 196.90208ZM48.596874 197.18333L49.690624 197.30833Q49.440624 198.26146 48.7375 198.79271Q48.034374 199.32396 46.95625 199.32396Q45.596874 199.32396 44.784374 198.48021Q43.9875 197.63646 43.9875 196.12083Q43.9875 194.55833 44.8 193.69896Q45.6125 192.82396 46.89375 192.82396Q48.14375 192.82396 48.925 193.66771Q49.721874 194.51146 49.721874 196.05833Q49.721874 196.15208 49.721874 196.33958L45.08125 196.33958Q45.14375 197.37083 45.659374 197.91771Q46.175 198.44896 46.95625 198.44896Q47.534374 198.44896 47.940624 198.15208Q48.3625 197.83958 48.596874 197.18333ZM45.14375 195.48021L48.6125 195.48021Q48.55 194.68333 48.221874 194.29271Q47.70625 193.68333 46.909374 193.68333Q46.175 193.68333 45.675 194.16771Q45.190624 194.65208 45.14375 195.48021ZM50.925 197.32396L51.95625 197.16771Q52.05 197.79271 52.440624 198.12083Q52.846874 198.44896 53.58125 198.44896Q54.3 198.44896 54.64375 198.16771Q55.003124 197.87083 55.003124 197.46458Q55.003124 197.10521 54.690624 196.90208Q54.471874 196.76146 53.6125 196.54271Q52.45625 196.24583 52.003124 196.04271Q51.565624 195.82396 51.33125 195.44896Q51.096874 195.07396 51.096874 194.60521Q51.096874 194.19896 51.284374 193.83958Q51.471874 193.48021 51.8 193.24583Q52.05 193.07396 52.471874 192.94896Q52.89375 192.82396 53.39375 192.82396Q54.1125 192.82396 54.659374 193.04271Q55.221874 193.24583 55.4875 193.60521Q55.753124 193.96458 55.846874 194.55833L54.815624 194.69896Q54.753124 194.23021 54.409374 193.96458Q54.08125 193.68333 53.45625 193.68333Q52.7375 193.68333 52.425 193.93333Q52.1125 194.16771 52.1125 194.49583Q52.1125 194.69896 52.2375 194.85521Q52.378124 195.02708 52.64375 195.13646Q52.8 195.19896 53.58125 195.40208Q54.70625 195.71458 55.14375 195.90208Q55.58125 196.08958 55.83125 196.44896Q56.08125 196.80833 56.08125 197.35521Q56.08125 197.88646 55.76875 198.35521Q55.471874 198.80833 54.89375 199.07396Q54.315624 199.32396 53.58125 199.32396Q52.3625 199.32396 51.721874 198.82396Q51.096874 198.30833 50.925 197.32396ZM57.925 197.32396L58.95625 197.16771Q59.05 197.79271 59.440624 198.12083Q59.846874 198.44896 60.58125 198.44896Q61.3 198.44896 61.64375 198.16771Q62.003124 197.87083 62.003124 197.46458Q62.003124 197.10521 61.690624 196.90208Q61.471874 196.76146 60.6125 196.54271Q59.45625 196.24583 59.003124 196.04271Q58.565624 195.82396 58.33125 195.44896Q58.096874 195.07396 58.096874 194.60521Q58.096874 194.19896 58.284374 193.83958Q58.471874 193.48021 58.8 193.24583Q59.05 193.07396 59.471874 192.94896Q59.89375 192.82396 60.39375 192.82396Q61.1125 192.82396 61.659374 193.04271Q62.221874 193.24583 62.4875 193.60521Q62.753124 193.96458 62.846874 194.55833L61.815624 194.69896Q61.753124 194.23021 61.409374 193.96458Q61.08125 193.68333 60.45625 193.68333Q59.7375 193.68333 59.425 193.93333Q59.1125 194.16771 59.1125 194.49583Q59.1125 194.69896 59.2375 194.85521Q59.378124 195.02708 59.64375 195.13646Q59.8 195.19896 60.58125 195.40208Q61.70625 195.71458 62.14375 195.90208Q62.58125 196.08958 62.83125 196.44896Q63.08125 196.80833 63.08125 197.35521Q63.08125 197.88646 62.76875 198.35521Q62.471874 198.80833 61.89375 199.07396Q61.315624 199.32396 60.58125 199.32396Q59.3625 199.32396 58.721874 198.82396Q58.096874 198.30833 57.925 197.32396ZM73.59688 198.16771L73.59688 199.18333L67.90938 199.18333Q67.90938 198.80833 68.03438 198.44896Q68.25313 197.87083 68.72188 197.30833Q69.20625 196.74583 70.1125 196.01146Q71.51875 194.85521 72.00313 194.18333Q72.50313 193.51146 72.50313 192.91771Q72.50313 192.29271 72.05 191.87083Q71.59688 191.43333 70.87813 191.43333Q70.1125 191.43333 69.65938 191.88646Q69.20625 192.33958 69.19063 193.15208L68.1125 193.04271Q68.22188 191.82396 68.94063 191.19896Q69.675 190.55833 70.90938 190.55833Q72.14375 190.55833 72.8625 191.24583Q73.58125 191.93333 73.58125 192.94896Q73.58125 193.46458 73.3625 193.96458Q73.15938 194.44896 72.65938 195.01146Q72.175 195.55833 71.05 196.51146Q70.09688 197.30833 69.81563 197.60521Q69.55 197.88646 69.37813 198.16771L73.59688 198.16771Z" fill-rule="nonzero"/><path fill="#9e9e9e" d="M19.05 213.93333L20.159374 213.83958Q20.284374 214.65208 20.721874 215.05833Q21.175 215.46458 21.815624 215.46458Q22.565624 215.46458 23.096874 214.88646Q23.628124 214.30833 23.628124 213.37083Q23.628124 212.46458 23.1125 211.94896Q22.6125 211.41771 21.784374 211.41771Q21.284374 211.41771 20.8625 211.65208Q20.45625 211.88646 20.221874 212.24583L19.2375 212.12083L20.065624 207.71458L24.346874 207.71458L24.346874 208.71458L20.909374 208.71458L20.45625 211.02708Q21.221874 210.48021 22.065624 210.48021Q23.190624 210.48021 23.95625 211.26146Q24.7375 212.04271 24.7375 213.27708Q24.7375 214.43333 24.065624 215.29271Q23.2375 216.32396 21.815624 216.32396Q20.64375 216.32396 19.89375 215.66771Q19.159374 215.01146 19.05 213.93333ZM26.05 211.94896Q26.05 210.41771 26.3625 209.49583Q26.675 208.55833 27.284374 208.05833Q27.909374 207.55833 28.846874 207.55833Q29.534374 207.55833 30.05 207.83958Q30.58125 208.12083 30.925 208.65208Q31.26875 209.16771 31.45625 209.91771Q31.64375 210.66771 31.64375 211.94896Q31.64375 213.46458 31.33125 214.38646Q31.034374 215.30833 30.409374 215.82396Q29.8 216.32396 28.846874 216.32396Q27.6125 216.32396 26.89375 215.43333Q26.05 214.37083 26.05 211.94896ZM27.128124 211.94896Q27.128124 214.05833 27.628124 214.76146Q28.128124 215.46458 28.846874 215.46458Q29.58125 215.46458 30.065624 214.76146Q30.565624 214.05833 30.565624 211.94896Q30.565624 209.82396 30.065624 209.13646Q29.58125 208.43333 28.83125 208.43333Q28.1125 208.43333 27.675 209.04271Q27.128124 209.82396 27.128124 211.94896ZM33.64375 216.18333L33.64375 214.98021L34.846874 214.98021L34.846874 216.18333L33.64375 216.18333ZM36.05 211.94896Q36.05 210.41771 36.3625 209.49583Q36.675 208.55833 37.284374 208.05833Q37.909374 207.55833 38.846874 207.55833Q39.534374 207.55833 40.05 207.83958Q40.58125 208.12083 40.925 208.65208Q41.26875 209.16771 41.45625 209.91771Q41.64375 210.66771 41.64375 211.94896Q41.64375 213.46458 41.33125 214.38646Q41.034374 215.30833 40.409374 215.82396Q39.8 216.32396 38.846874 216.32396Q37.6125 216.32396 36.89375 215.43333Q36.05 214.37083 36.05 211.94896ZM37.128124 211.94896Q37.128124 214.05833 37.628124 214.76146Q38.128124 215.46458 38.846874 215.46458Q39.58125 215.46458 40.065624 214.76146Q40.565624 214.05833 40.565624 211.94896Q40.565624 209.82396 40.065624 209.13646Q39.58125 208.43333 38.83125 208.43333Q38.1125 208.43333 37.675 209.04271Q37.128124 209.82396 37.128124 211.94896ZM43.253124 209.65208Q43.253124 208.73021 43.70625 208.08958Q44.175 207.44896 45.05 207.44896Q45.8625 207.44896 46.39375 208.02708Q46.925 208.60521 46.925 209.71458Q46.925 210.80833 46.378124 211.40208Q45.846874 211.98021 45.065624 211.98021Q44.284374 211.98021 43.76875 211.40208Q43.253124 210.82396 43.253124 209.65208ZM45.08125 208.16771Q44.690624 208.16771 44.425 208.51146Q44.175 208.85521 44.175 209.76146Q44.175 210.58958 44.425 210.93333Q44.690624 211.26146 45.08125 211.26146Q45.4875 211.26146 45.7375 210.91771Q46.003124 210.57396 46.003124 209.68333Q46.003124 208.83958 45.7375 208.51146Q45.471874 208.16771 45.08125 208.16771ZM45.08125 216.49583L49.784374 207.44896L50.64375 207.44896L45.95625 216.49583L45.08125 216.49583ZM48.8 214.16771Q48.8 213.24583 49.253124 212.60521Q49.721874 211.96458 50.6125 211.96458Q51.425 211.96458 51.95625 212.54271Q52.4875 213.10521 52.4875 214.23021Q52.4875 215.32396 51.940624 215.91771Q51.409374 216.49583 50.6125 216.49583Q49.846874 216.49583 49.315624 215.91771Q48.8 215.33958 48.8 214.16771ZM50.64375 212.68333Q50.2375 212.68333 49.971874 213.02708Q49.721874 213.37083 49.721874 214.27708Q49.721874 215.08958 49.9875 215.43333Q50.253124 215.77708 50.64375 215.77708Q51.034374 215.77708 51.3 215.43333Q51.565624 215.08958 51.565624 214.18333Q51.565624 213.35521 51.3 213.02708Q51.034374 212.68333 50.64375 212.68333Z" fill-rule="nonzero"/><path stroke="#757575" stroke-width="1.0" stroke-linecap="butt" d="M18.55 203.68333L141.73334 203.68333L155.17166 203.68333" fill-rule="nonzero"/><path fill="#9e9e9e" d="M157.17166 203.68333C157.17166 202.57877 156.27623 201.68333 155.17166 201.68333C154.0671 201.68333 153.17166 202.57877 153.17166 203.68333C153.17166 204.7879 154.0671 205.68333 155.17166 205.68333C156.27623 205.68333 157.17166 204.7879 157.17166 203.68333" fill-rule="nonzero"/><path fill="#1a1a1a" d="M519.3719 199.18333L519.3719 190.58958L522.6219 190.58958Q523.46564 190.58958 523.91876 190.66771Q524.5594 190.77708 524.98126 191.07396Q525.41876 191.37083 525.66876 191.90208Q525.9344 192.43333 525.9344 193.07396Q525.9344 194.16771 525.23126 194.93333Q524.54376 195.68333 522.71564 195.68333L520.5125 195.68333L520.5125 199.18333L519.3719 199.18333ZM520.5125 194.68333L522.73126 194.68333Q523.84064 194.68333 524.29376 194.27708Q524.7625 193.85521 524.7625 193.10521Q524.7625 192.57396 524.48126 192.19896Q524.21564 191.80833 523.77814 191.68333Q523.48126 191.60521 522.71564 191.60521L520.5125 191.60521L520.5125 194.68333ZM527.23126 199.18333L527.23126 192.96458L528.1844 192.96458L528.1844 193.90208Q528.54376 193.24583 528.84064 193.04271Q529.15314 192.82396 529.52814 192.82396Q530.0594 192.82396 530.60626 193.15208L530.2469 194.13646Q529.85626 193.90208 529.48126 193.90208Q529.1219 193.90208 528.84064 194.12083Q528.575 194.32396 528.46564 194.69896Q528.27814 195.26146 528.27814 195.91771L528.27814 199.18333L527.23126 199.18333ZM530.85626 196.07396Q530.85626 194.33958 531.8094 193.51146Q532.60626 192.82396 533.7625 192.82396Q535.04376 192.82396 535.85626 193.66771Q536.6844 194.49583 536.6844 195.98021Q536.6844 197.18333 536.325 197.87083Q535.96564 198.55833 535.2625 198.94896Q534.575 199.32396 533.7625 199.32396Q532.46564 199.32396 531.65314 198.49583Q530.85626 197.65208 530.85626 196.07396ZM531.9344 196.07396Q531.9344 197.26146 532.45 197.85521Q532.98126 198.44896 533.7625 198.44896Q534.5594 198.44896 535.075 197.85521Q535.59064 197.26146 535.59064 196.04271Q535.59064 194.88646 535.0594 194.29271Q534.54376 193.69896 533.7625 193.69896Q532.98126 193.69896 532.45 194.29271Q531.9344 194.87083 531.9344 196.07396ZM542.3094 196.90208L543.34064 197.04271Q543.16876 198.10521 542.46564 198.71458Q541.7625 199.32396 540.7469 199.32396Q539.46564 199.32396 538.6844 198.49583Q537.91876 197.65208 537.91876 196.08958Q537.91876 195.08958 538.2469 194.33958Q538.59064 193.57396 539.2625 193.19896Q539.95 192.82396 540.7625 192.82396Q541.7625 192.82396 542.40314 193.33958Q543.0594 193.83958 543.2469 194.79271L542.21564 194.94896Q542.075 194.32396 541.7 194.01146Q541.325 193.68333 540.79376 193.68333Q539.9969 193.68333 539.4969 194.26146Q538.9969 194.82396 538.9969 196.05833Q538.9969 197.32396 539.48126 197.88646Q539.96564 198.44896 540.73126 198.44896Q541.35626 198.44896 541.7625 198.07396Q542.1844 197.69896 542.3094 196.90208ZM548.4969 197.18333L549.59064 197.30833Q549.34064 198.26146 548.6375 198.79271Q547.9344 199.32396 546.85626 199.32396Q545.4969 199.32396 544.6844 198.48021Q543.8875 197.63646 543.8875 196.12083Q543.8875 194.55833 544.7 193.69896Q545.5125 192.82396 546.79376 192.82396Q548.04376 192.82396 548.825 193.66771Q549.6219 194.51146 549.6219 196.05833Q549.6219 196.15208 549.6219 196.33958L544.98126 196.33958Q545.04376 197.37083 545.5594 197.91771Q546.075 198.44896 546.85626 198.44896Q547.4344 198.44896 547.84064 198.15208Q548.2625 197.83958 548.4969 197.18333ZM545.04376 195.48021L548.5125 195.48021Q548.45 194.68333 548.1219 194.29271Q547.60626 193.68333 546.8094 193.68333Q546.075 193.68333 545.575 194.16771Q545.09064 194.65208 545.04376 195.48021ZM550.825 197.32396L551.85626 197.16771Q551.95 197.79271 552.34064 198.12083Q552.7469 198.44896 553.48126 198.44896Q554.2 198.44896 554.54376 198.16771Q554.90314 197.87083 554.90314 197.46458Q554.90314 197.10521 554.59064 196.90208Q554.3719 196.76146 553.5125 196.54271Q552.35626 196.24583 551.90314 196.04271Q551.46564 195.82396 551.23126 195.44896Q550.9969 195.07396 550.9969 194.60521Q550.9969 194.19896 551.1844 193.83958Q551.3719 193.48021 551.7 193.24583Q551.95 193.07396 552.3719 192.94896Q552.79376 192.82396 553.29376 192.82396Q554.0125 192.82396 554.5594 193.04271Q555.1219 193.24583 555.3875 193.60521Q555.65314 193.96458 555.7469 194.55833L554.71564 194.69896Q554.65314 194.23021 554.3094 193.96458Q553.98126 193.68333 553.35626 193.68333Q552.6375 193.68333 552.325 193.93333Q552.0125 194.16771 552.0125 194.49583Q552.0125 194.69896 552.1375 194.85521Q552.27814 195.02708 552.54376 195.13646Q552.7 195.19896 553.48126 195.40208Q554.60626 195.71458 555.04376 195.90208Q555.48126 196.08958 555.73126 196.44896Q555.98126 196.80833 555.98126 197.35521Q555.98126 197.88646 555.66876 198.35521Q555.3719 198.80833 554.79376 199.07396Q554.21564 199.32396 553.48126 199.32396Q552.2625 199.32396 551.6219 198.82396Q550.9969 198.30833 550.825 197.32396ZM557.825 197.32396L558.85626 197.16771Q558.95 197.79271 559.34064 198.12083Q559.7469 198.44896 560.48126 198.44896Q561.2 198.44896 561.54376 198.16771Q561.90314 197.87083 561.90314 197.46458Q561.90314 197.10521 561.59064 196.90208Q561.3719 196.76146 560.5125 196.54271Q559.35626 196.24583 558.90314 196.04271Q558.46564 195.82396 558.23126 195.44896Q557.9969 195.07396 557.9969 194.60521Q557.9969 194.19896 558.1844 193.83958Q558.3719 193.48021 558.7 193.24583Q558.95 193.07396 559.3719 192.94896Q559.79376 192.82396 560.29376 192.82396Q561.0125 192.82396 561.5594 193.04271Q562.1219 193.24583 562.3875 193.60521Q562.65314 193.96458 562.7469 194.55833L561.71564 194.69896Q561.65314 194.23021 561.3094 193.96458Q560.98126 193.68333 560.35626 193.68333Q559.6375 193.68333 559.325 193.93333Q559.0125 194.16771 559.0125 194.49583Q559.0125 194.69896 559.1375 194.85521Q559.27814 195.02708 559.54376 195.13646Q559.7 195.19896 560.48126 195.40208Q561.60626 195.71458 562.04376 195.90208Q562.48126 196.08958 562.73126 196.44896Q562.98126 196.80833 562.98126 197.35521Q562.98126 197.88646 562.66876 198.35521Q562.3719 198.80833 561.79376 199.07396Q561.21564 199.32396 560.48126 199.32396Q559.2625 199.32396 558.6219 198.82396Q557.9969 198.30833 557.825 197.32396ZM571.91876 199.18333L570.8719 199.18333L570.8719 192.46458Q570.48126 192.82396 569.85626 193.19896Q569.2469 193.55833 568.7625 193.73021L568.7625 192.71458Q569.6375 192.29271 570.29376 191.71458Q570.96564 191.12083 571.2469 190.55833L571.91876 190.55833L571.91876 199.18333Z" fill-rule="nonzero"/><path fill="#9e9e9e" d="M539.95 213.93333L541.0594 213.83958Q541.1844 214.65208 541.6219 215.05833Q542.075 215.46458 542.71564 215.46458Q543.46564 215.46458 543.9969 214.88646Q544.52814 214.30833 544.52814 213.37083Q544.52814 212.46458 544.0125 211.94896Q543.5125 211.41771 542.6844 211.41771Q542.1844 211.41771 541.7625 211.65208Q541.35626 211.88646 541.1219 212.24583L540.1375 212.12083L540.96564 207.71458L545.2469 207.71458L545.2469 208.71458L541.8094 208.71458L541.35626 211.02708Q542.1219 210.48021 542.96564 210.48021Q544.09064 210.48021 544.85626 211.26146Q545.6375 212.04271 545.6375 213.27708Q545.6375 214.43333 544.96564 215.29271Q544.1375 216.32396 542.71564 216.32396Q541.54376 216.32396 540.79376 215.66771Q540.0594 215.01146 539.95 213.93333ZM546.95 211.94896Q546.95 210.41771 547.2625 209.49583Q547.575 208.55833 548.1844 208.05833Q548.8094 207.55833 549.7469 207.55833Q550.4344 207.55833 550.95 207.83958Q551.48126 208.12083 551.825 208.65208Q552.16876 209.16771 552.35626 209.91771Q552.54376 210.66771 552.54376 211.94896Q552.54376 213.46458 552.23126 214.38646Q551.9344 215.30833 551.3094 215.82396Q550.7 216.32396 549.7469 216.32396Q548.5125 216.32396 547.79376 215.43333Q546.95 214.37083 546.95 211.94896ZM548.02814 211.94896Q548.02814 214.05833 548.52814 214.76146Q549.02814 215.46458 549.7469 215.46458Q550.48126 215.46458 550.96564 214.76146Q551.46564 214.05833 551.46564 211.94896Q551.46564 209.82396 550.96564 209.13646Q550.48126 208.43333 549.73126 208.43333Q549.0125 208.43333 548.575 209.04271Q548.02814 209.82396 548.02814 211.94896ZM554.54376 216.18333L554.54376 214.98021L555.7469 214.98021L555.7469 216.18333L554.54376 216.18333ZM556.95 211.94896Q556.95 210.41771 557.2625 209.49583Q557.575 208.55833 558.1844 208.05833Q558.8094 207.55833 559.7469 207.55833Q560.4344 207.55833 560.95 207.83958Q561.48126 208.12083 561.825 208.65208Q562.16876 209.16771 562.35626 209.91771Q562.54376 210.66771 562.54376 211.94896Q562.54376 213.46458 562.23126 214.38646Q561.9344 215.30833 561.3094 215.82396Q560.7 216.32396 559.7469 216.32396Q558.5125 216.32396 557.79376 215.43333Q556.95 214.37083 556.95 211.94896ZM558.02814 211.94896Q558.02814 214.05833 558.52814 214.76146Q559.02814 215.46458 559.7469 215.46458Q560.48126 215.46458 560.96564 214.76146Q561.46564 214.05833 561.46564 211.94896Q561.46564 209.82396 560.96564 209.13646Q560.48126 208.43333 559.73126 208.43333Q559.0125 208.43333 558.575 209.04271Q558.02814 209.82396 558.02814 211.94896ZM564.15314 209.65208Q564.15314 208.73021 564.60626 208.08958Q565.075 207.44896 565.95 207.44896Q566.7625 207.44896 567.29376 208.02708Q567.825 208.60521 567.825 209.71458Q567.825 210.80833 567.27814 211.40208Q566.7469 211.98021 565.96564 211.98021Q565.1844 211.98021 564.66876 211.40208Q564.15314 210.82396 564.15314 209.65208ZM565.98126 208.16771Q565.59064 208.16771 565.325 208.51146Q565.075 208.85521 565.075 209.76146Q565.075 210.58958 565.325 210.93333Q565.59064 211.26146 565.98126 211.26146Q566.3875 211.26146 566.6375 210.91771Q566.90314 210.57396 566.90314 209.68333Q566.90314 208.83958 566.6375 208.51146Q566.3719 208.16771 565.98126 208.16771ZM565.98126 216.49583L570.6844 207.44896L571.54376 207.44896L566.85626 216.49583L565.98126 216.49583ZM569.7 214.16771Q569.7 213.24583 570.15314 212.60521Q570.6219 211.96458 571.5125 211.96458Q572.325 211.96458 572.85626 212.54271Q573.3875 213.10521 573.3875 214.23021Q573.3875 215.32396 572.84064 215.91771Q572.3094 216.49583 571.5125 216.49583Q570.7469 216.49583 570.21564 215.91771Q569.7 215.33958 569.7 214.16771ZM571.54376 212.68333Q571.1375 212.68333 570.8719 213.02708Q570.6219 213.37083 570.6219 214.27708Q570.6219 215.08958 570.8875 215.43333Q571.15314 215.77708 571.54376 215.77708Q571.9344 215.77708 572.2 215.43333Q572.46564 215.08958 572.46564 214.18333Q572.46564 213.35521 572.2 213.02708Q571.9344 212.68333 571.54376 212.68333Z" fill-rule="nonzero"/><path stroke="#757575" stroke-width="1.0" stroke-linecap="butt" d="M574.45 203.68333L451.26666 203.68333L437.82834 203.68333" fill-rule="nonzero"/><path fill="#9e9e9e" d="M439.82834 203.68333C439.82834 202.57877 438.9329 201.68333 437.82834 201.68333C436.72375 201.68333 435.82834 202.57877 435.82834 203.68333C435.82834 204.7879 436.72375 205.68333 437.82834 205.68333C438.9329 205.68333 439.82834 204.7879 439.82834 203.68333" fill-rule="nonzero"/><path fill="#757575" d="M23.7375 37.55L23.7375 24.925L19.01875 24.925L19.01875 23.2375L30.3625 23.2375L30.3625 24.925L25.628124 24.925L25.628124 37.55L23.7375 37.55ZM31.8625 37.55L31.8625 23.2375L33.628124 23.2375L33.628124 28.3625Q34.8625 26.940624 36.7375 26.940624Q37.878124 26.940624 38.721874 27.39375Q39.58125 27.846874 39.940624 28.659374Q40.315624 29.45625 40.315624 30.971874L40.315624 37.55L38.565624 37.55L38.565624 30.971874Q38.565624 29.659374 37.9875 29.065624Q37.409374 28.45625 36.378124 28.45625Q35.596874 28.45625 34.89375 28.8625Q34.20625 29.26875 33.909374 29.971874Q33.628124 30.659374 33.628124 31.878124L33.628124 37.55L31.8625 37.55ZM48.971874 34.20625L50.784374 34.440624Q50.3625 36.01875 49.190624 36.909374Q48.034374 37.784374 46.221874 37.784374Q43.95625 37.784374 42.6125 36.39375Q41.284374 34.9875 41.284374 32.45625Q41.284374 29.83125 42.628124 28.39375Q43.971874 26.940624 46.128124 26.940624Q48.20625 26.940624 49.51875 28.3625Q50.846874 29.76875 50.846874 32.346874Q50.846874 32.503124 50.83125 32.815624L43.096874 32.815624Q43.190624 34.51875 44.065624 35.425Q44.940624 36.33125 46.2375 36.33125Q47.20625 36.33125 47.878124 35.83125Q48.565624 35.315624 48.971874 34.20625ZM43.190624 31.3625L48.9875 31.3625Q48.878124 30.065624 48.33125 29.409374Q47.4875 28.39375 46.14375 28.39375Q44.940624 28.39375 44.1125 29.20625Q43.284374 30.003124 43.190624 31.3625ZM52.221874 32.3625Q52.221874 29.4875 53.815624 28.096874Q55.159374 26.940624 57.08125 26.940624Q59.221874 26.940624 60.565624 28.346874Q61.925 29.753124 61.925 32.221874Q61.925 34.221874 61.33125 35.378124Q60.7375 36.51875 59.58125 37.159374Q58.440624 37.784374 57.08125 37.784374Q54.89375 37.784374 53.55 36.39375Q52.221874 34.9875 52.221874 32.3625ZM54.01875 32.3625Q54.01875 34.3625 54.878124 35.346874Q55.753124 36.33125 57.08125 36.33125Q58.39375 36.33125 59.253124 35.346874Q60.128124 34.346874 60.128124 32.3Q60.128124 30.378124 59.253124 29.39375Q58.378124 28.39375 57.08125 28.39375Q55.753124 28.39375 54.878124 29.39375Q54.01875 30.378124 54.01875 32.3625ZM63.846874 37.55L63.846874 27.175L65.425 27.175L65.425 28.753124Q66.03438 27.64375 66.55 27.3Q67.06563 26.940624 67.675 26.940624Q68.56563 26.940624 69.4875 27.503124L68.87813 29.14375Q68.2375 28.753124 67.59688 28.753124Q67.01875 28.753124 66.55 29.1125Q66.09688 29.45625 65.89375 30.065624Q65.6125 31.003124 65.6125 32.1125L65.6125 37.55L63.846874 37.55ZM77.97188 34.20625L79.78438 34.440624Q79.3625 36.01875 78.19063 36.909374Q77.03438 37.784374 75.22188 37.784374Q72.95625 37.784374 71.6125 36.39375Q70.28438 34.9875 70.28438 32.45625Q70.28438 29.83125 71.62813 28.39375Q72.97188 26.940624 75.12813 26.940624Q77.20625 26.940624 78.51875 28.3625Q79.84688 29.76875 79.84688 32.346874Q79.84688 32.503124 79.83125 32.815624L72.09688 32.815624Q72.19063 34.51875 73.06563 35.425Q73.94063 36.33125 75.2375 36.33125Q76.20625 36.33125 76.87813 35.83125Q77.56563 35.315624 77.97188 34.20625ZM72.19063 31.3625L77.9875 31.3625Q77.87813 30.065624 77.33125 29.409374Q76.4875 28.39375 75.14375 28.39375Q73.94063 28.39375 73.1125 29.20625Q72.28438 30.003124 72.19063 31.3625ZM85.70625 35.971874L85.95625 37.534374Q85.22188 37.690624 84.62813 37.690624Q83.675 37.690624 83.14375 37.39375Q82.62813 37.08125 82.40938 36.596874Q82.19063 36.096874 82.19063 34.51875L82.19063 28.55L80.90938 28.55L80.90938 27.175L82.19063 27.175L82.19063 24.6125L83.94063 23.55L83.94063 27.175L85.70625 27.175L85.70625 28.55L83.94063 28.55L83.94063 34.6125Q83.94063 35.3625 84.03438 35.58125Q84.12813 35.784374 84.33125 35.925Q84.55 36.05 84.94063 36.05Q85.22188 36.05 85.70625 35.971874ZM87.87813 25.253124L87.87813 23.2375L89.64375 23.2375L89.64375 25.253124L87.87813 25.253124ZM87.87813 37.55L87.87813 27.175L89.64375 27.175L89.64375 37.55L87.87813 37.55ZM98.64375 33.753124L100.3625 33.971874Q100.08125 35.76875 98.90938 36.784374Q97.75313 37.784374 96.05 37.784374Q93.925 37.784374 92.62813 36.39375Q91.33125 35.003124 91.33125 32.409374Q91.33125 30.721874 91.87813 29.471874Q92.44063 28.20625 93.58125 27.58125Q94.72188 26.940624 96.06563 26.940624Q97.75313 26.940624 98.81563 27.8Q99.89375 28.659374 100.20625 30.221874L98.4875 30.4875Q98.25313 29.440624 97.62813 28.925Q97.00313 28.39375 96.12813 28.39375Q94.8 28.39375 93.97188 29.346874Q93.14375 30.3 93.14375 32.346874Q93.14375 34.440624 93.94063 35.39375Q94.7375 36.33125 96.03438 36.33125Q97.06563 36.33125 97.75313 35.70625Q98.45625 35.065624 98.64375 33.753124ZM108.64375 36.26875Q107.65938 37.096874 106.75313 37.440624Q105.84688 37.784374 104.81563 37.784374Q103.1125 37.784374 102.19063 36.95625Q101.26875 36.1125 101.26875 34.815624Q101.26875 34.05 101.6125 33.425Q101.97188 32.8 102.53438 32.425Q103.09688 32.034374 103.8 31.83125Q104.31563 31.70625 105.3625 31.565624Q107.4875 31.315624 108.4875 30.971874Q108.50313 30.6125 108.50313 30.503124Q108.50313 29.440624 108.00313 28.9875Q107.33125 28.39375 106.00313 28.39375Q104.75313 28.39375 104.15938 28.83125Q103.58125 29.26875 103.3 30.378124L101.58125 30.14375Q101.81563 29.034374 102.34688 28.3625Q102.87813 27.675 103.89375 27.315624Q104.90938 26.940624 106.25313 26.940624Q107.58125 26.940624 108.40938 27.253124Q109.2375 27.565624 109.62813 28.05Q110.01875 28.51875 110.175 29.2375Q110.26875 29.690624 110.26875 30.8625L110.26875 33.20625Q110.26875 35.659374 110.37813 36.315624Q110.4875 36.95625 110.83125 37.55L108.9875 37.55Q108.72188 37.003124 108.64375 36.26875ZM108.4875 32.346874Q107.53438 32.7375 105.6125 33.003124Q104.53438 33.159374 104.08125 33.3625Q103.64375 33.55 103.39375 33.925Q103.14375 34.3 103.14375 34.76875Q103.14375 35.471874 103.675 35.940624Q104.20625 36.409374 105.2375 36.409374Q106.25313 36.409374 107.03438 35.971874Q107.83125 35.51875 108.20625 34.753124Q108.4875 34.14375 108.4875 32.9875L108.4875 32.346874ZM112.83125 37.55L112.83125 23.2375L114.58125 23.2375L114.58125 37.55L112.83125 37.55ZM122.45625 32.95625L124.2375 32.8Q124.3625 33.8625 124.81563 34.55Q125.28438 35.2375 126.25313 35.675Q127.2375 36.096874 128.47188 36.096874Q129.55 36.096874 130.37813 35.784374Q131.20625 35.45625 131.6125 34.89375Q132.01875 34.33125 132.01875 33.659374Q132.01875 32.9875 131.62813 32.4875Q131.2375 31.9875 130.34688 31.64375Q129.76875 31.409374 127.78438 30.940624Q125.81563 30.471874 125.03438 30.05Q124.00313 29.51875 123.50313 28.721874Q123.00313 27.925 123.00313 26.940624Q123.00313 25.846874 123.6125 24.909374Q124.22188 23.971874 125.40938 23.4875Q126.59688 22.9875 128.03438 22.9875Q129.62813 22.9875 130.84688 23.503124Q132.06563 24.01875 132.70625 25.01875Q133.3625 26.003124 133.40938 27.26875L131.59688 27.409374Q131.45625 26.05 130.6125 25.3625Q129.76875 24.659374 128.1125 24.659374Q126.39375 24.659374 125.59688 25.3Q124.81563 25.925 124.81563 26.8Q124.81563 27.58125 125.37813 28.08125Q125.925 28.58125 128.2375 29.096874Q130.55 29.6125 131.40938 30.003124Q132.65938 30.58125 133.25313 31.471874Q133.84688 32.346874 133.84688 33.503124Q133.84688 34.64375 133.19063 35.659374Q132.53438 36.675 131.3 37.2375Q130.08125 37.8 128.55 37.8Q126.6125 37.8 125.3 37.2375Q123.9875 36.659374 123.2375 35.51875Q122.4875 34.378124 122.45625 32.95625ZM142.64375 33.753124L144.3625 33.971874Q144.08125 35.76875 142.90938 36.784374Q141.75313 37.784374 140.05 37.784374Q137.925 37.784374 136.62813 36.39375Q135.33125 35.003124 135.33125 32.409374Q135.33125 30.721874 135.87813 29.471874Q136.44063 28.20625 137.58125 27.58125Q138.72188 26.940624 140.06563 26.940624Q141.75313 26.940624 142.81563 27.8Q143.89375 28.659374 144.20625 30.221874L142.4875 30.4875Q142.25313 29.440624 141.62813 28.925Q141.00313 28.39375 140.12813 28.39375Q138.8 28.39375 137.97188 29.346874Q137.14375 30.3 137.14375 32.346874Q137.14375 34.440624 137.94063 35.39375Q138.7375 36.33125 140.03438 36.33125Q141.06563 36.33125 141.75313 35.70625Q142.45625 35.065624 142.64375 33.753124ZM145.8625 37.55L145.8625 23.2375L147.62813 23.2375L147.62813 28.3625Q148.8625 26.940624 150.7375 26.940624Q151.87813 26.940624 152.72188 27.39375Q153.58125 27.846874 153.94063 28.659374Q154.31563 29.45625 154.31563 30.971874L154.31563 37.55L152.56563 37.55L152.56563 30.971874Q152.56563 29.659374 151.9875 29.065624Q151.40938 28.45625 150.37813 28.45625Q149.59688 28.45625 148.89375 28.8625Q148.20625 29.26875 147.90938 29.971874Q147.62813 30.659374 147.62813 31.878124L147.62813 37.55L145.8625 37.55ZM162.97188 34.20625L164.78438 34.440624Q164.3625 36.01875 163.19063 36.909374Q162.03438 37.784374 160.22188 37.784374Q157.95625 37.784374 156.6125 36.39375Q155.28438 34.9875 155.28438 32.45625Q155.28438 29.83125 156.62813 28.39375Q157.97188 26.940624 160.12813 26.940624Q162.20625 26.940624 163.51875 28.3625Q164.84688 29.76875 164.84688 32.346874Q164.84688 32.503124 164.83125 32.815624L157.09688 32.815624Q157.19063 34.51875 158.06563 35.425Q158.94063 36.33125 160.2375 36.33125Q161.20625 36.33125 161.87813 35.83125Q162.56563 35.315624 162.97188 34.20625ZM157.19063 31.3625L162.9875 31.3625Q162.87813 30.065624 162.33125 29.409374Q161.4875 28.39375 160.14375 28.39375Q158.94063 28.39375 158.1125 29.20625Q157.28438 30.003124 157.19063 31.3625ZM173.59688 37.55L173.59688 36.2375Q172.6125 37.784374 170.69063 37.784374Q169.45625 37.784374 168.40938 37.096874Q167.37813 36.409374 166.8 35.190624Q166.2375 33.971874 166.2375 32.378124Q166.2375 30.815624 166.75313 29.55Q167.26875 28.284374 168.3 27.6125Q169.34688 26.940624 170.6125 26.940624Q171.55 26.940624 172.28438 27.346874Q173.01875 27.7375 173.4875 28.3625L173.4875 23.2375L175.22188 23.2375L175.22188 37.55L173.59688 37.55ZM168.03438 32.378124Q168.03438 34.3625 168.87813 35.346874Q169.72188 36.33125 170.8625 36.33125Q172.01875 36.33125 172.81563 35.39375Q173.62813 34.45625 173.62813 32.51875Q173.62813 30.39375 172.8 29.39375Q171.9875 28.39375 170.78438 28.39375Q169.6125 28.39375 168.81563 29.3625Q168.03438 30.315624 168.03438 32.378124ZM184.65938 37.55L184.65938 36.01875Q183.45625 37.784374 181.37813 37.784374Q180.45625 37.784374 179.65938 37.440624Q178.8625 37.08125 178.47188 36.55Q178.09688 36.01875 177.94063 35.2375Q177.83125 34.721874 177.83125 33.596874L177.83125 27.175L179.58125 27.175L179.58125 32.925Q179.58125 34.3 179.69063 34.784374Q179.8625 35.471874 180.39375 35.878124Q180.94063 36.26875 181.72188 36.26875Q182.51875 36.26875 183.20625 35.8625Q183.90938 35.45625 184.19063 34.76875Q184.4875 34.065624 184.4875 32.7375L184.4875 27.175L186.2375 27.175L186.2375 37.55L184.65938 37.55ZM187.83125 37.55L187.83125 23.2375L189.58125 23.2375L189.58125 37.55L187.83125 37.55ZM198.97188 34.20625L200.78438 34.440624Q200.3625 36.01875 199.19063 36.909374Q198.03438 37.784374 196.22188 37.784374Q193.95625 37.784374 192.6125 36.39375Q191.28438 34.9875 191.28438 32.45625Q191.28438 29.83125 192.62813 28.39375Q193.97188 26.940624 196.12813 26.940624Q198.20625 26.940624 199.51875 28.3625Q200.84688 29.76875 200.84688 32.346874Q200.84688 32.503124 200.83125 32.815624L193.09688 32.815624Q193.19063 34.51875 194.06563 35.425Q194.94063 36.33125 196.2375 36.33125Q197.20625 36.33125 197.87813 35.83125Q198.56563 35.315624 198.97188 34.20625ZM193.19063 31.3625L198.9875 31.3625Q198.87813 30.065624 198.33125 29.409374Q197.4875 28.39375 196.14375 28.39375Q194.94063 28.39375 194.1125 29.20625Q193.28438 30.003124 193.19063 31.3625ZM207.51875 37.55L213.01875 23.2375L215.06563 23.2375L220.925 37.55L218.76875 37.55L217.09688 33.20625L211.1125 33.20625L209.53438 37.55L207.51875 37.55ZM211.65938 31.675L216.50313 31.675L215.01875 27.70625Q214.33125 25.89375 214.00313 24.7375Q213.72188 26.1125 213.22188 27.471874L211.65938 31.675ZM221.83125 37.55L221.83125 23.2375L223.58125 23.2375L223.58125 37.55L221.83125 37.55ZM225.83125 37.55L225.83125 23.2375L227.58125 23.2375L227.58125 37.55L225.83125 37.55ZM229.22188 32.3625Q229.22188 29.4875 230.81563 28.096874Q232.15938 26.940624 234.08125 26.940624Q236.22188 26.940624 237.56563 28.346874Q238.925 29.753124 238.925 32.221874Q238.925 34.221874 238.33125 35.378124Q237.7375 36.51875 236.58125 37.159374Q235.44063 37.784374 234.08125 37.784374Q231.89375 37.784374 230.55 36.39375Q229.22188 34.9875 229.22188 32.3625ZM231.01875 32.3625Q231.01875 34.3625 231.87813 35.346874Q232.75313 36.33125 234.08125 36.33125Q235.39375 36.33125 236.25313 35.346874Q237.12813 34.346874 237.12813 32.3Q237.12813 30.378124 236.25313 29.39375Q235.37813 28.39375 234.08125 28.39375Q232.75313 28.39375 231.87813 29.39375Q231.01875 30.378124 231.01875 32.3625ZM247.64375 33.753124L249.3625 33.971874Q249.08125 35.76875 247.90938 36.784374Q246.75313 37.784374 245.05 37.784374Q242.925 37.784374 241.62813 36.39375Q240.33125 35.003124 240.33125 32.409374Q240.33125 30.721874 240.87813 29.471874Q241.44063 28.20625 242.58125 27.58125Q243.72188 26.940624 245.06563 26.940624Q246.75313 26.940624 247.81563 27.8Q248.89375 28.659374 249.20625 30.221874L247.4875 30.4875Q247.25313 29.440624 246.62813 28.925Q246.00313 28.39375 245.12813 28.39375Q243.8 28.39375 242.97188 29.346874Q242.14375 30.3 242.14375 32.346874Q242.14375 34.440624 242.94063 35.39375Q243.7375 36.33125 245.03438 36.33125Q246.06563 36.33125 246.75313 35.70625Q247.45625 35.065624 247.64375 33.753124ZM257.64374 36.26875Q256.65936 37.096874 255.75313 37.440624Q254.84688 37.784374 253.81563 37.784374Q252.1125 37.784374 251.19063 36.95625Q250.26875 36.1125 250.26875 34.815624Q250.26875 34.05 250.6125 33.425Q250.97188 32.8 251.53438 32.425Q252.09688 32.034374 252.8 31.83125Q253.31563 31.70625 254.3625 31.565624Q256.4875 31.315624 257.4875 30.971874Q257.5031 30.6125 257.5031 30.503124Q257.5031 29.440624 257.0031 28.9875Q256.33124 28.39375 255.00313 28.39375Q253.75313 28.39375 253.15938 28.83125Q252.58125 29.26875 252.3 30.378124L250.58125 30.14375Q250.81563 29.034374 251.34688 28.3625Q251.87813 27.675 252.89375 27.315624Q253.90938 26.940624 255.25313 26.940624Q256.58124 26.940624 257.40936 27.253124Q258.2375 27.565624 258.6281 28.05Q259.01874 28.51875 259.175 29.2375Q259.26874 29.690624 259.26874 30.8625L259.26874 33.20625Q259.26874 35.659374 259.3781 36.315624Q259.4875 36.95625 259.83124 37.55L257.9875 37.55Q257.72186 37.003124 257.64374 36.26875ZM257.4875 32.346874Q256.53436 32.7375 254.6125 33.003124Q253.53438 33.159374 253.08125 33.3625Q252.64375 33.55 252.39375 33.925Q252.14375 34.3 252.14375 34.76875Q252.14375 35.471874 252.675 35.940624Q253.20625 36.409374 254.2375 36.409374Q255.25313 36.409374 256.03436 35.971874Q256.83124 35.51875 257.20624 34.753124Q257.4875 34.14375 257.4875 32.9875L257.4875 32.346874ZM265.70624 35.971874L265.95624 37.534374Q265.22186 37.690624 264.6281 37.690624Q263.675 37.690624 263.14374 37.39375Q262.6281 37.08125 262.40936 36.596874Q262.1906 36.096874 262.1906 34.51875L262.1906 28.55L260.90936 28.55L260.90936 27.175L262.1906 27.175L262.1906 24.6125L263.9406 23.55L263.9406 27.175L265.70624 27.175L265.70624 28.55L263.9406 28.55L263.9406 34.6125Q263.9406 35.3625 264.03436 35.58125Q264.1281 35.784374 264.33124 35.925Q264.55 36.05 264.9406 36.05Q265.22186 36.05 265.70624 35.971874ZM267.8781 25.253124L267.8781 23.2375L269.64374 23.2375L269.64374 25.253124L267.8781 25.253124ZM267.8781 37.55L267.8781 27.175L269.64374 27.175L269.64374 37.55L267.8781 37.55ZM271.22186 32.3625Q271.22186 29.4875 272.8156 28.096874Q274.15936 26.940624 276.08124 26.940624Q278.22186 26.940624 279.5656 28.346874Q280.925 29.753124 280.925 32.221874Q280.925 34.221874 280.33124 35.378124Q279.7375 36.51875 278.58124 37.159374Q277.4406 37.784374 276.08124 37.784374Q273.89374 37.784374 272.55 36.39375Q271.22186 34.9875 271.22186 32.3625ZM273.01874 32.3625Q273.01874 34.3625 273.8781 35.346874Q274.7531 36.33125 276.08124 36.33125Q277.39374 36.33125 278.2531 35.346874Q279.1281 34.346874 279.1281 32.3Q279.1281 30.378124 278.2531 29.39375Q277.3781 28.39375 276.08124 28.39375Q274.7531 28.39375 273.8781 29.39375Q273.01874 30.378124 273.01874 32.3625ZM282.8625 37.55L282.8625 27.175L284.45624 27.175L284.45624 28.659374Q285.59686 26.940624 287.7531 26.940624Q288.6906 26.940624 289.47186 27.284374Q290.26874 27.6125 290.65936 28.159374Q291.05 28.70625 291.20624 29.45625Q291.3 29.95625 291.3 31.175L291.3 37.55L289.53436 37.55L289.53436 31.2375Q289.53436 30.159374 289.33124 29.628124Q289.1281 29.096874 288.59686 28.784374Q288.08124 28.471874 287.3781 28.471874Q286.2531 28.471874 285.4406 29.190624Q284.6281 29.89375 284.6281 31.878124L284.6281 37.55L282.8625 37.55ZM302.22186 41.753124Q300.76874 39.925 299.76874 37.471874Q298.76874 35.003124 298.76874 32.3625Q298.76874 30.034374 299.51874 27.909374Q300.39374 25.440624 302.22186 22.9875L303.4875 22.9875Q302.3 25.01875 301.925 25.89375Q301.33124 27.2375 300.9875 28.70625Q300.5656 30.534374 300.5656 32.378124Q300.5656 37.065624 303.4875 41.753124L302.22186 41.753124ZM306.1281 37.55L306.1281 23.2375L312.47186 23.2375Q314.3781 23.2375 315.3781 23.628124Q316.3781 24.003124 316.97186 24.9875Q317.5656 25.95625 317.5656 27.14375Q317.5656 28.659374 316.58124 29.70625Q315.59686 30.753124 313.53436 31.034374Q314.28436 31.39375 314.675 31.753124Q315.5031 32.503124 316.2531 33.659374L318.7375 37.55L316.3625 37.55L314.45624 34.565624Q313.6281 33.284374 313.09686 32.596874Q312.5656 31.909374 312.1281 31.64375Q311.70624 31.3625 311.26874 31.253124Q310.9406 31.190624 310.22186 31.190624L308.01874 31.190624L308.01874 37.55L306.1281 37.55ZM308.01874 29.55L312.09686 29.55Q313.39374 29.55 314.1125 29.284374Q314.84686 29.01875 315.22186 28.425Q315.6125 27.83125 315.6125 27.14375Q315.6125 26.128124 314.8781 25.471874Q314.14374 24.815624 312.55 24.815624L308.01874 24.815624L308.01874 29.55ZM319.22186 32.3625Q319.22186 29.4875 320.8156 28.096874Q322.15936 26.940624 324.08124 26.940624Q326.22186 26.940624 327.5656 28.346874Q328.925 29.753124 328.925 32.221874Q328.925 34.221874 328.33124 35.378124Q327.7375 36.51875 326.58124 37.159374Q325.4406 37.784374 324.08124 37.784374Q321.89374 37.784374 320.55 36.39375Q319.22186 34.9875 319.22186 32.3625ZM321.01874 32.3625Q321.01874 34.3625 321.8781 35.346874Q322.7531 36.33125 324.08124 36.33125Q325.39374 36.33125 326.2531 35.346874Q327.1281 34.346874 327.1281 32.3Q327.1281 30.378124 326.2531 29.39375Q325.3781 28.39375 324.08124 28.39375Q322.7531 28.39375 321.8781 29.39375Q321.01874 30.378124 321.01874 32.3625ZM337.65936 37.55L337.65936 36.01875Q336.45624 37.784374 334.3781 37.784374Q333.45624 37.784374 332.65936 37.440624Q331.8625 37.08125 331.47186 36.55Q331.09686 36.01875 330.9406 35.2375Q330.83124 34.721874 330.83124 33.596874L330.83124 27.175L332.58124 27.175L332.58124 32.925Q332.58124 34.3 332.6906 34.784374Q332.8625 35.471874 333.39374 35.878124Q333.9406 36.26875 334.72186 36.26875Q335.51874 36.26875 336.20624 35.8625Q336.90936 35.45625 337.1906 34.76875Q337.4875 34.065624 337.4875 32.7375L337.4875 27.175L339.2375 27.175L339.2375 37.55L337.65936 37.55ZM340.8625 37.55L340.8625 27.175L342.45624 27.175L342.45624 28.659374Q343.59686 26.940624 345.7531 26.940624Q346.6906 26.940624 347.47186 27.284374Q348.26874 27.6125 348.65936 28.159374Q349.05 28.70625 349.20624 29.45625Q349.3 29.95625 349.3 31.175L349.3 37.55L347.53436 37.55L347.53436 31.2375Q347.53436 30.159374 347.33124 29.628124Q347.1281 29.096874 346.59686 28.784374Q346.08124 28.471874 345.3781 28.471874Q344.2531 28.471874 343.4406 29.190624Q342.6281 29.89375 342.6281 31.878124L342.6281 37.55L340.8625 37.55ZM357.59686 37.55L357.59686 36.2375Q356.6125 37.784374 354.6906 37.784374Q353.45624 37.784374 352.40936 37.096874Q351.3781 36.409374 350.8 35.190624Q350.2375 33.971874 350.2375 32.378124Q350.2375 30.815624 350.7531 29.55Q351.26874 28.284374 352.3 27.6125Q353.34686 26.940624 354.6125 26.940624Q355.55 26.940624 356.28436 27.346874Q357.01874 27.7375 357.4875 28.3625L357.4875 23.2375L359.22186 23.2375L359.22186 37.55L357.59686 37.55ZM352.03436 32.378124Q352.03436 34.3625 352.8781 35.346874Q353.72186 36.33125 354.8625 36.33125Q356.01874 36.33125 356.8156 35.39375Q357.6281 34.45625 357.6281 32.51875Q357.6281 30.39375 356.8 29.39375Q355.9875 28.39375 354.78436 28.39375Q353.6125 28.39375 352.8156 29.3625Q352.03436 30.315624 352.03436 32.378124ZM368.1281 37.55L368.1281 23.2375L374.47186 23.2375Q376.3781 23.2375 377.3781 23.628124Q378.3781 24.003124 378.97186 24.9875Q379.5656 25.95625 379.5656 27.14375Q379.5656 28.659374 378.58124 29.70625Q377.59686 30.753124 375.53436 31.034374Q376.28436 31.39375 376.675 31.753124Q377.5031 32.503124 378.2531 33.659374L380.7375 37.55L378.3625 37.55L376.45624 34.565624Q375.6281 33.284374 375.09686 32.596874Q374.5656 31.909374 374.1281 31.64375Q373.70624 31.3625 373.26874 31.253124Q372.9406 31.190624 372.22186 31.190624L370.01874 31.190624L370.01874 37.55L368.1281 37.55ZM370.01874 29.55L374.09686 29.55Q375.39374 29.55 376.1125 29.284374Q376.84686 29.01875 377.22186 28.425Q377.6125 27.83125 377.6125 27.14375Q377.6125 26.128124 376.8781 25.471874Q376.14374 24.815624 374.55 24.815624L370.01874 24.815624L370.01874 29.55ZM381.22186 32.3625Q381.22186 29.4875 382.8156 28.096874Q384.15936 26.940624 386.08124 26.940624Q388.22186 26.940624 389.5656 28.346874Q390.925 29.753124 390.925 32.221874Q390.925 34.221874 390.33124 35.378124Q389.7375 36.51875 388.58124 37.159374Q387.4406 37.784374 386.08124 37.784374Q383.89374 37.784374 382.55 36.39375Q381.22186 34.9875 381.22186 32.3625ZM383.01874 32.3625Q383.01874 34.3625 383.8781 35.346874Q384.7531 36.33125 386.08124 36.33125Q387.39374 36.33125 388.2531 35.346874Q389.1281 34.346874 389.1281 32.3Q389.1281 30.378124 388.2531 29.39375Q387.3781 28.39375 386.08124 28.39375Q384.7531 28.39375 383.8781 29.39375Q383.01874 30.378124 383.01874 32.3625ZM394.4875 37.55L392.8625 37.55L392.8625 23.2375L394.6125 23.2375L394.6125 28.346874Q395.7375 26.940624 397.45624 26.940624Q398.40936 26.940624 399.26874 27.33125Q400.1281 27.721874 400.675 28.425Q401.22186 29.1125 401.53436 30.096874Q401.84686 31.08125 401.84686 32.20625Q401.84686 34.878124 400.53436 36.33125Q399.22186 37.784374 397.3781 37.784374Q395.53436 37.784374 394.4875 36.253124L394.4875 37.55ZM394.47186 32.284374Q394.47186 34.14375 394.97186 34.9875Q395.8156 36.33125 397.22186 36.33125Q398.3781 36.33125 399.20624 35.33125Q400.05 34.33125 400.05 32.346874Q400.05 30.315624 399.2375 29.3625Q398.4406 28.39375 397.3 28.39375Q396.14374 28.39375 395.3 29.39375Q394.47186 30.39375 394.47186 32.284374ZM403.8781 25.253124L403.8781 23.2375L405.64374 23.2375L405.64374 25.253124L403.8781 25.253124ZM403.8781 37.55L403.8781 27.175L405.64374 27.175L405.64374 37.55L403.8781 37.55ZM407.8625 37.55L407.8625 27.175L409.45624 27.175L409.45624 28.659374Q410.59686 26.940624 412.7531 26.940624Q413.6906 26.940624 414.47186 27.284374Q415.26874 27.6125 415.65936 28.159374Q416.05 28.70625 416.20624 29.45625Q416.3 29.95625 416.3 31.175L416.3 37.55L414.53436 37.55L414.53436 31.2375Q414.53436 30.159374 414.33124 29.628124Q414.1281 29.096874 413.59686 28.784374Q413.08124 28.471874 412.3781 28.471874Q411.2531 28.471874 410.4406 29.190624Q409.6281 29.89375 409.6281 31.878124L409.6281 37.55L407.8625 37.55ZM419.01874 41.753124L417.76874 41.753124Q420.675 37.065624 420.675 32.378124Q420.675 30.534374 420.26874 28.7375Q419.925 27.26875 419.33124 25.925Q418.95624 25.034374 417.76874 22.9875L419.01874 22.9875Q420.8625 25.440624 421.7375 27.909374Q422.4875 30.034374 422.4875 32.3625Q422.4875 35.003124 421.47186 37.471874Q420.47186 39.925 419.01874 41.753124Z" fill-rule="nonzero"/></svg>