<svg version="1.1" viewBox="0.0 0.0 898.0 556.0" fill="none" stroke="none" stroke-linecap="square" stroke-miterlimit="10" width="898" height="556" xmlns:xlink="http://www.w3.org/1999/xlink" xmlns="http://www.w3.org/2000/svg"><path fill="#ffffff" d="M0 0L898.0 0L898.0 556.0L0 556.0L0 0Z" fill-rule="nonzero"/><path fill="#ea4335" d="M447.19748 528.19293C321.11682 527.2002 219.57207 424.44897 220.06844 298.3654C220.56482 172.28181 322.91544 70.333336 449.0 70.333336L449.0 299.26666Z" fill-rule="nonzero"/><path fill="#4285f4" d="M449.0 70.333336C531.0047 70.333336 606.74603 114.19522 647.5618 185.32074C688.3776 256.44626 688.0331 343.9705 646.6585 414.77246C605.28394 485.5744 529.19965 528.83856 447.19748 528.19293L449.0 299.26666Z" fill-rule="nonzero"/><path stroke="#000000" stroke-width="1.0" stroke-linejoin="round" stroke-linecap="round" d="M449.0 299.26666L449.0 70.333336C531.0047 70.333336 606.74603 114.19522 647.5618 185.32074C688.3776 256.44626 688.0331 343.9705 646.6585 414.77246C605.28394 485.5744 529.19965 528.83856 447.19748 528.19293" fill-rule="nonzero"/><path stroke="#000000" stroke-width="1.0" stroke-linejoin="round" stroke-linecap="round" d="M449.0 299.26666L447.19748 528.19293C321.11682 527.2002 219.57207 424.44897 220.06844 298.3654C220.56482 172.28181 322.91544 70.333336 449.0 70.333336" fill-rule="nonzero"/><path fill="#1a1a1a" d="M28.721874 293.91046L28.721874 285.3167L31.971874 285.3167Q32.815624 285.3167 33.26875 285.39484Q33.909374 285.5042 34.33125 285.8011Q34.76875 286.09796 35.01875 286.6292Q35.284374 287.16046 35.284374 287.8011Q35.284374 288.89484 34.58125 289.66046Q33.89375 290.41046 32.065624 290.41046L29.8625 290.41046L29.8625 293.91046L28.721874 293.91046ZM29.8625 289.41046L32.08125 289.41046Q33.190624 289.41046 33.64375 289.0042Q34.1125 288.58234 34.1125 287.83234Q34.1125 287.3011 33.83125 286.9261Q33.565624 286.53546 33.128124 286.41046Q32.83125 286.33234 32.065624 286.33234L29.8625 286.33234L29.8625 289.41046ZM36.58125 293.91046L36.58125 287.6917L37.534374 287.6917L37.534374 288.6292Q37.89375 287.97296 38.190624 287.76984Q38.503124 287.5511 38.878124 287.5511Q39.409374 287.5511 39.95625 287.8792L39.596874 288.8636Q39.20625 288.6292 38.83125 288.6292Q38.471874 288.6292 38.190624 288.84796Q37.925 289.0511 37.815624 289.4261Q37.628124 289.9886 37.628124 290.64484L37.628124 293.91046L36.58125 293.91046ZM40.20625 290.8011Q40.20625 289.0667 41.159374 288.2386Q41.95625 287.5511 43.1125 287.5511Q44.39375 287.5511 45.20625 288.39484Q46.034374 289.22296 46.034374 290.70734Q46.034374 291.91046 45.675 292.59796Q45.315624 293.28546 44.6125 293.6761Q43.925 294.0511 43.1125 294.0511Q41.815624 294.0511 41.003124 293.22296Q40.20625 292.3792 40.20625 290.8011ZM41.284374 290.8011Q41.284374 291.9886 41.8 292.58234Q42.33125 293.1761 43.1125 293.1761Q43.909374 293.1761 44.425 292.58234Q44.940624 291.9886 44.940624 290.76984Q44.940624 289.6136 44.409374 289.01984Q43.89375 288.4261 43.1125 288.4261Q42.33125 288.4261 41.8 289.01984Q41.284374 289.59796 41.284374 290.8011ZM51.659374 291.6292L52.690624 291.76984Q52.51875 292.83234 51.815624 293.4417Q51.1125 294.0511 50.096874 294.0511Q48.815624 294.0511 48.034374 293.22296Q47.26875 292.3792 47.26875 290.8167Q47.26875 289.8167 47.596874 289.0667Q47.940624 288.3011 48.6125 287.9261Q49.3 287.5511 50.1125 287.5511Q51.1125 287.5511 51.753124 288.0667Q52.409374 288.5667 52.596874 289.51984L51.565624 289.6761Q51.425 289.0511 51.05 288.7386Q50.675 288.41046 50.14375 288.41046Q49.346874 288.41046 48.846874 288.9886Q48.346874 289.5511 48.346874 290.78546Q48.346874 292.0511 48.83125 292.6136Q49.315624 293.1761 50.08125 293.1761Q50.70625 293.1761 51.1125 292.8011Q51.534374 292.4261 51.659374 291.6292ZM57.846874 291.91046L58.940624 292.03546Q58.690624 292.9886 57.9875 293.51984Q57.284374 294.0511 56.20625 294.0511Q54.846874 294.0511 54.034374 293.20734Q53.2375 292.3636 53.2375 290.84796Q53.2375 289.28546 54.05 288.4261Q54.8625 287.5511 56.14375 287.5511Q57.39375 287.5511 58.175 288.39484Q58.971874 289.2386 58.971874 290.78546Q58.971874 290.8792 58.971874 291.0667L54.33125 291.0667Q54.39375 292.09796 54.909374 292.64484Q55.425 293.1761 56.20625 293.1761Q56.784374 293.1761 57.190624 292.8792Q57.6125 292.5667 57.846874 291.91046ZM54.39375 290.20734L57.8625 290.20734Q57.8 289.41046 57.471874 289.01984Q56.95625 288.41046 56.159374 288.41046Q55.425 288.41046 54.925 288.89484Q54.440624 289.3792 54.39375 290.20734ZM60.175 292.0511L61.20625 291.89484Q61.3 292.51984 61.690624 292.84796Q62.096874 293.1761 62.83125 293.1761Q63.55 293.1761 63.89375 292.89484Q64.25313 292.59796 64.25313 292.1917Q64.25313 291.83234 63.940624 291.6292Q63.721874 291.4886 62.8625 291.26984Q61.70625 290.97296 61.253124 290.76984Q60.815624 290.5511 60.58125 290.1761Q60.346874 289.8011 60.346874 289.33234Q60.346874 288.9261 60.534374 288.5667Q60.721874 288.20734 61.05 287.97296Q61.3 287.8011 61.721874 287.6761Q62.14375 287.5511 62.64375 287.5511Q63.3625 287.5511 63.909374 287.76984Q64.47188 287.97296 64.7375 288.33234Q65.00313 288.6917 65.09688 289.28546L64.06563 289.4261Q64.00313 288.95734 63.659374 288.6917Q63.33125 288.41046 62.70625 288.41046Q61.9875 288.41046 61.675 288.66046Q61.3625 288.89484 61.3625 289.22296Q61.3625 289.4261 61.4875 289.58234Q61.628124 289.7542 61.89375 289.8636Q62.05 289.9261 62.83125 290.1292Q63.95625 290.4417 64.39375 290.6292Q64.83125 290.8167 65.08125 291.1761Q65.33125 291.53546 65.33125 292.08234Q65.33125 292.6136 65.01875 293.08234Q64.72188 293.53546 64.14375 293.8011Q63.565624 294.0511 62.83125 294.0511Q61.6125 294.0511 60.971874 293.5511Q60.346874 293.03546 60.175 292.0511ZM67.175 292.0511L68.20625 291.89484Q68.3 292.51984 68.69063 292.84796Q69.09688 293.1761 69.83125 293.1761Q70.55 293.1761 70.89375 292.89484Q71.25313 292.59796 71.25313 292.1917Q71.25313 291.83234 70.94063 291.6292Q70.72188 291.4886 69.8625 291.26984Q68.70625 290.97296 68.25313 290.76984Q67.81563 290.5511 67.58125 290.1761Q67.34688 289.8011 67.34688 289.33234Q67.34688 288.9261 67.53438 288.5667Q67.72188 288.20734 68.05 287.97296Q68.3 287.8011 68.72188 287.6761Q69.14375 287.5511 69.64375 287.5511Q70.3625 287.5511 70.90938 287.76984Q71.47188 287.97296 71.7375 288.33234Q72.00313 288.6917 72.09688 289.28546L71.06563 289.4261Q71.00313 288.95734 70.65938 288.6917Q70.33125 288.41046 69.70625 288.41046Q68.9875 288.41046 68.675 288.66046Q68.3625 288.89484 68.3625 289.22296Q68.3625 289.4261 68.4875 289.58234Q68.62813 289.7542 68.89375 289.8636Q69.05 289.9261 69.83125 290.1292Q70.95625 290.4417 71.39375 290.6292Q71.83125 290.8167 72.08125 291.1761Q72.33125 291.53546 72.33125 292.08234Q72.33125 292.6136 72.01875 293.08234Q71.72188 293.53546 71.14375 293.8011Q70.56563 294.0511 69.83125 294.0511Q68.6125 294.0511 67.97188 293.5511Q67.34688 293.03546 67.175 292.0511ZM81.26875 293.91046L80.22188 293.91046L80.22188 287.1917Q79.83125 287.5511 79.20625 287.9261Q78.59688 288.28546 78.1125 288.45734L78.1125 287.4417Q78.9875 287.01984 79.64375 286.4417Q80.31563 285.84796 80.59688 285.28546L81.26875 285.28546L81.26875 293.91046Z" fill-rule="nonzero"/><path fill="#9e9e9e" d="M31.675 310.91046L31.675 308.84796L27.95625 308.84796L27.95625 307.8792L31.878124 302.3167L32.7375 302.3167L32.7375 307.8792L33.89375 307.8792L33.89375 308.84796L32.7375 308.84796L32.7375 310.91046L31.675 310.91046ZM31.675 307.8792L31.675 304.01984L28.9875 307.8792L31.675 307.8792ZM35.45625 308.9261L36.471874 308.83234Q36.596874 309.5511 36.95625 309.8792Q37.33125 310.1917 37.89375 310.1917Q38.378124 310.1917 38.7375 309.97296Q39.1125 309.7386 39.346874 309.3792Q39.58125 309.0042 39.7375 308.3792Q39.89375 307.7386 39.89375 307.08234Q39.89375 307.0042 39.89375 306.8636Q39.58125 307.3636 39.034374 307.6917Q38.4875 308.0042 37.846874 308.0042Q36.76875 308.0042 36.034374 307.2386Q35.3 306.45734 35.3 305.1917Q35.3 303.8792 36.065624 303.08234Q36.846874 302.28546 38.003124 302.28546Q38.83125 302.28546 39.51875 302.7386Q40.221874 303.1917 40.58125 304.03546Q40.940624 304.8636 40.940624 306.4417Q40.940624 308.08234 40.58125 309.0667Q40.2375 310.03546 39.51875 310.5511Q38.815624 311.0511 37.878124 311.0511Q36.8625 311.0511 36.221874 310.5042Q35.58125 309.9417 35.45625 308.9261ZM39.76875 305.1292Q39.76875 304.22296 39.284374 303.6917Q38.815624 303.16046 38.128124 303.16046Q37.425 303.16046 36.89375 303.7386Q36.378124 304.3011 36.378124 305.22296Q36.378124 306.03546 36.878124 306.5511Q37.378124 307.0667 38.096874 307.0667Q38.83125 307.0667 39.3 306.5511Q39.76875 306.03546 39.76875 305.1292ZM42.89375 310.91046L42.89375 309.70734L44.096874 309.70734L44.096874 310.91046L42.89375 310.91046ZM45.45625 308.9261L46.471874 308.83234Q46.596874 309.5511 46.95625 309.8792Q47.33125 310.1917 47.89375 310.1917Q48.378124 310.1917 48.7375 309.97296Q49.1125 309.7386 49.346874 309.3792Q49.58125 309.0042 49.7375 308.3792Q49.89375 307.7386 49.89375 307.08234Q49.89375 307.0042 49.89375 306.8636Q49.58125 307.3636 49.034374 307.6917Q48.4875 308.0042 47.846874 308.0042Q46.76875 308.0042 46.034374 307.2386Q45.3 306.45734 45.3 305.1917Q45.3 303.8792 46.065624 303.08234Q46.846874 302.28546 48.003124 302.28546Q48.83125 302.28546 49.51875 302.7386Q50.221874 303.1917 50.58125 304.03546Q50.940624 304.8636 50.940624 306.4417Q50.940624 308.08234 50.58125 309.0667Q50.2375 310.03546 49.51875 310.5511Q48.815624 311.0511 47.878124 311.0511Q46.8625 311.0511 46.221874 310.5042Q45.58125 309.9417 45.45625 308.9261ZM49.76875 305.1292Q49.76875 304.22296 49.284374 303.6917Q48.815624 303.16046 48.128124 303.16046Q47.425 303.16046 46.89375 303.7386Q46.378124 304.3011 46.378124 305.22296Q46.378124 306.03546 46.878124 306.5511Q47.378124 307.0667 48.096874 307.0667Q48.83125 307.0667 49.3 306.5511Q49.76875 306.03546 49.76875 305.1292ZM52.503124 304.3792Q52.503124 303.45734 52.95625 302.8167Q53.425 302.1761 54.3 302.1761Q55.1125 302.1761 55.64375 302.7542Q56.175 303.33234 56.175 304.4417Q56.175 305.53546 55.628124 306.1292Q55.096874 306.70734 54.315624 306.70734Q53.534374 306.70734 53.01875 306.1292Q52.503124 305.5511 52.503124 304.3792ZM54.33125 302.89484Q53.940624 302.89484 53.675 303.2386Q53.425 303.58234 53.425 304.4886Q53.425 305.3167 53.675 305.66046Q53.940624 305.9886 54.33125 305.9886Q54.7375 305.9886 54.9875 305.64484Q55.253124 305.3011 55.253124 304.41046Q55.253124 303.5667 54.9875 303.2386Q54.721874 302.89484 54.33125 302.89484ZM54.33125 311.22296L59.034374 302.1761L59.89375 302.1761L55.20625 311.22296L54.33125 311.22296ZM58.05 308.89484Q58.05 307.97296 58.503124 307.33234Q58.971874 306.6917 59.8625 306.6917Q60.675 306.6917 61.20625 307.26984Q61.7375 307.83234 61.7375 308.95734Q61.7375 310.0511 61.190624 310.64484Q60.659374 311.22296 59.8625 311.22296Q59.096874 311.22296 58.565624 310.64484Q58.05 310.0667 58.05 308.89484ZM59.89375 307.41046Q59.4875 307.41046 59.221874 307.7542Q58.971874 308.09796 58.971874 309.0042Q58.971874 309.8167 59.2375 310.16046Q59.503124 310.5042 59.89375 310.5042Q60.284374 310.5042 60.55 310.16046Q60.815624 309.8167 60.815624 308.91046Q60.815624 308.08234 60.55 307.7542Q60.284374 307.41046 59.89375 307.41046Z" fill-rule="nonzero"/><path stroke="#757575" stroke-width="1.0" stroke-linecap="butt" d="M27.8 298.41046L214.06667 298.41046L231.51501 298.41046" fill-rule="nonzero"/><path fill="#9e9e9e" d="M233.51501 298.41046C233.51501 297.30588 232.61958 296.41046 231.51501 296.41046C230.41045 296.41046 229.51501 297.30588 229.51501 298.41046C229.51501 299.515 230.41045 300.41046 231.51501 300.41046C232.61958 300.41046 233.51501 299.515 233.51501 298.41046" fill-rule="nonzero"/><path fill="#1a1a1a" d="M815.1219 295.62286L815.1219 287.0291L818.3719 287.0291Q819.21564 287.0291 819.66876 287.10724Q820.3094 287.2166 820.73126 287.5135Q821.16876 287.81036 821.41876 288.3416Q821.6844 288.87286 821.6844 289.5135Q821.6844 290.60724 820.98126 291.37286Q820.29376 292.12286 818.46564 292.12286L816.2625 292.12286L816.2625 295.62286L815.1219 295.62286ZM816.2625 291.12286L818.48126 291.12286Q819.59064 291.12286 820.04376 290.7166Q820.5125 290.29474 820.5125 289.54474Q820.5125 289.0135 820.23126 288.6385Q819.96564 288.24786 819.52814 288.12286Q819.23126 288.04474 818.46564 288.04474L816.2625 288.04474L816.2625 291.12286ZM822.98126 295.62286L822.98126 289.4041L823.9344 289.4041L823.9344 290.3416Q824.29376 289.68536 824.59064 289.48224Q824.90314 289.2635 825.27814 289.2635Q825.8094 289.2635 826.35626 289.5916L825.9969 290.576Q825.60626 290.3416 825.23126 290.3416Q824.8719 290.3416 824.59064 290.56036Q824.325 290.7635 824.21564 291.1385Q824.02814 291.701 824.02814 292.35724L824.02814 295.62286L822.98126 295.62286ZM826.60626 292.5135Q826.60626 290.7791 827.5594 289.951Q828.35626 289.2635 829.5125 289.2635Q830.79376 289.2635 831.60626 290.10724Q832.4344 290.93536 832.4344 292.41974Q832.4344 293.62286 832.075 294.31036Q831.71564 294.99786 831.0125 295.3885Q830.325 295.7635 829.5125 295.7635Q828.21564 295.7635 827.40314 294.93536Q826.60626 294.0916 826.60626 292.5135ZM827.6844 292.5135Q827.6844 293.701 828.2 294.29474Q828.73126 294.8885 829.5125 294.8885Q830.3094 294.8885 830.825 294.29474Q831.34064 293.701 831.34064 292.48224Q831.34064 291.326 830.8094 290.73224Q830.29376 290.1385 829.5125 290.1385Q828.73126 290.1385 828.2 290.73224Q827.6844 291.31036 827.6844 292.5135ZM838.0594 293.3416L839.09064 293.48224Q838.91876 294.54474 838.21564 295.1541Q837.5125 295.7635 836.4969 295.7635Q835.21564 295.7635 834.4344 294.93536Q833.66876 294.0916 833.66876 292.5291Q833.66876 291.5291 833.9969 290.7791Q834.34064 290.0135 835.0125 289.6385Q835.7 289.2635 836.5125 289.2635Q837.5125 289.2635 838.15314 289.7791Q838.8094 290.2791 838.9969 291.23224L837.96564 291.3885Q837.825 290.7635 837.45 290.451Q837.075 290.12286 836.54376 290.12286Q835.7469 290.12286 835.2469 290.701Q834.7469 291.2635 834.7469 292.49786Q834.7469 293.7635 835.23126 294.326Q835.71564 294.8885 836.48126 294.8885Q837.10626 294.8885 837.5125 294.5135Q837.9344 294.1385 838.0594 293.3416ZM844.2469 293.62286L845.34064 293.74786Q845.09064 294.701 844.3875 295.23224Q843.6844 295.7635 842.60626 295.7635Q841.2469 295.7635 840.4344 294.91974Q839.6375 294.076 839.6375 292.56036Q839.6375 290.99786 840.45 290.1385Q841.2625 289.2635 842.54376 289.2635Q843.79376 289.2635 844.575 290.10724Q845.3719 290.951 845.3719 292.49786Q845.3719 292.5916 845.3719 292.7791L840.73126 292.7791Q840.79376 293.81036 841.3094 294.35724Q841.825 294.8885 842.60626 294.8885Q843.1844 294.8885 843.59064 294.5916Q844.0125 294.2791 844.2469 293.62286ZM840.79376 291.91974L844.2625 291.91974Q844.2 291.12286 843.8719 290.73224Q843.35626 290.12286 842.5594 290.12286Q841.825 290.12286 841.325 290.60724Q840.84064 291.0916 840.79376 291.91974ZM846.575 293.7635L847.60626 293.60724Q847.7 294.23224 848.09064 294.56036Q848.4969 294.8885 849.23126 294.8885Q849.95 294.8885 850.29376 294.60724Q850.65314 294.31036 850.65314 293.9041Q850.65314 293.54474 850.34064 293.3416Q850.1219 293.201 849.2625 292.98224Q848.10626 292.68536 847.65314 292.48224Q847.21564 292.2635 846.98126 291.8885Q846.7469 291.5135 846.7469 291.04474Q846.7469 290.6385 846.9344 290.2791Q847.1219 289.91974 847.45 289.68536Q847.7 289.5135 848.1219 289.3885Q848.54376 289.2635 849.04376 289.2635Q849.7625 289.2635 850.3094 289.48224Q850.8719 289.68536 851.1375 290.04474Q851.40314 290.4041 851.4969 290.99786L850.46564 291.1385Q850.40314 290.66974 850.0594 290.4041Q849.73126 290.12286 849.10626 290.12286Q848.3875 290.12286 848.075 290.37286Q847.7625 290.60724 847.7625 290.93536Q847.7625 291.1385 847.8875 291.29474Q848.02814 291.4666 848.29376 291.576Q848.45 291.6385 849.23126 291.8416Q850.35626 292.1541 850.79376 292.3416Q851.23126 292.5291 851.48126 292.8885Q851.73126 293.24786 851.73126 293.79474Q851.73126 294.326 851.41876 294.79474Q851.1219 295.24786 850.54376 295.5135Q849.96564 295.7635 849.23126 295.7635Q848.0125 295.7635 847.3719 295.2635Q846.7469 294.74786 846.575 293.7635ZM853.575 293.7635L854.60626 293.60724Q854.7 294.23224 855.09064 294.56036Q855.4969 294.8885 856.23126 294.8885Q856.95 294.8885 857.29376 294.60724Q857.65314 294.31036 857.65314 293.9041Q857.65314 293.54474 857.34064 293.3416Q857.1219 293.201 856.2625 292.98224Q855.10626 292.68536 854.65314 292.48224Q854.21564 292.2635 853.98126 291.8885Q853.7469 291.5135 853.7469 291.04474Q853.7469 290.6385 853.9344 290.2791Q854.1219 289.91974 854.45 289.68536Q854.7 289.5135 855.1219 289.3885Q855.54376 289.2635 856.04376 289.2635Q856.7625 289.2635 857.3094 289.48224Q857.8719 289.68536 858.1375 290.04474Q858.40314 290.4041 858.4969 290.99786L857.46564 291.1385Q857.40314 290.66974 857.0594 290.4041Q856.73126 290.12286 856.10626 290.12286Q855.3875 290.12286 855.075 290.37286Q854.7625 290.60724 854.7625 290.93536Q854.7625 291.1385 854.8875 291.29474Q855.02814 291.4666 855.29376 291.576Q855.45 291.6385 856.23126 291.8416Q857.35626 292.1541 857.79376 292.3416Q858.23126 292.5291 858.48126 292.8885Q858.73126 293.24786 858.73126 293.79474Q858.73126 294.326 858.41876 294.79474Q858.1219 295.24786 857.54376 295.5135Q856.96564 295.7635 856.23126 295.7635Q855.0125 295.7635 854.3719 295.2635Q853.7469 294.74786 853.575 293.7635ZM863.7 291.3885Q863.7 289.85724 864.0125 288.93536Q864.325 287.99786 864.9344 287.49786Q865.5594 286.99786 866.4969 286.99786Q867.1844 286.99786 867.7 287.2791Q868.23126 287.56036 868.575 288.0916Q868.91876 288.60724 869.10626 289.35724Q869.29376 290.10724 869.29376 291.3885Q869.29376 292.9041 868.98126 293.826Q868.6844 294.74786 868.0594 295.2635Q867.45 295.7635 866.4969 295.7635Q865.2625 295.7635 864.54376 294.87286Q863.7 293.81036 863.7 291.3885ZM864.77814 291.3885Q864.77814 293.49786 865.27814 294.201Q865.77814 294.9041 866.4969 294.9041Q867.23126 294.9041 867.71564 294.201Q868.21564 293.49786 868.21564 291.3885Q868.21564 289.2635 867.71564 288.576Q867.23126 287.87286 866.48126 287.87286Q865.7625 287.87286 865.325 288.48224Q864.77814 289.2635 864.77814 291.3885Z" fill-rule="nonzero"/><path fill="#9e9e9e" d="M835.7 310.37286L836.8094 310.2791Q836.9344 311.0916 837.3719 311.49786Q837.825 311.9041 838.46564 311.9041Q839.21564 311.9041 839.7469 311.326Q840.27814 310.74786 840.27814 309.81036Q840.27814 308.9041 839.7625 308.3885Q839.2625 307.85724 838.4344 307.85724Q837.9344 307.85724 837.5125 308.0916Q837.10626 308.326 836.8719 308.68536L835.8875 308.56036L836.71564 304.1541L840.9969 304.1541L840.9969 305.1541L837.5594 305.1541L837.10626 307.4666Q837.8719 306.91974 838.71564 306.91974Q839.84064 306.91974 840.60626 307.701Q841.3875 308.48224 841.3875 309.7166Q841.3875 310.87286 840.71564 311.73224Q839.8875 312.7635 838.46564 312.7635Q837.29376 312.7635 836.54376 312.10724Q835.8094 311.451 835.7 310.37286ZM842.7 308.3885Q842.7 306.85724 843.0125 305.93536Q843.325 304.99786 843.9344 304.49786Q844.5594 303.99786 845.4969 303.99786Q846.1844 303.99786 846.7 304.2791Q847.23126 304.56036 847.575 305.0916Q847.91876 305.60724 848.10626 306.35724Q848.29376 307.10724 848.29376 308.3885Q848.29376 309.9041 847.98126 310.826Q847.6844 311.74786 847.0594 312.2635Q846.45 312.7635 845.4969 312.7635Q844.2625 312.7635 843.54376 311.87286Q842.7 310.81036 842.7 308.3885ZM843.77814 308.3885Q843.77814 310.49786 844.27814 311.201Q844.77814 311.9041 845.4969 311.9041Q846.23126 311.9041 846.71564 311.201Q847.21564 310.49786 847.21564 308.3885Q847.21564 306.2635 846.71564 305.576Q846.23126 304.87286 845.48126 304.87286Q844.7625 304.87286 844.325 305.48224Q843.77814 306.2635 843.77814 308.3885ZM850.29376 312.62286L850.29376 311.41974L851.4969 311.41974L851.4969 312.62286L850.29376 312.62286ZM856.66876 312.62286L855.6219 312.62286L855.6219 305.9041Q855.23126 306.2635 854.60626 306.6385Q853.9969 306.99786 853.5125 307.16974L853.5125 306.1541Q854.3875 305.73224 855.04376 305.1541Q855.71564 304.56036 855.9969 303.99786L856.66876 303.99786L856.66876 312.62286ZM859.90314 306.0916Q859.90314 305.16974 860.35626 304.5291Q860.825 303.8885 861.7 303.8885Q862.5125 303.8885 863.04376 304.4666Q863.575 305.04474 863.575 306.1541Q863.575 307.24786 863.02814 307.8416Q862.4969 308.41974 861.71564 308.41974Q860.9344 308.41974 860.41876 307.8416Q859.90314 307.2635 859.90314 306.0916ZM861.73126 304.60724Q861.34064 304.60724 861.075 304.951Q860.825 305.29474 860.825 306.201Q860.825 307.0291 861.075 307.37286Q861.34064 307.701 861.73126 307.701Q862.1375 307.701 862.3875 307.35724Q862.65314 307.0135 862.65314 306.12286Q862.65314 305.2791 862.3875 304.951Q862.1219 304.60724 861.73126 304.60724ZM861.73126 312.93536L866.4344 303.8885L867.29376 303.8885L862.60626 312.93536L861.73126 312.93536ZM865.45 310.60724Q865.45 309.68536 865.90314 309.04474Q866.3719 308.4041 867.2625 308.4041Q868.075 308.4041 868.60626 308.98224Q869.1375 309.54474 869.1375 310.66974Q869.1375 311.7635 868.59064 312.35724Q868.0594 312.93536 867.2625 312.93536Q866.4969 312.93536 865.96564 312.35724Q865.45 311.7791 865.45 310.60724ZM867.29376 309.12286Q866.8875 309.12286 866.6219 309.4666Q866.3719 309.81036 866.3719 310.7166Q866.3719 311.5291 866.6375 311.87286Q866.90314 312.2166 867.29376 312.2166Q867.6844 312.2166 867.95 311.87286Q868.21564 311.5291 868.21564 310.62286Q868.21564 309.79474 867.95 309.4666Q867.6844 309.12286 867.29376 309.12286Z" fill-rule="nonzero"/><path stroke="#757575" stroke-width="1.0" stroke-linecap="butt" d="M870.2 300.12286L683.93335 300.12286L666.485 300.12286" fill-rule="nonzero"/><path fill="#9e9e9e" d="M668.485 300.12286C668.485 299.0183 667.58954 298.12286 666.485 298.12286C665.38043 298.12286 664.485 299.0183 664.485 300.12286C664.485 301.22745 665.38043 302.12286 666.485 302.12286C667.58954 302.12286 668.485 301.22745 668.485 300.12286" fill-rule="nonzero"/><path fill="#757575" d="M28.76875 39.83125Q28.76875 36.26875 30.675 34.253124Q32.596874 32.221874 35.628124 32.221874Q37.6125 32.221874 39.190624 33.175Q40.784374 34.128124 41.6125 35.83125Q42.45625 37.51875 42.45625 39.659374Q42.45625 41.83125 41.58125 43.55Q40.70625 45.26875 39.08125 46.159374Q37.471874 47.05 35.6125 47.05Q33.596874 47.05 32.003124 46.08125Q30.409374 45.096874 29.58125 43.409374Q28.76875 41.70625 28.76875 39.83125ZM30.721874 39.8625Q30.721874 42.440624 32.1125 43.940624Q33.503124 45.425 35.596874 45.425Q37.7375 45.425 39.1125 43.925Q40.503124 42.409374 40.503124 39.64375Q40.503124 37.909374 39.909374 36.6125Q39.33125 35.3 38.190624 34.58125Q37.05 33.8625 35.628124 33.8625Q33.628124 33.8625 32.175 35.253124Q30.721874 36.628124 30.721874 39.8625ZM46.7375 46.8L45.1125 46.8L45.1125 32.4875L46.8625 32.4875L46.8625 37.596874Q47.9875 36.190624 49.70625 36.190624Q50.659374 36.190624 51.51875 36.58125Q52.378124 36.971874 52.925 37.675Q53.471874 38.3625 53.784374 39.346874Q54.096874 40.33125 54.096874 41.45625Q54.096874 44.128124 52.784374 45.58125Q51.471874 47.034374 49.628124 47.034374Q47.784374 47.034374 46.7375 45.503124L46.7375 46.8ZM46.721874 41.534374Q46.721874 43.39375 47.221874 44.2375Q48.065624 45.58125 49.471874 45.58125Q50.628124 45.58125 51.45625 44.58125Q52.3 43.58125 52.3 41.596874Q52.3 39.565624 51.4875 38.6125Q50.690624 37.64375 49.55 37.64375Q48.39375 37.64375 47.55 38.64375Q46.721874 39.64375 46.721874 41.534374ZM55.409374 43.70625L57.159374 43.425Q57.3 44.471874 57.971874 45.034374Q58.64375 45.58125 59.846874 45.58125Q61.05 45.58125 61.628124 45.096874Q62.221874 44.596874 62.221874 43.940624Q62.221874 43.346874 61.70625 43.003124Q61.346874 42.76875 59.909374 42.409374Q57.971874 41.909374 57.221874 41.565624Q56.4875 41.20625 56.096874 40.58125Q55.70625 39.940624 55.70625 39.175Q55.70625 38.4875 56.01875 37.89375Q56.346874 37.3 56.89375 36.909374Q57.3 36.6125 58.003124 36.409374Q58.721874 36.190624 59.534374 36.190624Q60.753124 36.190624 61.675 36.55Q62.596874 36.89375 63.034374 37.503124Q63.471874 38.096874 63.64375 39.096874L61.925 39.33125Q61.8 38.534374 61.2375 38.096874Q60.675 37.64375 59.659374 37.64375Q58.440624 37.64375 57.925 38.05Q57.409374 38.440624 57.409374 38.971874Q57.409374 39.315624 57.628124 39.596874Q57.83125 39.878124 58.3 40.065624Q58.565624 40.159374 59.846874 40.503124Q61.721874 41.003124 62.45625 41.33125Q63.190624 41.64375 63.6125 42.253124Q64.03438 42.846874 64.03438 43.753124Q64.03438 44.628124 63.51875 45.409374Q63.003124 46.190624 62.034374 46.6125Q61.065624 47.034374 59.846874 47.034374Q57.83125 47.034374 56.76875 46.190624Q55.70625 45.346874 55.409374 43.70625ZM73.22188 43.45625L75.03438 43.690624Q74.6125 45.26875 73.44063 46.159374Q72.28438 47.034374 70.47188 47.034374Q68.20625 47.034374 66.8625 45.64375Q65.53438 44.2375 65.53438 41.70625Q65.53438 39.08125 66.87813 37.64375Q68.22188 36.190624 70.37813 36.190624Q72.45625 36.190624 73.76875 37.6125Q75.09688 39.01875 75.09688 41.596874Q75.09688 41.753124 75.08125 42.065624L67.34688 42.065624Q67.44063 43.76875 68.31563 44.675Q69.19063 45.58125 70.4875 45.58125Q71.45625 45.58125 72.12813 45.08125Q72.81563 44.565624 73.22188 43.45625ZM67.44063 40.6125L73.2375 40.6125Q73.12813 39.315624 72.58125 38.659374Q71.7375 37.64375 70.39375 37.64375Q69.19063 37.64375 68.3625 38.45625Q67.53438 39.253124 67.44063 40.6125ZM77.09688 46.8L77.09688 36.425L78.675 36.425L78.675 38.003124Q79.28438 36.89375 79.8 36.55Q80.31563 36.190624 80.925 36.190624Q81.81563 36.190624 82.7375 36.753124L82.12813 38.39375Q81.4875 38.003124 80.84688 38.003124Q80.26875 38.003124 79.8 38.3625Q79.34688 38.70625 79.14375 39.315624Q78.8625 40.253124 78.8625 41.3625L78.8625 46.8L77.09688 46.8ZM87.00313 46.8L83.05 36.425L84.90938 36.425L87.14375 42.64375Q87.50313 43.64375 87.8 44.721874Q88.03438 43.909374 88.45625 42.753124L90.75313 36.425L92.56563 36.425L88.64375 46.8L87.00313 46.8ZM100.22188 43.45625L102.03438 43.690624Q101.6125 45.26875 100.44063 46.159374Q99.28438 47.034374 97.47188 47.034374Q95.20625 47.034374 93.8625 45.64375Q92.53438 44.2375 92.53438 41.70625Q92.53438 39.08125 93.87813 37.64375Q95.22188 36.190624 97.37813 36.190624Q99.45625 36.190624 100.76875 37.6125Q102.09688 39.01875 102.09688 41.596874Q102.09688 41.753124 102.08125 42.065624L94.34688 42.065624Q94.44063 43.76875 95.31563 44.675Q96.19063 45.58125 97.4875 45.58125Q98.45625 45.58125 99.12813 45.08125Q99.81563 44.565624 100.22188 43.45625ZM94.44063 40.6125L100.2375 40.6125Q100.12813 39.315624 99.58125 38.659374Q98.7375 37.64375 97.39375 37.64375Q96.19063 37.64375 95.3625 38.45625Q94.53438 39.253124 94.44063 40.6125ZM110.84688 46.8L110.84688 45.4875Q109.8625 47.034374 107.94063 47.034374Q106.70625 47.034374 105.65938 46.346874Q104.62813 45.659374 104.05 44.440624Q103.4875 43.221874 103.4875 41.628124Q103.4875 40.065624 104.00313 38.8Q104.51875 37.534374 105.55 36.8625Q106.59688 36.190624 107.8625 36.190624Q108.8 36.190624 109.53438 36.596874Q110.26875 36.9875 110.7375 37.6125L110.7375 32.4875L112.47188 32.4875L112.47188 46.8L110.84688 46.8ZM105.28438 41.628124Q105.28438 43.6125 106.12813 44.596874Q106.97188 45.58125 108.1125 45.58125Q109.26875 45.58125 110.06563 44.64375Q110.87813 43.70625 110.87813 41.76875Q110.87813 39.64375 110.05 38.64375Q109.2375 37.64375 108.03438 37.64375Q106.8625 37.64375 106.06563 38.6125Q105.28438 39.565624 105.28438 41.628124ZM120.70625 42.20625L122.4875 42.05Q122.6125 43.1125 123.06563 43.8Q123.53438 44.4875 124.50313 44.925Q125.4875 45.346874 126.72188 45.346874Q127.8 45.346874 128.62813 45.034374Q129.45625 44.70625 129.8625 44.14375Q130.26875 43.58125 130.26875 42.909374Q130.26875 42.2375 129.87813 41.7375Q129.4875 41.2375 128.59688 40.89375Q128.01875 40.659374 126.03438 40.190624Q124.06563 39.721874 123.28438 39.3Q122.25313 38.76875 121.75313 37.971874Q121.25313 37.175 121.25313 36.190624Q121.25313 35.096874 121.8625 34.159374Q122.47188 33.221874 123.65938 32.7375Q124.84688 32.2375 126.28438 32.2375Q127.87813 32.2375 129.09688 32.753124Q130.31563 33.26875 130.95625 34.26875Q131.6125 35.253124 131.65938 36.51875L129.84688 36.659374Q129.70625 35.3 128.8625 34.6125Q128.01875 33.909374 126.3625 33.909374Q124.64375 33.909374 123.84688 34.55Q123.06563 35.175 123.06563 36.05Q123.06563 36.83125 123.62813 37.33125Q124.175 37.83125 126.4875 38.346874Q128.8 38.8625 129.65938 39.253124Q130.90938 39.83125 131.50313 40.721874Q132.09688 41.596874 132.09688 42.753124Q132.09688 43.89375 131.44063 44.909374Q130.78438 45.925 129.55 46.4875Q128.33125 47.05 126.8 47.05Q124.8625 47.05 123.55 46.4875Q122.2375 45.909374 121.4875 44.76875Q120.7375 43.628124 120.70625 42.20625ZM140.89375 43.003124L142.6125 43.221874Q142.33125 45.01875 141.15938 46.034374Q140.00313 47.034374 138.3 47.034374Q136.175 47.034374 134.87813 45.64375Q133.58125 44.253124 133.58125 41.659374Q133.58125 39.971874 134.12813 38.721874Q134.69063 37.45625 135.83125 36.83125Q136.97188 36.190624 138.31563 36.190624Q140.00313 36.190624 141.06563 37.05Q142.14375 37.909374 142.45625 39.471874L140.7375 39.7375Q140.50313 38.690624 139.87813 38.175Q139.25313 37.64375 138.37813 37.64375Q137.05 37.64375 136.22188 38.596874Q135.39375 39.55 135.39375 41.596874Q135.39375 43.690624 136.19063 44.64375Q136.9875 45.58125 138.28438 45.58125Q139.31563 45.58125 140.00313 44.95625Q140.70625 44.315624 140.89375 43.003124ZM144.1125 46.8L144.1125 32.4875L145.87813 32.4875L145.87813 37.6125Q147.1125 36.190624 148.9875 36.190624Q150.12813 36.190624 150.97188 36.64375Q151.83125 37.096874 152.19063 37.909374Q152.56563 38.70625 152.56563 40.221874L152.56563 46.8L150.81563 46.8L150.81563 40.221874Q150.81563 38.909374 150.2375 38.315624Q149.65938 37.70625 148.62813 37.70625Q147.84688 37.70625 147.14375 38.1125Q146.45625 38.51875 146.15938 39.221874Q145.87813 39.909374 145.87813 41.128124L145.87813 46.8L144.1125 46.8ZM161.22188 43.45625L163.03438 43.690624Q162.6125 45.26875 161.44063 46.159374Q160.28438 47.034374 158.47188 47.034374Q156.20625 47.034374 154.8625 45.64375Q153.53438 44.2375 153.53438 41.70625Q153.53438 39.08125 154.87813 37.64375Q156.22188 36.190624 158.37813 36.190624Q160.45625 36.190624 161.76875 37.6125Q163.09688 39.01875 163.09688 41.596874Q163.09688 41.753124 163.08125 42.065624L155.34688 42.065624Q155.44063 43.76875 156.31563 44.675Q157.19063 45.58125 158.4875 45.58125Q159.45625 45.58125 160.12813 45.08125Q160.81563 44.565624 161.22188 43.45625ZM155.44063 40.6125L161.2375 40.6125Q161.12813 39.315624 160.58125 38.659374Q159.7375 37.64375 158.39375 37.64375Q157.19063 37.64375 156.3625 38.45625Q155.53438 39.253124 155.44063 40.6125ZM171.84688 46.8L171.84688 45.4875Q170.8625 47.034374 168.94063 47.034374Q167.70625 47.034374 166.65938 46.346874Q165.62813 45.659374 165.05 44.440624Q164.4875 43.221874 164.4875 41.628124Q164.4875 40.065624 165.00313 38.8Q165.51875 37.534374 166.55 36.8625Q167.59688 36.190624 168.8625 36.190624Q169.8 36.190624 170.53438 36.596874Q171.26875 36.9875 171.7375 37.6125L171.7375 32.4875L173.47188 32.4875L173.47188 46.8L171.84688 46.8ZM166.28438 41.628124Q166.28438 43.6125 167.12813 44.596874Q167.97188 45.58125 169.1125 45.58125Q170.26875 45.58125 171.06563 44.64375Q171.87813 43.70625 171.87813 41.76875Q171.87813 39.64375 171.05 38.64375Q170.2375 37.64375 169.03438 37.64375Q167.8625 37.64375 167.06563 38.6125Q166.28438 39.565624 166.28438 41.628124ZM182.90938 46.8L182.90938 45.26875Q181.70625 47.034374 179.62813 47.034374Q178.70625 47.034374 177.90938 46.690624Q177.1125 46.33125 176.72188 45.8Q176.34688 45.26875 176.19063 44.4875Q176.08125 43.971874 176.08125 42.846874L176.08125 36.425L177.83125 36.425L177.83125 42.175Q177.83125 43.55 177.94063 44.034374Q178.1125 44.721874 178.64375 45.128124Q179.19063 45.51875 179.97188 45.51875Q180.76875 45.51875 181.45625 45.1125Q182.15938 44.70625 182.44063 44.01875Q182.7375 43.315624 182.7375 41.9875L182.7375 36.425L184.4875 36.425L184.4875 46.8L182.90938 46.8ZM186.08125 46.8L186.08125 32.4875L187.83125 32.4875L187.83125 46.8L186.08125 46.8ZM197.22188 43.45625L199.03438 43.690624Q198.6125 45.26875 197.44063 46.159374Q196.28438 47.034374 194.47188 47.034374Q192.20625 47.034374 190.8625 45.64375Q189.53438 44.2375 189.53438 41.70625Q189.53438 39.08125 190.87813 37.64375Q192.22188 36.190624 194.37813 36.190624Q196.45625 36.190624 197.76875 37.6125Q199.09688 39.01875 199.09688 41.596874Q199.09688 41.753124 199.08125 42.065624L191.34688 42.065624Q191.44063 43.76875 192.31563 44.675Q193.19063 45.58125 194.4875 45.58125Q195.45625 45.58125 196.12813 45.08125Q196.81563 44.565624 197.22188 43.45625ZM191.44063 40.6125L197.2375 40.6125Q197.12813 39.315624 196.58125 38.659374Q195.7375 37.64375 194.39375 37.64375Q193.19063 37.64375 192.3625 38.45625Q191.53438 39.253124 191.44063 40.6125ZM205.76875 46.8L211.26875 32.4875L213.31563 32.4875L219.175 46.8L217.01875 46.8L215.34688 42.45625L209.3625 42.45625L207.78438 46.8L205.76875 46.8ZM209.90938 40.925L214.75313 40.925L213.26875 36.95625Q212.58125 35.14375 212.25313 33.9875Q211.97188 35.3625 211.47188 36.721874L209.90938 40.925ZM220.08125 46.8L220.08125 32.4875L221.83125 32.4875L221.83125 46.8L220.08125 46.8ZM224.08125 46.8L224.08125 32.4875L225.83125 32.4875L225.83125 46.8L224.08125 46.8ZM227.47188 41.6125Q227.47188 38.7375 229.06563 37.346874Q230.40938 36.190624 232.33125 36.190624Q234.47188 36.190624 235.81563 37.596874Q237.175 39.003124 237.175 41.471874Q237.175 43.471874 236.58125 44.628124Q235.9875 45.76875 234.83125 46.409374Q233.69063 47.034374 232.33125 47.034374Q230.14375 47.034374 228.8 45.64375Q227.47188 44.2375 227.47188 41.6125ZM229.26875 41.6125Q229.26875 43.6125 230.12813 44.596874Q231.00313 45.58125 232.33125 45.58125Q233.64375 45.58125 234.50313 44.596874Q235.37813 43.596874 235.37813 41.55Q235.37813 39.628124 234.50313 38.64375Q233.62813 37.64375 232.33125 37.64375Q231.00313 37.64375 230.12813 38.64375Q229.26875 39.628124 229.26875 41.6125ZM245.89375 43.003124L247.6125 43.221874Q247.33125 45.01875 246.15938 46.034374Q245.00313 47.034374 243.3 47.034374Q241.175 47.034374 239.87813 45.64375Q238.58125 44.253124 238.58125 41.659374Q238.58125 39.971874 239.12813 38.721874Q239.69063 37.45625 240.83125 36.83125Q241.97188 36.190624 243.31563 36.190624Q245.00313 36.190624 246.06563 37.05Q247.14375 37.909374 247.45625 39.471874L245.7375 39.7375Q245.50313 38.690624 244.87813 38.175Q244.25313 37.64375 243.37813 37.64375Q242.05 37.64375 241.22188 38.596874Q240.39375 39.55 240.39375 41.596874Q240.39375 43.690624 241.19063 44.64375Q241.9875 45.58125 243.28438 45.58125Q244.31563 45.58125 245.00313 44.95625Q245.70625 44.315624 245.89375 43.003124ZM255.89375 45.51875Q254.90938 46.346874 254.00313 46.690624Q253.09688 47.034374 252.06563 47.034374Q250.3625 47.034374 249.44063 46.20625Q248.51875 45.3625 248.51875 44.065624Q248.51875 43.3 248.8625 42.675Q249.22188 42.05 249.78438 41.675Q250.34688 41.284374 251.05 41.08125Q251.56563 40.95625 252.6125 40.815624Q254.7375 40.565624 255.7375 40.221874Q255.75313 39.8625 255.75313 39.753124Q255.75313 38.690624 255.25313 38.2375Q254.58125 37.64375 253.25313 37.64375Q252.00313 37.64375 251.40938 38.08125Q250.83125 38.51875 250.55 39.628124L248.83125 39.39375Q249.06563 38.284374 249.59688 37.6125Q250.12813 36.925 251.14375 36.565624Q252.15938 36.190624 253.50313 36.190624Q254.83125 36.190624 255.65938 36.503124Q256.4875 36.815624 256.8781 37.3Q257.26874 37.76875 257.425 38.4875Q257.51874 38.940624 257.51874 40.1125L257.51874 42.45625Q257.51874 44.909374 257.6281 45.565624Q257.7375 46.20625 258.08124 46.8L256.2375 46.8Q255.97188 46.253124 255.89375 45.51875ZM255.7375 41.596874Q254.78438 41.9875 252.8625 42.253124Q251.78438 42.409374 251.33125 42.6125Q250.89375 42.8 250.64375 43.175Q250.39375 43.55 250.39375 44.01875Q250.39375 44.721874 250.925 45.190624Q251.45625 45.659374 252.4875 45.659374Q253.50313 45.659374 254.28438 45.221874Q255.08125 44.76875 255.45625 44.003124Q255.7375 43.39375 255.7375 42.2375L255.7375 41.596874ZM263.95624 45.221874L264.20624 46.784374Q263.47186 46.940624 262.8781 46.940624Q261.925 46.940624 261.39374 46.64375Q260.8781 46.33125 260.65936 45.846874Q260.4406 45.346874 260.4406 43.76875L260.4406 37.8L259.15936 37.8L259.15936 36.425L260.4406 36.425L260.4406 33.8625L262.1906 32.8L262.1906 36.425L263.95624 36.425L263.95624 37.8L262.1906 37.8L262.1906 43.8625Q262.1906 44.6125 262.28436 44.83125Q262.3781 45.034374 262.58124 45.175Q262.8 45.3 263.1906 45.3Q263.47186 45.3 263.95624 45.221874ZM266.1281 34.503124L266.1281 32.4875L267.89374 32.4875L267.89374 34.503124L266.1281 34.503124ZM266.1281 46.8L266.1281 36.425L267.89374 36.425L267.89374 46.8L266.1281 46.8ZM269.47186 41.6125Q269.47186 38.7375 271.0656 37.346874Q272.40936 36.190624 274.33124 36.190624Q276.47186 36.190624 277.8156 37.596874Q279.175 39.003124 279.175 41.471874Q279.175 43.471874 278.58124 44.628124Q277.9875 45.76875 276.83124 46.409374Q275.6906 47.034374 274.33124 47.034374Q272.14374 47.034374 270.8 45.64375Q269.47186 44.2375 269.47186 41.6125ZM271.26874 41.6125Q271.26874 43.6125 272.1281 44.596874Q273.0031 45.58125 274.33124 45.58125Q275.64374 45.58125 276.5031 44.596874Q277.3781 43.596874 277.3781 41.55Q277.3781 39.628124 276.5031 38.64375Q275.6281 37.64375 274.33124 37.64375Q273.0031 37.64375 272.1281 38.64375Q271.26874 39.628124 271.26874 41.6125ZM281.1125 46.8L281.1125 36.425L282.70624 36.425L282.70624 37.909374Q283.84686 36.190624 286.0031 36.190624Q286.9406 36.190624 287.72186 36.534374Q288.51874 36.8625 288.90936 37.409374Q289.3 37.95625 289.45624 38.70625Q289.55 39.20625 289.55 40.425L289.55 46.8L287.78436 46.8L287.78436 40.4875Q287.78436 39.409374 287.58124 38.878124Q287.3781 38.346874 286.84686 38.034374Q286.33124 37.721874 285.6281 37.721874Q284.5031 37.721874 283.6906 38.440624Q282.8781 39.14375 282.8781 41.128124L282.8781 46.8L281.1125 46.8ZM300.47186 51.003124Q299.01874 49.175 298.01874 46.721874Q297.01874 44.253124 297.01874 41.6125Q297.01874 39.284374 297.76874 37.159374Q298.64374 34.690624 300.47186 32.2375L301.7375 32.2375Q300.55 34.26875 300.175 35.14375Q299.58124 36.4875 299.2375 37.95625Q298.8156 39.784374 298.8156 41.628124Q298.8156 46.315624 301.7375 51.003124L300.47186 51.003124ZM304.3781 46.8L304.3781 32.4875L310.72186 32.4875Q312.6281 32.4875 313.6281 32.878124Q314.6281 33.253124 315.22186 34.2375Q315.8156 35.20625 315.8156 36.39375Q315.8156 37.909374 314.83124 38.95625Q313.84686 40.003124 311.78436 40.284374Q312.53436 40.64375 312.925 41.003124Q313.7531 41.753124 314.5031 42.909374L316.9875 46.8L314.6125 46.8L312.70624 43.815624Q311.8781 42.534374 311.34686 41.846874Q310.8156 41.159374 310.3781 40.89375Q309.95624 40.6125 309.51874 40.503124Q309.1906 40.440624 308.47186 40.440624L306.26874 40.440624L306.26874 46.8L304.3781 46.8ZM306.26874 38.8L310.34686 38.8Q311.64374 38.8 312.3625 38.534374Q313.09686 38.26875 313.47186 37.675Q313.8625 37.08125 313.8625 36.39375Q313.8625 35.378124 313.1281 34.721874Q312.39374 34.065624 310.8 34.065624L306.26874 34.065624L306.26874 38.8ZM317.47186 41.6125Q317.47186 38.7375 319.0656 37.346874Q320.40936 36.190624 322.33124 36.190624Q324.47186 36.190624 325.8156 37.596874Q327.175 39.003124 327.175 41.471874Q327.175 43.471874 326.58124 44.628124Q325.9875 45.76875 324.83124 46.409374Q323.6906 47.034374 322.33124 47.034374Q320.14374 47.034374 318.8 45.64375Q317.47186 44.2375 317.47186 41.6125ZM319.26874 41.6125Q319.26874 43.6125 320.1281 44.596874Q321.0031 45.58125 322.33124 45.58125Q323.64374 45.58125 324.5031 44.596874Q325.3781 43.596874 325.3781 41.55Q325.3781 39.628124 324.5031 38.64375Q323.6281 37.64375 322.33124 37.64375Q321.0031 37.64375 320.1281 38.64375Q319.26874 39.628124 319.26874 41.6125ZM335.90936 46.8L335.90936 45.26875Q334.70624 47.034374 332.6281 47.034374Q331.70624 47.034374 330.90936 46.690624Q330.1125 46.33125 329.72186 45.8Q329.34686 45.26875 329.1906 44.4875Q329.08124 43.971874 329.08124 42.846874L329.08124 36.425L330.83124 36.425L330.83124 42.175Q330.83124 43.55 330.9406 44.034374Q331.1125 44.721874 331.64374 45.128124Q332.1906 45.51875 332.97186 45.51875Q333.76874 45.51875 334.45624 45.1125Q335.15936 44.70625 335.4406 44.01875Q335.7375 43.315624 335.7375 41.9875L335.7375 36.425L337.4875 36.425L337.4875 46.8L335.90936 46.8ZM339.1125 46.8L339.1125 36.425L340.70624 36.425L340.70624 37.909374Q341.84686 36.190624 344.0031 36.190624Q344.9406 36.190624 345.72186 36.534374Q346.51874 36.8625 346.90936 37.409374Q347.3 37.95625 347.45624 38.70625Q347.55 39.20625 347.55 40.425L347.55 46.8L345.78436 46.8L345.78436 40.4875Q345.78436 39.409374 345.58124 38.878124Q345.3781 38.346874 344.84686 38.034374Q344.33124 37.721874 343.6281 37.721874Q342.5031 37.721874 341.6906 38.440624Q340.8781 39.14375 340.8781 41.128124L340.8781 46.8L339.1125 46.8ZM355.84686 46.8L355.84686 45.4875Q354.8625 47.034374 352.9406 47.034374Q351.70624 47.034374 350.65936 46.346874Q349.6281 45.659374 349.05 44.440624Q348.4875 43.221874 348.4875 41.628124Q348.4875 40.065624 349.0031 38.8Q349.51874 37.534374 350.55 36.8625Q351.59686 36.190624 352.8625 36.190624Q353.8 36.190624 354.53436 36.596874Q355.26874 36.9875 355.7375 37.6125L355.7375 32.4875L357.47186 32.4875L357.47186 46.8L355.84686 46.8ZM350.28436 41.628124Q350.28436 43.6125 351.1281 44.596874Q351.97186 45.58125 353.1125 45.58125Q354.26874 45.58125 355.0656 44.64375Q355.8781 43.70625 355.8781 41.76875Q355.8781 39.64375 355.05 38.64375Q354.2375 37.64375 353.03436 37.64375Q351.8625 37.64375 351.0656 38.6125Q350.28436 39.565624 350.28436 41.628124ZM366.3781 46.8L366.3781 32.4875L372.72186 32.4875Q374.6281 32.4875 375.6281 32.878124Q376.6281 33.253124 377.22186 34.2375Q377.8156 35.20625 377.8156 36.39375Q377.8156 37.909374 376.83124 38.95625Q375.84686 40.003124 373.78436 40.284374Q374.53436 40.64375 374.925 41.003124Q375.7531 41.753124 376.5031 42.909374L378.9875 46.8L376.6125 46.8L374.70624 43.815624Q373.8781 42.534374 373.34686 41.846874Q372.8156 41.159374 372.3781 40.89375Q371.95624 40.6125 371.51874 40.503124Q371.1906 40.440624 370.47186 40.440624L368.26874 40.440624L368.26874 46.8L366.3781 46.8ZM368.26874 38.8L372.34686 38.8Q373.64374 38.8 374.3625 38.534374Q375.09686 38.26875 375.47186 37.675Q375.8625 37.08125 375.8625 36.39375Q375.8625 35.378124 375.1281 34.721874Q374.39374 34.065624 372.8 34.065624L368.26874 34.065624L368.26874 38.8ZM379.47186 41.6125Q379.47186 38.7375 381.0656 37.346874Q382.40936 36.190624 384.33124 36.190624Q386.47186 36.190624 387.8156 37.596874Q389.175 39.003124 389.175 41.471874Q389.175 43.471874 388.58124 44.628124Q387.9875 45.76875 386.83124 46.409374Q385.6906 47.034374 384.33124 47.034374Q382.14374 47.034374 380.8 45.64375Q379.47186 44.2375 379.47186 41.6125ZM381.26874 41.6125Q381.26874 43.6125 382.1281 44.596874Q383.0031 45.58125 384.33124 45.58125Q385.64374 45.58125 386.5031 44.596874Q387.3781 43.596874 387.3781 41.55Q387.3781 39.628124 386.5031 38.64375Q385.6281 37.64375 384.33124 37.64375Q383.0031 37.64375 382.1281 38.64375Q381.26874 39.628124 381.26874 41.6125ZM392.7375 46.8L391.1125 46.8L391.1125 32.4875L392.8625 32.4875L392.8625 37.596874Q393.9875 36.190624 395.70624 36.190624Q396.65936 36.190624 397.51874 36.58125Q398.3781 36.971874 398.925 37.675Q399.47186 38.3625 399.78436 39.346874Q400.09686 40.33125 400.09686 41.45625Q400.09686 44.128124 398.78436 45.58125Q397.47186 47.034374 395.6281 47.034374Q393.78436 47.034374 392.7375 45.503124L392.7375 46.8ZM392.72186 41.534374Q392.72186 43.39375 393.22186 44.2375Q394.0656 45.58125 395.47186 45.58125Q396.6281 45.58125 397.45624 44.58125Q398.3 43.58125 398.3 41.596874Q398.3 39.565624 397.4875 38.6125Q396.6906 37.64375 395.55 37.64375Q394.39374 37.64375 393.55 38.64375Q392.72186 39.64375 392.72186 41.534374ZM402.1281 34.503124L402.1281 32.4875L403.89374 32.4875L403.89374 34.503124L402.1281 34.503124ZM402.1281 46.8L402.1281 36.425L403.89374 36.425L403.89374 46.8L402.1281 46.8ZM406.1125 46.8L406.1125 36.425L407.70624 36.425L407.70624 37.909374Q408.84686 36.190624 411.0031 36.190624Q411.9406 36.190624 412.72186 36.534374Q413.51874 36.8625 413.90936 37.409374Q414.3 37.95625 414.45624 38.70625Q414.55 39.20625 414.55 40.425L414.55 46.8L412.78436 46.8L412.78436 40.4875Q412.78436 39.409374 412.58124 38.878124Q412.3781 38.346874 411.84686 38.034374Q411.33124 37.721874 410.6281 37.721874Q409.5031 37.721874 408.6906 38.440624Q407.8781 39.14375 407.8781 41.128124L407.8781 46.8L406.1125 46.8ZM417.26874 51.003124L416.01874 51.003124Q418.925 46.315624 418.925 41.628124Q418.925 39.784374 418.51874 37.9875Q418.175 36.51875 417.58124 35.175Q417.20624 34.284374 416.01874 32.2375L417.26874 32.2375Q419.1125 34.690624 419.9875 37.159374Q420.7375 39.284374 420.7375 41.6125Q420.7375 44.253124 419.72186 46.721874Q418.72186 49.175 417.26874 51.003124Z" fill-rule="nonzero"/></svg>