<svg version="1.1" viewBox="0.0 0.0 600.0 371.0" fill="none" stroke="none" stroke-linecap="square" stroke-miterlimit="10" width="600" height="371" xmlns:xlink="http://www.w3.org/1999/xlink" xmlns="http://www.w3.org/2000/svg"><path fill="#ffffff" d="M0 0L600.0 0L600.0 371.0L0 371.0L0 0Z" fill-rule="nonzero"/><path stroke="#333333" stroke-width="1.0" stroke-linecap="butt" d="M77.5 88.5L77.5 300.5" fill-rule="nonzero"/><path stroke="#cccccc" stroke-width="1.0" stroke-linecap="butt" d="M133.5 88.5L133.5 300.5" fill-rule="nonzero"/><path stroke="#cccccc" stroke-width="1.0" stroke-linecap="butt" d="M189.5 88.5L189.5 300.5" fill-rule="nonzero"/><path stroke="#cccccc" stroke-width="1.0" stroke-linecap="butt" d="M245.5 88.5L245.5 300.5" fill-rule="nonzero"/><path stroke="#cccccc" stroke-width="1.0" stroke-linecap="butt" d="M301.5 88.5L301.5 300.5" fill-rule="nonzero"/><path stroke="#cccccc" stroke-width="1.0" stroke-linecap="butt" d="M357.5 88.5L357.5 300.5" fill-rule="nonzero"/><path stroke="#cccccc" stroke-width="1.0" stroke-linecap="butt" d="M413.5 88.5L413.5 300.5" fill-rule="nonzero"/><path stroke="#cccccc" stroke-width="1.0" stroke-linecap="butt" d="M469.5 88.5L469.5 300.5" fill-rule="nonzero"/><path stroke="#cccccc" stroke-width="1.0" stroke-linecap="butt" d="M525.5 88.5L525.5 300.5" fill-rule="nonzero"/><path stroke="#cccccc" stroke-width="1.0" stroke-linecap="butt" d="M581.5 88.5L581.5 300.5" fill-rule="nonzero"/><path stroke="#333333" stroke-width="1.0" stroke-linecap="butt" d="M77.5 300.5L581.5 300.5" fill-rule="nonzero"/><path stroke="#cccccc" stroke-width="1.0" stroke-linecap="butt" d="M77.5 258.5L581.5 258.5" fill-rule="nonzero"/><path stroke="#cccccc" stroke-width="1.0" stroke-linecap="butt" d="M77.5 215.5L581.5 215.5" fill-rule="nonzero"/><path stroke="#cccccc" stroke-width="1.0" stroke-linecap="butt" d="M77.5 173.5L581.5 173.5" fill-rule="nonzero"/><path stroke="#cccccc" stroke-width="1.0" stroke-linecap="butt" d="M77.5 130.5L581.5 130.5" fill-rule="nonzero"/><path stroke="#cccccc" stroke-width="1.0" stroke-linecap="butt" d="M77.5 88.5L581.5 88.5" fill-rule="nonzero"/><clipPath id="id_0"><path d="M77.55 88.28333L581.45 88.28333L581.45 300.45L77.55 300.45L77.55 88.28333Z" clip-rule="nonzero"/></clipPath><path stroke="#4285f4" stroke-width="2.0" stroke-linecap="butt" clip-path="url(#id_0)" d="M77.55 300.45L133.5389 258.01666L189.52777 258.01666L245.51666 215.58333L301.50555 215.58333L357.49445 173.15L413.48334 173.15L469.47223 130.71666L525.4611 130.71666L581.45 88.28333" fill-rule="nonzero"/><path stroke="#ea4335" stroke-width="2.0" stroke-linecap="butt" clip-path="url(#id_0)" d="M77.55 300.45L133.5389 300.45L189.52777 258.01666L245.51666 258.01666L301.50555 215.58333L357.49445 215.58333L413.48334 173.15L469.47223 173.15L525.4611 130.71666L581.45 130.71666" fill-rule="nonzero"/><path fill="#000000" fill-opacity="0.0" clip-path="url(#id_0)" d="M80.55 300.45C80.55 302.10684 79.206856 303.45 77.55 303.45C75.89314 303.45 74.55 302.10684 74.55 300.45C74.55 298.79315 75.89314 297.45 77.55 297.45C79.206856 297.45 80.55 298.79315 80.55 300.45Z" fill-rule="nonzero"/><path fill="#000000" fill-opacity="0.0" clip-path="url(#id_0)" d="M136.5389 258.01666C136.5389 259.67352 135.19574 261.01666 133.5389 261.01666C131.88203 261.01666 130.5389 259.67352 130.5389 258.01666C130.5389 256.3598 131.88203 255.01666 133.5389 255.01666C135.19574 255.01666 136.5389 256.3598 136.5389 258.01666Z" fill-rule="nonzero"/><path fill="#000000" fill-opacity="0.0" clip-path="url(#id_0)" d="M192.52777 258.01666C192.52777 259.67352 191.18463 261.01666 189.52777 261.01666C187.87093 261.01666 186.52777 259.67352 186.52777 258.01666C186.52777 256.3598 187.87093 255.01666 189.52777 255.01666C191.18463 255.01666 192.52777 256.3598 192.52777 258.01666Z" fill-rule="nonzero"/><path fill="#000000" fill-opacity="0.0" clip-path="url(#id_0)" d="M248.51666 215.58333C248.51666 217.24019 247.17352 218.58333 245.51666 218.58333C243.85982 218.58333 242.51666 217.24019 242.51666 215.58333C242.51666 213.92648 243.85982 212.58333 245.51666 212.58333C247.17352 212.58333 248.51666 213.92648 248.51666 215.58333Z" fill-rule="nonzero"/><path fill="#000000" fill-opacity="0.0" clip-path="url(#id_0)" d="M304.50555 215.58333C304.50555 217.24019 303.1624 218.58333 301.50555 218.58333C299.8487 218.58333 298.50555 217.24019 298.50555 215.58333C298.50555 213.92648 299.8487 212.58333 301.50555 212.58333C303.1624 212.58333 304.50555 213.92648 304.50555 215.58333Z" fill-rule="nonzero"/><path fill="#000000" fill-opacity="0.0" clip-path="url(#id_0)" d="M360.49445 173.15C360.49445 174.80685 359.1513 176.15 357.49445 176.15C355.8376 176.15 354.49445 174.80685 354.49445 173.15C354.49445 171.49315 355.8376 170.15 357.49445 170.15C359.1513 170.15 360.49445 171.49315 360.49445 173.15Z" fill-rule="nonzero"/><path fill="#000000" fill-opacity="0.0" clip-path="url(#id_0)" d="M416.48334 173.15C416.48334 174.80685 415.1402 176.15 413.48334 176.15C411.82648 176.15 410.48334 174.80685 410.48334 173.15C410.48334 171.49315 411.82648 170.15 413.48334 170.15C415.1402 170.15 416.48334 171.49315 416.48334 173.15Z" fill-rule="nonzero"/><path fill="#000000" fill-opacity="0.0" clip-path="url(#id_0)" d="M472.47223 130.71666C472.47223 132.37352 471.1291 133.71666 469.47223 133.71666C467.81537 133.71666 466.47223 132.37352 466.47223 130.71666C466.47223 129.05981 467.81537 127.71667 469.47223 127.71667C471.1291 127.71667 472.47223 129.05981 472.47223 130.71666Z" fill-rule="nonzero"/><path fill="#000000" fill-opacity="0.0" clip-path="url(#id_0)" d="M528.4611 130.71666C528.4611 132.37352 527.118 133.71666 525.4611 133.71666C523.80426 133.71666 522.4611 132.37352 522.4611 130.71666C522.4611 129.05981 523.80426 127.71667 525.4611 127.71667C527.118 127.71667 528.4611 129.05981 528.4611 130.71666Z" fill-rule="nonzero"/><path fill="#000000" fill-opacity="0.0" clip-path="url(#id_0)" d="M584.45 88.28333C584.45 89.940186 583.1069 91.28333 581.45 91.28333C579.79315 91.28333 578.45 89.940186 578.45 88.28333C578.45 86.62648 579.79315 85.28333 581.45 85.28333C583.1069 85.28333 584.45 86.62648 584.45 88.28333Z" fill-rule="nonzero"/><path fill="#000000" fill-opacity="0.0" clip-path="url(#id_0)" d="M80.55 300.45C80.55 302.10684 79.206856 303.45 77.55 303.45C75.89314 303.45 74.55 302.10684 74.55 300.45C74.55 298.79315 75.89314 297.45 77.55 297.45C79.206856 297.45 80.55 298.79315 80.55 300.45Z" fill-rule="nonzero"/><path fill="#000000" fill-opacity="0.0" clip-path="url(#id_0)" d="M136.5389 300.45C136.5389 302.10684 135.19574 303.45 133.5389 303.45C131.88203 303.45 130.5389 302.10684 130.5389 300.45C130.5389 298.79315 131.88203 297.45 133.5389 297.45C135.19574 297.45 136.5389 298.79315 136.5389 300.45Z" fill-rule="nonzero"/><path fill="#000000" fill-opacity="0.0" clip-path="url(#id_0)" d="M192.52777 258.01666C192.52777 259.67352 191.18463 261.01666 189.52777 261.01666C187.87093 261.01666 186.52777 259.67352 186.52777 258.01666C186.52777 256.3598 187.87093 255.01666 189.52777 255.01666C191.18463 255.01666 192.52777 256.3598 192.52777 258.01666Z" fill-rule="nonzero"/><path fill="#000000" fill-opacity="0.0" clip-path="url(#id_0)" d="M248.51666 258.01666C248.51666 259.67352 247.17352 261.01666 245.51666 261.01666C243.85982 261.01666 242.51666 259.67352 242.51666 258.01666C242.51666 256.3598 243.85982 255.01666 245.51666 255.01666C247.17352 255.01666 248.51666 256.3598 248.51666 258.01666Z" fill-rule="nonzero"/><path fill="#000000" fill-opacity="0.0" clip-path="url(#id_0)" d="M304.50555 215.58333C304.50555 217.24019 303.1624 218.58333 301.50555 218.58333C299.8487 218.58333 298.50555 217.24019 298.50555 215.58333C298.50555 213.92648 299.8487 212.58333 301.50555 212.58333C303.1624 212.58333 304.50555 213.92648 304.50555 215.58333Z" fill-rule="nonzero"/><path fill="#000000" fill-opacity="0.0" clip-path="url(#id_0)" d="M360.49445 215.58333C360.49445 217.24019 359.1513 218.58333 357.49445 218.58333C355.8376 218.58333 354.49445 217.24019 354.49445 215.58333C354.49445 213.92648 355.8376 212.58333 357.49445 212.58333C359.1513 212.58333 360.49445 213.92648 360.49445 215.58333Z" fill-rule="nonzero"/><path fill="#000000" fill-opacity="0.0" clip-path="url(#id_0)" d="M416.48334 173.15C416.48334 174.80685 415.1402 176.15 413.48334 176.15C411.82648 176.15 410.48334 174.80685 410.48334 173.15C410.48334 171.49315 411.82648 170.15 413.48334 170.15C415.1402 170.15 416.48334 171.49315 416.48334 173.15Z" fill-rule="nonzero"/><path fill="#000000" fill-opacity="0.0" clip-path="url(#id_0)" d="M472.47223 173.15C472.47223 174.80685 471.1291 176.15 469.47223 176.15C467.81537 176.15 466.47223 174.80685 466.47223 173.15C466.47223 171.49315 467.81537 170.15 469.47223 170.15C471.1291 170.15 472.47223 171.49315 472.47223 173.15Z" fill-rule="nonzero"/><path fill="#000000" fill-opacity="0.0" clip-path="url(#id_0)" d="M528.4611 130.71666C528.4611 132.37352 527.118 133.71666 525.4611 133.71666C523.80426 133.71666 522.4611 132.37352 522.4611 130.71666C522.4611 129.05981 523.80426 127.71667 525.4611 127.71667C527.118 127.71667 528.4611 129.05981 528.4611 130.71666Z" fill-rule="nonzero"/><path fill="#000000" fill-opacity="0.0" clip-path="url(#id_0)" d="M584.45 130.71666C584.45 132.37352 583.1069 133.71666 581.45 133.71666C579.79315 133.71666 578.45 132.37352 578.45 130.71666C578.45 129.05981 579.79315 127.71667 581.45 127.71667C583.1069 127.71667 584.45 129.05981 584.45 130.71666Z" fill-rule="nonzero"/><path fill="#000000" d="M318.60938 349.45L318.60938 341.8719L315.78125 341.8719L315.78125 340.85626L322.59375 340.85626L322.59375 341.8719L319.75 341.8719L319.75 349.45L318.60938 349.45ZM323.29688 342.075L323.29688 340.85626L324.35938 340.85626L324.35938 342.075L323.29688 342.075ZM323.29688 349.45L323.29688 343.23126L324.35938 343.23126L324.35938 349.45L323.29688 349.45ZM326.29688 349.45L326.29688 343.23126L327.23438 343.23126L327.23438 344.10626Q327.53125 343.6375 328.01562 343.3719Q328.5 343.09064 329.125 343.09064Q329.8125 343.09064 330.25 343.3719Q330.70312 343.65314 330.875 344.16876Q331.625 343.09064 332.79688 343.09064Q333.73438 343.09064 334.21875 343.60626Q334.71875 344.10626 334.71875 345.1844L334.71875 349.45L333.67188 349.45L333.67188 345.52814Q333.67188 344.90314 333.5625 344.6219Q333.46875 344.34064 333.20312 344.16876Q332.9375 343.9969 332.5625 343.9969Q331.90625 343.9969 331.46875 344.4344Q331.04688 344.8719 331.04688 345.84064L331.04688 349.45L329.98438 349.45L329.98438 345.40314Q329.98438 344.7 329.71875 344.35626Q329.46875 343.9969 328.89062 343.9969Q328.4375 343.9969 328.0625 344.23126Q327.6875 344.46564 327.51562 344.91876Q327.34375 345.3719 327.34375 346.21564L327.34375 349.45L326.29688 349.45ZM341.54688 347.45L342.64062 347.575Q342.39062 348.52814 341.6875 349.0594Q340.98438 349.59064 339.90625 349.59064Q338.54688 349.59064 337.73438 348.7469Q336.9375 347.90314 336.9375 346.3875Q336.9375 344.825 337.75 343.96564Q338.5625 343.09064 339.84375 343.09064Q341.09375 343.09064 341.875 343.9344Q342.67188 344.77814 342.67188 346.325Q342.67188 346.41876 342.67188 346.60626L338.03125 346.60626Q338.09375 347.6375 338.60938 348.1844Q339.125 348.71564 339.90625 348.71564Q340.48438 348.71564 340.89062 348.41876Q341.3125 348.10626 341.54688 347.45ZM338.09375 345.7469L341.5625 345.7469Q341.5 344.95 341.17188 344.5594Q340.65625 343.95 339.85938 343.95Q339.125 343.95 338.625 344.4344Q338.14062 344.91876 338.09375 345.7469Z" fill-rule="nonzero"/><path fill="#000000" d="M29.550013 246.2573L21.971888 246.2573L21.971888 249.08542L20.956263 249.08542L20.956263 242.27292L21.971888 242.27292L21.971888 245.11667L29.550013 245.11667L29.550013 246.2573ZM22.175013 241.5698L20.956263 241.5698L20.956263 240.5073L22.175013 240.5073L22.175013 241.5698ZM29.550013 241.5698L23.331263 241.5698L23.331263 240.5073L29.550013 240.5073L29.550013 241.5698ZM29.550013 238.5698L23.331263 238.5698L23.331263 237.6323L24.206263 237.6323Q23.737513 237.33542 23.471888 236.85104Q23.190638 236.36667 23.190638 235.74167Q23.190638 235.05417 23.471888 234.61667Q23.753138 234.16354 24.268763 233.99167Q23.190638 233.24167 23.190638 232.0698Q23.190638 231.1323 23.706263 230.64792Q24.206263 230.14792 25.284388 230.14792L29.550013 230.14792L29.550013 231.1948L25.628138 231.1948Q25.003138 231.1948 24.721888 231.30417Q24.440638 231.39792 24.268763 231.66354Q24.096888 231.92917 24.096888 232.30417Q24.096888 232.96042 24.534388 233.39792Q24.971888 233.8198 25.940638 233.8198L29.550013 233.8198L29.550013 234.8823L25.503138 234.8823Q24.800013 234.8823 24.456263 235.14792Q24.096888 235.39792 24.096888 235.97604Q24.096888 236.42917 24.331263 236.80417Q24.565638 237.17917 25.018763 237.35104Q25.471888 237.52292 26.315638 237.52292L29.550013 237.52292L29.550013 238.5698ZM27.550013 223.3198L27.675013 222.22604Q28.628138 222.47604 29.159388 223.17917Q29.690638 223.8823 29.690638 224.96042Q29.690638 226.3198 28.846888 227.1323Q28.003138 227.92917 26.487513 227.92917Q24.925013 227.92917 24.065638 227.11667Q23.190638 226.30417 23.190638 225.02292Q23.190638 223.77292 24.034388 222.99167Q24.878138 222.1948 26.425013 222.1948Q26.518763 222.1948 26.706263 222.1948L26.706263 226.83542Q27.737513 226.77292 28.284388 226.2573Q28.815638 225.74167 28.815638 224.96042Q28.815638 224.3823 28.518763 223.97604Q28.206263 223.55417 27.550013 223.3198ZM25.846888 226.77292L25.846888 223.30417Q25.050013 223.36667 24.659388 223.6948Q24.050013 224.21042 24.050013 225.0073Q24.050013 225.74167 24.534388 226.24167Q25.018763 226.72604 25.846888 226.77292ZM27.690638 220.99167L27.534388 219.96042Q28.159388 219.86667 28.487513 219.47604Q28.815638 219.0698 28.815638 218.33542Q28.815638 217.61667 28.534388 217.27292Q28.237513 216.91354 27.831263 216.91354Q27.471888 216.91354 27.268763 217.22604Q27.128138 217.4448 26.909388 218.30417Q26.612513 219.46042 26.409388 219.91354Q26.190638 220.35104 25.815638 220.58542Q25.440638 220.8198 24.971888 220.8198Q24.565638 220.8198 24.206263 220.6323Q23.846888 220.4448 23.612513 220.11667Q23.440638 219.86667 23.315638 219.4448Q23.190638 219.02292 23.190638 218.52292Q23.190638 217.80417 23.409388 217.2573Q23.612513 216.6948 23.971888 216.42917Q24.331263 216.16354 24.925013 216.0698L25.065638 217.10104Q24.596888 217.16354 24.331263 217.5073Q24.050013 217.83542 24.050013 218.46042Q24.050013 219.17917 24.300013 219.49167Q24.534388 219.80417 24.862513 219.80417Q25.065638 219.80417 25.221888 219.67917Q25.393763 219.53854 25.503138 219.27292Q25.565638 219.11667 25.768763 218.33542Q26.081263 217.21042 26.268763 216.77292Q26.456263 216.33542 26.815638 216.08542Q27.175013 215.83542 27.721888 215.83542Q28.253138 215.83542 28.721888 216.14792Q29.175013 216.4448 29.440638 217.02292Q29.690638 217.60104 29.690638 218.33542Q29.690638 219.55417 29.190638 220.1948Q28.675013 220.8198 27.690638 220.99167ZM26.784388 210.8198L26.690638 209.7573Q27.346888 209.67917 27.753138 209.39792Q28.159388 209.11667 28.425013 208.53854Q28.675013 207.9448 28.675013 207.21042Q28.675013 206.5698 28.487513 206.0698Q28.284388 205.5698 27.956263 205.33542Q27.612513 205.08542 27.221888 205.08542Q26.815638 205.08542 26.518763 205.3198Q26.206263 205.55417 26.003138 206.08542Q25.862513 206.4448 25.581263 207.6323Q25.300013 208.80417 25.050013 209.27292Q24.721888 209.89792 24.253138 210.1948Q23.768763 210.49167 23.175013 210.49167Q22.534388 210.49167 21.971888 210.1323Q21.393763 209.7573 21.112513 209.05417Q20.815638 208.33542 20.815638 207.47604Q20.815638 206.52292 21.128138 205.78854Q21.425013 205.05417 22.034388 204.66354Q22.628138 204.27292 23.378138 204.24167L23.456263 205.33542Q22.643763 205.42917 22.237513 205.9448Q21.815638 206.4448 21.815638 207.42917Q21.815638 208.46042 22.190638 208.92917Q22.565638 209.39792 23.096888 209.39792Q23.565638 209.39792 23.862513 209.0698Q24.159388 208.74167 24.471888 207.36667Q24.784388 205.97604 25.018763 205.46042Q25.378138 204.71042 25.909388 204.35104Q26.425013 203.99167 27.128138 203.99167Q27.815638 203.99167 28.425013 204.3823Q29.018763 204.77292 29.362513 205.5073Q29.690638 206.24167 29.690638 207.16354Q29.690638 208.33542 29.362513 209.1323Q29.018763 209.91354 28.331263 210.36667Q27.643763 210.80417 26.784388 210.8198ZM27.268763 198.5073L27.409388 197.47604Q28.471888 197.64792 29.081263 198.35104Q29.690638 199.05417 29.690638 200.0698Q29.690638 201.35104 28.862513 202.1323Q28.018763 202.89792 26.456263 202.89792Q25.456263 202.89792 24.706263 202.5698Q23.940638 202.22604 23.565638 201.55417Q23.190638 200.86667 23.190638 200.05417Q23.190638 199.05417 23.706263 198.41354Q24.206263 197.7573 25.159388 197.5698L25.315638 198.60104Q24.690638 198.74167 24.378138 199.11667Q24.050013 199.49167 24.050013 200.02292Q24.050013 200.8198 24.628138 201.3198Q25.190638 201.8198 26.425013 201.8198Q27.690638 201.8198 28.253138 201.33542Q28.815638 200.85104 28.815638 200.08542Q28.815638 199.46042 28.440638 199.05417Q28.065638 198.6323 27.268763 198.5073ZM29.550013 196.5698L20.956263 196.5698L20.956263 195.52292L24.034388 195.52292Q23.190638 194.78854 23.190638 193.66354Q23.190638 192.96042 23.471888 192.46042Q23.737513 191.9448 24.221888 191.72604Q24.690638 191.5073 25.612513 191.5073L29.550013 191.5073L29.550013 192.55417L25.612513 192.55417Q24.815638 192.55417 24.456263 192.89792Q24.096888 193.24167 24.096888 193.86667Q24.096888 194.33542 24.346888 194.7573Q24.581263 195.16354 25.003138 195.35104Q25.409388 195.52292 26.143763 195.52292L29.550013 195.52292L29.550013 196.5698ZM27.550013 185.3198L27.675013 184.22604Q28.628138 184.47604 29.159388 185.17917Q29.690638 185.8823 29.690638 186.96042Q29.690638 188.3198 28.846888 189.1323Q28.003138 189.92917 26.487513 189.92917Q24.925013 189.92917 24.065638 189.11667Q23.190638 188.30417 23.190638 187.02292Q23.190638 185.77292 24.034388 184.99167Q24.878138 184.1948 26.425013 184.1948Q26.518763 184.1948 26.706263 184.1948L26.706263 188.83542Q27.737513 188.77292 28.284388 188.2573Q28.815638 187.74167 28.815638 186.96042Q28.815638 186.3823 28.518763 185.97604Q28.206263 185.55417 27.550013 185.3198ZM25.846888 188.77292L25.846888 185.30417Q25.050013 185.36667 24.659388 185.6948Q24.050013 186.21042 24.050013 187.0073Q24.050013 187.74167 24.534388 188.24167Q25.018763 188.72604 25.846888 188.77292ZM29.550013 178.53854L28.768763 178.53854Q29.690638 179.1323 29.690638 180.27292Q29.690638 181.02292 29.284388 181.64792Q28.862513 182.27292 28.128138 182.61667Q27.393763 182.96042 26.440638 182.96042Q25.518763 182.96042 24.753138 182.64792Q23.987513 182.33542 23.596888 181.71042Q23.190638 181.08542 23.190638 180.3198Q23.190638 179.7573 23.425013 179.3198Q23.659388 178.8823 24.034388 178.60104L20.956263 178.60104L20.956263 177.55417L29.550013 177.55417L29.550013 178.53854ZM26.440638 181.86667Q27.643763 181.86667 28.237513 181.36667Q28.815638 180.86667 28.815638 180.17917Q28.815638 179.49167 28.253138 179.0073Q27.690638 178.52292 26.534388 178.52292Q25.253138 178.52292 24.659388 179.02292Q24.065638 179.5073 24.065638 180.22604Q24.065638 180.92917 24.643763 181.39792Q25.206263 181.86667 26.440638 181.86667ZM29.550013 171.49167L28.628138 171.49167Q29.690638 172.22604 29.690638 173.47604Q29.690638 174.02292 29.487513 174.5073Q29.268763 174.97604 28.956263 175.21042Q28.628138 175.4448 28.159388 175.53854Q27.862513 175.60104 27.175013 175.60104L23.331263 175.60104L23.331263 174.53854L26.784388 174.53854Q27.596888 174.53854 27.893763 174.47604Q28.300013 174.3823 28.550013 174.0698Q28.784388 173.74167 28.784388 173.2573Q28.784388 172.78854 28.550013 172.3823Q28.300013 171.96042 27.878138 171.78854Q27.456263 171.60104 26.659388 171.60104L23.331263 171.60104L23.331263 170.55417L29.550013 170.55417L29.550013 171.49167ZM29.550013 168.60104L20.956263 168.60104L20.956263 167.53854L29.550013 167.53854L29.550013 168.60104ZM27.550013 161.3198L27.675013 160.22604Q28.628138 160.47604 29.159388 161.17917Q29.690638 161.8823 29.690638 162.96042Q29.690638 164.3198 28.846888 165.1323Q28.003138 165.92917 26.487513 165.92917Q24.925013 165.92917 24.065638 165.11667Q23.190638 164.30417 23.190638 163.02292Q23.190638 161.77292 24.034388 160.99167Q24.878138 160.1948 26.425013 160.1948Q26.518763 160.1948 26.706263 160.1948L26.706263 164.83542Q27.737513 164.77292 28.284388 164.2573Q28.815638 163.74167 28.815638 162.96042Q28.815638 162.3823 28.518763 161.97604Q28.206263 161.55417 27.550013 161.3198ZM25.846888 164.77292L25.846888 161.30417Q25.050013 161.36667 24.659388 161.6948Q24.050013 162.21042 24.050013 163.0073Q24.050013 163.74167 24.534388 164.24167Q25.018763 164.72604 25.846888 164.77292ZM29.550013 154.53854L28.768763 154.53854Q29.690638 155.1323 29.690638 156.27292Q29.690638 157.02292 29.284388 157.64792Q28.862513 158.27292 28.128138 158.61667Q27.393763 158.96042 26.440638 158.96042Q25.518763 158.96042 24.753138 158.64792Q23.987513 158.33542 23.596888 157.71042Q23.190638 157.08542 23.190638 156.3198Q23.190638 155.7573 23.425013 155.3198Q23.659388 154.8823 24.034388 154.60104L20.956263 154.60104L20.956263 153.55417L29.550013 153.55417L29.550013 154.53854ZM26.440638 157.86667Q27.643763 157.86667 28.237513 157.36667Q28.815638 156.86667 28.815638 156.17917Q28.815638 155.49167 28.253138 155.0073Q27.690638 154.52292 26.534388 154.52292Q25.253138 154.52292 24.659388 155.02292Q24.065638 155.5073 24.065638 156.22604Q24.065638 156.92917 24.643763 157.39792Q25.206263 157.86667 26.440638 157.86667Z" fill-rule="nonzero"/><path fill="#000000" d="M65.05 300.21564Q65.05 298.6844 65.3625 297.7625Q65.675 296.825 66.28438 296.325Q66.90938 295.825 67.84688 295.825Q68.53438 295.825 69.05 296.10626Q69.58125 296.3875 69.925 296.91876Q70.26875 297.4344 70.45625 298.1844Q70.64375 298.9344 70.64375 300.21564Q70.64375 301.73126 70.33125 302.65314Q70.03438 303.575 69.40938 304.09064Q68.8 304.59064 67.84688 304.59064Q66.6125 304.59064 65.89375 303.7Q65.05 302.6375 65.05 300.21564ZM66.12813 300.21564Q66.12813 302.325 66.62813 303.02814Q67.12813 303.73126 67.84688 303.73126Q68.58125 303.73126 69.06563 303.02814Q69.56563 302.325 69.56563 300.21564Q69.56563 298.09064 69.06563 297.40314Q68.58125 296.7 67.83125 296.7Q67.1125 296.7 66.675 297.3094Q66.12813 298.09064 66.12813 300.21564Z" fill-rule="nonzero"/><path fill="#000000" d="M69.01875 262.01666L67.97188 262.01666L67.97188 255.29791Q67.58125 255.65729 66.95625 256.0323Q66.34688 256.39166 65.8625 256.56354L65.8625 255.54791Q66.7375 255.12604 67.39375 254.54791Q68.06563 253.95416 68.34688 253.39166L69.01875 253.39166L69.01875 262.01666Z" fill-rule="nonzero"/><path fill="#000000" d="M70.59688 218.5677L70.59688 219.58333L64.90938 219.58333Q64.90938 219.20833 65.03438 218.84895Q65.25313 218.27083 65.72188 217.70833Q66.20625 217.14583 67.1125 216.41145Q68.51875 215.2552 69.00313 214.58333Q69.50313 213.91145 69.50313 213.3177Q69.50313 212.6927 69.05 212.27083Q68.59688 211.83333 67.87813 211.83333Q67.1125 211.83333 66.65938 212.28645Q66.20625 212.73958 66.19063 213.55208L65.1125 213.4427Q65.22188 212.22395 65.94063 211.59895Q66.675 210.95833 67.90938 210.95833Q69.14375 210.95833 69.8625 211.64583Q70.58125 212.33333 70.58125 213.34895Q70.58125 213.86458 70.3625 214.36458Q70.15938 214.84895 69.65938 215.41145Q69.175 215.95833 68.05 216.91145Q67.09688 217.70833 66.81563 218.0052Q66.55 218.28645 66.37813 218.5677L70.59688 218.5677Z" fill-rule="nonzero"/><path fill="#000000" d="M65.05 174.88437L66.1125 174.74374Q66.28438 175.63437 66.72188 176.04062Q67.15938 176.43124 67.78438 176.43124Q68.53438 176.43124 69.05 175.91562Q69.56563 175.4 69.56563 174.63437Q69.56563 173.91562 69.08125 173.44687Q68.6125 172.9625 67.87813 172.9625Q67.58125 172.9625 67.12813 173.0875L67.25313 172.15Q67.3625 172.16562 67.425 172.16562Q68.09688 172.16562 68.62813 171.82187Q69.175 171.4625 69.175 170.72812Q69.175 170.15 68.78438 169.775Q68.39375 169.38437 67.76875 169.38437Q67.15938 169.38437 66.7375 169.775Q66.33125 170.16562 66.22188 170.93124L65.15938 170.74374Q65.34688 169.69687 66.03438 169.11874Q66.72188 168.525 67.7375 168.525Q68.44063 168.525 69.03438 168.8375Q69.62813 169.13437 69.94063 169.65Q70.25313 170.16562 70.25313 170.75937Q70.25313 171.30624 69.95625 171.775Q69.65938 172.22812 69.08125 172.49374Q69.83125 172.66562 70.25313 173.22812Q70.675 173.775 70.675 174.61874Q70.675 175.74374 69.84688 176.525Q69.03438 177.30624 67.78438 177.30624Q66.65938 177.30624 65.90938 176.63437Q65.15938 175.94687 65.05 174.88437Z" fill-rule="nonzero"/><path fill="#000000" d="M68.425 134.71666L68.425 132.65416L64.70625 132.65416L64.70625 131.68541L68.62813 126.12291L69.4875 126.12291L69.4875 131.68541L70.64375 131.68541L70.64375 132.65416L69.4875 132.65416L69.4875 134.71666L68.425 134.71666ZM68.425 131.68541L68.425 127.826035L65.7375 131.68541L68.425 131.68541Z" fill-rule="nonzero"/><path fill="#000000" d="M65.05 90.03333L66.15938 89.93958Q66.28438 90.75208 66.72188 91.15833Q67.175 91.56458 67.81563 91.56458Q68.56563 91.56458 69.09688 90.98646Q69.62813 90.40833 69.62813 89.47083Q69.62813 88.56458 69.1125 88.04896Q68.6125 87.51771 67.78438 87.51771Q67.28438 87.51771 66.8625 87.75208Q66.45625 87.98646 66.22188 88.34583L65.2375 88.22083L66.06563 83.81458L70.34688 83.81458L70.34688 84.81458L66.90938 84.81458L66.45625 87.12708Q67.22188 86.58021 68.06563 86.58021Q69.19063 86.58021 69.95625 87.36146Q70.7375 88.14271 70.7375 89.37708Q70.7375 90.53333 70.06563 91.39271Q69.2375 92.42396 67.81563 92.42396Q66.64375 92.42396 65.89375 91.76771Q65.15938 91.11146 65.05 90.03333Z" fill-rule="nonzero"/><path fill="#000000" d="M74.55 313.21564Q74.55 311.6844 74.8625 310.7625Q75.175 309.825 75.78438 309.325Q76.40938 308.825 77.34688 308.825Q78.03438 308.825 78.55 309.10626Q79.08125 309.3875 79.425 309.91876Q79.76875 310.4344 79.95625 311.1844Q80.14375 311.9344 80.14375 313.21564Q80.14375 314.73126 79.83125 315.65314Q79.53438 316.575 78.90938 317.09064Q78.3 317.59064 77.34688 317.59064Q76.1125 317.59064 75.39375 316.7Q74.55 315.6375 74.55 313.21564ZM75.62813 313.21564Q75.62813 315.325 76.12813 316.02814Q76.62813 316.73126 77.34688 316.73126Q78.08125 316.73126 78.56563 316.02814Q79.06563 315.325 79.06563 313.21564Q79.06563 311.09064 78.56563 310.40314Q78.08125 309.7 77.33125 309.7Q76.6125 309.7 76.175 310.3094Q75.62813 311.09064 75.62813 313.21564Z" fill-rule="nonzero"/><path fill="#000000" d="M134.50764 317.45L133.46077 317.45L133.46077 310.73126Q133.07014 311.09064 132.44514 311.46564Q131.83577 311.825 131.3514 311.9969L131.3514 310.98126Q132.2264 310.5594 132.88264 309.98126Q133.55452 309.3875 133.83577 308.825L134.50764 308.825L134.50764 317.45Z" fill-rule="nonzero"/><path fill="#000000" d="M192.07465 316.4344L192.07465 317.45L186.38715 317.45Q186.38715 317.075 186.51215 316.71564Q186.7309 316.1375 187.19965 315.575Q187.68402 315.0125 188.59027 314.27814Q189.99652 313.1219 190.4809 312.45Q190.9809 311.77814 190.9809 311.1844Q190.9809 310.5594 190.52777 310.1375Q190.07465 309.7 189.3559 309.7Q188.59027 309.7 188.13715 310.15314Q187.68402 310.60626 187.6684 311.41876L186.59027 311.3094Q186.69965 310.09064 187.4184 309.46564Q188.15277 308.825 189.38715 308.825Q190.62152 308.825 191.34027 309.5125Q192.05902 310.2 192.05902 311.21564Q192.05902 311.73126 191.84027 312.23126Q191.63715 312.71564 191.13715 313.27814Q190.65277 313.825 189.52777 314.77814Q188.57465 315.575 188.2934 315.8719Q188.02777 316.15314 187.8559 316.4344L192.07465 316.4344Z" fill-rule="nonzero"/><path fill="#000000" d="M242.51666 315.1844L243.57916 315.04376Q243.75104 315.9344 244.18854 316.34064Q244.62604 316.73126 245.25104 316.73126Q246.00104 316.73126 246.51666 316.21564Q247.03229 315.7 247.03229 314.9344Q247.03229 314.21564 246.54791 313.7469Q246.07916 313.2625 245.34479 313.2625Q245.04791 313.2625 244.59479 313.3875L244.71979 312.45Q244.82916 312.46564 244.89166 312.46564Q245.56354 312.46564 246.09479 312.1219Q246.64166 311.7625 246.64166 311.02814Q246.64166 310.45 246.25104 310.075Q245.86041 309.6844 245.23541 309.6844Q244.62604 309.6844 244.20416 310.075Q243.79791 310.46564 243.68854 311.23126L242.62604 311.04376Q242.81354 309.9969 243.50104 309.41876Q244.18854 308.825 245.20416 308.825Q245.90729 308.825 246.50104 309.1375Q247.09479 309.4344 247.40729 309.95Q247.71979 310.46564 247.71979 311.0594Q247.71979 311.60626 247.42291 312.075Q247.12604 312.52814 246.54791 312.79376Q247.29791 312.96564 247.71979 313.52814Q248.14166 314.075 248.14166 314.91876Q248.14166 316.04376 247.31354 316.825Q246.50104 317.60626 245.25104 317.60626Q244.12604 317.60626 243.37604 316.9344Q242.62604 316.2469 242.51666 315.1844Z" fill-rule="nonzero"/><path fill="#000000" d="M301.88055 317.45L301.88055 315.3875L298.1618 315.3875L298.1618 314.41876L302.08368 308.85626L302.94305 308.85626L302.94305 314.41876L304.0993 314.41876L304.0993 315.3875L302.94305 315.3875L302.94305 317.45L301.88055 317.45ZM301.88055 314.41876L301.88055 310.5594L299.19305 314.41876L301.88055 314.41876Z" fill-rule="nonzero"/><path fill="#000000" d="M354.49445 315.2L355.60382 315.10626Q355.72882 315.91876 356.16632 316.325Q356.61945 316.73126 357.26007 316.73126Q358.01007 316.73126 358.54132 316.15314Q359.07257 315.575 359.07257 314.6375Q359.07257 313.73126 358.55695 313.21564Q358.05695 312.6844 357.22882 312.6844Q356.72882 312.6844 356.30695 312.91876Q355.9007 313.15314 355.66632 313.5125L354.68195 313.3875L355.51007 308.98126L359.79132 308.98126L359.79132 309.98126L356.35382 309.98126L355.9007 312.29376Q356.66632 311.7469 357.51007 311.7469Q358.63507 311.7469 359.4007 312.52814Q360.18195 313.3094 360.18195 314.54376Q360.18195 315.7 359.51007 316.5594Q358.68195 317.59064 357.26007 317.59064Q356.0882 317.59064 355.3382 316.9344Q354.60382 316.27814 354.49445 315.2Z" fill-rule="nonzero"/><path fill="#000000" d="M415.9521 310.96564L414.9052 311.04376Q414.7646 310.41876 414.5146 310.1375Q414.0771 309.6844 413.4521 309.6844Q412.9521 309.6844 412.56146 309.96564Q412.0771 310.34064 411.7802 311.04376Q411.49896 311.73126 411.48334 313.0125Q411.85834 312.4344 412.4052 312.15314Q412.9677 311.8719 413.5771 311.8719Q414.62396 311.8719 415.35834 312.65314Q416.10834 313.4344 416.10834 314.65314Q416.10834 315.46564 415.74896 316.16876Q415.4052 316.85626 414.79584 317.23126Q414.18646 317.59064 413.42084 317.59064Q412.0927 317.59064 411.2646 316.6219Q410.43646 315.65314 410.43646 313.4344Q410.43646 310.9344 411.35834 309.8094Q412.1552 308.825 413.5146 308.825Q414.5302 308.825 415.17084 309.40314Q415.8271 309.96564 415.9521 310.96564ZM411.6552 314.66876Q411.6552 315.21564 411.87396 315.71564Q412.10834 316.2 412.5146 316.46564Q412.93646 316.73126 413.4052 316.73126Q414.06146 316.73126 414.54584 316.2Q415.0302 315.65314 415.0302 314.73126Q415.0302 313.84064 414.54584 313.325Q414.0771 312.8094 413.35834 312.8094Q412.6396 312.8094 412.1396 313.325Q411.6552 313.84064 411.6552 314.66876Z" fill-rule="nonzero"/><path fill="#000000" d="M466.53473 309.98126L466.53473 308.96564L472.09723 308.96564L472.09723 309.79376Q471.28473 310.66876 470.47223 312.1219Q469.67535 313.5594 469.23785 315.09064Q468.90973 316.16876 468.8316 317.45L467.73785 317.45Q467.75348 316.4344 468.12848 314.9969Q468.5191 313.5594 469.22223 312.23126Q469.94098 310.90314 470.75348 309.98126L466.53473 309.98126Z" fill-rule="nonzero"/><path fill="#000000" d="M524.0861 312.79376Q523.4299 312.54376 523.10175 312.10626Q522.78925 311.65314 522.78925 311.04376Q522.78925 310.10626 523.4611 309.46564Q524.1486 308.825 525.258 308.825Q526.383 308.825 527.0705 309.48126Q527.758 310.1375 527.758 311.075Q527.758 311.66876 527.4455 312.10626Q527.133 312.54376 526.4924 312.79376Q527.28925 313.04376 527.6955 313.6219Q528.10175 314.2 528.10175 314.9969Q528.10175 316.09064 527.3205 316.84064Q526.5549 317.59064 525.2736 317.59064Q524.008 317.59064 523.22675 316.84064Q522.4455 316.09064 522.4455 314.96564Q522.4455 314.1219 522.8674 313.5594Q523.3049 312.9969 524.0861 312.79376ZM523.8674 310.9969Q523.8674 311.60626 524.258 311.9969Q524.66425 312.3875 525.28925 312.3875Q525.8986 312.3875 526.28925 312.0125Q526.6799 311.6219 526.6799 311.0594Q526.6799 310.48126 526.2736 310.09064Q525.8674 309.6844 525.2736 309.6844Q524.66425 309.6844 524.258 310.075Q523.8674 310.46564 523.8674 310.9969ZM523.53925 314.96564Q523.53925 315.41876 523.7424 315.84064Q523.9611 316.2625 524.383 316.4969Q524.8049 316.73126 525.28925 316.73126Q526.03925 316.73126 526.5236 316.2469Q527.0236 315.7625 527.0236 315.0125Q527.0236 314.2469 526.5236 313.7469Q526.0236 313.2469 525.258 313.2469Q524.508 313.2469 524.0236 313.7469Q523.53925 314.23126 523.53925 314.96564Z" fill-rule="nonzero"/><path fill="#000000" d="M578.60626 315.46564L579.6219 315.3719Q579.7469 316.09064 580.10626 316.41876Q580.48126 316.73126 581.04376 316.73126Q581.52814 316.73126 581.8875 316.5125Q582.2625 316.27814 582.4969 315.91876Q582.73126 315.54376 582.8875 314.91876Q583.04376 314.27814 583.04376 313.6219Q583.04376 313.54376 583.04376 313.40314Q582.73126 313.90314 582.1844 314.23126Q581.6375 314.54376 580.9969 314.54376Q579.91876 314.54376 579.1844 313.77814Q578.45 312.9969 578.45 311.73126Q578.45 310.41876 579.21564 309.6219Q579.9969 308.825 581.15314 308.825Q581.98126 308.825 582.66876 309.27814Q583.3719 309.73126 583.73126 310.575Q584.09064 311.40314 584.09064 312.98126Q584.09064 314.6219 583.73126 315.60626Q583.3875 316.575 582.66876 317.09064Q581.96564 317.59064 581.02814 317.59064Q580.0125 317.59064 579.3719 317.04376Q578.73126 316.48126 578.60626 315.46564ZM582.91876 311.66876Q582.91876 310.7625 582.4344 310.23126Q581.96564 309.7 581.27814 309.7Q580.575 309.7 580.04376 310.27814Q579.52814 310.84064 579.52814 311.7625Q579.52814 312.575 580.02814 313.09064Q580.52814 313.60626 581.2469 313.60626Q581.98126 313.60626 582.45 313.09064Q582.91876 312.575 582.91876 311.66876Z" fill-rule="nonzero"/><path stroke="#4285f4" stroke-width="4.0" stroke-linecap="butt" d="M216.0 61.916668L228.0 61.916668" fill-rule="nonzero"/><path fill="#1a1a1a" d="M236.92188 65.916664L236.92188 57.322914L240.17188 57.322914Q241.01562 57.322914 241.46875 57.40104Q242.10938 57.510414 242.53125 57.80729Q242.96875 58.104164 243.21875 58.635414Q243.48438 59.166664 243.48438 59.80729Q243.48438 60.90104 242.78125 61.666664Q242.09375 62.416664 240.26562 62.416664L238.0625 62.416664L238.0625 65.916664L236.92188 65.916664ZM238.0625 61.416664L240.28125 61.416664Q241.39062 61.416664 241.84375 61.010414Q242.3125 60.58854 242.3125 59.83854Q242.3125 59.30729 242.03125 58.93229Q241.76562 58.541664 241.32812 58.416664Q241.03125 58.33854 240.26562 58.33854L238.0625 58.33854L238.0625 61.416664ZM244.78125 65.916664L244.78125 59.697914L245.73438 59.697914L245.73438 60.635414Q246.09375 59.979164 246.39062 59.77604Q246.70312 59.55729 247.07812 59.55729Q247.60938 59.55729 248.15625 59.885414L247.79688 60.86979Q247.40625 60.635414 247.03125 60.635414Q246.67188 60.635414 246.39062 60.854164Q246.125 61.05729 246.01562 61.43229Q245.82812 61.99479 245.82812 62.65104L245.82812 65.916664L244.78125 65.916664ZM248.40625 62.80729Q248.40625 61.072914 249.35938 60.24479Q250.15625 59.55729 251.3125 59.55729Q252.59375 59.55729 253.40625 60.40104Q254.23438 61.229164 254.23438 62.71354Q254.23438 63.916664 253.875 64.604164Q253.51562 65.291664 252.8125 65.68229Q252.125 66.05729 251.3125 66.05729Q250.01562 66.05729 249.20312 65.229164Q248.40625 64.385414 248.40625 62.80729ZM249.48438 62.80729Q249.48438 63.99479 250.0 64.58854Q250.53125 65.18229 251.3125 65.18229Q252.10938 65.18229 252.625 64.58854Q253.14062 63.99479 253.14062 62.77604Q253.14062 61.61979 252.60938 61.02604Q252.09375 60.43229 251.3125 60.43229Q250.53125 60.43229 250.0 61.02604Q249.48438 61.604164 249.48438 62.80729ZM259.85938 63.635414L260.89062 63.77604Q260.71875 64.83854 260.01562 65.447914Q259.3125 66.05729 258.29688 66.05729Q257.01562 66.05729 256.23438 65.229164Q255.46875 64.385414 255.46875 62.822914Q255.46875 61.822914 255.79688 61.072914Q256.14062 60.30729 256.8125 59.93229Q257.5 59.55729 258.3125 59.55729Q259.3125 59.55729 259.95312 60.072914Q260.60938 60.572914 260.79688 61.52604L259.76562 61.68229Q259.625 61.05729 259.25 60.74479Q258.875 60.416664 258.34375 60.416664Q257.54688 60.416664 257.04688 60.99479Q256.54688 61.55729 256.54688 62.791664Q256.54688 64.05729 257.03125 64.61979Q257.51562 65.18229 258.28125 65.18229Q258.90625 65.18229 259.3125 64.80729Q259.73438 64.43229 259.85938 63.635414ZM266.04688 63.916664L267.14062 64.041664Q266.89062 64.99479 266.1875 65.52604Q265.48438 66.05729 264.40625 66.05729Q263.04688 66.05729 262.23438 65.21354Q261.4375 64.36979 261.4375 62.854164Q261.4375 61.291664 262.25 60.43229Q263.0625 59.55729 264.34375 59.55729Q265.59375 59.55729 266.375 60.40104Q267.17188 61.24479 267.17188 62.791664Q267.17188 62.885414 267.17188 63.072914L262.53125 63.072914Q262.59375 64.104164 263.10938 64.65104Q263.625 65.18229 264.40625 65.18229Q264.98438 65.18229 265.39062 64.885414Q265.8125 64.572914 266.04688 63.916664ZM262.59375 62.21354L266.0625 62.21354Q266.0 61.416664 265.67188 61.02604Q265.15625 60.416664 264.35938 60.416664Q263.625 60.416664 263.125 60.90104Q262.64062 61.385414 262.59375 62.21354ZM268.375 64.05729L269.40625 63.90104Q269.5 64.52604 269.89062 64.854164Q270.29688 65.18229 271.03125 65.18229Q271.75 65.18229 272.09375 64.90104Q272.45312 64.604164 272.45312 64.197914Q272.45312 63.83854 272.14062 63.635414Q271.92188 63.49479 271.0625 63.27604Q269.90625 62.979164 269.45312 62.77604Q269.01562 62.55729 268.78125 62.18229Q268.54688 61.80729 268.54688 61.33854Q268.54688 60.93229 268.73438 60.572914Q268.92188 60.21354 269.25 59.979164Q269.5 59.80729 269.92188 59.68229Q270.34375 59.55729 270.84375 59.55729Q271.5625 59.55729 272.10938 59.77604Q272.67188 59.979164 272.9375 60.33854Q273.20312 60.697914 273.29688 61.291664L272.26562 61.43229Q272.20312 60.96354 271.85938 60.697914Q271.53125 60.416664 270.90625 60.416664Q270.1875 60.416664 269.875 60.666664Q269.5625 60.90104 269.5625 61.229164Q269.5625 61.43229 269.6875 61.58854Q269.82812 61.760414 270.09375 61.86979Q270.25 61.93229 271.03125 62.135414Q272.15625 62.447914 272.59375 62.635414Q273.03125 62.822914 273.28125 63.18229Q273.53125 63.541664 273.53125 64.08854Q273.53125 64.61979 273.21875 65.08854Q272.92188 65.541664 272.34375 65.80729Q271.76562 66.05729 271.03125 66.05729Q269.8125 66.05729 269.17188 65.55729Q268.54688 65.041664 268.375 64.05729ZM275.375 64.05729L276.40625 63.90104Q276.5 64.52604 276.89062 64.854164Q277.29688 65.18229 278.03125 65.18229Q278.75 65.18229 279.09375 64.90104Q279.45312 64.604164 279.45312 64.197914Q279.45312 63.83854 279.14062 63.635414Q278.92188 63.49479 278.0625 63.27604Q276.90625 62.979164 276.45312 62.77604Q276.01562 62.55729 275.78125 62.18229Q275.54688 61.80729 275.54688 61.33854Q275.54688 60.93229 275.73438 60.572914Q275.92188 60.21354 276.25 59.979164Q276.5 59.80729 276.92188 59.68229Q277.34375 59.55729 277.84375 59.55729Q278.5625 59.55729 279.10938 59.77604Q279.67188 59.979164 279.9375 60.33854Q280.20312 60.697914 280.29688 61.291664L279.26562 61.43229Q279.20312 60.96354 278.85938 60.697914Q278.53125 60.416664 277.90625 60.416664Q277.1875 60.416664 276.875 60.666664Q276.5625 60.90104 276.5625 61.229164Q276.5625 61.43229 276.6875 61.58854Q276.82812 61.760414 277.09375 61.86979Q277.25 61.93229 278.03125 62.135414Q279.15625 62.447914 279.59375 62.635414Q280.03125 62.822914 280.28125 63.18229Q280.53125 63.541664 280.53125 64.08854Q280.53125 64.61979 280.21875 65.08854Q279.92188 65.541664 279.34375 65.80729Q278.76562 66.05729 278.03125 66.05729Q276.8125 66.05729 276.17188 65.55729Q275.54688 65.041664 275.375 64.05729ZM289.46875 65.916664L288.42188 65.916664L288.42188 59.197914Q288.03125 59.55729 287.40625 59.93229Q286.79688 60.291664 286.3125 60.46354L286.3125 59.447914Q287.1875 59.02604 287.84375 58.447914Q288.51562 57.854164 288.79688 57.291664L289.46875 57.291664L289.46875 65.916664Z" fill-rule="nonzero"/><path stroke="#ea4335" stroke-width="4.0" stroke-linecap="butt" d="M308.0 61.916668L320.0 61.916668" fill-rule="nonzero"/><path fill="#1a1a1a" d="M328.92188 65.916664L328.92188 57.322914L332.17188 57.322914Q333.01562 57.322914 333.46875 57.40104Q334.10938 57.510414 334.53125 57.80729Q334.96875 58.104164 335.21875 58.635414Q335.48438 59.166664 335.48438 59.80729Q335.48438 60.90104 334.78125 61.666664Q334.09375 62.416664 332.26562 62.416664L330.0625 62.416664L330.0625 65.916664L328.92188 65.916664ZM330.0625 61.416664L332.28125 61.416664Q333.39062 61.416664 333.84375 61.010414Q334.3125 60.58854 334.3125 59.83854Q334.3125 59.30729 334.03125 58.93229Q333.76562 58.541664 333.32812 58.416664Q333.03125 58.33854 332.26562 58.33854L330.0625 58.33854L330.0625 61.416664ZM336.78125 65.916664L336.78125 59.697914L337.73438 59.697914L337.73438 60.635414Q338.09375 59.979164 338.39062 59.77604Q338.70312 59.55729 339.07812 59.55729Q339.60938 59.55729 340.15625 59.885414L339.79688 60.86979Q339.40625 60.635414 339.03125 60.635414Q338.67188 60.635414 338.39062 60.854164Q338.125 61.05729 338.01562 61.43229Q337.82812 61.99479 337.82812 62.65104L337.82812 65.916664L336.78125 65.916664ZM340.40625 62.80729Q340.40625 61.072914 341.35938 60.24479Q342.15625 59.55729 343.3125 59.55729Q344.59375 59.55729 345.40625 60.40104Q346.23438 61.229164 346.23438 62.71354Q346.23438 63.916664 345.875 64.604164Q345.51562 65.291664 344.8125 65.68229Q344.125 66.05729 343.3125 66.05729Q342.01562 66.05729 341.20312 65.229164Q340.40625 64.385414 340.40625 62.80729ZM341.48438 62.80729Q341.48438 63.99479 342.0 64.58854Q342.53125 65.18229 343.3125 65.18229Q344.10938 65.18229 344.625 64.58854Q345.14062 63.99479 345.14062 62.77604Q345.14062 61.61979 344.60938 61.02604Q344.09375 60.43229 343.3125 60.43229Q342.53125 60.43229 342.0 61.02604Q341.48438 61.604164 341.48438 62.80729ZM351.85938 63.635414L352.89062 63.77604Q352.71875 64.83854 352.01562 65.447914Q351.3125 66.05729 350.29688 66.05729Q349.01562 66.05729 348.23438 65.229164Q347.46875 64.385414 347.46875 62.822914Q347.46875 61.822914 347.79688 61.072914Q348.14062 60.30729 348.8125 59.93229Q349.5 59.55729 350.3125 59.55729Q351.3125 59.55729 351.95312 60.072914Q352.60938 60.572914 352.79688 61.52604L351.76562 61.68229Q351.625 61.05729 351.25 60.74479Q350.875 60.416664 350.34375 60.416664Q349.54688 60.416664 349.04688 60.99479Q348.54688 61.55729 348.54688 62.791664Q348.54688 64.05729 349.03125 64.61979Q349.51562 65.18229 350.28125 65.18229Q350.90625 65.18229 351.3125 64.80729Q351.73438 64.43229 351.85938 63.635414ZM358.04688 63.916664L359.14062 64.041664Q358.89062 64.99479 358.1875 65.52604Q357.48438 66.05729 356.40625 66.05729Q355.04688 66.05729 354.23438 65.21354Q353.4375 64.36979 353.4375 62.854164Q353.4375 61.291664 354.25 60.43229Q355.0625 59.55729 356.34375 59.55729Q357.59375 59.55729 358.375 60.40104Q359.17188 61.24479 359.17188 62.791664Q359.17188 62.885414 359.17188 63.072914L354.53125 63.072914Q354.59375 64.104164 355.10938 64.65104Q355.625 65.18229 356.40625 65.18229Q356.98438 65.18229 357.39062 64.885414Q357.8125 64.572914 358.04688 63.916664ZM354.59375 62.21354L358.0625 62.21354Q358.0 61.416664 357.67188 61.02604Q357.15625 60.416664 356.35938 60.416664Q355.625 60.416664 355.125 60.90104Q354.64062 61.385414 354.59375 62.21354ZM360.375 64.05729L361.40625 63.90104Q361.5 64.52604 361.89062 64.854164Q362.29688 65.18229 363.03125 65.18229Q363.75 65.18229 364.09375 64.90104Q364.45312 64.604164 364.45312 64.197914Q364.45312 63.83854 364.14062 63.635414Q363.92188 63.49479 363.0625 63.27604Q361.90625 62.979164 361.45312 62.77604Q361.01562 62.55729 360.78125 62.18229Q360.54688 61.80729 360.54688 61.33854Q360.54688 60.93229 360.73438 60.572914Q360.92188 60.21354 361.25 59.979164Q361.5 59.80729 361.92188 59.68229Q362.34375 59.55729 362.84375 59.55729Q363.5625 59.55729 364.10938 59.77604Q364.67188 59.979164 364.9375 60.33854Q365.20312 60.697914 365.29688 61.291664L364.26562 61.43229Q364.20312 60.96354 363.85938 60.697914Q363.53125 60.416664 362.90625 60.416664Q362.1875 60.416664 361.875 60.666664Q361.5625 60.90104 361.5625 61.229164Q361.5625 61.43229 361.6875 61.58854Q361.82812 61.760414 362.09375 61.86979Q362.25 61.93229 363.03125 62.135414Q364.15625 62.447914 364.59375 62.635414Q365.03125 62.822914 365.28125 63.18229Q365.53125 63.541664 365.53125 64.08854Q365.53125 64.61979 365.21875 65.08854Q364.92188 65.541664 364.34375 65.80729Q363.76562 66.05729 363.03125 66.05729Q361.8125 66.05729 361.17188 65.55729Q360.54688 65.041664 360.375 64.05729ZM367.375 64.05729L368.40625 63.90104Q368.5 64.52604 368.89062 64.854164Q369.29688 65.18229 370.03125 65.18229Q370.75 65.18229 371.09375 64.90104Q371.45312 64.604164 371.45312 64.197914Q371.45312 63.83854 371.14062 63.635414Q370.92188 63.49479 370.0625 63.27604Q368.90625 62.979164 368.45312 62.77604Q368.01562 62.55729 367.78125 62.18229Q367.54688 61.80729 367.54688 61.33854Q367.54688 60.93229 367.73438 60.572914Q367.92188 60.21354 368.25 59.979164Q368.5 59.80729 368.92188 59.68229Q369.34375 59.55729 369.84375 59.55729Q370.5625 59.55729 371.10938 59.77604Q371.67188 59.979164 371.9375 60.33854Q372.20312 60.697914 372.29688 61.291664L371.26562 61.43229Q371.20312 60.96354 370.85938 60.697914Q370.53125 60.416664 369.90625 60.416664Q369.1875 60.416664 368.875 60.666664Q368.5625 60.90104 368.5625 61.229164Q368.5625 61.43229 368.6875 61.58854Q368.82812 61.760414 369.09375 61.86979Q369.25 61.93229 370.03125 62.135414Q371.15625 62.447914 371.59375 62.635414Q372.03125 62.822914 372.28125 63.18229Q372.53125 63.541664 372.53125 64.08854Q372.53125 64.61979 372.21875 65.08854Q371.92188 65.541664 371.34375 65.80729Q370.76562 66.05729 370.03125 66.05729Q368.8125 66.05729 368.17188 65.55729Q367.54688 65.041664 367.375 64.05729ZM383.04688 64.90104L383.04688 65.916664L377.35938 65.916664Q377.35938 65.541664 377.48438 65.18229Q377.70312 64.604164 378.17188 64.041664Q378.65625 63.479164 379.5625 62.74479Q380.96875 61.58854 381.45312 60.916664Q381.95312 60.24479 381.95312 59.65104Q381.95312 59.02604 381.5 58.604164Q381.04688 58.166664 380.32812 58.166664Q379.5625 58.166664 379.10938 58.61979Q378.65625 59.072914 378.64062 59.885414L377.5625 59.77604Q377.67188 58.55729 378.39062 57.93229Q379.125 57.291664 380.35938 57.291664Q381.59375 57.291664 382.3125 57.979164Q383.03125 58.666664 383.03125 59.68229Q383.03125 60.197914 382.8125 60.697914Q382.60938 61.18229 382.10938 61.74479Q381.625 62.291664 380.5 63.24479Q379.54688 64.041664 379.26562 64.33854Q379.0 64.61979 378.82812 64.90104L383.04688 64.90104Z" fill-rule="nonzero"/><path fill="#757575" d="M23.7375 37.55L23.7375 24.925L19.01875 24.925L19.01875 23.2375L30.3625 23.2375L30.3625 24.925L25.628124 24.925L25.628124 37.55L23.7375 37.55ZM31.8625 37.55L31.8625 23.2375L33.628124 23.2375L33.628124 28.3625Q34.8625 26.940624 36.7375 26.940624Q37.878124 26.940624 38.721874 27.39375Q39.58125 27.846874 39.940624 28.659374Q40.315624 29.45625 40.315624 30.971874L40.315624 37.55L38.565624 37.55L38.565624 30.971874Q38.565624 29.659374 37.9875 29.065624Q37.409374 28.45625 36.378124 28.45625Q35.596874 28.45625 34.89375 28.8625Q34.20625 29.26875 33.909374 29.971874Q33.628124 30.659374 33.628124 31.878124L33.628124 37.55L31.8625 37.55ZM48.971874 34.20625L50.784374 34.440624Q50.3625 36.01875 49.190624 36.909374Q48.034374 37.784374 46.221874 37.784374Q43.95625 37.784374 42.6125 36.39375Q41.284374 34.9875 41.284374 32.45625Q41.284374 29.83125 42.628124 28.39375Q43.971874 26.940624 46.128124 26.940624Q48.20625 26.940624 49.51875 28.3625Q50.846874 29.76875 50.846874 32.346874Q50.846874 32.503124 50.83125 32.815624L43.096874 32.815624Q43.190624 34.51875 44.065624 35.425Q44.940624 36.33125 46.2375 36.33125Q47.20625 36.33125 47.878124 35.83125Q48.565624 35.315624 48.971874 34.20625ZM43.190624 31.3625L48.9875 31.3625Q48.878124 30.065624 48.33125 29.409374Q47.4875 28.39375 46.14375 28.39375Q44.940624 28.39375 44.1125 29.20625Q43.284374 30.003124 43.190624 31.3625ZM52.221874 32.3625Q52.221874 29.4875 53.815624 28.096874Q55.159374 26.940624 57.08125 26.940624Q59.221874 26.940624 60.565624 28.346874Q61.925 29.753124 61.925 32.221874Q61.925 34.221874 61.33125 35.378124Q60.7375 36.51875 59.58125 37.159374Q58.440624 37.784374 57.08125 37.784374Q54.89375 37.784374 53.55 36.39375Q52.221874 34.9875 52.221874 32.3625ZM54.01875 32.3625Q54.01875 34.3625 54.878124 35.346874Q55.753124 36.33125 57.08125 36.33125Q58.39375 36.33125 59.253124 35.346874Q60.128124 34.346874 60.128124 32.3Q60.128124 30.378124 59.253124 29.39375Q58.378124 28.39375 57.08125 28.39375Q55.753124 28.39375 54.878124 29.39375Q54.01875 30.378124 54.01875 32.3625ZM63.846874 37.55L63.846874 27.175L65.425 27.175L65.425 28.753124Q66.03438 27.64375 66.55 27.3Q67.06563 26.940624 67.675 26.940624Q68.56563 26.940624 69.4875 27.503124L68.87813 29.14375Q68.2375 28.753124 67.59688 28.753124Q67.01875 28.753124 66.55 29.1125Q66.09688 29.45625 65.89375 30.065624Q65.6125 31.003124 65.6125 32.1125L65.6125 37.55L63.846874 37.55ZM77.97188 34.20625L79.78438 34.440624Q79.3625 36.01875 78.19063 36.909374Q77.03438 37.784374 75.22188 37.784374Q72.95625 37.784374 71.6125 36.39375Q70.28438 34.9875 70.28438 32.45625Q70.28438 29.83125 71.62813 28.39375Q72.97188 26.940624 75.12813 26.940624Q77.20625 26.940624 78.51875 28.3625Q79.84688 29.76875 79.84688 32.346874Q79.84688 32.503124 79.83125 32.815624L72.09688 32.815624Q72.19063 34.51875 73.06563 35.425Q73.94063 36.33125 75.2375 36.33125Q76.20625 36.33125 76.87813 35.83125Q77.56563 35.315624 77.97188 34.20625ZM72.19063 31.3625L77.9875 31.3625Q77.87813 30.065624 77.33125 29.409374Q76.4875 28.39375 75.14375 28.39375Q73.94063 28.39375 73.1125 29.20625Q72.28438 30.003124 72.19063 31.3625ZM85.70625 35.971874L85.95625 37.534374Q85.22188 37.690624 84.62813 37.690624Q83.675 37.690624 83.14375 37.39375Q82.62813 37.08125 82.40938 36.596874Q82.19063 36.096874 82.19063 34.51875L82.19063 28.55L80.90938 28.55L80.90938 27.175L82.19063 27.175L82.19063 24.6125L83.94063 23.55L83.94063 27.175L85.70625 27.175L85.70625 28.55L83.94063 28.55L83.94063 34.6125Q83.94063 35.3625 84.03438 35.58125Q84.12813 35.784374 84.33125 35.925Q84.55 36.05 84.94063 36.05Q85.22188 36.05 85.70625 35.971874ZM87.87813 25.253124L87.87813 23.2375L89.64375 23.2375L89.64375 25.253124L87.87813 25.253124ZM87.87813 37.55L87.87813 27.175L89.64375 27.175L89.64375 37.55L87.87813 37.55ZM98.64375 33.753124L100.3625 33.971874Q100.08125 35.76875 98.90938 36.784374Q97.75313 37.784374 96.05 37.784374Q93.925 37.784374 92.62813 36.39375Q91.33125 35.003124 91.33125 32.409374Q91.33125 30.721874 91.87813 29.471874Q92.44063 28.20625 93.58125 27.58125Q94.72188 26.940624 96.06563 26.940624Q97.75313 26.940624 98.81563 27.8Q99.89375 28.659374 100.20625 30.221874L98.4875 30.4875Q98.25313 29.440624 97.62813 28.925Q97.00313 28.39375 96.12813 28.39375Q94.8 28.39375 93.97188 29.346874Q93.14375 30.3 93.14375 32.346874Q93.14375 34.440624 93.94063 35.39375Q94.7375 36.33125 96.03438 36.33125Q97.06563 36.33125 97.75313 35.70625Q98.45625 35.065624 98.64375 33.753124ZM108.64375 36.26875Q107.65938 37.096874 106.75313 37.440624Q105.84688 37.784374 104.81563 37.784374Q103.1125 37.784374 102.19063 36.95625Q101.26875 36.1125 101.26875 34.815624Q101.26875 34.05 101.6125 33.425Q101.97188 32.8 102.53438 32.425Q103.09688 32.034374 103.8 31.83125Q104.31563 31.70625 105.3625 31.565624Q107.4875 31.315624 108.4875 30.971874Q108.50313 30.6125 108.50313 30.503124Q108.50313 29.440624 108.00313 28.9875Q107.33125 28.39375 106.00313 28.39375Q104.75313 28.39375 104.15938 28.83125Q103.58125 29.26875 103.3 30.378124L101.58125 30.14375Q101.81563 29.034374 102.34688 28.3625Q102.87813 27.675 103.89375 27.315624Q104.90938 26.940624 106.25313 26.940624Q107.58125 26.940624 108.40938 27.253124Q109.2375 27.565624 109.62813 28.05Q110.01875 28.51875 110.175 29.2375Q110.26875 29.690624 110.26875 30.8625L110.26875 33.20625Q110.26875 35.659374 110.37813 36.315624Q110.4875 36.95625 110.83125 37.55L108.9875 37.55Q108.72188 37.003124 108.64375 36.26875ZM108.4875 32.346874Q107.53438 32.7375 105.6125 33.003124Q104.53438 33.159374 104.08125 33.3625Q103.64375 33.55 103.39375 33.925Q103.14375 34.3 103.14375 34.76875Q103.14375 35.471874 103.675 35.940624Q104.20625 36.409374 105.2375 36.409374Q106.25313 36.409374 107.03438 35.971874Q107.83125 35.51875 108.20625 34.753124Q108.4875 34.14375 108.4875 32.9875L108.4875 32.346874ZM112.83125 37.55L112.83125 23.2375L114.58125 23.2375L114.58125 37.55L112.83125 37.55ZM122.45625 32.95625L124.2375 32.8Q124.3625 33.8625 124.81563 34.55Q125.28438 35.2375 126.25313 35.675Q127.2375 36.096874 128.47188 36.096874Q129.55 36.096874 130.37813 35.784374Q131.20625 35.45625 131.6125 34.89375Q132.01875 34.33125 132.01875 33.659374Q132.01875 32.9875 131.62813 32.4875Q131.2375 31.9875 130.34688 31.64375Q129.76875 31.409374 127.78438 30.940624Q125.81563 30.471874 125.03438 30.05Q124.00313 29.51875 123.50313 28.721874Q123.00313 27.925 123.00313 26.940624Q123.00313 25.846874 123.6125 24.909374Q124.22188 23.971874 125.40938 23.4875Q126.59688 22.9875 128.03438 22.9875Q129.62813 22.9875 130.84688 23.503124Q132.06563 24.01875 132.70625 25.01875Q133.3625 26.003124 133.40938 27.26875L131.59688 27.409374Q131.45625 26.05 130.6125 25.3625Q129.76875 24.659374 128.1125 24.659374Q126.39375 24.659374 125.59688 25.3Q124.81563 25.925 124.81563 26.8Q124.81563 27.58125 125.37813 28.08125Q125.925 28.58125 128.2375 29.096874Q130.55 29.6125 131.40938 30.003124Q132.65938 30.58125 133.25313 31.471874Q133.84688 32.346874 133.84688 33.503124Q133.84688 34.64375 133.19063 35.659374Q132.53438 36.675 131.3 37.2375Q130.08125 37.8 128.55 37.8Q126.6125 37.8 125.3 37.2375Q123.9875 36.659374 123.2375 35.51875Q122.4875 34.378124 122.45625 32.95625ZM142.64375 33.753124L144.3625 33.971874Q144.08125 35.76875 142.90938 36.784374Q141.75313 37.784374 140.05 37.784374Q137.925 37.784374 136.62813 36.39375Q135.33125 35.003124 135.33125 32.409374Q135.33125 30.721874 135.87813 29.471874Q136.44063 28.20625 137.58125 27.58125Q138.72188 26.940624 140.06563 26.940624Q141.75313 26.940624 142.81563 27.8Q143.89375 28.659374 144.20625 30.221874L142.4875 30.4875Q142.25313 29.440624 141.62813 28.925Q141.00313 28.39375 140.12813 28.39375Q138.8 28.39375 137.97188 29.346874Q137.14375 30.3 137.14375 32.346874Q137.14375 34.440624 137.94063 35.39375Q138.7375 36.33125 140.03438 36.33125Q141.06563 36.33125 141.75313 35.70625Q142.45625 35.065624 142.64375 33.753124ZM145.8625 37.55L145.8625 23.2375L147.62813 23.2375L147.62813 28.3625Q148.8625 26.940624 150.7375 26.940624Q151.87813 26.940624 152.72188 27.39375Q153.58125 27.846874 153.94063 28.659374Q154.31563 29.45625 154.31563 30.971874L154.31563 37.55L152.56563 37.55L152.56563 30.971874Q152.56563 29.659374 151.9875 29.065624Q151.40938 28.45625 150.37813 28.45625Q149.59688 28.45625 148.89375 28.8625Q148.20625 29.26875 147.90938 29.971874Q147.62813 30.659374 147.62813 31.878124L147.62813 37.55L145.8625 37.55ZM162.97188 34.20625L164.78438 34.440624Q164.3625 36.01875 163.19063 36.909374Q162.03438 37.784374 160.22188 37.784374Q157.95625 37.784374 156.6125 36.39375Q155.28438 34.9875 155.28438 32.45625Q155.28438 29.83125 156.62813 28.39375Q157.97188 26.940624 160.12813 26.940624Q162.20625 26.940624 163.51875 28.3625Q164.84688 29.76875 164.84688 32.346874Q164.84688 32.503124 164.83125 32.815624L157.09688 32.815624Q157.19063 34.51875 158.06563 35.425Q158.94063 36.33125 160.2375 36.33125Q161.20625 36.33125 161.87813 35.83125Q162.56563 35.315624 162.97188 34.20625ZM157.19063 31.3625L162.9875 31.3625Q162.87813 30.065624 162.33125 29.409374Q161.4875 28.39375 160.14375 28.39375Q158.94063 28.39375 158.1125 29.20625Q157.28438 30.003124 157.19063 31.3625ZM173.59688 37.55L173.59688 36.2375Q172.6125 37.784374 170.69063 37.784374Q169.45625 37.784374 168.40938 37.096874Q167.37813 36.409374 166.8 35.190624Q166.2375 33.971874 166.2375 32.378124Q166.2375 30.815624 166.75313 29.55Q167.26875 28.284374 168.3 27.6125Q169.34688 26.940624 170.6125 26.940624Q171.55 26.940624 172.28438 27.346874Q173.01875 27.7375 173.4875 28.3625L173.4875 23.2375L175.22188 23.2375L175.22188 37.55L173.59688 37.55ZM168.03438 32.378124Q168.03438 34.3625 168.87813 35.346874Q169.72188 36.33125 170.8625 36.33125Q172.01875 36.33125 172.81563 35.39375Q173.62813 34.45625 173.62813 32.51875Q173.62813 30.39375 172.8 29.39375Q171.9875 28.39375 170.78438 28.39375Q169.6125 28.39375 168.81563 29.3625Q168.03438 30.315624 168.03438 32.378124ZM184.65938 37.55L184.65938 36.01875Q183.45625 37.784374 181.37813 37.784374Q180.45625 37.784374 179.65938 37.440624Q178.8625 37.08125 178.47188 36.55Q178.09688 36.01875 177.94063 35.2375Q177.83125 34.721874 177.83125 33.596874L177.83125 27.175L179.58125 27.175L179.58125 32.925Q179.58125 34.3 179.69063 34.784374Q179.8625 35.471874 180.39375 35.878124Q180.94063 36.26875 181.72188 36.26875Q182.51875 36.26875 183.20625 35.8625Q183.90938 35.45625 184.19063 34.76875Q184.4875 34.065624 184.4875 32.7375L184.4875 27.175L186.2375 27.175L186.2375 37.55L184.65938 37.55ZM187.83125 37.55L187.83125 23.2375L189.58125 23.2375L189.58125 37.55L187.83125 37.55ZM198.97188 34.20625L200.78438 34.440624Q200.3625 36.01875 199.19063 36.909374Q198.03438 37.784374 196.22188 37.784374Q193.95625 37.784374 192.6125 36.39375Q191.28438 34.9875 191.28438 32.45625Q191.28438 29.83125 192.62813 28.39375Q193.97188 26.940624 196.12813 26.940624Q198.20625 26.940624 199.51875 28.3625Q200.84688 29.76875 200.84688 32.346874Q200.84688 32.503124 200.83125 32.815624L193.09688 32.815624Q193.19063 34.51875 194.06563 35.425Q194.94063 36.33125 196.2375 36.33125Q197.20625 36.33125 197.87813 35.83125Q198.56563 35.315624 198.97188 34.20625ZM193.19063 31.3625L198.9875 31.3625Q198.87813 30.065624 198.33125 29.409374Q197.4875 28.39375 196.14375 28.39375Q194.94063 28.39375 194.1125 29.20625Q193.28438 30.003124 193.19063 31.3625ZM207.51875 37.55L213.01875 23.2375L215.06563 23.2375L220.925 37.55L218.76875 37.55L217.09688 33.20625L211.1125 33.20625L209.53438 37.55L207.51875 37.55ZM211.65938 31.675L216.50313 31.675L215.01875 27.70625Q214.33125 25.89375 214.00313 24.7375Q213.72188 26.1125 213.22188 27.471874L211.65938 31.675ZM221.83125 37.55L221.83125 23.2375L223.58125 23.2375L223.58125 37.55L221.83125 37.55ZM225.83125 37.55L225.83125 23.2375L227.58125 23.2375L227.58125 37.55L225.83125 37.55ZM229.22188 32.3625Q229.22188 29.4875 230.81563 28.096874Q232.15938 26.940624 234.08125 26.940624Q236.22188 26.940624 237.56563 28.346874Q238.925 29.753124 238.925 32.221874Q238.925 34.221874 238.33125 35.378124Q237.7375 36.51875 236.58125 37.159374Q235.44063 37.784374 234.08125 37.784374Q231.89375 37.784374 230.55 36.39375Q229.22188 34.9875 229.22188 32.3625ZM231.01875 32.3625Q231.01875 34.3625 231.87813 35.346874Q232.75313 36.33125 234.08125 36.33125Q235.39375 36.33125 236.25313 35.346874Q237.12813 34.346874 237.12813 32.3Q237.12813 30.378124 236.25313 29.39375Q235.37813 28.39375 234.08125 28.39375Q232.75313 28.39375 231.87813 29.39375Q231.01875 30.378124 231.01875 32.3625ZM247.64375 33.753124L249.3625 33.971874Q249.08125 35.76875 247.90938 36.784374Q246.75313 37.784374 245.05 37.784374Q242.925 37.784374 241.62813 36.39375Q240.33125 35.003124 240.33125 32.409374Q240.33125 30.721874 240.87813 29.471874Q241.44063 28.20625 242.58125 27.58125Q243.72188 26.940624 245.06563 26.940624Q246.75313 26.940624 247.81563 27.8Q248.89375 28.659374 249.20625 30.221874L247.4875 30.4875Q247.25313 29.440624 246.62813 28.925Q246.00313 28.39375 245.12813 28.39375Q243.8 28.39375 242.97188 29.346874Q242.14375 30.3 242.14375 32.346874Q242.14375 34.440624 242.94063 35.39375Q243.7375 36.33125 245.03438 36.33125Q246.06563 36.33125 246.75313 35.70625Q247.45625 35.065624 247.64375 33.753124ZM257.64374 36.26875Q256.65936 37.096874 255.75313 37.440624Q254.84688 37.784374 253.81563 37.784374Q252.1125 37.784374 251.19063 36.95625Q250.26875 36.1125 250.26875 34.815624Q250.26875 34.05 250.6125 33.425Q250.97188 32.8 251.53438 32.425Q252.09688 32.034374 252.8 31.83125Q253.31563 31.70625 254.3625 31.565624Q256.4875 31.315624 257.4875 30.971874Q257.5031 30.6125 257.5031 30.503124Q257.5031 29.440624 257.0031 28.9875Q256.33124 28.39375 255.00313 28.39375Q253.75313 28.39375 253.15938 28.83125Q252.58125 29.26875 252.3 30.378124L250.58125 30.14375Q250.81563 29.034374 251.34688 28.3625Q251.87813 27.675 252.89375 27.315624Q253.90938 26.940624 255.25313 26.940624Q256.58124 26.940624 257.40936 27.253124Q258.2375 27.565624 258.6281 28.05Q259.01874 28.51875 259.175 29.2375Q259.26874 29.690624 259.26874 30.8625L259.26874 33.20625Q259.26874 35.659374 259.3781 36.315624Q259.4875 36.95625 259.83124 37.55L257.9875 37.55Q257.72186 37.003124 257.64374 36.26875ZM257.4875 32.346874Q256.53436 32.7375 254.6125 33.003124Q253.53438 33.159374 253.08125 33.3625Q252.64375 33.55 252.39375 33.925Q252.14375 34.3 252.14375 34.76875Q252.14375 35.471874 252.675 35.940624Q253.20625 36.409374 254.2375 36.409374Q255.25313 36.409374 256.03436 35.971874Q256.83124 35.51875 257.20624 34.753124Q257.4875 34.14375 257.4875 32.9875L257.4875 32.346874ZM265.70624 35.971874L265.95624 37.534374Q265.22186 37.690624 264.6281 37.690624Q263.675 37.690624 263.14374 37.39375Q262.6281 37.08125 262.40936 36.596874Q262.1906 36.096874 262.1906 34.51875L262.1906 28.55L260.90936 28.55L260.90936 27.175L262.1906 27.175L262.1906 24.6125L263.9406 23.55L263.9406 27.175L265.70624 27.175L265.70624 28.55L263.9406 28.55L263.9406 34.6125Q263.9406 35.3625 264.03436 35.58125Q264.1281 35.784374 264.33124 35.925Q264.55 36.05 264.9406 36.05Q265.22186 36.05 265.70624 35.971874ZM267.8781 25.253124L267.8781 23.2375L269.64374 23.2375L269.64374 25.253124L267.8781 25.253124ZM267.8781 37.55L267.8781 27.175L269.64374 27.175L269.64374 37.55L267.8781 37.55ZM271.22186 32.3625Q271.22186 29.4875 272.8156 28.096874Q274.15936 26.940624 276.08124 26.940624Q278.22186 26.940624 279.5656 28.346874Q280.925 29.753124 280.925 32.221874Q280.925 34.221874 280.33124 35.378124Q279.7375 36.51875 278.58124 37.159374Q277.4406 37.784374 276.08124 37.784374Q273.89374 37.784374 272.55 36.39375Q271.22186 34.9875 271.22186 32.3625ZM273.01874 32.3625Q273.01874 34.3625 273.8781 35.346874Q274.7531 36.33125 276.08124 36.33125Q277.39374 36.33125 278.2531 35.346874Q279.1281 34.346874 279.1281 32.3Q279.1281 30.378124 278.2531 29.39375Q277.3781 28.39375 276.08124 28.39375Q274.7531 28.39375 273.8781 29.39375Q273.01874 30.378124 273.01874 32.3625ZM282.8625 37.55L282.8625 27.175L284.45624 27.175L284.45624 28.659374Q285.59686 26.940624 287.7531 26.940624Q288.6906 26.940624 289.47186 27.284374Q290.26874 27.6125 290.65936 28.159374Q291.05 28.70625 291.20624 29.45625Q291.3 29.95625 291.3 31.175L291.3 37.55L289.53436 37.55L289.53436 31.2375Q289.53436 30.159374 289.33124 29.628124Q289.1281 29.096874 288.59686 28.784374Q288.08124 28.471874 287.3781 28.471874Q286.2531 28.471874 285.4406 29.190624Q284.6281 29.89375 284.6281 31.878124L284.6281 37.55L282.8625 37.55ZM300.4875 37.55L298.8625 37.55L298.8625 23.2375L300.6125 23.2375L300.6125 28.346874Q301.7375 26.940624 303.45624 26.940624Q304.40936 26.940624 305.26874 27.33125Q306.1281 27.721874 306.675 28.425Q307.22186 29.1125 307.53436 30.096874Q307.84686 31.08125 307.84686 32.20625Q307.84686 34.878124 306.53436 36.33125Q305.22186 37.784374 303.3781 37.784374Q301.53436 37.784374 300.4875 36.253124L300.4875 37.55ZM300.47186 32.284374Q300.47186 34.14375 300.97186 34.9875Q301.8156 36.33125 303.22186 36.33125Q304.3781 36.33125 305.20624 35.33125Q306.05 34.33125 306.05 32.346874Q306.05 30.315624 305.2375 29.3625Q304.4406 28.39375 303.3 28.39375Q302.14374 28.39375 301.3 29.39375Q300.47186 30.39375 300.47186 32.284374ZM309.78436 41.55L309.59686 39.89375Q310.175 40.05 310.59686 40.05Q311.1906 40.05 311.53436 39.846874Q311.89374 39.659374 312.1125 39.315624Q312.28436 39.05 312.65936 38.003124Q312.70624 37.846874 312.8156 37.565624L308.8781 27.175L310.76874 27.175L312.925 33.190624Q313.34686 34.33125 313.675 35.58125Q313.9875 34.378124 314.39374 33.221874L316.6125 27.175L318.3781 27.175L314.425 37.721874Q313.8 39.440624 313.4406 40.08125Q312.97186 40.95625 312.3625 41.346874Q311.76874 41.753124 310.925 41.753124Q310.40936 41.753124 309.78436 41.55ZM329.7375 37.55L329.7375 24.925L325.01874 24.925L325.01874 23.2375L336.3625 23.2375L336.3625 24.925L331.6281 24.925L331.6281 37.55L329.7375 37.55ZM337.8781 25.253124L337.8781 23.2375L339.64374 23.2375L339.64374 25.253124L337.8781 25.253124ZM337.8781 37.55L337.8781 27.175L339.64374 27.175L339.64374 37.55L337.8781 37.55ZM341.8625 37.55L341.8625 27.175L343.4406 27.175L343.4406 28.628124Q343.925 27.878124 344.7375 27.409374Q345.55 26.940624 346.58124 26.940624Q347.7375 26.940624 348.47186 27.425Q349.20624 27.89375 349.51874 28.753124Q350.7531 26.940624 352.72186 26.940624Q354.26874 26.940624 355.09686 27.8Q355.925 28.659374 355.925 30.425L355.925 37.55L354.175 37.55L354.175 31.01875Q354.175 29.95625 354.0031 29.503124Q353.83124 29.034374 353.3781 28.753124Q352.9406 28.471874 352.33124 28.471874Q351.2375 28.471874 350.5031 29.20625Q349.78436 29.925 349.78436 31.51875L349.78436 37.55L348.03436 37.55L348.03436 30.815624Q348.03436 29.64375 347.59686 29.065624Q347.175 28.471874 346.1906 28.471874Q345.45624 28.471874 344.8156 28.8625Q344.1906 29.253124 343.90936 30.003124Q343.6281 30.753124 343.6281 32.175L343.6281 37.55L341.8625 37.55ZM364.97186 34.20625L366.78436 34.440624Q366.3625 36.01875 365.1906 36.909374Q364.03436 37.784374 362.22186 37.784374Q359.95624 37.784374 358.6125 36.39375Q357.28436 34.9875 357.28436 32.45625Q357.28436 29.83125 358.6281 28.39375Q359.97186 26.940624 362.1281 26.940624Q364.20624 26.940624 365.51874 28.3625Q366.84686 29.76875 366.84686 32.346874Q366.84686 32.503124 366.83124 32.815624L359.09686 32.815624Q359.1906 34.51875 360.0656 35.425Q360.9406 36.33125 362.2375 36.33125Q363.20624 36.33125 363.8781 35.83125Q364.5656 35.315624 364.97186 34.20625ZM359.1906 31.3625L364.9875 31.3625Q364.8781 30.065624 364.33124 29.409374Q363.4875 28.39375 362.14374 28.39375Q360.9406 28.39375 360.1125 29.20625Q359.28436 30.003124 359.1906 31.3625ZM378.22186 41.753124Q376.76874 39.925 375.76874 37.471874Q374.76874 35.003124 374.76874 32.3625Q374.76874 30.034374 375.51874 27.909374Q376.39374 25.440624 378.22186 22.9875L379.4875 22.9875Q378.3 25.01875 377.925 25.89375Q377.33124 27.2375 376.9875 28.70625Q376.5656 30.534374 376.5656 32.378124Q376.5656 37.065624 379.4875 41.753124L378.22186 41.753124ZM382.1281 37.55L382.1281 23.2375L388.47186 23.2375Q390.3781 23.2375 391.3781 23.628124Q392.3781 24.003124 392.97186 24.9875Q393.5656 25.95625 393.5656 27.14375Q393.5656 28.659374 392.58124 29.70625Q391.59686 30.753124 389.53436 31.034374Q390.28436 31.39375 390.675 31.753124Q391.5031 32.503124 392.2531 33.659374L394.7375 37.55L392.3625 37.55L390.45624 34.565624Q389.6281 33.284374 389.09686 32.596874Q388.5656 31.909374 388.1281 31.64375Q387.70624 31.3625 387.26874 31.253124Q386.9406 31.190624 386.22186 31.190624L384.01874 31.190624L384.01874 37.55L382.1281 37.55ZM384.01874 29.55L388.09686 29.55Q389.39374 29.55 390.1125 29.284374Q390.84686 29.01875 391.22186 28.425Q391.6125 27.83125 391.6125 27.14375Q391.6125 26.128124 390.8781 25.471874Q390.14374 24.815624 388.55 24.815624L384.01874 24.815624L384.01874 29.55ZM395.22186 32.3625Q395.22186 29.4875 396.8156 28.096874Q398.15936 26.940624 400.08124 26.940624Q402.22186 26.940624 403.5656 28.346874Q404.925 29.753124 404.925 32.221874Q404.925 34.221874 404.33124 35.378124Q403.7375 36.51875 402.58124 37.159374Q401.4406 37.784374 400.08124 37.784374Q397.89374 37.784374 396.55 36.39375Q395.22186 34.9875 395.22186 32.3625ZM397.01874 32.3625Q397.01874 34.3625 397.8781 35.346874Q398.7531 36.33125 400.08124 36.33125Q401.39374 36.33125 402.2531 35.346874Q403.1281 34.346874 403.1281 32.3Q403.1281 30.378124 402.2531 29.39375Q401.3781 28.39375 400.08124 28.39375Q398.7531 28.39375 397.8781 29.39375Q397.01874 30.378124 397.01874 32.3625ZM413.65936 37.55L413.65936 36.01875Q412.45624 37.784374 410.3781 37.784374Q409.45624 37.784374 408.65936 37.440624Q407.8625 37.08125 407.47186 36.55Q407.09686 36.01875 406.9406 35.2375Q406.83124 34.721874 406.83124 33.596874L406.83124 27.175L408.58124 27.175L408.58124 32.925Q408.58124 34.3 408.6906 34.784374Q408.8625 35.471874 409.39374 35.878124Q409.9406 36.26875 410.72186 36.26875Q411.51874 36.26875 412.20624 35.8625Q412.90936 35.45625 413.1906 34.76875Q413.4875 34.065624 413.4875 32.7375L413.4875 27.175L415.2375 27.175L415.2375 37.55L413.65936 37.55ZM416.8625 37.55L416.8625 27.175L418.45624 27.175L418.45624 28.659374Q419.59686 26.940624 421.7531 26.940624Q422.6906 26.940624 423.47186 27.284374Q424.26874 27.6125 424.65936 28.159374Q425.05 28.70625 425.20624 29.45625Q425.3 29.95625 425.3 31.175L425.3 37.55L423.53436 37.55L423.53436 31.2375Q423.53436 30.159374 423.33124 29.628124Q423.1281 29.096874 422.59686 28.784374Q422.08124 28.471874 421.3781 28.471874Q420.2531 28.471874 419.4406 29.190624Q418.6281 29.89375 418.6281 31.878124L418.6281 37.55L416.8625 37.55ZM433.59686 37.55L433.59686 36.2375Q432.6125 37.784374 430.6906 37.784374Q429.45624 37.784374 428.40936 37.096874Q427.3781 36.409374 426.8 35.190624Q426.2375 33.971874 426.2375 32.378124Q426.2375 30.815624 426.7531 29.55Q427.26874 28.284374 428.3 27.6125Q429.34686 26.940624 430.6125 26.940624Q431.55 26.940624 432.28436 27.346874Q433.01874 27.7375 433.4875 28.3625L433.4875 23.2375L435.22186 23.2375L435.22186 37.55L433.59686 37.55ZM428.03436 32.378124Q428.03436 34.3625 428.8781 35.346874Q429.72186 36.33125 430.8625 36.33125Q432.01874 36.33125 432.8156 35.39375Q433.6281 34.45625 433.6281 32.51875Q433.6281 30.39375 432.8 29.39375Q431.9875 28.39375 430.78436 28.39375Q429.6125 28.39375 428.8156 29.3625Q428.03436 30.315624 428.03436 32.378124ZM444.1281 37.55L444.1281 23.2375L450.47186 23.2375Q452.3781 23.2375 453.3781 23.628124Q454.3781 24.003124 454.97186 24.9875Q455.5656 25.95625 455.5656 27.14375Q455.5656 28.659374 454.58124 29.70625Q453.59686 30.753124 451.53436 31.034374Q452.28436 31.39375 452.675 31.753124Q453.5031 32.503124 454.2531 33.659374L456.7375 37.55L454.3625 37.55L452.45624 34.565624Q451.6281 33.284374 451.09686 32.596874Q450.5656 31.909374 450.1281 31.64375Q449.70624 31.3625 449.26874 31.253124Q448.9406 31.190624 448.22186 31.190624L446.01874 31.190624L446.01874 37.55L444.1281 37.55ZM446.01874 29.55L450.09686 29.55Q451.39374 29.55 452.1125 29.284374Q452.84686 29.01875 453.22186 28.425Q453.6125 27.83125 453.6125 27.14375Q453.6125 26.128124 452.8781 25.471874Q452.14374 24.815624 450.55 24.815624L446.01874 24.815624L446.01874 29.55ZM457.22186 32.3625Q457.22186 29.4875 458.8156 28.096874Q460.15936 26.940624 462.08124 26.940624Q464.22186 26.940624 465.5656 28.346874Q466.925 29.753124 466.925 32.221874Q466.925 34.221874 466.33124 35.378124Q465.7375 36.51875 464.58124 37.159374Q463.4406 37.784374 462.08124 37.784374Q459.89374 37.784374 458.55 36.39375Q457.22186 34.9875 457.22186 32.3625ZM459.01874 32.3625Q459.01874 34.3625 459.8781 35.346874Q460.7531 36.33125 462.08124 36.33125Q463.39374 36.33125 464.2531 35.346874Q465.1281 34.346874 465.1281 32.3Q465.1281 30.378124 464.2531 29.39375Q463.3781 28.39375 462.08124 28.39375Q460.7531 28.39375 459.8781 29.39375Q459.01874 30.378124 459.01874 32.3625ZM470.4875 37.55L468.8625 37.55L468.8625 23.2375L470.6125 23.2375L470.6125 28.346874Q471.7375 26.940624 473.45624 26.940624Q474.40936 26.940624 475.26874 27.33125Q476.1281 27.721874 476.675 28.425Q477.22186 29.1125 477.53436 30.096874Q477.84686 31.08125 477.84686 32.20625Q477.84686 34.878124 476.53436 36.33125Q475.22186 37.784374 473.3781 37.784374Q471.53436 37.784374 470.4875 36.253124L470.4875 37.55ZM470.47186 32.284374Q470.47186 34.14375 470.97186 34.9875Q471.8156 36.33125 473.22186 36.33125Q474.3781 36.33125 475.20624 35.33125Q476.05 34.33125 476.05 32.346874Q476.05 30.315624 475.2375 29.3625Q474.4406 28.39375 473.3 28.39375Q472.14374 28.39375 471.3 29.39375Q470.47186 30.39375 470.47186 32.284374ZM479.8781 25.253124L479.8781 23.2375L481.64374 23.2375L481.64374 25.253124L479.8781 25.253124ZM479.8781 37.55L479.8781 27.175L481.64374 27.175L481.64374 37.55L479.8781 37.55ZM483.8625 37.55L483.8625 27.175L485.45624 27.175L485.45624 28.659374Q486.59686 26.940624 488.7531 26.940624Q489.6906 26.940624 490.47186 27.284374Q491.26874 27.6125 491.65936 28.159374Q492.05 28.70625 492.20624 29.45625Q492.3 29.95625 492.3 31.175L492.3 37.55L490.53436 37.55L490.53436 31.2375Q490.53436 30.159374 490.33124 29.628124Q490.1281 29.096874 489.59686 28.784374Q489.08124 28.471874 488.3781 28.471874Q487.2531 28.471874 486.4406 29.190624Q485.6281 29.89375 485.6281 31.878124L485.6281 37.55L483.8625 37.55ZM495.01874 41.753124L493.76874 41.753124Q496.675 37.065624 496.675 32.378124Q496.675 30.534374 496.26874 28.7375Q495.925 27.26875 495.33124 25.925Q494.95624 25.034374 493.76874 22.9875L495.01874 22.9875Q496.8625 25.440624 497.7375 27.909374Q498.4875 30.034374 498.4875 32.3625Q498.4875 35.003124 497.47186 37.471874Q496.47186 39.925 495.01874 41.753124Z" fill-rule="nonzero"/></svg>