<svg version="1.1" viewBox="0.0 0.0 600.0 371.0" fill="none" stroke="none" stroke-linecap="square" stroke-miterlimit="10" width="600" height="371" xmlns:xlink="http://www.w3.org/1999/xlink" xmlns="http://www.w3.org/2000/svg"><path fill="#ffffff" d="M0 0L600.0 0L600.0 371.0L0 371.0L0 0Z" fill-rule="nonzero"/><path stroke="#333333" stroke-width="1.0" stroke-linecap="butt" d="M77.5 88.5L77.5 300.5" fill-rule="nonzero"/><path stroke="#cccccc" stroke-width="1.0" stroke-linecap="butt" d="M133.5 88.5L133.5 300.5" fill-rule="nonzero"/><path stroke="#cccccc" stroke-width="1.0" stroke-linecap="butt" d="M189.5 88.5L189.5 300.5" fill-rule="nonzero"/><path stroke="#cccccc" stroke-width="1.0" stroke-linecap="butt" d="M245.5 88.5L245.5 300.5" fill-rule="nonzero"/><path stroke="#cccccc" stroke-width="1.0" stroke-linecap="butt" d="M301.5 88.5L301.5 300.5" fill-rule="nonzero"/><path stroke="#cccccc" stroke-width="1.0" stroke-linecap="butt" d="M357.5 88.5L357.5 300.5" fill-rule="nonzero"/><path stroke="#cccccc" stroke-width="1.0" stroke-linecap="butt" d="M413.5 88.5L413.5 300.5" fill-rule="nonzero"/><path stroke="#cccccc" stroke-width="1.0" stroke-linecap="butt" d="M469.5 88.5L469.5 300.5" fill-rule="nonzero"/><path stroke="#cccccc" stroke-width="1.0" stroke-linecap="butt" d="M525.5 88.5L525.5 300.5" fill-rule="nonzero"/><path stroke="#cccccc" stroke-width="1.0" stroke-linecap="butt" d="M581.5 88.5L581.5 300.5" fill-rule="nonzero"/><path stroke="#333333" stroke-width="1.0" stroke-linecap="butt" d="M77.5 300.5L581.5 300.5" fill-rule="nonzero"/><path stroke="#cccccc" stroke-width="1.0" stroke-linecap="butt" d="M77.5 265.5L581.5 265.5" fill-rule="nonzero"/><path stroke="#cccccc" stroke-width="1.0" stroke-linecap="butt" d="M77.5 229.5L581.5 229.5" fill-rule="nonzero"/><path stroke="#cccccc" stroke-width="1.0" stroke-linecap="butt" d="M77.5 194.5L581.5 194.5" fill-rule="nonzero"/><path stroke="#cccccc" stroke-width="1.0" stroke-linecap="butt" d="M77.5 159.5L581.5 159.5" fill-rule="nonzero"/><path stroke="#cccccc" stroke-width="1.0" stroke-linecap="butt" d="M77.5 123.5L581.5 123.5" fill-rule="nonzero"/><path stroke="#cccccc" stroke-width="1.0" stroke-linecap="butt" d="M77.5 88.5L581.5 88.5" fill-rule="nonzero"/><clipPath id="id_0"><path d="M77.55 88.28333L581.45 88.28333L581.45 300.45L77.55 300.45L77.55 88.28333Z" clip-rule="nonzero"/></clipPath><path stroke="#4285f4" stroke-width="2.0" stroke-linecap="butt" clip-path="url(#id_0)" d="M77.55 300.45L133.5389 265.0889L189.52777 265.0889L245.51666 229.72778L301.50555 194.36667L357.49445 194.36667L413.48334 159.00555L469.47223 123.64445L525.4611 123.64445L581.45 88.28333" fill-rule="nonzero"/><path stroke="#ea4335" stroke-width="2.0" stroke-linecap="butt" clip-path="url(#id_0)" d="M77.55 300.45L133.5389 300.45L189.52777 265.0889L245.51666 265.0889L301.50555 265.0889L357.49445 229.72778L413.48334 229.72778L469.47223 229.72778L525.4611 194.36667L581.45 194.36667" fill-rule="nonzero"/><path fill="#000000" fill-opacity="0.0" clip-path="url(#id_0)" d="M80.55 300.45C80.55 302.10684 79.206856 303.45 77.55 303.45C75.89314 303.45 74.55 302.10684 74.55 300.45C74.55 298.79315 75.89314 297.45 77.55 297.45C79.206856 297.45 80.55 298.79315 80.55 300.45Z" fill-rule="nonzero"/><path fill="#000000" fill-opacity="0.0" clip-path="url(#id_0)" d="M136.5389 265.0889C136.5389 266.74576 135.19574 268.0889 133.5389 268.0889C131.88203 268.0889 130.5389 266.74576 130.5389 265.0889C130.5389 263.43204 131.88203 262.0889 133.5389 262.0889C135.19574 262.0889 136.5389 263.43204 136.5389 265.0889Z" fill-rule="nonzero"/><path fill="#000000" fill-opacity="0.0" clip-path="url(#id_0)" d="M192.52777 265.0889C192.52777 266.74576 191.18463 268.0889 189.52777 268.0889C187.87093 268.0889 186.52777 266.74576 186.52777 265.0889C186.52777 263.43204 187.87093 262.0889 189.52777 262.0889C191.18463 262.0889 192.52777 263.43204 192.52777 265.0889Z" fill-rule="nonzero"/><path fill="#000000" fill-opacity="0.0" clip-path="url(#id_0)" d="M248.51666 229.72778C248.51666 231.38463 247.17352 232.72778 245.51666 232.72778C243.85982 232.72778 242.51666 231.38463 242.51666 229.72778C242.51666 228.07092 243.85982 226.72778 245.51666 226.72778C247.17352 226.72778 248.51666 228.07092 248.51666 229.72778Z" fill-rule="nonzero"/><path fill="#000000" fill-opacity="0.0" clip-path="url(#id_0)" d="M304.50555 194.36667C304.50555 196.02351 303.1624 197.36667 301.50555 197.36667C299.8487 197.36667 298.50555 196.02351 298.50555 194.36667C298.50555 192.70981 299.8487 191.36667 301.50555 191.36667C303.1624 191.36667 304.50555 192.70981 304.50555 194.36667Z" fill-rule="nonzero"/><path fill="#000000" fill-opacity="0.0" clip-path="url(#id_0)" d="M360.49445 194.36667C360.49445 196.02351 359.1513 197.36667 357.49445 197.36667C355.8376 197.36667 354.49445 196.02351 354.49445 194.36667C354.49445 192.70981 355.8376 191.36667 357.49445 191.36667C359.1513 191.36667 360.49445 192.70981 360.49445 194.36667Z" fill-rule="nonzero"/><path fill="#000000" fill-opacity="0.0" clip-path="url(#id_0)" d="M416.48334 159.00555C416.48334 160.66241 415.1402 162.00555 413.48334 162.00555C411.82648 162.00555 410.48334 160.66241 410.48334 159.00555C410.48334 157.3487 411.82648 156.00555 413.48334 156.00555C415.1402 156.00555 416.48334 157.3487 416.48334 159.00555Z" fill-rule="nonzero"/><path fill="#000000" fill-opacity="0.0" clip-path="url(#id_0)" d="M472.47223 123.64445C472.47223 125.3013 471.1291 126.64445 469.47223 126.64445C467.81537 126.64445 466.47223 125.3013 466.47223 123.64445C466.47223 121.98759 467.81537 120.64445 469.47223 120.64445C471.1291 120.64445 472.47223 121.98759 472.47223 123.64445Z" fill-rule="nonzero"/><path fill="#000000" fill-opacity="0.0" clip-path="url(#id_0)" d="M528.4611 123.64445C528.4611 125.3013 527.118 126.64445 525.4611 126.64445C523.80426 126.64445 522.4611 125.3013 522.4611 123.64445C522.4611 121.98759 523.80426 120.64445 525.4611 120.64445C527.118 120.64445 528.4611 121.98759 528.4611 123.64445Z" fill-rule="nonzero"/><path fill="#000000" fill-opacity="0.0" clip-path="url(#id_0)" d="M584.45 88.28333C584.45 89.940186 583.1069 91.28333 581.45 91.28333C579.79315 91.28333 578.45 89.940186 578.45 88.28333C578.45 86.62648 579.79315 85.28333 581.45 85.28333C583.1069 85.28333 584.45 86.62648 584.45 88.28333Z" fill-rule="nonzero"/><path fill="#000000" fill-opacity="0.0" clip-path="url(#id_0)" d="M80.55 300.45C80.55 302.10684 79.206856 303.45 77.55 303.45C75.89314 303.45 74.55 302.10684 74.55 300.45C74.55 298.79315 75.89314 297.45 77.55 297.45C79.206856 297.45 80.55 298.79315 80.55 300.45Z" fill-rule="nonzero"/><path fill="#000000" fill-opacity="0.0" clip-path="url(#id_0)" d="M136.5389 300.45C136.5389 302.10684 135.19574 303.45 133.5389 303.45C131.88203 303.45 130.5389 302.10684 130.5389 300.45C130.5389 298.79315 131.88203 297.45 133.5389 297.45C135.19574 297.45 136.5389 298.79315 136.5389 300.45Z" fill-rule="nonzero"/><path fill="#000000" fill-opacity="0.0" clip-path="url(#id_0)" d="M192.52777 265.0889C192.52777 266.74576 191.18463 268.0889 189.52777 268.0889C187.87093 268.0889 186.52777 266.74576 186.52777 265.0889C186.52777 263.43204 187.87093 262.0889 189.52777 262.0889C191.18463 262.0889 192.52777 263.43204 192.52777 265.0889Z" fill-rule="nonzero"/><path fill="#000000" fill-opacity="0.0" clip-path="url(#id_0)" d="M248.51666 265.0889C248.51666 266.74576 247.17352 268.0889 245.51666 268.0889C243.85982 268.0889 242.51666 266.74576 242.51666 265.0889C242.51666 263.43204 243.85982 262.0889 245.51666 262.0889C247.17352 262.0889 248.51666 263.43204 248.51666 265.0889Z" fill-rule="nonzero"/><path fill="#000000" fill-opacity="0.0" clip-path="url(#id_0)" d="M304.50555 265.0889C304.50555 266.74576 303.1624 268.0889 301.50555 268.0889C299.8487 268.0889 298.50555 266.74576 298.50555 265.0889C298.50555 263.43204 299.8487 262.0889 301.50555 262.0889C303.1624 262.0889 304.50555 263.43204 304.50555 265.0889Z" fill-rule="nonzero"/><path fill="#000000" fill-opacity="0.0" clip-path="url(#id_0)" d="M360.49445 229.72778C360.49445 231.38463 359.1513 232.72778 357.49445 232.72778C355.8376 232.72778 354.49445 231.38463 354.49445 229.72778C354.49445 228.07092 355.8376 226.72778 357.49445 226.72778C359.1513 226.72778 360.49445 228.07092 360.49445 229.72778Z" fill-rule="nonzero"/><path fill="#000000" fill-opacity="0.0" clip-path="url(#id_0)" d="M416.48334 229.72778C416.48334 231.38463 415.1402 232.72778 413.48334 232.72778C411.82648 232.72778 410.48334 231.38463 410.48334 229.72778C410.48334 228.07092 411.82648 226.72778 413.48334 226.72778C415.1402 226.72778 416.48334 228.07092 416.48334 229.72778Z" fill-rule="nonzero"/><path fill="#000000" fill-opacity="0.0" clip-path="url(#id_0)" d="M472.47223 229.72778C472.47223 231.38463 471.1291 232.72778 469.47223 232.72778C467.81537 232.72778 466.47223 231.38463 466.47223 229.72778C466.47223 228.07092 467.81537 226.72778 469.47223 226.72778C471.1291 226.72778 472.47223 228.07092 472.47223 229.72778Z" fill-rule="nonzero"/><path fill="#000000" fill-opacity="0.0" clip-path="url(#id_0)" d="M528.4611 194.36667C528.4611 196.02351 527.118 197.36667 525.4611 197.36667C523.80426 197.36667 522.4611 196.02351 522.4611 194.36667C522.4611 192.70981 523.80426 191.36667 525.4611 191.36667C527.118 191.36667 528.4611 192.70981 528.4611 194.36667Z" fill-rule="nonzero"/><path fill="#000000" fill-opacity="0.0" clip-path="url(#id_0)" d="M584.45 194.36667C584.45 196.02351 583.1069 197.36667 581.45 197.36667C579.79315 197.36667 578.45 196.02351 578.45 194.36667C578.45 192.70981 579.79315 191.36667 581.45 191.36667C583.1069 191.36667 584.45 192.70981 584.45 194.36667Z" fill-rule="nonzero"/><path fill="#000000" d="M318.60938 349.45L318.60938 341.8719L315.78125 341.8719L315.78125 340.85626L322.59375 340.85626L322.59375 341.8719L319.75 341.8719L319.75 349.45L318.60938 349.45ZM323.29688 342.075L323.29688 340.85626L324.35938 340.85626L324.35938 342.075L323.29688 342.075ZM323.29688 349.45L323.29688 343.23126L324.35938 343.23126L324.35938 349.45L323.29688 349.45ZM326.29688 349.45L326.29688 343.23126L327.23438 343.23126L327.23438 344.10626Q327.53125 343.6375 328.01562 343.3719Q328.5 343.09064 329.125 343.09064Q329.8125 343.09064 330.25 343.3719Q330.70312 343.65314 330.875 344.16876Q331.625 343.09064 332.79688 343.09064Q333.73438 343.09064 334.21875 343.60626Q334.71875 344.10626 334.71875 345.1844L334.71875 349.45L333.67188 349.45L333.67188 345.52814Q333.67188 344.90314 333.5625 344.6219Q333.46875 344.34064 333.20312 344.16876Q332.9375 343.9969 332.5625 343.9969Q331.90625 343.9969 331.46875 344.4344Q331.04688 344.8719 331.04688 345.84064L331.04688 349.45L329.98438 349.45L329.98438 345.40314Q329.98438 344.7 329.71875 344.35626Q329.46875 343.9969 328.89062 343.9969Q328.4375 343.9969 328.0625 344.23126Q327.6875 344.46564 327.51562 344.91876Q327.34375 345.3719 327.34375 346.21564L327.34375 349.45L326.29688 349.45ZM341.54688 347.45L342.64062 347.575Q342.39062 348.52814 341.6875 349.0594Q340.98438 349.59064 339.90625 349.59064Q338.54688 349.59064 337.73438 348.7469Q336.9375 347.90314 336.9375 346.3875Q336.9375 344.825 337.75 343.96564Q338.5625 343.09064 339.84375 343.09064Q341.09375 343.09064 341.875 343.9344Q342.67188 344.77814 342.67188 346.325Q342.67188 346.41876 342.67188 346.60626L338.03125 346.60626Q338.09375 347.6375 338.60938 348.1844Q339.125 348.71564 339.90625 348.71564Q340.48438 348.71564 340.89062 348.41876Q341.3125 348.10626 341.54688 347.45ZM338.09375 345.7469L341.5625 345.7469Q341.5 344.95 341.17188 344.5594Q340.65625 343.95 339.85938 343.95Q339.125 343.95 338.625 344.4344Q338.14062 344.91876 338.09375 345.7469Z" fill-rule="nonzero"/><path fill="#000000" d="M29.550013 246.2573L21.971888 246.2573L21.971888 249.08542L20.956263 249.08542L20.956263 242.27292L21.971888 242.27292L21.971888 245.11667L29.550013 245.11667L29.550013 246.2573ZM22.175013 241.5698L20.956263 241.5698L20.956263 240.5073L22.175013 240.5073L22.175013 241.5698ZM29.550013 241.5698L23.331263 241.5698L23.331263 240.5073L29.550013 240.5073L29.550013 241.5698ZM29.550013 238.5698L23.331263 238.5698L23.331263 237.6323L24.206263 237.6323Q23.737513 237.33542 23.471888 236.85104Q23.190638 236.36667 23.190638 235.74167Q23.190638 235.05417 23.471888 234.61667Q23.753138 234.16354 24.268763 233.99167Q23.190638 233.24167 23.190638 232.0698Q23.190638 231.1323 23.706263 230.64792Q24.206263 230.14792 25.284388 230.14792L29.550013 230.14792L29.550013 231.1948L25.628138 231.1948Q25.003138 231.1948 24.721888 231.30417Q24.440638 231.39792 24.268763 231.66354Q24.096888 231.92917 24.096888 232.30417Q24.096888 232.96042 24.534388 233.39792Q24.971888 233.8198 25.940638 233.8198L29.550013 233.8198L29.550013 234.8823L25.503138 234.8823Q24.800013 234.8823 24.456263 235.14792Q24.096888 235.39792 24.096888 235.97604Q24.096888 236.42917 24.331263 236.80417Q24.565638 237.17917 25.018763 237.35104Q25.471888 237.52292 26.315638 237.52292L29.550013 237.52292L29.550013 238.5698ZM27.550013 223.3198L27.675013 222.22604Q28.628138 222.47604 29.159388 223.17917Q29.690638 223.8823 29.690638 224.96042Q29.690638 226.3198 28.846888 227.1323Q28.003138 227.92917 26.487513 227.92917Q24.925013 227.92917 24.065638 227.11667Q23.190638 226.30417 23.190638 225.02292Q23.190638 223.77292 24.034388 222.99167Q24.878138 222.1948 26.425013 222.1948Q26.518763 222.1948 26.706263 222.1948L26.706263 226.83542Q27.737513 226.77292 28.284388 226.2573Q28.815638 225.74167 28.815638 224.96042Q28.815638 224.3823 28.518763 223.97604Q28.206263 223.55417 27.550013 223.3198ZM25.846888 226.77292L25.846888 223.30417Q25.050013 223.36667 24.659388 223.6948Q24.050013 224.21042 24.050013 225.0073Q24.050013 225.74167 24.534388 226.24167Q25.018763 226.72604 25.846888 226.77292ZM27.690638 220.99167L27.534388 219.96042Q28.159388 219.86667 28.487513 219.47604Q28.815638 219.0698 28.815638 218.33542Q28.815638 217.61667 28.534388 217.27292Q28.237513 216.91354 27.831263 216.91354Q27.471888 216.91354 27.268763 217.22604Q27.128138 217.4448 26.909388 218.30417Q26.612513 219.46042 26.409388 219.91354Q26.190638 220.35104 25.815638 220.58542Q25.440638 220.8198 24.971888 220.8198Q24.565638 220.8198 24.206263 220.6323Q23.846888 220.4448 23.612513 220.11667Q23.440638 219.86667 23.315638 219.4448Q23.190638 219.02292 23.190638 218.52292Q23.190638 217.80417 23.409388 217.2573Q23.612513 216.6948 23.971888 216.42917Q24.331263 216.16354 24.925013 216.0698L25.065638 217.10104Q24.596888 217.16354 24.331263 217.5073Q24.050013 217.83542 24.050013 218.46042Q24.050013 219.17917 24.300013 219.49167Q24.534388 219.80417 24.862513 219.80417Q25.065638 219.80417 25.221888 219.67917Q25.393763 219.53854 25.503138 219.27292Q25.565638 219.11667 25.768763 218.33542Q26.081263 217.21042 26.268763 216.77292Q26.456263 216.33542 26.815638 216.08542Q27.175013 215.83542 27.721888 215.83542Q28.253138 215.83542 28.721888 216.14792Q29.175013 216.4448 29.440638 217.02292Q29.690638 217.60104 29.690638 218.33542Q29.690638 219.55417 29.190638 220.1948Q28.675013 220.8198 27.690638 220.99167ZM26.784388 210.8198L26.690638 209.7573Q27.346888 209.67917 27.753138 209.39792Q28.159388 209.11667 28.425013 208.53854Q28.675013 207.9448 28.675013 207.21042Q28.675013 206.5698 28.487513 206.0698Q28.284388 205.5698 27.956263 205.33542Q27.612513 205.08542 27.221888 205.08542Q26.815638 205.08542 26.518763 205.3198Q26.206263 205.55417 26.003138 206.08542Q25.862513 206.4448 25.581263 207.6323Q25.300013 208.80417 25.050013 209.27292Q24.721888 209.89792 24.253138 210.1948Q23.768763 210.49167 23.175013 210.49167Q22.534388 210.49167 21.971888 210.1323Q21.393763 209.7573 21.112513 209.05417Q20.815638 208.33542 20.815638 207.47604Q20.815638 206.52292 21.128138 205.78854Q21.425013 205.05417 22.034388 204.66354Q22.628138 204.27292 23.378138 204.24167L23.456263 205.33542Q22.643763 205.42917 22.237513 205.9448Q21.815638 206.4448 21.815638 207.42917Q21.815638 208.46042 22.190638 208.92917Q22.565638 209.39792 23.096888 209.39792Q23.565638 209.39792 23.862513 209.0698Q24.159388 208.74167 24.471888 207.36667Q24.784388 205.97604 25.018763 205.46042Q25.378138 204.71042 25.909388 204.35104Q26.425013 203.99167 27.128138 203.99167Q27.815638 203.99167 28.425013 204.3823Q29.018763 204.77292 29.362513 205.5073Q29.690638 206.24167 29.690638 207.16354Q29.690638 208.33542 29.362513 209.1323Q29.018763 209.91354 28.331263 210.36667Q27.643763 210.80417 26.784388 210.8198ZM27.268763 198.5073L27.409388 197.47604Q28.471888 197.64792 29.081263 198.35104Q29.690638 199.05417 29.690638 200.0698Q29.690638 201.35104 28.862513 202.1323Q28.018763 202.89792 26.456263 202.89792Q25.456263 202.89792 24.706263 202.5698Q23.940638 202.22604 23.565638 201.55417Q23.190638 200.86667 23.190638 200.05417Q23.190638 199.05417 23.706263 198.41354Q24.206263 197.7573 25.159388 197.5698L25.315638 198.60104Q24.690638 198.74167 24.378138 199.11667Q24.050013 199.49167 24.050013 200.02292Q24.050013 200.8198 24.628138 201.3198Q25.190638 201.8198 26.425013 201.8198Q27.690638 201.8198 28.253138 201.33542Q28.815638 200.85104 28.815638 200.08542Q28.815638 199.46042 28.440638 199.05417Q28.065638 198.6323 27.268763 198.5073ZM29.550013 196.5698L20.956263 196.5698L20.956263 195.52292L24.034388 195.52292Q23.190638 194.78854 23.190638 193.66354Q23.190638 192.96042 23.471888 192.46042Q23.737513 191.9448 24.221888 191.72604Q24.690638 191.5073 25.612513 191.5073L29.550013 191.5073L29.550013 192.55417L25.612513 192.55417Q24.815638 192.55417 24.456263 192.89792Q24.096888 193.24167 24.096888 193.86667Q24.096888 194.33542 24.346888 194.7573Q24.581263 195.16354 25.003138 195.35104Q25.409388 195.52292 26.143763 195.52292L29.550013 195.52292L29.550013 196.5698ZM27.550013 185.3198L27.675013 184.22604Q28.628138 184.47604 29.159388 185.17917Q29.690638 185.8823 29.690638 186.96042Q29.690638 188.3198 28.846888 189.1323Q28.003138 189.92917 26.487513 189.92917Q24.925013 189.92917 24.065638 189.11667Q23.190638 188.30417 23.190638 187.02292Q23.190638 185.77292 24.034388 184.99167Q24.878138 184.1948 26.425013 184.1948Q26.518763 184.1948 26.706263 184.1948L26.706263 188.83542Q27.737513 188.77292 28.284388 188.2573Q28.815638 187.74167 28.815638 186.96042Q28.815638 186.3823 28.518763 185.97604Q28.206263 185.55417 27.550013 185.3198ZM25.846888 188.77292L25.846888 185.30417Q25.050013 185.36667 24.659388 185.6948Q24.050013 186.21042 24.050013 187.0073Q24.050013 187.74167 24.534388 188.24167Q25.018763 188.72604 25.846888 188.77292ZM29.550013 178.53854L28.768763 178.53854Q29.690638 179.1323 29.690638 180.27292Q29.690638 181.02292 29.284388 181.64792Q28.862513 182.27292 28.128138 182.61667Q27.393763 182.96042 26.440638 182.96042Q25.518763 182.96042 24.753138 182.64792Q23.987513 182.33542 23.596888 181.71042Q23.190638 181.08542 23.190638 180.3198Q23.190638 179.7573 23.425013 179.3198Q23.659388 178.8823 24.034388 178.60104L20.956263 178.60104L20.956263 177.55417L29.550013 177.55417L29.550013 178.53854ZM26.440638 181.86667Q27.643763 181.86667 28.237513 181.36667Q28.815638 180.86667 28.815638 180.17917Q28.815638 179.49167 28.253138 179.0073Q27.690638 178.52292 26.534388 178.52292Q25.253138 178.52292 24.659388 179.02292Q24.065638 179.5073 24.065638 180.22604Q24.065638 180.92917 24.643763 181.39792Q25.206263 181.86667 26.440638 181.86667ZM29.550013 171.49167L28.628138 171.49167Q29.690638 172.22604 29.690638 173.47604Q29.690638 174.02292 29.487513 174.5073Q29.268763 174.97604 28.956263 175.21042Q28.628138 175.4448 28.159388 175.53854Q27.862513 175.60104 27.175013 175.60104L23.331263 175.60104L23.331263 174.53854L26.784388 174.53854Q27.596888 174.53854 27.893763 174.47604Q28.300013 174.3823 28.550013 174.0698Q28.784388 173.74167 28.784388 173.2573Q28.784388 172.78854 28.550013 172.3823Q28.300013 171.96042 27.878138 171.78854Q27.456263 171.60104 26.659388 171.60104L23.331263 171.60104L23.331263 170.55417L29.550013 170.55417L29.550013 171.49167ZM29.550013 168.60104L20.956263 168.60104L20.956263 167.53854L29.550013 167.53854L29.550013 168.60104ZM27.550013 161.3198L27.675013 160.22604Q28.628138 160.47604 29.159388 161.17917Q29.690638 161.8823 29.690638 162.96042Q29.690638 164.3198 28.846888 165.1323Q28.003138 165.92917 26.487513 165.92917Q24.925013 165.92917 24.065638 165.11667Q23.190638 164.30417 23.190638 163.02292Q23.190638 161.77292 24.034388 160.99167Q24.878138 160.1948 26.425013 160.1948Q26.518763 160.1948 26.706263 160.1948L26.706263 164.83542Q27.737513 164.77292 28.284388 164.2573Q28.815638 163.74167 28.815638 162.96042Q28.815638 162.3823 28.518763 161.97604Q28.206263 161.55417 27.550013 161.3198ZM25.846888 164.77292L25.846888 161.30417Q25.050013 161.36667 24.659388 161.6948Q24.050013 162.21042 24.050013 163.0073Q24.050013 163.74167 24.534388 164.24167Q25.018763 164.72604 25.846888 164.77292ZM29.550013 154.53854L28.768763 154.53854Q29.690638 155.1323 29.690638 156.27292Q29.690638 157.02292 29.284388 157.64792Q28.862513 158.27292 28.128138 158.61667Q27.393763 158.96042 26.440638 158.96042Q25.518763 158.96042 24.753138 158.64792Q23.987513 158.33542 23.596888 157.71042Q23.190638 157.08542 23.190638 156.3198Q23.190638 155.7573 23.425013 155.3198Q23.659388 154.8823 24.034388 154.60104L20.956263 154.60104L20.956263 153.55417L29.550013 153.55417L29.550013 154.53854ZM26.440638 157.86667Q27.643763 157.86667 28.237513 157.36667Q28.815638 156.86667 28.815638 156.17917Q28.815638 155.49167 28.253138 155.0073Q27.690638 154.52292 26.534388 154.52292Q25.253138 154.52292 24.659388 155.02292Q24.065638 155.5073 24.065638 156.22604Q24.065638 156.92917 24.643763 157.39792Q25.206263 157.86667 26.440638 157.86667Z" fill-rule="nonzero"/><path fill="#000000" d="M65.05 300.21564Q65.05 298.6844 65.3625 297.7625Q65.675 296.825 66.28438 296.325Q66.90938 295.825 67.84688 295.825Q68.53438 295.825 69.05 296.10626Q69.58125 296.3875 69.925 296.91876Q70.26875 297.4344 70.45625 298.1844Q70.64375 298.9344 70.64375 300.21564Q70.64375 301.73126 70.33125 302.65314Q70.03438 303.575 69.40938 304.09064Q68.8 304.59064 67.84688 304.59064Q66.6125 304.59064 65.89375 303.7Q65.05 302.6375 65.05 300.21564ZM66.12813 300.21564Q66.12813 302.325 66.62813 303.02814Q67.12813 303.73126 67.84688 303.73126Q68.58125 303.73126 69.06563 303.02814Q69.56563 302.325 69.56563 300.21564Q69.56563 298.09064 69.06563 297.40314Q68.58125 296.7 67.83125 296.7Q67.1125 296.7 66.675 297.3094Q66.12813 298.09064 66.12813 300.21564Z" fill-rule="nonzero"/><path fill="#000000" d="M69.01875 269.0889L67.97188 269.0889L67.97188 262.37015Q67.58125 262.72952 66.95625 263.10452Q66.34688 263.4639 65.8625 263.63577L65.8625 262.62015Q66.7375 262.19827 67.39375 261.62015Q68.06563 261.0264 68.34688 260.4639L69.01875 260.4639L69.01875 269.0889Z" fill-rule="nonzero"/><path fill="#000000" d="M70.59688 232.71216L70.59688 233.72778L64.90938 233.72778Q64.90938 233.35278 65.03438 232.99341Q65.25313 232.41528 65.72188 231.85278Q66.20625 231.29028 67.1125 230.55591Q68.51875 229.39966 69.00313 228.72778Q69.50313 228.05591 69.50313 227.46216Q69.50313 226.83716 69.05 226.41528Q68.59688 225.97778 67.87813 225.97778Q67.1125 225.97778 66.65938 226.43091Q66.20625 226.88403 66.19063 227.69653L65.1125 227.58716Q65.22188 226.36841 65.94063 225.74341Q66.675 225.10278 67.90938 225.10278Q69.14375 225.10278 69.8625 225.79028Q70.58125 226.47778 70.58125 227.49341Q70.58125 228.00903 70.3625 228.50903Q70.15938 228.99341 69.65938 229.55591Q69.175 230.10278 68.05 231.05591Q67.09688 231.85278 66.81563 232.14966Q66.55 232.43091 66.37813 232.71216L70.59688 232.71216Z" fill-rule="nonzero"/><path fill="#000000" d="M65.05 196.10104L66.1125 195.96042Q66.28438 196.85104 66.72188 197.2573Q67.15938 197.64792 67.78438 197.64792Q68.53438 197.64792 69.05 197.1323Q69.56563 196.61667 69.56563 195.85104Q69.56563 195.1323 69.08125 194.66354Q68.6125 194.17917 67.87813 194.17917Q67.58125 194.17917 67.12813 194.30417L67.25313 193.36667Q67.3625 193.3823 67.425 193.3823Q68.09688 193.3823 68.62813 193.03854Q69.175 192.67917 69.175 191.9448Q69.175 191.36667 68.78438 190.99167Q68.39375 190.60104 67.76875 190.60104Q67.15938 190.60104 66.7375 190.99167Q66.33125 191.3823 66.22188 192.14792L65.15938 191.96042Q65.34688 190.91354 66.03438 190.33542Q66.72188 189.74167 67.7375 189.74167Q68.44063 189.74167 69.03438 190.05417Q69.62813 190.35104 69.94063 190.86667Q70.25313 191.3823 70.25313 191.97604Q70.25313 192.52292 69.95625 192.99167Q69.65938 193.4448 69.08125 193.71042Q69.83125 193.8823 70.25313 194.4448Q70.675 194.99167 70.675 195.83542Q70.675 196.96042 69.84688 197.74167Q69.03438 198.52292 67.78438 198.52292Q66.65938 198.52292 65.90938 197.85104Q65.15938 197.16354 65.05 196.10104Z" fill-rule="nonzero"/><path fill="#000000" d="M68.425 163.00555L68.425 160.94305L64.70625 160.94305L64.70625 159.9743L68.62813 154.4118L69.4875 154.4118L69.4875 159.9743L70.64375 159.9743L70.64375 160.94305L69.4875 160.94305L69.4875 163.00555L68.425 163.00555ZM68.425 159.9743L68.425 156.11493L65.7375 159.9743L68.425 159.9743Z" fill-rule="nonzero"/><path fill="#000000" d="M65.05 125.39445L66.15938 125.3007Q66.28438 126.1132 66.72188 126.51945Q67.175 126.9257 67.81563 126.9257Q68.56563 126.9257 69.09688 126.34757Q69.62813 125.76945 69.62813 124.83195Q69.62813 123.9257 69.1125 123.41007Q68.6125 122.87882 67.78438 122.87882Q67.28438 122.87882 66.8625 123.1132Q66.45625 123.34757 66.22188 123.70695L65.2375 123.58195L66.06563 119.1757L70.34688 119.1757L70.34688 120.1757L66.90938 120.1757L66.45625 122.4882Q67.22188 121.94132 68.06563 121.94132Q69.19063 121.94132 69.95625 122.72257Q70.7375 123.50382 70.7375 124.7382Q70.7375 125.89445 70.06563 126.75382Q69.2375 127.78507 67.81563 127.78507Q66.64375 127.78507 65.89375 127.12882Q65.15938 126.47257 65.05 125.39445Z" fill-rule="nonzero"/><path fill="#000000" d="M70.51875 85.79896L69.47188 85.87708Q69.33125 85.25208 69.08125 84.97083Q68.64375 84.51771 68.01875 84.51771Q67.51875 84.51771 67.12813 84.79896Q66.64375 85.17396 66.34688 85.87708Q66.06563 86.56458 66.05 87.84583Q66.425 87.26771 66.97188 86.98646Q67.53438 86.70521 68.14375 86.70521Q69.19063 86.70521 69.925 87.48646Q70.675 88.26771 70.675 89.48646Q70.675 90.29896 70.31563 91.00208Q69.97188 91.68958 69.3625 92.06458Q68.75313 92.42396 67.9875 92.42396Q66.65938 92.42396 65.83125 91.45521Q65.00313 90.48646 65.00313 88.26771Q65.00313 85.76771 65.925 84.64271Q66.72188 83.65833 68.08125 83.65833Q69.09688 83.65833 69.7375 84.23646Q70.39375 84.79896 70.51875 85.79896ZM66.22188 89.50208Q66.22188 90.04896 66.44063 90.54896Q66.675 91.03333 67.08125 91.29896Q67.50313 91.56458 67.97188 91.56458Q68.62813 91.56458 69.1125 91.03333Q69.59688 90.48646 69.59688 89.56458Q69.59688 88.67396 69.1125 88.15833Q68.64375 87.64271 67.925 87.64271Q67.20625 87.64271 66.70625 88.15833Q66.22188 88.67396 66.22188 89.50208Z" fill-rule="nonzero"/><path fill="#000000" d="M74.55 313.21564Q74.55 311.6844 74.8625 310.7625Q75.175 309.825 75.78438 309.325Q76.40938 308.825 77.34688 308.825Q78.03438 308.825 78.55 309.10626Q79.08125 309.3875 79.425 309.91876Q79.76875 310.4344 79.95625 311.1844Q80.14375 311.9344 80.14375 313.21564Q80.14375 314.73126 79.83125 315.65314Q79.53438 316.575 78.90938 317.09064Q78.3 317.59064 77.34688 317.59064Q76.1125 317.59064 75.39375 316.7Q74.55 315.6375 74.55 313.21564ZM75.62813 313.21564Q75.62813 315.325 76.12813 316.02814Q76.62813 316.73126 77.34688 316.73126Q78.08125 316.73126 78.56563 316.02814Q79.06563 315.325 79.06563 313.21564Q79.06563 311.09064 78.56563 310.40314Q78.08125 309.7 77.33125 309.7Q76.6125 309.7 76.175 310.3094Q75.62813 311.09064 75.62813 313.21564Z" fill-rule="nonzero"/><path fill="#000000" d="M134.50764 317.45L133.46077 317.45L133.46077 310.73126Q133.07014 311.09064 132.44514 311.46564Q131.83577 311.825 131.3514 311.9969L131.3514 310.98126Q132.2264 310.5594 132.88264 309.98126Q133.55452 309.3875 133.83577 308.825L134.50764 308.825L134.50764 317.45Z" fill-rule="nonzero"/><path fill="#000000" d="M192.07465 316.4344L192.07465 317.45L186.38715 317.45Q186.38715 317.075 186.51215 316.71564Q186.7309 316.1375 187.19965 315.575Q187.68402 315.0125 188.59027 314.27814Q189.99652 313.1219 190.4809 312.45Q190.9809 311.77814 190.9809 311.1844Q190.9809 310.5594 190.52777 310.1375Q190.07465 309.7 189.3559 309.7Q188.59027 309.7 188.13715 310.15314Q187.68402 310.60626 187.6684 311.41876L186.59027 311.3094Q186.69965 310.09064 187.4184 309.46564Q188.15277 308.825 189.38715 308.825Q190.62152 308.825 191.34027 309.5125Q192.05902 310.2 192.05902 311.21564Q192.05902 311.73126 191.84027 312.23126Q191.63715 312.71564 191.13715 313.27814Q190.65277 313.825 189.52777 314.77814Q188.57465 315.575 188.2934 315.8719Q188.02777 316.15314 187.8559 316.4344L192.07465 316.4344Z" fill-rule="nonzero"/><path fill="#000000" d="M242.51666 315.1844L243.57916 315.04376Q243.75104 315.9344 244.18854 316.34064Q244.62604 316.73126 245.25104 316.73126Q246.00104 316.73126 246.51666 316.21564Q247.03229 315.7 247.03229 314.9344Q247.03229 314.21564 246.54791 313.7469Q246.07916 313.2625 245.34479 313.2625Q245.04791 313.2625 244.59479 313.3875L244.71979 312.45Q244.82916 312.46564 244.89166 312.46564Q245.56354 312.46564 246.09479 312.1219Q246.64166 311.7625 246.64166 311.02814Q246.64166 310.45 246.25104 310.075Q245.86041 309.6844 245.23541 309.6844Q244.62604 309.6844 244.20416 310.075Q243.79791 310.46564 243.68854 311.23126L242.62604 311.04376Q242.81354 309.9969 243.50104 309.41876Q244.18854 308.825 245.20416 308.825Q245.90729 308.825 246.50104 309.1375Q247.09479 309.4344 247.40729 309.95Q247.71979 310.46564 247.71979 311.0594Q247.71979 311.60626 247.42291 312.075Q247.12604 312.52814 246.54791 312.79376Q247.29791 312.96564 247.71979 313.52814Q248.14166 314.075 248.14166 314.91876Q248.14166 316.04376 247.31354 316.825Q246.50104 317.60626 245.25104 317.60626Q244.12604 317.60626 243.37604 316.9344Q242.62604 316.2469 242.51666 315.1844Z" fill-rule="nonzero"/><path fill="#000000" d="M301.88055 317.45L301.88055 315.3875L298.1618 315.3875L298.1618 314.41876L302.08368 308.85626L302.94305 308.85626L302.94305 314.41876L304.0993 314.41876L304.0993 315.3875L302.94305 315.3875L302.94305 317.45L301.88055 317.45ZM301.88055 314.41876L301.88055 310.5594L299.19305 314.41876L301.88055 314.41876Z" fill-rule="nonzero"/><path fill="#000000" d="M354.49445 315.2L355.60382 315.10626Q355.72882 315.91876 356.16632 316.325Q356.61945 316.73126 357.26007 316.73126Q358.01007 316.73126 358.54132 316.15314Q359.07257 315.575 359.07257 314.6375Q359.07257 313.73126 358.55695 313.21564Q358.05695 312.6844 357.22882 312.6844Q356.72882 312.6844 356.30695 312.91876Q355.9007 313.15314 355.66632 313.5125L354.68195 313.3875L355.51007 308.98126L359.79132 308.98126L359.79132 309.98126L356.35382 309.98126L355.9007 312.29376Q356.66632 311.7469 357.51007 311.7469Q358.63507 311.7469 359.4007 312.52814Q360.18195 313.3094 360.18195 314.54376Q360.18195 315.7 359.51007 316.5594Q358.68195 317.59064 357.26007 317.59064Q356.0882 317.59064 355.3382 316.9344Q354.60382 316.27814 354.49445 315.2Z" fill-rule="nonzero"/><path fill="#000000" d="M415.9521 310.96564L414.9052 311.04376Q414.7646 310.41876 414.5146 310.1375Q414.0771 309.6844 413.4521 309.6844Q412.9521 309.6844 412.56146 309.96564Q412.0771 310.34064 411.7802 311.04376Q411.49896 311.73126 411.48334 313.0125Q411.85834 312.4344 412.4052 312.15314Q412.9677 311.8719 413.5771 311.8719Q414.62396 311.8719 415.35834 312.65314Q416.10834 313.4344 416.10834 314.65314Q416.10834 315.46564 415.74896 316.16876Q415.4052 316.85626 414.79584 317.23126Q414.18646 317.59064 413.42084 317.59064Q412.0927 317.59064 411.2646 316.6219Q410.43646 315.65314 410.43646 313.4344Q410.43646 310.9344 411.35834 309.8094Q412.1552 308.825 413.5146 308.825Q414.5302 308.825 415.17084 309.40314Q415.8271 309.96564 415.9521 310.96564ZM411.6552 314.66876Q411.6552 315.21564 411.87396 315.71564Q412.10834 316.2 412.5146 316.46564Q412.93646 316.73126 413.4052 316.73126Q414.06146 316.73126 414.54584 316.2Q415.0302 315.65314 415.0302 314.73126Q415.0302 313.84064 414.54584 313.325Q414.0771 312.8094 413.35834 312.8094Q412.6396 312.8094 412.1396 313.325Q411.6552 313.84064 411.6552 314.66876Z" fill-rule="nonzero"/><path fill="#000000" d="M466.53473 309.98126L466.53473 308.96564L472.09723 308.96564L472.09723 309.79376Q471.28473 310.66876 470.47223 312.1219Q469.67535 313.5594 469.23785 315.09064Q468.90973 316.16876 468.8316 317.45L467.73785 317.45Q467.75348 316.4344 468.12848 314.9969Q468.5191 313.5594 469.22223 312.23126Q469.94098 310.90314 470.75348 309.98126L466.53473 309.98126Z" fill-rule="nonzero"/><path fill="#000000" d="M524.0861 312.79376Q523.4299 312.54376 523.10175 312.10626Q522.78925 311.65314 522.78925 311.04376Q522.78925 310.10626 523.4611 309.46564Q524.1486 308.825 525.258 308.825Q526.383 308.825 527.0705 309.48126Q527.758 310.1375 527.758 311.075Q527.758 311.66876 527.4455 312.10626Q527.133 312.54376 526.4924 312.79376Q527.28925 313.04376 527.6955 313.6219Q528.10175 314.2 528.10175 314.9969Q528.10175 316.09064 527.3205 316.84064Q526.5549 317.59064 525.2736 317.59064Q524.008 317.59064 523.22675 316.84064Q522.4455 316.09064 522.4455 314.96564Q522.4455 314.1219 522.8674 313.5594Q523.3049 312.9969 524.0861 312.79376ZM523.8674 310.9969Q523.8674 311.60626 524.258 311.9969Q524.66425 312.3875 525.28925 312.3875Q525.8986 312.3875 526.28925 312.0125Q526.6799 311.6219 526.6799 311.0594Q526.6799 310.48126 526.2736 310.09064Q525.8674 309.6844 525.2736 309.6844Q524.66425 309.6844 524.258 310.075Q523.8674 310.46564 523.8674 310.9969ZM523.53925 314.96564Q523.53925 315.41876 523.7424 315.84064Q523.9611 316.2625 524.383 316.4969Q524.8049 316.73126 525.28925 316.73126Q526.03925 316.73126 526.5236 316.2469Q527.0236 315.7625 527.0236 315.0125Q527.0236 314.2469 526.5236 313.7469Q526.0236 313.2469 525.258 313.2469Q524.508 313.2469 524.0236 313.7469Q523.53925 314.23126 523.53925 314.96564Z" fill-rule="nonzero"/><path fill="#000000" d="M578.60626 315.46564L579.6219 315.3719Q579.7469 316.09064 580.10626 316.41876Q580.48126 316.73126 581.04376 316.73126Q581.52814 316.73126 581.8875 316.5125Q582.2625 316.27814 582.4969 315.91876Q582.73126 315.54376 582.8875 314.91876Q583.04376 314.27814 583.04376 313.6219Q583.04376 313.54376 583.04376 313.40314Q582.73126 313.90314 582.1844 314.23126Q581.6375 314.54376 580.9969 314.54376Q579.91876 314.54376 579.1844 313.77814Q578.45 312.9969 578.45 311.73126Q578.45 310.41876 579.21564 309.6219Q579.9969 308.825 581.15314 308.825Q581.98126 308.825 582.66876 309.27814Q583.3719 309.73126 583.73126 310.575Q584.09064 311.40314 584.09064 312.98126Q584.09064 314.6219 583.73126 315.60626Q583.3875 316.575 582.66876 317.09064Q581.96564 317.59064 581.02814 317.59064Q580.0125 317.59064 579.3719 317.04376Q578.73126 316.48126 578.60626 315.46564ZM582.91876 311.66876Q582.91876 310.7625 582.4344 310.23126Q581.96564 309.7 581.27814 309.7Q580.575 309.7 580.04376 310.27814Q579.52814 310.84064 579.52814 311.7625Q579.52814 312.575 580.02814 313.09064Q580.52814 313.60626 581.2469 313.60626Q581.98126 313.60626 582.45 313.09064Q582.91876 312.575 582.91876 311.66876Z" fill-rule="nonzero"/><path stroke="#4285f4" stroke-width="4.0" stroke-linecap="butt" d="M149.0 61.916668L161.0 61.916668" fill-rule="nonzero"/><path fill="#1a1a1a" d="M169.92188 65.916664L169.92188 57.322914L173.17188 57.322914Q174.01562 57.322914 174.46875 57.40104Q175.10938 57.510414 175.53125 57.80729Q175.96875 58.104164 176.21875 58.635414Q176.48438 59.166664 176.48438 59.80729Q176.48438 60.90104 175.78125 61.666664Q175.09375 62.416664 173.26562 62.416664L171.0625 62.416664L171.0625 65.916664L169.92188 65.916664ZM171.0625 61.416664L173.28125 61.416664Q174.39062 61.416664 174.84375 61.010414Q175.3125 60.58854 175.3125 59.83854Q175.3125 59.30729 175.03125 58.93229Q174.76562 58.541664 174.32812 58.416664Q174.03125 58.33854 173.26562 58.33854L171.0625 58.33854L171.0625 61.416664ZM177.78125 65.916664L177.78125 59.697914L178.73438 59.697914L178.73438 60.635414Q179.09375 59.979164 179.39062 59.77604Q179.70312 59.55729 180.07812 59.55729Q180.60938 59.55729 181.15625 59.885414L180.79688 60.86979Q180.40625 60.635414 180.03125 60.635414Q179.67188 60.635414 179.39062 60.854164Q179.125 61.05729 179.01562 61.43229Q178.82812 61.99479 178.82812 62.65104L178.82812 65.916664L177.78125 65.916664ZM181.40625 62.80729Q181.40625 61.072914 182.35938 60.24479Q183.15625 59.55729 184.3125 59.55729Q185.59375 59.55729 186.40625 60.40104Q187.23438 61.229164 187.23438 62.71354Q187.23438 63.916664 186.875 64.604164Q186.51562 65.291664 185.8125 65.68229Q185.125 66.05729 184.3125 66.05729Q183.01562 66.05729 182.20312 65.229164Q181.40625 64.385414 181.40625 62.80729ZM182.48438 62.80729Q182.48438 63.99479 183.0 64.58854Q183.53125 65.18229 184.3125 65.18229Q185.10938 65.18229 185.625 64.58854Q186.14062 63.99479 186.14062 62.77604Q186.14062 61.61979 185.60938 61.02604Q185.09375 60.43229 184.3125 60.43229Q183.53125 60.43229 183.0 61.02604Q182.48438 61.604164 182.48438 62.80729ZM192.85938 63.635414L193.89062 63.77604Q193.71875 64.83854 193.01562 65.447914Q192.3125 66.05729 191.29688 66.05729Q190.01562 66.05729 189.23438 65.229164Q188.46875 64.385414 188.46875 62.822914Q188.46875 61.822914 188.79688 61.072914Q189.14062 60.30729 189.8125 59.93229Q190.5 59.55729 191.3125 59.55729Q192.3125 59.55729 192.95312 60.072914Q193.60938 60.572914 193.79688 61.52604L192.76562 61.68229Q192.625 61.05729 192.25 60.74479Q191.875 60.416664 191.34375 60.416664Q190.54688 60.416664 190.04688 60.99479Q189.54688 61.55729 189.54688 62.791664Q189.54688 64.05729 190.03125 64.61979Q190.51562 65.18229 191.28125 65.18229Q191.90625 65.18229 192.3125 64.80729Q192.73438 64.43229 192.85938 63.635414ZM199.04688 63.916664L200.14062 64.041664Q199.89062 64.99479 199.1875 65.52604Q198.48438 66.05729 197.40625 66.05729Q196.04688 66.05729 195.23438 65.21354Q194.4375 64.36979 194.4375 62.854164Q194.4375 61.291664 195.25 60.43229Q196.0625 59.55729 197.34375 59.55729Q198.59375 59.55729 199.375 60.40104Q200.17188 61.24479 200.17188 62.791664Q200.17188 62.885414 200.17188 63.072914L195.53125 63.072914Q195.59375 64.104164 196.10938 64.65104Q196.625 65.18229 197.40625 65.18229Q197.98438 65.18229 198.39062 64.885414Q198.8125 64.572914 199.04688 63.916664ZM195.59375 62.21354L199.0625 62.21354Q199.0 61.416664 198.67188 61.02604Q198.15625 60.416664 197.35938 60.416664Q196.625 60.416664 196.125 60.90104Q195.64062 61.385414 195.59375 62.21354ZM201.375 64.05729L202.40625 63.90104Q202.5 64.52604 202.89062 64.854164Q203.29688 65.18229 204.03125 65.18229Q204.75 65.18229 205.09375 64.90104Q205.45312 64.604164 205.45312 64.197914Q205.45312 63.83854 205.14062 63.635414Q204.92188 63.49479 204.0625 63.27604Q202.90625 62.979164 202.45312 62.77604Q202.01562 62.55729 201.78125 62.18229Q201.54688 61.80729 201.54688 61.33854Q201.54688 60.93229 201.73438 60.572914Q201.92188 60.21354 202.25 59.979164Q202.5 59.80729 202.92188 59.68229Q203.34375 59.55729 203.84375 59.55729Q204.5625 59.55729 205.10938 59.77604Q205.67188 59.979164 205.9375 60.33854Q206.20312 60.697914 206.29688 61.291664L205.26562 61.43229Q205.20312 60.96354 204.85938 60.697914Q204.53125 60.416664 203.90625 60.416664Q203.1875 60.416664 202.875 60.666664Q202.5625 60.90104 202.5625 61.229164Q202.5625 61.43229 202.6875 61.58854Q202.82812 61.760414 203.09375 61.86979Q203.25 61.93229 204.03125 62.135414Q205.15625 62.447914 205.59375 62.635414Q206.03125 62.822914 206.28125 63.18229Q206.53125 63.541664 206.53125 64.08854Q206.53125 64.61979 206.21875 65.08854Q205.92188 65.541664 205.34375 65.80729Q204.76562 66.05729 204.03125 66.05729Q202.8125 66.05729 202.17188 65.55729Q201.54688 65.041664 201.375 64.05729ZM208.375 64.05729L209.40625 63.90104Q209.5 64.52604 209.89062 64.854164Q210.29688 65.18229 211.03125 65.18229Q211.75 65.18229 212.09375 64.90104Q212.45312 64.604164 212.45312 64.197914Q212.45312 63.83854 212.14062 63.635414Q211.92188 63.49479 211.0625 63.27604Q209.90625 62.979164 209.45312 62.77604Q209.01562 62.55729 208.78125 62.18229Q208.54688 61.80729 208.54688 61.33854Q208.54688 60.93229 208.73438 60.572914Q208.92188 60.21354 209.25 59.979164Q209.5 59.80729 209.92188 59.68229Q210.34375 59.55729 210.84375 59.55729Q211.5625 59.55729 212.10938 59.77604Q212.67188 59.979164 212.9375 60.33854Q213.20312 60.697914 213.29688 61.291664L212.26562 61.43229Q212.20312 60.96354 211.85938 60.697914Q211.53125 60.416664 210.90625 60.416664Q210.1875 60.416664 209.875 60.666664Q209.5625 60.90104 209.5625 61.229164Q209.5625 61.43229 209.6875 61.58854Q209.82812 61.760414 210.09375 61.86979Q210.25 61.93229 211.03125 62.135414Q212.15625 62.447914 212.59375 62.635414Q213.03125 62.822914 213.28125 63.18229Q213.53125 63.541664 213.53125 64.08854Q213.53125 64.61979 213.21875 65.08854Q212.92188 65.541664 212.34375 65.80729Q211.76562 66.05729 211.03125 66.05729Q209.8125 66.05729 209.17188 65.55729Q208.54688 65.041664 208.375 64.05729ZM222.46875 65.916664L221.42188 65.916664L221.42188 59.197914Q221.03125 59.55729 220.40625 59.93229Q219.79688 60.291664 219.3125 60.46354L219.3125 59.447914Q220.1875 59.02604 220.84375 58.447914Q221.51562 57.854164 221.79688 57.291664L222.46875 57.291664L222.46875 65.916664ZM230.8125 68.447914Q229.9375 67.33854 229.32812 65.86979Q228.73438 64.385414 228.73438 62.80729Q228.73438 61.416664 229.17188 60.135414Q229.70312 58.65104 230.8125 57.18229L231.5625 57.18229Q230.85938 58.40104 230.625 58.916664Q230.26562 59.729164 230.0625 60.604164Q229.8125 61.697914 229.8125 62.80729Q229.8125 65.635414 231.5625 68.447914L230.8125 68.447914ZM232.54688 63.15104L233.60938 63.05729Q233.6875 63.71354 233.96875 64.11979Q234.25 64.52604 234.82812 64.791664Q235.42188 65.041664 236.15625 65.041664Q236.79688 65.041664 237.29688 64.854164Q237.79688 64.65104 238.03125 64.322914Q238.28125 63.979164 238.28125 63.58854Q238.28125 63.18229 238.04688 62.885414Q237.8125 62.572914 237.28125 62.36979Q236.92188 62.229164 235.73438 61.947914Q234.5625 61.666664 234.09375 61.416664Q233.46875 61.08854 233.17188 60.61979Q232.875 60.135414 232.875 59.541664Q232.875 58.90104 233.23438 58.33854Q233.60938 57.760414 234.3125 57.479164Q235.03125 57.18229 235.89062 57.18229Q236.84375 57.18229 237.57812 57.49479Q238.3125 57.791664 238.70312 58.40104Q239.09375 58.99479 239.125 59.74479L238.03125 59.822914Q237.9375 59.010414 237.42188 58.604164Q236.92188 58.18229 235.9375 58.18229Q234.90625 58.18229 234.4375 58.55729Q233.96875 58.93229 233.96875 59.46354Q233.96875 59.93229 234.29688 60.229164Q234.625 60.52604 236.0 60.83854Q237.39062 61.15104 237.90625 61.385414Q238.65625 61.74479 239.01562 62.27604Q239.375 62.791664 239.375 63.49479Q239.375 64.18229 238.98438 64.791664Q238.59375 65.385414 237.85938 65.729164Q237.125 66.05729 236.20312 66.05729Q235.03125 66.05729 234.23438 65.729164Q233.45312 65.385414 233.0 64.697914Q232.5625 64.010414 232.54688 63.15104ZM243.09375 64.979164L243.25 65.90104Q242.79688 65.99479 242.45312 65.99479Q241.875 65.99479 241.5625 65.822914Q241.25 65.635414 241.10938 65.33854Q240.98438 65.041664 240.98438 64.08854L240.98438 60.510414L240.21875 60.510414L240.21875 59.697914L240.98438 59.697914L240.98438 58.15104L242.03125 57.52604L242.03125 59.697914L243.09375 59.697914L243.09375 60.510414L242.03125 60.510414L242.03125 64.15104Q242.03125 64.604164 242.07812 64.729164Q242.14062 64.854164 242.26562 64.93229Q242.39062 65.010414 242.625 65.010414Q242.8125 65.010414 243.09375 64.979164ZM243.78125 65.916664L243.78125 59.697914L244.73438 59.697914L244.73438 60.635414Q245.09375 59.979164 245.39062 59.77604Q245.70312 59.55729 246.07812 59.55729Q246.60938 59.55729 247.15625 59.885414L246.79688 60.86979Q246.40625 60.635414 246.03125 60.635414Q245.67188 60.635414 245.39062 60.854164Q245.125 61.05729 245.01562 61.43229Q244.82812 61.99479 244.82812 62.65104L244.82812 65.916664L243.78125 65.916664ZM247.79688 58.541664L247.79688 57.322914L248.85938 57.322914L248.85938 58.541664L247.79688 58.541664ZM247.79688 65.916664L247.79688 59.697914L248.85938 59.697914L248.85938 65.916664L247.79688 65.916664ZM254.82812 65.916664L254.82812 65.135414Q254.23438 66.05729 253.09375 66.05729Q252.34375 66.05729 251.71875 65.65104Q251.09375 65.229164 250.75 64.49479Q250.40625 63.760414 250.40625 62.80729Q250.40625 61.885414 250.71875 61.11979Q251.03125 60.354164 251.65625 59.96354Q252.28125 59.55729 253.04688 59.55729Q253.60938 59.55729 254.04688 59.791664Q254.48438 60.02604 254.76562 60.40104L254.76562 57.322914L255.8125 57.322914L255.8125 65.916664L254.82812 65.916664ZM251.5 62.80729Q251.5 64.010414 252.0 64.604164Q252.5 65.18229 253.1875 65.18229Q253.875 65.18229 254.35938 64.61979Q254.84375 64.05729 254.84375 62.90104Q254.84375 61.61979 254.34375 61.02604Q253.85938 60.43229 253.14062 60.43229Q252.4375 60.43229 251.96875 61.010414Q251.5 61.572914 251.5 62.80729ZM262.04688 63.916664L263.14062 64.041664Q262.89062 64.99479 262.1875 65.52604Q261.48438 66.05729 260.40625 66.05729Q259.04688 66.05729 258.23438 65.21354Q257.4375 64.36979 257.4375 62.854164Q257.4375 61.291664 258.25 60.43229Q259.0625 59.55729 260.34375 59.55729Q261.59375 59.55729 262.375 60.40104Q263.17188 61.24479 263.17188 62.791664Q263.17188 62.885414 263.17188 63.072914L258.53125 63.072914Q258.59375 64.104164 259.10938 64.65104Q259.625 65.18229 260.40625 65.18229Q260.98438 65.18229 261.39062 64.885414Q261.8125 64.572914 262.04688 63.916664ZM258.59375 62.21354L262.0625 62.21354Q262.0 61.416664 261.67188 61.02604Q261.15625 60.416664 260.35938 60.416664Q259.625 60.416664 259.125 60.90104Q258.64062 61.385414 258.59375 62.21354ZM271.46875 65.916664L270.42188 65.916664L270.42188 59.197914Q270.03125 59.55729 269.40625 59.93229Q268.79688 60.291664 268.3125 60.46354L268.3125 59.447914Q269.1875 59.02604 269.84375 58.447914Q270.51562 57.854164 270.79688 57.291664L271.46875 57.291664L271.46875 65.916664ZM274.5 61.68229Q274.5 60.15104 274.8125 59.229164Q275.125 58.291664 275.73438 57.791664Q276.35938 57.291664 277.29688 57.291664Q277.98438 57.291664 278.5 57.572914Q279.03125 57.854164 279.375 58.385414Q279.71875 58.90104 279.90625 59.65104Q280.09375 60.40104 280.09375 61.68229Q280.09375 63.197914 279.78125 64.11979Q279.48438 65.041664 278.85938 65.55729Q278.25 66.05729 277.29688 66.05729Q276.0625 66.05729 275.34375 65.166664Q274.5 64.104164 274.5 61.68229ZM275.57812 61.68229Q275.57812 63.791664 276.07812 64.49479Q276.57812 65.197914 277.29688 65.197914Q278.03125 65.197914 278.51562 64.49479Q279.01562 63.791664 279.01562 61.68229Q279.01562 59.55729 278.51562 58.86979Q278.03125 58.166664 277.28125 58.166664Q276.5625 58.166664 276.125 58.77604Q275.57812 59.55729 275.57812 61.68229ZM281.5 61.68229Q281.5 60.15104 281.8125 59.229164Q282.125 58.291664 282.73438 57.791664Q283.35938 57.291664 284.29688 57.291664Q284.98438 57.291664 285.5 57.572914Q286.03125 57.854164 286.375 58.385414Q286.71875 58.90104 286.90625 59.65104Q287.09375 60.40104 287.09375 61.68229Q287.09375 63.197914 286.78125 64.11979Q286.48438 65.041664 285.85938 65.55729Q285.25 66.05729 284.29688 66.05729Q283.0625 66.05729 282.34375 65.166664Q281.5 64.104164 281.5 61.68229ZM282.57812 61.68229Q282.57812 63.791664 283.07812 64.49479Q283.57812 65.197914 284.29688 65.197914Q285.03125 65.197914 285.51562 64.49479Q286.01562 63.791664 286.01562 61.68229Q286.01562 59.55729 285.51562 58.86979Q285.03125 58.166664 284.28125 58.166664Q283.5625 58.166664 283.125 58.77604Q282.57812 59.55729 282.57812 61.68229ZM289.48438 68.447914L288.73438 68.447914Q290.48438 65.635414 290.48438 62.80729Q290.48438 61.71354 290.23438 60.61979Q290.03125 59.74479 289.67188 58.93229Q289.4375 58.416664 288.73438 57.18229L289.48438 57.18229Q290.57812 58.65104 291.10938 60.135414Q291.5625 61.416664 291.5625 62.80729Q291.5625 64.385414 290.95312 65.86979Q290.34375 67.33854 289.48438 68.447914Z" fill-rule="nonzero"/><path stroke="#ea4335" stroke-width="4.0" stroke-linecap="butt" d="M308.0 61.916668L320.0 61.916668" fill-rule="nonzero"/><path fill="#1a1a1a" d="M328.92188 65.916664L328.92188 57.322914L332.17188 57.322914Q333.01562 57.322914 333.46875 57.40104Q334.10938 57.510414 334.53125 57.80729Q334.96875 58.104164 335.21875 58.635414Q335.48438 59.166664 335.48438 59.80729Q335.48438 60.90104 334.78125 61.666664Q334.09375 62.416664 332.26562 62.416664L330.0625 62.416664L330.0625 65.916664L328.92188 65.916664ZM330.0625 61.416664L332.28125 61.416664Q333.39062 61.416664 333.84375 61.010414Q334.3125 60.58854 334.3125 59.83854Q334.3125 59.30729 334.03125 58.93229Q333.76562 58.541664 333.32812 58.416664Q333.03125 58.33854 332.26562 58.33854L330.0625 58.33854L330.0625 61.416664ZM336.78125 65.916664L336.78125 59.697914L337.73438 59.697914L337.73438 60.635414Q338.09375 59.979164 338.39062 59.77604Q338.70312 59.55729 339.07812 59.55729Q339.60938 59.55729 340.15625 59.885414L339.79688 60.86979Q339.40625 60.635414 339.03125 60.635414Q338.67188 60.635414 338.39062 60.854164Q338.125 61.05729 338.01562 61.43229Q337.82812 61.99479 337.82812 62.65104L337.82812 65.916664L336.78125 65.916664ZM340.40625 62.80729Q340.40625 61.072914 341.35938 60.24479Q342.15625 59.55729 343.3125 59.55729Q344.59375 59.55729 345.40625 60.40104Q346.23438 61.229164 346.23438 62.71354Q346.23438 63.916664 345.875 64.604164Q345.51562 65.291664 344.8125 65.68229Q344.125 66.05729 343.3125 66.05729Q342.01562 66.05729 341.20312 65.229164Q340.40625 64.385414 340.40625 62.80729ZM341.48438 62.80729Q341.48438 63.99479 342.0 64.58854Q342.53125 65.18229 343.3125 65.18229Q344.10938 65.18229 344.625 64.58854Q345.14062 63.99479 345.14062 62.77604Q345.14062 61.61979 344.60938 61.02604Q344.09375 60.43229 343.3125 60.43229Q342.53125 60.43229 342.0 61.02604Q341.48438 61.604164 341.48438 62.80729ZM351.85938 63.635414L352.89062 63.77604Q352.71875 64.83854 352.01562 65.447914Q351.3125 66.05729 350.29688 66.05729Q349.01562 66.05729 348.23438 65.229164Q347.46875 64.385414 347.46875 62.822914Q347.46875 61.822914 347.79688 61.072914Q348.14062 60.30729 348.8125 59.93229Q349.5 59.55729 350.3125 59.55729Q351.3125 59.55729 351.95312 60.072914Q352.60938 60.572914 352.79688 61.52604L351.76562 61.68229Q351.625 61.05729 351.25 60.74479Q350.875 60.416664 350.34375 60.416664Q349.54688 60.416664 349.04688 60.99479Q348.54688 61.55729 348.54688 62.791664Q348.54688 64.05729 349.03125 64.61979Q349.51562 65.18229 350.28125 65.18229Q350.90625 65.18229 351.3125 64.80729Q351.73438 64.43229 351.85938 63.635414ZM358.04688 63.916664L359.14062 64.041664Q358.89062 64.99479 358.1875 65.52604Q357.48438 66.05729 356.40625 66.05729Q355.04688 66.05729 354.23438 65.21354Q353.4375 64.36979 353.4375 62.854164Q353.4375 61.291664 354.25 60.43229Q355.0625 59.55729 356.34375 59.55729Q357.59375 59.55729 358.375 60.40104Q359.17188 61.24479 359.17188 62.791664Q359.17188 62.885414 359.17188 63.072914L354.53125 63.072914Q354.59375 64.104164 355.10938 64.65104Q355.625 65.18229 356.40625 65.18229Q356.98438 65.18229 357.39062 64.885414Q357.8125 64.572914 358.04688 63.916664ZM354.59375 62.21354L358.0625 62.21354Q358.0 61.416664 357.67188 61.02604Q357.15625 60.416664 356.35938 60.416664Q355.625 60.416664 355.125 60.90104Q354.64062 61.385414 354.59375 62.21354ZM360.375 64.05729L361.40625 63.90104Q361.5 64.52604 361.89062 64.854164Q362.29688 65.18229 363.03125 65.18229Q363.75 65.18229 364.09375 64.90104Q364.45312 64.604164 364.45312 64.197914Q364.45312 63.83854 364.14062 63.635414Q363.92188 63.49479 363.0625 63.27604Q361.90625 62.979164 361.45312 62.77604Q361.01562 62.55729 360.78125 62.18229Q360.54688 61.80729 360.54688 61.33854Q360.54688 60.93229 360.73438 60.572914Q360.92188 60.21354 361.25 59.979164Q361.5 59.80729 361.92188 59.68229Q362.34375 59.55729 362.84375 59.55729Q363.5625 59.55729 364.10938 59.77604Q364.67188 59.979164 364.9375 60.33854Q365.20312 60.697914 365.29688 61.291664L364.26562 61.43229Q364.20312 60.96354 363.85938 60.697914Q363.53125 60.416664 362.90625 60.416664Q362.1875 60.416664 361.875 60.666664Q361.5625 60.90104 361.5625 61.229164Q361.5625 61.43229 361.6875 61.58854Q361.82812 61.760414 362.09375 61.86979Q362.25 61.93229 363.03125 62.135414Q364.15625 62.447914 364.59375 62.635414Q365.03125 62.822914 365.28125 63.18229Q365.53125 63.541664 365.53125 64.08854Q365.53125 64.61979 365.21875 65.08854Q364.92188 65.541664 364.34375 65.80729Q363.76562 66.05729 363.03125 66.05729Q361.8125 66.05729 361.17188 65.55729Q360.54688 65.041664 360.375 64.05729ZM367.375 64.05729L368.40625 63.90104Q368.5 64.52604 368.89062 64.854164Q369.29688 65.18229 370.03125 65.18229Q370.75 65.18229 371.09375 64.90104Q371.45312 64.604164 371.45312 64.197914Q371.45312 63.83854 371.14062 63.635414Q370.92188 63.49479 370.0625 63.27604Q368.90625 62.979164 368.45312 62.77604Q368.01562 62.55729 367.78125 62.18229Q367.54688 61.80729 367.54688 61.33854Q367.54688 60.93229 367.73438 60.572914Q367.92188 60.21354 368.25 59.979164Q368.5 59.80729 368.92188 59.68229Q369.34375 59.55729 369.84375 59.55729Q370.5625 59.55729 371.10938 59.77604Q371.67188 59.979164 371.9375 60.33854Q372.20312 60.697914 372.29688 61.291664L371.26562 61.43229Q371.20312 60.96354 370.85938 60.697914Q370.53125 60.416664 369.90625 60.416664Q369.1875 60.416664 368.875 60.666664Q368.5625 60.90104 368.5625 61.229164Q368.5625 61.43229 368.6875 61.58854Q368.82812 61.760414 369.09375 61.86979Q369.25 61.93229 370.03125 62.135414Q371.15625 62.447914 371.59375 62.635414Q372.03125 62.822914 372.28125 63.18229Q372.53125 63.541664 372.53125 64.08854Q372.53125 64.61979 372.21875 65.08854Q371.92188 65.541664 371.34375 65.80729Q370.76562 66.05729 370.03125 66.05729Q368.8125 66.05729 368.17188 65.55729Q367.54688 65.041664 367.375 64.05729ZM383.04688 64.90104L383.04688 65.916664L377.35938 65.916664Q377.35938 65.541664 377.48438 65.18229Q377.70312 64.604164 378.17188 64.041664Q378.65625 63.479164 379.5625 62.74479Q380.96875 61.58854 381.45312 60.916664Q381.95312 60.24479 381.95312 59.65104Q381.95312 59.02604 381.5 58.604164Q381.04688 58.166664 380.32812 58.166664Q379.5625 58.166664 379.10938 58.61979Q378.65625 59.072914 378.64062 59.885414L377.5625 59.77604Q377.67188 58.55729 378.39062 57.93229Q379.125 57.291664 380.35938 57.291664Q381.59375 57.291664 382.3125 57.979164Q383.03125 58.666664 383.03125 59.68229Q383.03125 60.197914 382.8125 60.697914Q382.60938 61.18229 382.10938 61.74479Q381.625 62.291664 380.5 63.24479Q379.54688 64.041664 379.26562 64.33854Q379.0 64.61979 378.82812 64.90104L383.04688 64.90104ZM389.8125 68.447914Q388.9375 67.33854 388.32812 65.86979Q387.73438 64.385414 387.73438 62.80729Q387.73438 61.416664 388.17188 60.135414Q388.70312 58.65104 389.8125 57.18229L390.5625 57.18229Q389.85938 58.40104 389.625 58.916664Q389.26562 59.729164 389.0625 60.604164Q388.8125 61.697914 388.8125 62.80729Q388.8125 65.635414 390.5625 68.447914L389.8125 68.447914ZM391.54688 63.15104L392.60938 63.05729Q392.6875 63.71354 392.96875 64.11979Q393.25 64.52604 393.82812 64.791664Q394.42188 65.041664 395.15625 65.041664Q395.79688 65.041664 396.29688 64.854164Q396.79688 64.65104 397.03125 64.322914Q397.28125 63.979164 397.28125 63.58854Q397.28125 63.18229 397.04688 62.885414Q396.8125 62.572914 396.28125 62.36979Q395.92188 62.229164 394.73438 61.947914Q393.5625 61.666664 393.09375 61.416664Q392.46875 61.08854 392.17188 60.61979Q391.875 60.135414 391.875 59.541664Q391.875 58.90104 392.23438 58.33854Q392.60938 57.760414 393.3125 57.479164Q394.03125 57.18229 394.89062 57.18229Q395.84375 57.18229 396.57812 57.49479Q397.3125 57.791664 397.70312 58.40104Q398.09375 58.99479 398.125 59.74479L397.03125 59.822914Q396.9375 59.010414 396.42188 58.604164Q395.92188 58.18229 394.9375 58.18229Q393.90625 58.18229 393.4375 58.55729Q392.96875 58.93229 392.96875 59.46354Q392.96875 59.93229 393.29688 60.229164Q393.625 60.52604 395.0 60.83854Q396.39062 61.15104 396.90625 61.385414Q397.65625 61.74479 398.01562 62.27604Q398.375 62.791664 398.375 63.49479Q398.375 64.18229 397.98438 64.791664Q397.59375 65.385414 396.85938 65.729164Q396.125 66.05729 395.20312 66.05729Q394.03125 66.05729 393.23438 65.729164Q392.45312 65.385414 392.0 64.697914Q391.5625 64.010414 391.54688 63.15104ZM402.09375 64.979164L402.25 65.90104Q401.79688 65.99479 401.45312 65.99479Q400.875 65.99479 400.5625 65.822914Q400.25 65.635414 400.10938 65.33854Q399.98438 65.041664 399.98438 64.08854L399.98438 60.510414L399.21875 60.510414L399.21875 59.697914L399.98438 59.697914L399.98438 58.15104L401.03125 57.52604L401.03125 59.697914L402.09375 59.697914L402.09375 60.510414L401.03125 60.510414L401.03125 64.15104Q401.03125 64.604164 401.07812 64.729164Q401.14062 64.854164 401.26562 64.93229Q401.39062 65.010414 401.625 65.010414Q401.8125 65.010414 402.09375 64.979164ZM402.78125 65.916664L402.78125 59.697914L403.73438 59.697914L403.73438 60.635414Q404.09375 59.979164 404.39062 59.77604Q404.70312 59.55729 405.07812 59.55729Q405.60938 59.55729 406.15625 59.885414L405.79688 60.86979Q405.40625 60.635414 405.03125 60.635414Q404.67188 60.635414 404.39062 60.854164Q404.125 61.05729 404.01562 61.43229Q403.82812 61.99479 403.82812 62.65104L403.82812 65.916664L402.78125 65.916664ZM406.79688 58.541664L406.79688 57.322914L407.85938 57.322914L407.85938 58.541664L406.79688 58.541664ZM406.79688 65.916664L406.79688 59.697914L407.85938 59.697914L407.85938 65.916664L406.79688 65.916664ZM413.82812 65.916664L413.82812 65.135414Q413.23438 66.05729 412.09375 66.05729Q411.34375 66.05729 410.71875 65.65104Q410.09375 65.229164 409.75 64.49479Q409.40625 63.760414 409.40625 62.80729Q409.40625 61.885414 409.71875 61.11979Q410.03125 60.354164 410.65625 59.96354Q411.28125 59.55729 412.04688 59.55729Q412.60938 59.55729 413.04688 59.791664Q413.48438 60.02604 413.76562 60.40104L413.76562 57.322914L414.8125 57.322914L414.8125 65.916664L413.82812 65.916664ZM410.5 62.80729Q410.5 64.010414 411.0 64.604164Q411.5 65.18229 412.1875 65.18229Q412.875 65.18229 413.35938 64.61979Q413.84375 64.05729 413.84375 62.90104Q413.84375 61.61979 413.34375 61.02604Q412.85938 60.43229 412.14062 60.43229Q411.4375 60.43229 410.96875 61.010414Q410.5 61.572914 410.5 62.80729ZM421.04688 63.916664L422.14062 64.041664Q421.89062 64.99479 421.1875 65.52604Q420.48438 66.05729 419.40625 66.05729Q418.04688 66.05729 417.23438 65.21354Q416.4375 64.36979 416.4375 62.854164Q416.4375 61.291664 417.25 60.43229Q418.0625 59.55729 419.34375 59.55729Q420.59375 59.55729 421.375 60.40104Q422.17188 61.24479 422.17188 62.791664Q422.17188 62.885414 422.17188 63.072914L417.53125 63.072914Q417.59375 64.104164 418.10938 64.65104Q418.625 65.18229 419.40625 65.18229Q419.98438 65.18229 420.39062 64.885414Q420.8125 64.572914 421.04688 63.916664ZM417.59375 62.21354L421.0625 62.21354Q421.0 61.416664 420.67188 61.02604Q420.15625 60.416664 419.35938 60.416664Q418.625 60.416664 418.125 60.90104Q417.64062 61.385414 417.59375 62.21354ZM432.04688 64.90104L432.04688 65.916664L426.35938 65.916664Q426.35938 65.541664 426.48438 65.18229Q426.70312 64.604164 427.17188 64.041664Q427.65625 63.479164 428.5625 62.74479Q429.96875 61.58854 430.45312 60.916664Q430.95312 60.24479 430.95312 59.65104Q430.95312 59.02604 430.5 58.604164Q430.04688 58.166664 429.32812 58.166664Q428.5625 58.166664 428.10938 58.61979Q427.65625 59.072914 427.64062 59.885414L426.5625 59.77604Q426.67188 58.55729 427.39062 57.93229Q428.125 57.291664 429.35938 57.291664Q430.59375 57.291664 431.3125 57.979164Q432.03125 58.666664 432.03125 59.68229Q432.03125 60.197914 431.8125 60.697914Q431.60938 61.18229 431.10938 61.74479Q430.625 62.291664 429.5 63.24479Q428.54688 64.041664 428.26562 64.33854Q428.0 64.61979 427.82812 64.90104L432.04688 64.90104ZM433.5 61.68229Q433.5 60.15104 433.8125 59.229164Q434.125 58.291664 434.73438 57.791664Q435.35938 57.291664 436.29688 57.291664Q436.98438 57.291664 437.5 57.572914Q438.03125 57.854164 438.375 58.385414Q438.71875 58.90104 438.90625 59.65104Q439.09375 60.40104 439.09375 61.68229Q439.09375 63.197914 438.78125 64.11979Q438.48438 65.041664 437.85938 65.55729Q437.25 66.05729 436.29688 66.05729Q435.0625 66.05729 434.34375 65.166664Q433.5 64.104164 433.5 61.68229ZM434.57812 61.68229Q434.57812 63.791664 435.07812 64.49479Q435.57812 65.197914 436.29688 65.197914Q437.03125 65.197914 437.51562 64.49479Q438.01562 63.791664 438.01562 61.68229Q438.01562 59.55729 437.51562 58.86979Q437.03125 58.166664 436.28125 58.166664Q435.5625 58.166664 435.125 58.77604Q434.57812 59.55729 434.57812 61.68229ZM440.5 61.68229Q440.5 60.15104 440.8125 59.229164Q441.125 58.291664 441.73438 57.791664Q442.35938 57.291664 443.29688 57.291664Q443.98438 57.291664 444.5 57.572914Q445.03125 57.854164 445.375 58.385414Q445.71875 58.90104 445.90625 59.65104Q446.09375 60.40104 446.09375 61.68229Q446.09375 63.197914 445.78125 64.11979Q445.48438 65.041664 444.85938 65.55729Q444.25 66.05729 443.29688 66.05729Q442.0625 66.05729 441.34375 65.166664Q440.5 64.104164 440.5 61.68229ZM441.57812 61.68229Q441.57812 63.791664 442.07812 64.49479Q442.57812 65.197914 443.29688 65.197914Q444.03125 65.197914 444.51562 64.49479Q445.01562 63.791664 445.01562 61.68229Q445.01562 59.55729 444.51562 58.86979Q444.03125 58.166664 443.28125 58.166664Q442.5625 58.166664 442.125 58.77604Q441.57812 59.55729 441.57812 61.68229ZM448.48438 68.447914L447.73438 68.447914Q449.48438 65.635414 449.48438 62.80729Q449.48438 61.71354 449.23438 60.61979Q449.03125 59.74479 448.67188 58.93229Q448.4375 58.416664 447.73438 57.18229L448.48438 57.18229Q449.57812 58.65104 450.10938 60.135414Q450.5625 61.416664 450.5625 62.80729Q450.5625 64.385414 449.95312 65.86979Q449.34375 67.33854 448.48438 68.447914Z" fill-rule="nonzero"/><path fill="#757575" d="M23.7375 36.55L23.7375 23.925L19.01875 23.925L19.01875 22.2375L30.3625 22.2375L30.3625 23.925L25.628124 23.925L25.628124 36.55L23.7375 36.55ZM31.8625 36.55L31.8625 22.2375L33.628124 22.2375L33.628124 27.3625Q34.8625 25.940624 36.7375 25.940624Q37.878124 25.940624 38.721874 26.39375Q39.58125 26.846874 39.940624 27.659374Q40.315624 28.45625 40.315624 29.971874L40.315624 36.55L38.565624 36.55L38.565624 29.971874Q38.565624 28.659374 37.9875 28.065624Q37.409374 27.45625 36.378124 27.45625Q35.596874 27.45625 34.89375 27.8625Q34.20625 28.26875 33.909374 28.971874Q33.628124 29.659374 33.628124 30.878124L33.628124 36.55L31.8625 36.55ZM48.971874 33.20625L50.784374 33.440624Q50.3625 35.01875 49.190624 35.909374Q48.034374 36.784374 46.221874 36.784374Q43.95625 36.784374 42.6125 35.39375Q41.284374 33.9875 41.284374 31.45625Q41.284374 28.83125 42.628124 27.39375Q43.971874 25.940624 46.128124 25.940624Q48.20625 25.940624 49.51875 27.3625Q50.846874 28.76875 50.846874 31.346874Q50.846874 31.503124 50.83125 31.815624L43.096874 31.815624Q43.190624 33.51875 44.065624 34.425Q44.940624 35.33125 46.2375 35.33125Q47.20625 35.33125 47.878124 34.83125Q48.565624 34.315624 48.971874 33.20625ZM43.190624 30.3625L48.9875 30.3625Q48.878124 29.065624 48.33125 28.409374Q47.4875 27.39375 46.14375 27.39375Q44.940624 27.39375 44.1125 28.20625Q43.284374 29.003124 43.190624 30.3625ZM52.221874 31.3625Q52.221874 28.4875 53.815624 27.096874Q55.159374 25.940624 57.08125 25.940624Q59.221874 25.940624 60.565624 27.346874Q61.925 28.753124 61.925 31.221874Q61.925 33.221874 61.33125 34.378124Q60.7375 35.51875 59.58125 36.159374Q58.440624 36.784374 57.08125 36.784374Q54.89375 36.784374 53.55 35.39375Q52.221874 33.9875 52.221874 31.3625ZM54.01875 31.3625Q54.01875 33.3625 54.878124 34.346874Q55.753124 35.33125 57.08125 35.33125Q58.39375 35.33125 59.253124 34.346874Q60.128124 33.346874 60.128124 31.3Q60.128124 29.378124 59.253124 28.39375Q58.378124 27.39375 57.08125 27.39375Q55.753124 27.39375 54.878124 28.39375Q54.01875 29.378124 54.01875 31.3625ZM63.846874 36.55L63.846874 26.175L65.425 26.175L65.425 27.753124Q66.03438 26.64375 66.55 26.3Q67.06563 25.940624 67.675 25.940624Q68.56563 25.940624 69.4875 26.503124L68.87813 28.14375Q68.2375 27.753124 67.59688 27.753124Q67.01875 27.753124 66.55 28.1125Q66.09688 28.45625 65.89375 29.065624Q65.6125 30.003124 65.6125 31.1125L65.6125 36.55L63.846874 36.55ZM77.97188 33.20625L79.78438 33.440624Q79.3625 35.01875 78.19063 35.909374Q77.03438 36.784374 75.22188 36.784374Q72.95625 36.784374 71.6125 35.39375Q70.28438 33.9875 70.28438 31.45625Q70.28438 28.83125 71.62813 27.39375Q72.97188 25.940624 75.12813 25.940624Q77.20625 25.940624 78.51875 27.3625Q79.84688 28.76875 79.84688 31.346874Q79.84688 31.503124 79.83125 31.815624L72.09688 31.815624Q72.19063 33.51875 73.06563 34.425Q73.94063 35.33125 75.2375 35.33125Q76.20625 35.33125 76.87813 34.83125Q77.56563 34.315624 77.97188 33.20625ZM72.19063 30.3625L77.9875 30.3625Q77.87813 29.065624 77.33125 28.409374Q76.4875 27.39375 75.14375 27.39375Q73.94063 27.39375 73.1125 28.20625Q72.28438 29.003124 72.19063 30.3625ZM85.70625 34.971874L85.95625 36.534374Q85.22188 36.690624 84.62813 36.690624Q83.675 36.690624 83.14375 36.39375Q82.62813 36.08125 82.40938 35.596874Q82.19063 35.096874 82.19063 33.51875L82.19063 27.55L80.90938 27.55L80.90938 26.175L82.19063 26.175L82.19063 23.6125L83.94063 22.55L83.94063 26.175L85.70625 26.175L85.70625 27.55L83.94063 27.55L83.94063 33.6125Q83.94063 34.3625 84.03438 34.58125Q84.12813 34.784374 84.33125 34.925Q84.55 35.05 84.94063 35.05Q85.22188 35.05 85.70625 34.971874ZM87.87813 24.253124L87.87813 22.2375L89.64375 22.2375L89.64375 24.253124L87.87813 24.253124ZM87.87813 36.55L87.87813 26.175L89.64375 26.175L89.64375 36.55L87.87813 36.55ZM98.64375 32.753124L100.3625 32.971874Q100.08125 34.76875 98.90938 35.784374Q97.75313 36.784374 96.05 36.784374Q93.925 36.784374 92.62813 35.39375Q91.33125 34.003124 91.33125 31.409374Q91.33125 29.721874 91.87813 28.471874Q92.44063 27.20625 93.58125 26.58125Q94.72188 25.940624 96.06563 25.940624Q97.75313 25.940624 98.81563 26.8Q99.89375 27.659374 100.20625 29.221874L98.4875 29.4875Q98.25313 28.440624 97.62813 27.925Q97.00313 27.39375 96.12813 27.39375Q94.8 27.39375 93.97188 28.346874Q93.14375 29.3 93.14375 31.346874Q93.14375 33.440624 93.94063 34.39375Q94.7375 35.33125 96.03438 35.33125Q97.06563 35.33125 97.75313 34.70625Q98.45625 34.065624 98.64375 32.753124ZM108.64375 35.26875Q107.65938 36.096874 106.75313 36.440624Q105.84688 36.784374 104.81563 36.784374Q103.1125 36.784374 102.19063 35.95625Q101.26875 35.1125 101.26875 33.815624Q101.26875 33.05 101.6125 32.425Q101.97188 31.8 102.53438 31.425Q103.09688 31.034374 103.8 30.83125Q104.31563 30.70625 105.3625 30.565624Q107.4875 30.315624 108.4875 29.971874Q108.50313 29.6125 108.50313 29.503124Q108.50313 28.440624 108.00313 27.9875Q107.33125 27.39375 106.00313 27.39375Q104.75313 27.39375 104.15938 27.83125Q103.58125 28.26875 103.3 29.378124L101.58125 29.14375Q101.81563 28.034374 102.34688 27.3625Q102.87813 26.675 103.89375 26.315624Q104.90938 25.940624 106.25313 25.940624Q107.58125 25.940624 108.40938 26.253124Q109.2375 26.565624 109.62813 27.05Q110.01875 27.51875 110.175 28.2375Q110.26875 28.690624 110.26875 29.8625L110.26875 32.20625Q110.26875 34.659374 110.37813 35.315624Q110.4875 35.95625 110.83125 36.55L108.9875 36.55Q108.72188 36.003124 108.64375 35.26875ZM108.4875 31.346874Q107.53438 31.7375 105.6125 32.003124Q104.53438 32.159374 104.08125 32.3625Q103.64375 32.55 103.39375 32.925Q103.14375 33.3 103.14375 33.76875Q103.14375 34.471874 103.675 34.940624Q104.20625 35.409374 105.2375 35.409374Q106.25313 35.409374 107.03438 34.971874Q107.83125 34.51875 108.20625 33.753124Q108.4875 33.14375 108.4875 31.9875L108.4875 31.346874ZM112.83125 36.55L112.83125 22.2375L114.58125 22.2375L114.58125 36.55L112.83125 36.55ZM122.45625 31.95625L124.2375 31.8Q124.3625 32.8625 124.81563 33.55Q125.28438 34.2375 126.25313 34.675Q127.2375 35.096874 128.47188 35.096874Q129.55 35.096874 130.37813 34.784374Q131.20625 34.45625 131.6125 33.89375Q132.01875 33.33125 132.01875 32.659374Q132.01875 31.9875 131.62813 31.4875Q131.2375 30.9875 130.34688 30.64375Q129.76875 30.409374 127.78438 29.940624Q125.81563 29.471874 125.03438 29.05Q124.00313 28.51875 123.50313 27.721874Q123.00313 26.925 123.00313 25.940624Q123.00313 24.846874 123.6125 23.909374Q124.22188 22.971874 125.40938 22.4875Q126.59688 21.9875 128.03438 21.9875Q129.62813 21.9875 130.84688 22.503124Q132.06563 23.01875 132.70625 24.01875Q133.3625 25.003124 133.40938 26.26875L131.59688 26.409374Q131.45625 25.05 130.6125 24.3625Q129.76875 23.659374 128.1125 23.659374Q126.39375 23.659374 125.59688 24.3Q124.81563 24.925 124.81563 25.8Q124.81563 26.58125 125.37813 27.08125Q125.925 27.58125 128.2375 28.096874Q130.55 28.6125 131.40938 29.003124Q132.65938 29.58125 133.25313 30.471874Q133.84688 31.346874 133.84688 32.503124Q133.84688 33.64375 133.19063 34.659374Q132.53438 35.675 131.3 36.2375Q130.08125 36.8 128.55 36.8Q126.6125 36.8 125.3 36.2375Q123.9875 35.659374 123.2375 34.51875Q122.4875 33.378124 122.45625 31.95625ZM142.64375 32.753124L144.3625 32.971874Q144.08125 34.76875 142.90938 35.784374Q141.75313 36.784374 140.05 36.784374Q137.925 36.784374 136.62813 35.39375Q135.33125 34.003124 135.33125 31.409374Q135.33125 29.721874 135.87813 28.471874Q136.44063 27.20625 137.58125 26.58125Q138.72188 25.940624 140.06563 25.940624Q141.75313 25.940624 142.81563 26.8Q143.89375 27.659374 144.20625 29.221874L142.4875 29.4875Q142.25313 28.440624 141.62813 27.925Q141.00313 27.39375 140.12813 27.39375Q138.8 27.39375 137.97188 28.346874Q137.14375 29.3 137.14375 31.346874Q137.14375 33.440624 137.94063 34.39375Q138.7375 35.33125 140.03438 35.33125Q141.06563 35.33125 141.75313 34.70625Q142.45625 34.065624 142.64375 32.753124ZM145.8625 36.55L145.8625 22.2375L147.62813 22.2375L147.62813 27.3625Q148.8625 25.940624 150.7375 25.940624Q151.87813 25.940624 152.72188 26.39375Q153.58125 26.846874 153.94063 27.659374Q154.31563 28.45625 154.31563 29.971874L154.31563 36.55L152.56563 36.55L152.56563 29.971874Q152.56563 28.659374 151.9875 28.065624Q151.40938 27.45625 150.37813 27.45625Q149.59688 27.45625 148.89375 27.8625Q148.20625 28.26875 147.90938 28.971874Q147.62813 29.659374 147.62813 30.878124L147.62813 36.55L145.8625 36.55ZM162.97188 33.20625L164.78438 33.440624Q164.3625 35.01875 163.19063 35.909374Q162.03438 36.784374 160.22188 36.784374Q157.95625 36.784374 156.6125 35.39375Q155.28438 33.9875 155.28438 31.45625Q155.28438 28.83125 156.62813 27.39375Q157.97188 25.940624 160.12813 25.940624Q162.20625 25.940624 163.51875 27.3625Q164.84688 28.76875 164.84688 31.346874Q164.84688 31.503124 164.83125 31.815624L157.09688 31.815624Q157.19063 33.51875 158.06563 34.425Q158.94063 35.33125 160.2375 35.33125Q161.20625 35.33125 161.87813 34.83125Q162.56563 34.315624 162.97188 33.20625ZM157.19063 30.3625L162.9875 30.3625Q162.87813 29.065624 162.33125 28.409374Q161.4875 27.39375 160.14375 27.39375Q158.94063 27.39375 158.1125 28.20625Q157.28438 29.003124 157.19063 30.3625ZM173.59688 36.55L173.59688 35.2375Q172.6125 36.784374 170.69063 36.784374Q169.45625 36.784374 168.40938 36.096874Q167.37813 35.409374 166.8 34.190624Q166.2375 32.971874 166.2375 31.378124Q166.2375 29.815624 166.75313 28.55Q167.26875 27.284374 168.3 26.6125Q169.34688 25.940624 170.6125 25.940624Q171.55 25.940624 172.28438 26.346874Q173.01875 26.7375 173.4875 27.3625L173.4875 22.2375L175.22188 22.2375L175.22188 36.55L173.59688 36.55ZM168.03438 31.378124Q168.03438 33.3625 168.87813 34.346874Q169.72188 35.33125 170.8625 35.33125Q172.01875 35.33125 172.81563 34.39375Q173.62813 33.45625 173.62813 31.51875Q173.62813 29.39375 172.8 28.39375Q171.9875 27.39375 170.78438 27.39375Q169.6125 27.39375 168.81563 28.3625Q168.03438 29.315624 168.03438 31.378124ZM184.65938 36.55L184.65938 35.01875Q183.45625 36.784374 181.37813 36.784374Q180.45625 36.784374 179.65938 36.440624Q178.8625 36.08125 178.47188 35.55Q178.09688 35.01875 177.94063 34.2375Q177.83125 33.721874 177.83125 32.596874L177.83125 26.175L179.58125 26.175L179.58125 31.925Q179.58125 33.3 179.69063 33.784374Q179.8625 34.471874 180.39375 34.878124Q180.94063 35.26875 181.72188 35.26875Q182.51875 35.26875 183.20625 34.8625Q183.90938 34.45625 184.19063 33.76875Q184.4875 33.065624 184.4875 31.7375L184.4875 26.175L186.2375 26.175L186.2375 36.55L184.65938 36.55ZM187.83125 36.55L187.83125 22.2375L189.58125 22.2375L189.58125 36.55L187.83125 36.55ZM198.97188 33.20625L200.78438 33.440624Q200.3625 35.01875 199.19063 35.909374Q198.03438 36.784374 196.22188 36.784374Q193.95625 36.784374 192.6125 35.39375Q191.28438 33.9875 191.28438 31.45625Q191.28438 28.83125 192.62813 27.39375Q193.97188 25.940624 196.12813 25.940624Q198.20625 25.940624 199.51875 27.3625Q200.84688 28.76875 200.84688 31.346874Q200.84688 31.503124 200.83125 31.815624L193.09688 31.815624Q193.19063 33.51875 194.06563 34.425Q194.94063 35.33125 196.2375 35.33125Q197.20625 35.33125 197.87813 34.83125Q198.56563 34.315624 198.97188 33.20625ZM193.19063 30.3625L198.9875 30.3625Q198.87813 29.065624 198.33125 28.409374Q197.4875 27.39375 196.14375 27.39375Q194.94063 27.39375 194.1125 28.20625Q193.28438 29.003124 193.19063 30.3625ZM207.51875 36.55L213.01875 22.2375L215.06563 22.2375L220.925 36.55L218.76875 36.55L217.09688 32.20625L211.1125 32.20625L209.53438 36.55L207.51875 36.55ZM211.65938 30.675L216.50313 30.675L215.01875 26.70625Q214.33125 24.89375 214.00313 23.7375Q213.72188 25.1125 213.22188 26.471874L211.65938 30.675ZM221.83125 36.55L221.83125 22.2375L223.58125 22.2375L223.58125 36.55L221.83125 36.55ZM225.83125 36.55L225.83125 22.2375L227.58125 22.2375L227.58125 36.55L225.83125 36.55ZM229.22188 31.3625Q229.22188 28.4875 230.81563 27.096874Q232.15938 25.940624 234.08125 25.940624Q236.22188 25.940624 237.56563 27.346874Q238.925 28.753124 238.925 31.221874Q238.925 33.221874 238.33125 34.378124Q237.7375 35.51875 236.58125 36.159374Q235.44063 36.784374 234.08125 36.784374Q231.89375 36.784374 230.55 35.39375Q229.22188 33.9875 229.22188 31.3625ZM231.01875 31.3625Q231.01875 33.3625 231.87813 34.346874Q232.75313 35.33125 234.08125 35.33125Q235.39375 35.33125 236.25313 34.346874Q237.12813 33.346874 237.12813 31.3Q237.12813 29.378124 236.25313 28.39375Q235.37813 27.39375 234.08125 27.39375Q232.75313 27.39375 231.87813 28.39375Q231.01875 29.378124 231.01875 31.3625ZM247.64375 32.753124L249.3625 32.971874Q249.08125 34.76875 247.90938 35.784374Q246.75313 36.784374 245.05 36.784374Q242.925 36.784374 241.62813 35.39375Q240.33125 34.003124 240.33125 31.409374Q240.33125 29.721874 240.87813 28.471874Q241.44063 27.20625 242.58125 26.58125Q243.72188 25.940624 245.06563 25.940624Q246.75313 25.940624 247.81563 26.8Q248.89375 27.659374 249.20625 29.221874L247.4875 29.4875Q247.25313 28.440624 246.62813 27.925Q246.00313 27.39375 245.12813 27.39375Q243.8 27.39375 242.97188 28.346874Q242.14375 29.3 242.14375 31.346874Q242.14375 33.440624 242.94063 34.39375Q243.7375 35.33125 245.03438 35.33125Q246.06563 35.33125 246.75313 34.70625Q247.45625 34.065624 247.64375 32.753124ZM257.64374 35.26875Q256.65936 36.096874 255.75313 36.440624Q254.84688 36.784374 253.81563 36.784374Q252.1125 36.784374 251.19063 35.95625Q250.26875 35.1125 250.26875 33.815624Q250.26875 33.05 250.6125 32.425Q250.97188 31.8 251.53438 31.425Q252.09688 31.034374 252.8 30.83125Q253.31563 30.70625 254.3625 30.565624Q256.4875 30.315624 257.4875 29.971874Q257.5031 29.6125 257.5031 29.503124Q257.5031 28.440624 257.0031 27.9875Q256.33124 27.39375 255.00313 27.39375Q253.75313 27.39375 253.15938 27.83125Q252.58125 28.26875 252.3 29.378124L250.58125 29.14375Q250.81563 28.034374 251.34688 27.3625Q251.87813 26.675 252.89375 26.315624Q253.90938 25.940624 255.25313 25.940624Q256.58124 25.940624 257.40936 26.253124Q258.2375 26.565624 258.6281 27.05Q259.01874 27.51875 259.175 28.2375Q259.26874 28.690624 259.26874 29.8625L259.26874 32.20625Q259.26874 34.659374 259.3781 35.315624Q259.4875 35.95625 259.83124 36.55L257.9875 36.55Q257.72186 36.003124 257.64374 35.26875ZM257.4875 31.346874Q256.53436 31.7375 254.6125 32.003124Q253.53438 32.159374 253.08125 32.3625Q252.64375 32.55 252.39375 32.925Q252.14375 33.3 252.14375 33.76875Q252.14375 34.471874 252.675 34.940624Q253.20625 35.409374 254.2375 35.409374Q255.25313 35.409374 256.03436 34.971874Q256.83124 34.51875 257.20624 33.753124Q257.4875 33.14375 257.4875 31.9875L257.4875 31.346874ZM265.70624 34.971874L265.95624 36.534374Q265.22186 36.690624 264.6281 36.690624Q263.675 36.690624 263.14374 36.39375Q262.6281 36.08125 262.40936 35.596874Q262.1906 35.096874 262.1906 33.51875L262.1906 27.55L260.90936 27.55L260.90936 26.175L262.1906 26.175L262.1906 23.6125L263.9406 22.55L263.9406 26.175L265.70624 26.175L265.70624 27.55L263.9406 27.55L263.9406 33.6125Q263.9406 34.3625 264.03436 34.58125Q264.1281 34.784374 264.33124 34.925Q264.55 35.05 264.9406 35.05Q265.22186 35.05 265.70624 34.971874ZM267.8781 24.253124L267.8781 22.2375L269.64374 22.2375L269.64374 24.253124L267.8781 24.253124ZM267.8781 36.55L267.8781 26.175L269.64374 26.175L269.64374 36.55L267.8781 36.55ZM271.22186 31.3625Q271.22186 28.4875 272.8156 27.096874Q274.15936 25.940624 276.08124 25.940624Q278.22186 25.940624 279.5656 27.346874Q280.925 28.753124 280.925 31.221874Q280.925 33.221874 280.33124 34.378124Q279.7375 35.51875 278.58124 36.159374Q277.4406 36.784374 276.08124 36.784374Q273.89374 36.784374 272.55 35.39375Q271.22186 33.9875 271.22186 31.3625ZM273.01874 31.3625Q273.01874 33.3625 273.8781 34.346874Q274.7531 35.33125 276.08124 35.33125Q277.39374 35.33125 278.2531 34.346874Q279.1281 33.346874 279.1281 31.3Q279.1281 29.378124 278.2531 28.39375Q277.3781 27.39375 276.08124 27.39375Q274.7531 27.39375 273.8781 28.39375Q273.01874 29.378124 273.01874 31.3625ZM282.8625 36.55L282.8625 26.175L284.45624 26.175L284.45624 27.659374Q285.59686 25.940624 287.7531 25.940624Q288.6906 25.940624 289.47186 26.284374Q290.26874 26.6125 290.65936 27.159374Q291.05 27.70625 291.20624 28.45625Q291.3 28.95625 291.3 30.175L291.3 36.55L289.53436 36.55L289.53436 30.2375Q289.53436 29.159374 289.33124 28.628124Q289.1281 28.096874 288.59686 27.784374Q288.08124 27.471874 287.3781 27.471874Q286.2531 27.471874 285.4406 28.190624Q284.6281 28.89375 284.6281 30.878124L284.6281 36.55L282.8625 36.55ZM300.4875 36.55L298.8625 36.55L298.8625 22.2375L300.6125 22.2375L300.6125 27.346874Q301.7375 25.940624 303.45624 25.940624Q304.40936 25.940624 305.26874 26.33125Q306.1281 26.721874 306.675 27.425Q307.22186 28.1125 307.53436 29.096874Q307.84686 30.08125 307.84686 31.20625Q307.84686 33.878124 306.53436 35.33125Q305.22186 36.784374 303.3781 36.784374Q301.53436 36.784374 300.4875 35.253124L300.4875 36.55ZM300.47186 31.284374Q300.47186 33.14375 300.97186 33.9875Q301.8156 35.33125 303.22186 35.33125Q304.3781 35.33125 305.20624 34.33125Q306.05 33.33125 306.05 31.346874Q306.05 29.315624 305.2375 28.3625Q304.4406 27.39375 303.3 27.39375Q302.14374 27.39375 301.3 28.39375Q300.47186 29.39375 300.47186 31.284374ZM309.78436 40.55L309.59686 38.89375Q310.175 39.05 310.59686 39.05Q311.1906 39.05 311.53436 38.846874Q311.89374 38.659374 312.1125 38.315624Q312.28436 38.05 312.65936 37.003124Q312.70624 36.846874 312.8156 36.565624L308.8781 26.175L310.76874 26.175L312.925 32.190624Q313.34686 33.33125 313.675 34.58125Q313.9875 33.378124 314.39374 32.221874L316.6125 26.175L318.3781 26.175L314.425 36.721874Q313.8 38.440624 313.4406 39.08125Q312.97186 39.95625 312.3625 40.346874Q311.76874 40.753124 310.925 40.753124Q310.40936 40.753124 309.78436 40.55ZM329.7375 36.55L329.7375 23.925L325.01874 23.925L325.01874 22.2375L336.3625 22.2375L336.3625 23.925L331.6281 23.925L331.6281 36.55L329.7375 36.55ZM337.8781 24.253124L337.8781 22.2375L339.64374 22.2375L339.64374 24.253124L337.8781 24.253124ZM337.8781 36.55L337.8781 26.175L339.64374 26.175L339.64374 36.55L337.8781 36.55ZM341.8625 36.55L341.8625 26.175L343.4406 26.175L343.4406 27.628124Q343.925 26.878124 344.7375 26.409374Q345.55 25.940624 346.58124 25.940624Q347.7375 25.940624 348.47186 26.425Q349.20624 26.89375 349.51874 27.753124Q350.7531 25.940624 352.72186 25.940624Q354.26874 25.940624 355.09686 26.8Q355.925 27.659374 355.925 29.425L355.925 36.55L354.175 36.55L354.175 30.01875Q354.175 28.95625 354.0031 28.503124Q353.83124 28.034374 353.3781 27.753124Q352.9406 27.471874 352.33124 27.471874Q351.2375 27.471874 350.5031 28.20625Q349.78436 28.925 349.78436 30.51875L349.78436 36.55L348.03436 36.55L348.03436 29.815624Q348.03436 28.64375 347.59686 28.065624Q347.175 27.471874 346.1906 27.471874Q345.45624 27.471874 344.8156 27.8625Q344.1906 28.253124 343.90936 29.003124Q343.6281 29.753124 343.6281 31.175L343.6281 36.55L341.8625 36.55ZM364.97186 33.20625L366.78436 33.440624Q366.3625 35.01875 365.1906 35.909374Q364.03436 36.784374 362.22186 36.784374Q359.95624 36.784374 358.6125 35.39375Q357.28436 33.9875 357.28436 31.45625Q357.28436 28.83125 358.6281 27.39375Q359.97186 25.940624 362.1281 25.940624Q364.20624 25.940624 365.51874 27.3625Q366.84686 28.76875 366.84686 31.346874Q366.84686 31.503124 366.83124 31.815624L359.09686 31.815624Q359.1906 33.51875 360.0656 34.425Q360.9406 35.33125 362.2375 35.33125Q363.20624 35.33125 363.8781 34.83125Q364.5656 34.315624 364.97186 33.20625ZM359.1906 30.3625L364.9875 30.3625Q364.8781 29.065624 364.33124 28.409374Q363.4875 27.39375 362.14374 27.39375Q360.9406 27.39375 360.1125 28.20625Q359.28436 29.003124 359.1906 30.3625ZM378.22186 40.753124Q376.76874 38.925 375.76874 36.471874Q374.76874 34.003124 374.76874 31.3625Q374.76874 29.034374 375.51874 26.909374Q376.39374 24.440624 378.22186 21.9875L379.4875 21.9875Q378.3 24.01875 377.925 24.89375Q377.33124 26.2375 376.9875 27.70625Q376.5656 29.534374 376.5656 31.378124Q376.5656 36.065624 379.4875 40.753124L378.22186 40.753124ZM381.45624 31.95625L383.2375 31.8Q383.3625 32.8625 383.8156 33.55Q384.28436 34.2375 385.2531 34.675Q386.2375 35.096874 387.47186 35.096874Q388.55 35.096874 389.3781 34.784374Q390.20624 34.45625 390.6125 33.89375Q391.01874 33.33125 391.01874 32.659374Q391.01874 31.9875 390.6281 31.4875Q390.2375 30.9875 389.34686 30.64375Q388.76874 30.409374 386.78436 29.940624Q384.8156 29.471874 384.03436 29.05Q383.0031 28.51875 382.5031 27.721874Q382.0031 26.925 382.0031 25.940624Q382.0031 24.846874 382.6125 23.909374Q383.22186 22.971874 384.40936 22.4875Q385.59686 21.9875 387.03436 21.9875Q388.6281 21.9875 389.84686 22.503124Q391.0656 23.01875 391.70624 24.01875Q392.3625 25.003124 392.40936 26.26875L390.59686 26.409374Q390.45624 25.05 389.6125 24.3625Q388.76874 23.659374 387.1125 23.659374Q385.39374 23.659374 384.59686 24.3Q383.8156 24.925 383.8156 25.8Q383.8156 26.58125 384.3781 27.08125Q384.925 27.58125 387.2375 28.096874Q389.55 28.6125 390.40936 29.003124Q391.65936 29.58125 392.2531 30.471874Q392.84686 31.346874 392.84686 32.503124Q392.84686 33.64375 392.1906 34.659374Q391.53436 35.675 390.3 36.2375Q389.08124 36.8 387.55 36.8Q385.6125 36.8 384.3 36.2375Q382.9875 35.659374 382.2375 34.51875Q381.4875 33.378124 381.45624 31.95625ZM398.70624 34.971874L398.95624 36.534374Q398.22186 36.690624 397.6281 36.690624Q396.675 36.690624 396.14374 36.39375Q395.6281 36.08125 395.40936 35.596874Q395.1906 35.096874 395.1906 33.51875L395.1906 27.55L393.90936 27.55L393.90936 26.175L395.1906 26.175L395.1906 23.6125L396.9406 22.55L396.9406 26.175L398.70624 26.175L398.70624 27.55L396.9406 27.55L396.9406 33.6125Q396.9406 34.3625 397.03436 34.58125Q397.1281 34.784374 397.33124 34.925Q397.55 35.05 397.9406 35.05Q398.22186 35.05 398.70624 34.971874ZM400.84686 36.55L400.84686 26.175L402.425 26.175L402.425 27.753124Q403.03436 26.64375 403.55 26.3Q404.0656 25.940624 404.675 25.940624Q405.5656 25.940624 406.4875 26.503124L405.8781 28.14375Q405.2375 27.753124 404.59686 27.753124Q404.01874 27.753124 403.55 28.1125Q403.09686 28.45625 402.89374 29.065624Q402.6125 30.003124 402.6125 31.1125L402.6125 36.55L400.84686 36.55ZM407.8781 24.253124L407.8781 22.2375L409.64374 22.2375L409.64374 24.253124L407.8781 24.253124ZM407.8781 36.55L407.8781 26.175L409.64374 26.175L409.64374 36.55L407.8781 36.55ZM418.59686 36.55L418.59686 35.2375Q417.6125 36.784374 415.6906 36.784374Q414.45624 36.784374 413.40936 36.096874Q412.3781 35.409374 411.8 34.190624Q411.2375 32.971874 411.2375 31.378124Q411.2375 29.815624 411.7531 28.55Q412.26874 27.284374 413.3 26.6125Q414.34686 25.940624 415.6125 25.940624Q416.55 25.940624 417.28436 26.346874Q418.01874 26.7375 418.4875 27.3625L418.4875 22.2375L420.22186 22.2375L420.22186 36.55L418.59686 36.55ZM413.03436 31.378124Q413.03436 33.3625 413.8781 34.346874Q414.72186 35.33125 415.8625 35.33125Q417.01874 35.33125 417.8156 34.39375Q418.6281 33.45625 418.6281 31.51875Q418.6281 29.39375 417.8 28.39375Q416.9875 27.39375 415.78436 27.39375Q414.6125 27.39375 413.8156 28.3625Q413.03436 29.315624 413.03436 31.378124ZM429.97186 33.20625L431.78436 33.440624Q431.3625 35.01875 430.1906 35.909374Q429.03436 36.784374 427.22186 36.784374Q424.95624 36.784374 423.6125 35.39375Q422.28436 33.9875 422.28436 31.45625Q422.28436 28.83125 423.6281 27.39375Q424.97186 25.940624 427.1281 25.940624Q429.20624 25.940624 430.51874 27.3625Q431.84686 28.76875 431.84686 31.346874Q431.84686 31.503124 431.83124 31.815624L424.09686 31.815624Q424.1906 33.51875 425.0656 34.425Q425.9406 35.33125 427.2375 35.33125Q428.20624 35.33125 428.8781 34.83125Q429.5656 34.315624 429.97186 33.20625ZM424.1906 30.3625L429.9875 30.3625Q429.8781 29.065624 429.33124 28.409374Q428.4875 27.39375 427.14374 27.39375Q425.9406 27.39375 425.1125 28.20625Q424.28436 29.003124 424.1906 30.3625ZM439.45624 31.95625L441.2375 31.8Q441.3625 32.8625 441.8156 33.55Q442.28436 34.2375 443.2531 34.675Q444.2375 35.096874 445.47186 35.096874Q446.55 35.096874 447.3781 34.784374Q448.20624 34.45625 448.6125 33.89375Q449.01874 33.33125 449.01874 32.659374Q449.01874 31.9875 448.6281 31.4875Q448.2375 30.9875 447.34686 30.64375Q446.76874 30.409374 444.78436 29.940624Q442.8156 29.471874 442.03436 29.05Q441.0031 28.51875 440.5031 27.721874Q440.0031 26.925 440.0031 25.940624Q440.0031 24.846874 440.6125 23.909374Q441.22186 22.971874 442.40936 22.4875Q443.59686 21.9875 445.03436 21.9875Q446.6281 21.9875 447.84686 22.503124Q449.0656 23.01875 449.70624 24.01875Q450.3625 25.003124 450.40936 26.26875L448.59686 26.409374Q448.45624 25.05 447.6125 24.3625Q446.76874 23.659374 445.1125 23.659374Q443.39374 23.659374 442.59686 24.3Q441.8156 24.925 441.8156 25.8Q441.8156 26.58125 442.3781 27.08125Q442.925 27.58125 445.2375 28.096874Q447.55 28.6125 448.40936 29.003124Q449.65936 29.58125 450.2531 30.471874Q450.84686 31.346874 450.84686 32.503124Q450.84686 33.64375 450.1906 34.659374Q449.53436 35.675 448.3 36.2375Q447.08124 36.8 445.55 36.8Q443.6125 36.8 442.3 36.2375Q440.9875 35.659374 440.2375 34.51875Q439.4875 33.378124 439.45624 31.95625ZM459.64374 32.753124L461.3625 32.971874Q461.08124 34.76875 459.90936 35.784374Q458.7531 36.784374 457.05 36.784374Q454.925 36.784374 453.6281 35.39375Q452.33124 34.003124 452.33124 31.409374Q452.33124 29.721874 452.8781 28.471874Q453.4406 27.20625 454.58124 26.58125Q455.72186 25.940624 457.0656 25.940624Q458.7531 25.940624 459.8156 26.8Q460.89374 27.659374 461.20624 29.221874L459.4875 29.4875Q459.2531 28.440624 458.6281 27.925Q458.0031 27.39375 457.1281 27.39375Q455.8 27.39375 454.97186 28.346874Q454.14374 29.3 454.14374 31.346874Q454.14374 33.440624 454.9406 34.39375Q455.7375 35.33125 457.03436 35.33125Q458.0656 35.33125 458.7531 34.70625Q459.45624 34.065624 459.64374 32.753124ZM462.8625 36.55L462.8625 22.2375L464.6281 22.2375L464.6281 27.3625Q465.8625 25.940624 467.7375 25.940624Q468.8781 25.940624 469.72186 26.39375Q470.58124 26.846874 470.9406 27.659374Q471.3156 28.45625 471.3156 29.971874L471.3156 36.55L469.5656 36.55L469.5656 29.971874Q469.5656 28.659374 468.9875 28.065624Q468.40936 27.45625 467.3781 27.45625Q466.59686 27.45625 465.89374 27.8625Q465.20624 28.26875 464.90936 28.971874Q464.6281 29.659374 464.6281 30.878124L464.6281 36.55L462.8625 36.55ZM479.97186 33.20625L481.78436 33.440624Q481.3625 35.01875 480.1906 35.909374Q479.03436 36.784374 477.22186 36.784374Q474.95624 36.784374 473.6125 35.39375Q472.28436 33.9875 472.28436 31.45625Q472.28436 28.83125 473.6281 27.39375Q474.97186 25.940624 477.1281 25.940624Q479.20624 25.940624 480.51874 27.3625Q481.84686 28.76875 481.84686 31.346874Q481.84686 31.503124 481.83124 31.815624L474.09686 31.815624Q474.1906 33.51875 475.0656 34.425Q475.9406 35.33125 477.2375 35.33125Q478.20624 35.33125 478.8781 34.83125Q479.5656 34.315624 479.97186 33.20625ZM474.1906 30.3625L479.9875 30.3625Q479.8781 29.065624 479.33124 28.409374Q478.4875 27.39375 477.14374 27.39375Q475.9406 27.39375 475.1125 28.20625Q474.28436 29.003124 474.1906 30.3625ZM490.59686 36.55L490.59686 35.2375Q489.6125 36.784374 487.6906 36.784374Q486.45624 36.784374 485.40936 36.096874Q484.3781 35.409374 483.8 34.190624Q483.2375 32.971874 483.2375 31.378124Q483.2375 29.815624 483.7531 28.55Q484.26874 27.284374 485.3 26.6125Q486.34686 25.940624 487.6125 25.940624Q488.55 25.940624 489.28436 26.346874Q490.01874 26.7375 490.4875 27.3625L490.4875 22.2375L492.22186 22.2375L492.22186 36.55L490.59686 36.55ZM485.03436 31.378124Q485.03436 33.3625 485.8781 34.346874Q486.72186 35.33125 487.8625 35.33125Q489.01874 35.33125 489.8156 34.39375Q490.6281 33.45625 490.6281 31.51875Q490.6281 29.39375 489.8 28.39375Q488.9875 27.39375 487.78436 27.39375Q486.6125 27.39375 485.8156 28.3625Q485.03436 29.315624 485.03436 31.378124ZM501.65936 36.55L501.65936 35.01875Q500.45624 36.784374 498.3781 36.784374Q497.45624 36.784374 496.65936 36.440624Q495.8625 36.08125 495.47186 35.55Q495.09686 35.01875 494.9406 34.2375Q494.83124 33.721874 494.83124 32.596874L494.83124 26.175L496.58124 26.175L496.58124 31.925Q496.58124 33.3 496.6906 33.784374Q496.8625 34.471874 497.39374 34.878124Q497.9406 35.26875 498.72186 35.26875Q499.51874 35.26875 500.20624 34.8625Q500.90936 34.45625 501.1906 33.76875Q501.4875 33.065624 501.4875 31.7375L501.4875 26.175L503.2375 26.175L503.2375 36.55L501.65936 36.55ZM504.83124 36.55L504.83124 22.2375L506.58124 22.2375L506.58124 36.55L504.83124 36.55ZM508.8781 24.253124L508.8781 22.2375L510.64374 22.2375L510.64374 24.253124L508.8781 24.253124ZM508.8781 36.55L508.8781 26.175L510.64374 26.175L510.64374 36.55L508.8781 36.55ZM512.8625 36.55L512.8625 26.175L514.45624 26.175L514.45624 27.659374Q515.59686 25.940624 517.7531 25.940624Q518.6906 25.940624 519.47186 26.284374Q520.26874 26.6125 520.65936 27.159374Q521.05 27.70625 521.20624 28.45625Q521.3 28.95625 521.3 30.175L521.3 36.55L519.53436 36.55L519.53436 30.2375Q519.53436 29.159374 519.33124 28.628124Q519.1281 28.096874 518.59686 27.784374Q518.08124 27.471874 517.3781 27.471874Q516.2531 27.471874 515.4406 28.190624Q514.6281 28.89375 514.6281 30.878124L514.6281 36.55L512.8625 36.55ZM522.55 37.409374L524.2531 37.659374Q524.3625 38.45625 524.84686 38.815624Q525.5031 39.3 526.64374 39.3Q527.8625 39.3 528.51874 38.815624Q529.1906 38.33125 529.425 37.45625Q529.5656 36.909374 529.55 35.190624Q528.39374 36.55 526.675 36.55Q524.53436 36.55 523.3625 35.003124Q522.1906 33.45625 522.1906 31.3Q522.1906 29.815624 522.72186 28.565624Q523.26874 27.315624 524.28436 26.628124Q525.3156 25.940624 526.6906 25.940624Q528.51874 25.940624 529.72186 27.425L529.72186 26.175L531.33124 26.175L531.33124 35.14375Q531.33124 37.565624 530.83124 38.565624Q530.34686 39.58125 529.26874 40.159374Q528.20624 40.753124 526.64374 40.753124Q524.8 40.753124 523.64374 39.925Q522.5031 39.096874 522.55 37.409374ZM524.0031 31.175Q524.0031 33.221874 524.8156 34.159374Q525.6281 35.096874 526.84686 35.096874Q528.05 35.096874 528.8625 34.159374Q529.6906 33.221874 529.6906 31.2375Q529.6906 29.33125 528.84686 28.3625Q528.0031 27.39375 526.8156 27.39375Q525.64374 27.39375 524.8156 28.346874Q524.0031 29.3 524.0031 31.175ZM535.01874 40.753124L533.76874 40.753124Q536.675 36.065624 536.675 31.378124Q536.675 29.534374 536.26874 27.7375Q535.925 26.26875 535.33124 24.925Q534.95624 24.034374 533.76874 21.9875L535.01874 21.9875Q536.8625 24.440624 537.7375 26.909374Q538.4875 29.034374 538.4875 31.3625Q538.4875 34.003124 537.47186 36.471874Q536.47186 38.925 535.01874 40.753124Z" fill-rule="nonzero"/></svg>