<svg version="1.1" viewBox="0.0 0.0 898.0 556.0" fill="none" stroke="none" stroke-linecap="square" stroke-miterlimit="10" width="898" height="556" xmlns:xlink="http://www.w3.org/1999/xlink" xmlns="http://www.w3.org/2000/svg"><path fill="#ffffff" d="M0 0L898.0 0L898.0 556.0L0 556.0L0 0Z" fill-rule="nonzero"/><path fill="#4285f4" d="M449.0 70.333336C530.44684 70.333336 605.7608 113.60541 646.7799 183.96887C687.799 254.33234 688.3458 341.19067 648.21594 412.06503L449.0 299.26666Z" fill-rule="nonzero"/><path fill="#ea4335" d="M648.21594 412.06503C593.35645 508.95377 476.74384 552.3235 371.9053 514.8284C267.0668 477.33344 204.40692 369.84772 223.43433 260.14383C242.46173 150.43991 337.65823 70.333336 449.0 70.333336L449.0 299.26666Z" fill-rule="nonzero"/><path stroke="#000000" stroke-width="1.0" stroke-linejoin="round" stroke-linecap="round" d="M449.0 299.26666L449.0 70.333336C530.44684 70.333336 605.7608 113.60541 646.7799 183.96887C687.799 254.33234 688.3458 341.19067 648.21594 412.06503" fill-rule="nonzero"/><path stroke="#000000" stroke-width="1.0" stroke-linejoin="round" stroke-linecap="round" d="M449.0 299.26666L648.21594 412.06503C593.35645 508.95377 476.74384 552.3235 371.9053 514.8284C267.0668 477.33344 204.40692 369.84772 223.43433 260.14383C242.46173 150.43991 337.65823 70.333336 449.0 70.333336" fill-rule="nonzero"/><path fill="#1a1a1a" d="M28.721874 404.29956L28.721874 395.7058L31.971874 395.7058Q32.815624 395.7058 33.26875 395.78394Q33.909374 395.8933 34.33125 396.1902Q34.76875 396.48706 35.01875 397.0183Q35.284374 397.54956 35.284374 398.1902Q35.284374 399.28394 34.58125 400.04956Q33.89375 400.79956 32.065624 400.79956L29.8625 400.79956L29.8625 404.29956L28.721874 404.29956ZM29.8625 399.79956L32.08125 399.79956Q33.190624 399.79956 33.64375 399.3933Q34.1125 398.97144 34.1125 398.22144Q34.1125 397.6902 33.83125 397.3152Q33.565624 396.92456 33.128124 396.79956Q32.83125 396.72144 32.065624 396.72144L29.8625 396.72144L29.8625 399.79956ZM36.58125 404.29956L36.58125 398.0808L37.534374 398.0808L37.534374 399.0183Q37.89375 398.36206 38.190624 398.15894Q38.503124 397.9402 38.878124 397.9402Q39.409374 397.9402 39.95625 398.2683L39.596874 399.2527Q39.20625 399.0183 38.83125 399.0183Q38.471874 399.0183 38.190624 399.23706Q37.925 399.4402 37.815624 399.8152Q37.628124 400.3777 37.628124 401.03394L37.628124 404.29956L36.58125 404.29956ZM40.20625 401.1902Q40.20625 399.4558 41.159374 398.6277Q41.95625 397.9402 43.1125 397.9402Q44.39375 397.9402 45.20625 398.78394Q46.034374 399.61206 46.034374 401.09644Q46.034374 402.29956 45.675 402.98706Q45.315624 403.67456 44.6125 404.0652Q43.925 404.4402 43.1125 404.4402Q41.815624 404.4402 41.003124 403.61206Q40.20625 402.7683 40.20625 401.1902ZM41.284374 401.1902Q41.284374 402.3777 41.8 402.97144Q42.33125 403.5652 43.1125 403.5652Q43.909374 403.5652 44.425 402.97144Q44.940624 402.3777 44.940624 401.15894Q44.940624 400.0027 44.409374 399.40894Q43.89375 398.8152 43.1125 398.8152Q42.33125 398.8152 41.8 399.40894Q41.284374 399.98706 41.284374 401.1902ZM51.659374 402.0183L52.690624 402.15894Q52.51875 403.22144 51.815624 403.8308Q51.1125 404.4402 50.096874 404.4402Q48.815624 404.4402 48.034374 403.61206Q47.26875 402.7683 47.26875 401.2058Q47.26875 400.2058 47.596874 399.4558Q47.940624 398.6902 48.6125 398.3152Q49.3 397.9402 50.1125 397.9402Q51.1125 397.9402 51.753124 398.4558Q52.409374 398.9558 52.596874 399.90894L51.565624 400.0652Q51.425 399.4402 51.05 399.1277Q50.675 398.79956 50.14375 398.79956Q49.346874 398.79956 48.846874 399.3777Q48.346874 399.9402 48.346874 401.17456Q48.346874 402.4402 48.83125 403.0027Q49.315624 403.5652 50.08125 403.5652Q50.70625 403.5652 51.1125 403.1902Q51.534374 402.8152 51.659374 402.0183ZM57.846874 402.29956L58.940624 402.42456Q58.690624 403.3777 57.9875 403.90894Q57.284374 404.4402 56.20625 404.4402Q54.846874 404.4402 54.034374 403.59644Q53.2375 402.7527 53.2375 401.23706Q53.2375 399.67456 54.05 398.8152Q54.8625 397.9402 56.14375 397.9402Q57.39375 397.9402 58.175 398.78394Q58.971874 399.6277 58.971874 401.17456Q58.971874 401.2683 58.971874 401.4558L54.33125 401.4558Q54.39375 402.48706 54.909374 403.03394Q55.425 403.5652 56.20625 403.5652Q56.784374 403.5652 57.190624 403.2683Q57.6125 402.9558 57.846874 402.29956ZM54.39375 400.59644L57.8625 400.59644Q57.8 399.79956 57.471874 399.40894Q56.95625 398.79956 56.159374 398.79956Q55.425 398.79956 54.925 399.28394Q54.440624 399.7683 54.39375 400.59644ZM60.175 402.4402L61.20625 402.28394Q61.3 402.90894 61.690624 403.23706Q62.096874 403.5652 62.83125 403.5652Q63.55 403.5652 63.89375 403.28394Q64.25313 402.98706 64.25313 402.5808Q64.25313 402.22144 63.940624 402.0183Q63.721874 401.8777 62.8625 401.65894Q61.70625 401.36206 61.253124 401.15894Q60.815624 400.9402 60.58125 400.5652Q60.346874 400.1902 60.346874 399.72144Q60.346874 399.3152 60.534374 398.9558Q60.721874 398.59644 61.05 398.36206Q61.3 398.1902 61.721874 398.0652Q62.14375 397.9402 62.64375 397.9402Q63.3625 397.9402 63.909374 398.15894Q64.47188 398.36206 64.7375 398.72144Q65.00313 399.0808 65.09688 399.67456L64.06563 399.8152Q64.00313 399.34644 63.659374 399.0808Q63.33125 398.79956 62.70625 398.79956Q61.9875 398.79956 61.675 399.04956Q61.3625 399.28394 61.3625 399.61206Q61.3625 399.8152 61.4875 399.97144Q61.628124 400.1433 61.89375 400.2527Q62.05 400.3152 62.83125 400.5183Q63.95625 400.8308 64.39375 401.0183Q64.83125 401.2058 65.08125 401.5652Q65.33125 401.92456 65.33125 402.47144Q65.33125 403.0027 65.01875 403.47144Q64.72188 403.92456 64.14375 404.1902Q63.565624 404.4402 62.83125 404.4402Q61.6125 404.4402 60.971874 403.9402Q60.346874 403.42456 60.175 402.4402ZM67.175 402.4402L68.20625 402.28394Q68.3 402.90894 68.69063 403.23706Q69.09688 403.5652 69.83125 403.5652Q70.55 403.5652 70.89375 403.28394Q71.25313 402.98706 71.25313 402.5808Q71.25313 402.22144 70.94063 402.0183Q70.72188 401.8777 69.8625 401.65894Q68.70625 401.36206 68.25313 401.15894Q67.81563 400.9402 67.58125 400.5652Q67.34688 400.1902 67.34688 399.72144Q67.34688 399.3152 67.53438 398.9558Q67.72188 398.59644 68.05 398.36206Q68.3 398.1902 68.72188 398.0652Q69.14375 397.9402 69.64375 397.9402Q70.3625 397.9402 70.90938 398.15894Q71.47188 398.36206 71.7375 398.72144Q72.00313 399.0808 72.09688 399.67456L71.06563 399.8152Q71.00313 399.34644 70.65938 399.0808Q70.33125 398.79956 69.70625 398.79956Q68.9875 398.79956 68.675 399.04956Q68.3625 399.28394 68.3625 399.61206Q68.3625 399.8152 68.4875 399.97144Q68.62813 400.1433 68.89375 400.2527Q69.05 400.3152 69.83125 400.5183Q70.95625 400.8308 71.39375 401.0183Q71.83125 401.2058 72.08125 401.5652Q72.33125 401.92456 72.33125 402.47144Q72.33125 403.0027 72.01875 403.47144Q71.72188 403.92456 71.14375 404.1902Q70.56563 404.4402 69.83125 404.4402Q68.6125 404.4402 67.97188 403.9402Q67.34688 403.42456 67.175 402.4402ZM81.26875 404.29956L80.22188 404.29956L80.22188 397.5808Q79.83125 397.9402 79.20625 398.3152Q78.59688 398.67456 78.1125 398.84644L78.1125 397.8308Q78.9875 397.40894 79.64375 396.8308Q80.31563 396.23706 80.59688 395.67456L81.26875 395.67456L81.26875 404.29956ZM89.6125 406.8308Q88.7375 405.72144 88.12813 404.2527Q87.53438 402.7683 87.53438 401.1902Q87.53438 399.79956 87.97188 398.5183Q88.50313 397.03394 89.6125 395.5652L90.3625 395.5652Q89.65938 396.78394 89.425 397.29956Q89.06563 398.11206 88.8625 398.98706Q88.6125 400.0808 88.6125 401.1902Q88.6125 404.0183 90.3625 406.8308L89.6125 406.8308ZM91.34688 401.53394L92.40938 401.4402Q92.4875 402.09644 92.76875 402.5027Q93.05 402.90894 93.62813 403.17456Q94.22188 403.42456 94.95625 403.42456Q95.59688 403.42456 96.09688 403.23706Q96.59688 403.03394 96.83125 402.7058Q97.08125 402.36206 97.08125 401.97144Q97.08125 401.5652 96.84688 401.2683Q96.6125 400.9558 96.08125 400.7527Q95.72188 400.61206 94.53438 400.3308Q93.3625 400.04956 92.89375 399.79956Q92.26875 399.47144 91.97188 399.0027Q91.675 398.5183 91.675 397.92456Q91.675 397.28394 92.03438 396.72144Q92.40938 396.1433 93.1125 395.86206Q93.83125 395.5652 94.69063 395.5652Q95.64375 395.5652 96.37813 395.8777Q97.1125 396.17456 97.50313 396.78394Q97.89375 397.3777 97.925 398.1277L96.83125 398.2058Q96.7375 397.3933 96.22188 396.98706Q95.72188 396.5652 94.7375 396.5652Q93.70625 396.5652 93.2375 396.9402Q92.76875 397.3152 92.76875 397.84644Q92.76875 398.3152 93.09688 398.61206Q93.425 398.90894 94.8 399.22144Q96.19063 399.53394 96.70625 399.7683Q97.45625 400.1277 97.81563 400.65894Q98.175 401.17456 98.175 401.8777Q98.175 402.5652 97.78438 403.17456Q97.39375 403.7683 96.65938 404.11206Q95.925 404.4402 95.00313 404.4402Q93.83125 404.4402 93.03438 404.11206Q92.25313 403.7683 91.8 403.0808Q91.3625 402.3933 91.34688 401.53394ZM101.89375 403.36206L102.05 404.28394Q101.59688 404.3777 101.25313 404.3777Q100.675 404.3777 100.3625 404.2058Q100.05 404.0183 99.90938 403.72144Q99.78438 403.42456 99.78438 402.47144L99.78438 398.8933L99.01875 398.8933L99.01875 398.0808L99.78438 398.0808L99.78438 396.53394L100.83125 395.90894L100.83125 398.0808L101.89375 398.0808L101.89375 398.8933L100.83125 398.8933L100.83125 402.53394Q100.83125 402.98706 100.87813 403.11206Q100.94063 403.23706 101.06563 403.3152Q101.19063 403.3933 101.425 403.3933Q101.6125 403.3933 101.89375 403.36206ZM102.58125 404.29956L102.58125 398.0808L103.53438 398.0808L103.53438 399.0183Q103.89375 398.36206 104.19063 398.15894Q104.50313 397.9402 104.87813 397.9402Q105.40938 397.9402 105.95625 398.2683L105.59688 399.2527Q105.20625 399.0183 104.83125 399.0183Q104.47188 399.0183 104.19063 399.23706Q103.925 399.4402 103.81563 399.8152Q103.62813 400.3777 103.62813 401.03394L103.62813 404.29956L102.58125 404.29956ZM106.59688 396.92456L106.59688 395.7058L107.65938 395.7058L107.65938 396.92456L106.59688 396.92456ZM106.59688 404.29956L106.59688 398.0808L107.65938 398.0808L107.65938 404.29956L106.59688 404.29956ZM113.62813 404.29956L113.62813 403.5183Q113.03438 404.4402 111.89375 404.4402Q111.14375 404.4402 110.51875 404.03394Q109.89375 403.61206 109.55 402.8777Q109.20625 402.1433 109.20625 401.1902Q109.20625 400.2683 109.51875 399.5027Q109.83125 398.73706 110.45625 398.34644Q111.08125 397.9402 111.84688 397.9402Q112.40938 397.9402 112.84688 398.17456Q113.28438 398.40894 113.56563 398.78394L113.56563 395.7058L114.6125 395.7058L114.6125 404.29956L113.62813 404.29956ZM110.3 401.1902Q110.3 402.3933 110.8 402.98706Q111.3 403.5652 111.9875 403.5652Q112.675 403.5652 113.15938 403.0027Q113.64375 402.4402 113.64375 401.28394Q113.64375 400.0027 113.14375 399.40894Q112.65938 398.8152 111.94063 398.8152Q111.2375 398.8152 110.76875 399.3933Q110.3 399.9558 110.3 401.1902ZM120.84688 402.29956L121.94063 402.42456Q121.69063 403.3777 120.9875 403.90894Q120.28438 404.4402 119.20625 404.4402Q117.84688 404.4402 117.03438 403.59644Q116.2375 402.7527 116.2375 401.23706Q116.2375 399.67456 117.05 398.8152Q117.8625 397.9402 119.14375 397.9402Q120.39375 397.9402 121.175 398.78394Q121.97188 399.6277 121.97188 401.17456Q121.97188 401.2683 121.97188 401.4558L117.33125 401.4558Q117.39375 402.48706 117.90938 403.03394Q118.425 403.5652 119.20625 403.5652Q119.78438 403.5652 120.19063 403.2683Q120.6125 402.9558 120.84688 402.29956ZM117.39375 400.59644L120.8625 400.59644Q120.8 399.79956 120.47188 399.40894Q119.95625 398.79956 119.15938 398.79956Q118.425 398.79956 117.925 399.28394Q117.44063 399.7683 117.39375 400.59644ZM130.26875 404.29956L129.22188 404.29956L129.22188 397.5808Q128.83125 397.9402 128.20625 398.3152Q127.59688 398.67456 127.1125 398.84644L127.1125 397.8308Q127.9875 397.40894 128.64375 396.8308Q129.31563 396.23706 129.59688 395.67456L130.26875 395.67456L130.26875 404.29956ZM133.3 400.0652Q133.3 398.53394 133.6125 397.61206Q133.925 396.67456 134.53438 396.17456Q135.15938 395.67456 136.09688 395.67456Q136.78438 395.67456 137.3 395.9558Q137.83125 396.23706 138.175 396.7683Q138.51875 397.28394 138.70625 398.03394Q138.89375 398.78394 138.89375 400.0652Q138.89375 401.5808 138.58125 402.5027Q138.28438 403.42456 137.65938 403.9402Q137.05 404.4402 136.09688 404.4402Q134.8625 404.4402 134.14375 403.54956Q133.3 402.48706 133.3 400.0652ZM134.37813 400.0652Q134.37813 402.17456 134.87813 402.8777Q135.37813 403.5808 136.09688 403.5808Q136.83125 403.5808 137.31563 402.8777Q137.81563 402.17456 137.81563 400.0652Q137.81563 397.9402 137.31563 397.2527Q136.83125 396.54956 136.08125 396.54956Q135.3625 396.54956 134.925 397.15894Q134.37813 397.9402 134.37813 400.0652ZM140.3 400.0652Q140.3 398.53394 140.6125 397.61206Q140.925 396.67456 141.53438 396.17456Q142.15938 395.67456 143.09688 395.67456Q143.78438 395.67456 144.3 395.9558Q144.83125 396.23706 145.175 396.7683Q145.51875 397.28394 145.70625 398.03394Q145.89375 398.78394 145.89375 400.0652Q145.89375 401.5808 145.58125 402.5027Q145.28438 403.42456 144.65938 403.9402Q144.05 404.4402 143.09688 404.4402Q141.8625 404.4402 141.14375 403.54956Q140.3 402.48706 140.3 400.0652ZM141.37813 400.0652Q141.37813 402.17456 141.87813 402.8777Q142.37813 403.5808 143.09688 403.5808Q143.83125 403.5808 144.31563 402.8777Q144.81563 402.17456 144.81563 400.0652Q144.81563 397.9402 144.31563 397.2527Q143.83125 396.54956 143.08125 396.54956Q142.3625 396.54956 141.925 397.15894Q141.37813 397.9402 141.37813 400.0652ZM148.28438 406.8308L147.53438 406.8308Q149.28438 404.0183 149.28438 401.1902Q149.28438 400.09644 149.03438 399.0027Q148.83125 398.1277 148.47188 397.3152Q148.2375 396.79956 147.53438 395.5652L148.28438 395.5652Q149.37813 397.03394 149.90938 398.5183Q150.3625 399.79956 150.3625 401.1902Q150.3625 402.7683 149.75313 404.2527Q149.14375 405.72144 148.28438 406.8308Z" fill-rule="nonzero"/><path fill="#9e9e9e" d="M33.76875 414.8152L32.721874 414.8933Q32.58125 414.2683 32.33125 413.98706Q31.89375 413.53394 31.26875 413.53394Q30.76875 413.53394 30.378124 413.8152Q29.89375 414.1902 29.596874 414.8933Q29.315624 415.5808 29.3 416.86206Q29.675 416.28394 30.221874 416.0027Q30.784374 415.72144 31.39375 415.72144Q32.440624 415.72144 33.175 416.5027Q33.925 417.28394 33.925 418.5027Q33.925 419.3152 33.565624 420.0183Q33.221874 420.7058 32.6125 421.0808Q32.003124 421.4402 31.2375 421.4402Q29.909374 421.4402 29.08125 420.47144Q28.253124 419.5027 28.253124 417.28394Q28.253124 414.78394 29.175 413.65894Q29.971874 412.67456 31.33125 412.67456Q32.346874 412.67456 32.9875 413.2527Q33.64375 413.8152 33.76875 414.8152ZM29.471874 418.5183Q29.471874 419.0652 29.690624 419.5652Q29.925 420.04956 30.33125 420.3152Q30.753124 420.5808 31.221874 420.5808Q31.878124 420.5808 32.3625 420.04956Q32.846874 419.5027 32.846874 418.5808Q32.846874 417.6902 32.3625 417.17456Q31.89375 416.65894 31.175 416.65894Q30.45625 416.65894 29.95625 417.17456Q29.471874 417.6902 29.471874 418.5183ZM40.76875 414.8152L39.721874 414.8933Q39.58125 414.2683 39.33125 413.98706Q38.89375 413.53394 38.26875 413.53394Q37.76875 413.53394 37.378124 413.8152Q36.89375 414.1902 36.596874 414.8933Q36.315624 415.5808 36.3 416.86206Q36.675 416.28394 37.221874 416.0027Q37.784374 415.72144 38.39375 415.72144Q39.440624 415.72144 40.175 416.5027Q40.925 417.28394 40.925 418.5027Q40.925 419.3152 40.565624 420.0183Q40.221874 420.7058 39.6125 421.0808Q39.003124 421.4402 38.2375 421.4402Q36.909374 421.4402 36.08125 420.47144Q35.253124 419.5027 35.253124 417.28394Q35.253124 414.78394 36.175 413.65894Q36.971874 412.67456 38.33125 412.67456Q39.346874 412.67456 39.9875 413.2527Q40.64375 413.8152 40.76875 414.8152ZM36.471874 418.5183Q36.471874 419.0652 36.690624 419.5652Q36.925 420.04956 37.33125 420.3152Q37.753124 420.5808 38.221874 420.5808Q38.878124 420.5808 39.3625 420.04956Q39.846874 419.5027 39.846874 418.5808Q39.846874 417.6902 39.3625 417.17456Q38.89375 416.65894 38.175 416.65894Q37.45625 416.65894 36.95625 417.17456Q36.471874 417.6902 36.471874 418.5183ZM42.89375 421.29956L42.89375 420.09644L44.096874 420.09644L44.096874 421.29956L42.89375 421.29956ZM46.925 416.6433Q46.26875 416.3933 45.940624 415.9558Q45.628124 415.5027 45.628124 414.8933Q45.628124 413.9558 46.3 413.3152Q46.9875 412.67456 48.096874 412.67456Q49.221874 412.67456 49.909374 413.3308Q50.596874 413.98706 50.596874 414.92456Q50.596874 415.5183 50.284374 415.9558Q49.971874 416.3933 49.33125 416.6433Q50.128124 416.8933 50.534374 417.47144Q50.940624 418.04956 50.940624 418.84644Q50.940624 419.9402 50.159374 420.6902Q49.39375 421.4402 48.1125 421.4402Q46.846874 421.4402 46.065624 420.6902Q45.284374 419.9402 45.284374 418.8152Q45.284374 417.97144 45.70625 417.40894Q46.14375 416.84644 46.925 416.6433ZM46.70625 414.84644Q46.70625 415.4558 47.096874 415.84644Q47.503124 416.23706 48.128124 416.23706Q48.7375 416.23706 49.128124 415.86206Q49.51875 415.47144 49.51875 414.90894Q49.51875 414.3308 49.1125 413.9402Q48.70625 413.53394 48.1125 413.53394Q47.503124 413.53394 47.096874 413.92456Q46.70625 414.3152 46.70625 414.84644ZM46.378124 418.8152Q46.378124 419.2683 46.58125 419.6902Q46.8 420.11206 47.221874 420.34644Q47.64375 420.5808 48.128124 420.5808Q48.878124 420.5808 49.3625 420.09644Q49.8625 419.61206 49.8625 418.86206Q49.8625 418.09644 49.3625 417.59644Q48.8625 417.09644 48.096874 417.09644Q47.346874 417.09644 46.8625 417.59644Q46.378124 418.0808 46.378124 418.8152ZM52.503124 414.7683Q52.503124 413.84644 52.95625 413.2058Q53.425 412.5652 54.3 412.5652Q55.1125 412.5652 55.64375 413.1433Q56.175 413.72144 56.175 414.8308Q56.175 415.92456 55.628124 416.5183Q55.096874 417.09644 54.315624 417.09644Q53.534374 417.09644 53.01875 416.5183Q52.503124 415.9402 52.503124 414.7683ZM54.33125 413.28394Q53.940624 413.28394 53.675 413.6277Q53.425 413.97144 53.425 414.8777Q53.425 415.7058 53.675 416.04956Q53.940624 416.3777 54.33125 416.3777Q54.7375 416.3777 54.9875 416.03394Q55.253124 415.6902 55.253124 414.79956Q55.253124 413.9558 54.9875 413.6277Q54.721874 413.28394 54.33125 413.28394ZM54.33125 421.61206L59.034374 412.5652L59.89375 412.5652L55.20625 421.61206L54.33125 421.61206ZM58.05 419.28394Q58.05 418.36206 58.503124 417.72144Q58.971874 417.0808 59.8625 417.0808Q60.675 417.0808 61.20625 417.65894Q61.7375 418.22144 61.7375 419.34644Q61.7375 420.4402 61.190624 421.03394Q60.659374 421.61206 59.8625 421.61206Q59.096874 421.61206 58.565624 421.03394Q58.05 420.4558 58.05 419.28394ZM59.89375 417.79956Q59.4875 417.79956 59.221874 418.1433Q58.971874 418.48706 58.971874 419.3933Q58.971874 420.2058 59.2375 420.54956Q59.503124 420.8933 59.89375 420.8933Q60.284374 420.8933 60.55 420.54956Q60.815624 420.2058 60.815624 419.29956Q60.815624 418.47144 60.55 418.1433Q60.284374 417.79956 59.89375 417.79956Z" fill-rule="nonzero"/><path stroke="#757575" stroke-width="1.0" stroke-linecap="butt" d="M27.8 408.79956L214.06667 408.79956L261.1091 408.79956" fill-rule="nonzero"/><path fill="#9e9e9e" d="M263.1091 408.79956C263.1091 407.695 262.21365 406.79956 261.1091 406.79956C260.00452 406.79956 259.1091 407.695 259.1091 408.79956C259.1091 409.90414 260.00452 410.79956 261.1091 410.79956C262.21365 410.79956 263.1091 409.90414 263.1091 408.79956" fill-rule="nonzero"/><path fill="#1a1a1a" d="M748.1219 185.23376L748.1219 176.64001L751.3719 176.64001Q752.21564 176.64001 752.66876 176.71814Q753.3094 176.82751 753.73126 177.12439Q754.16876 177.42126 754.41876 177.95251Q754.6844 178.48376 754.6844 179.12439Q754.6844 180.21814 753.98126 180.98376Q753.29376 181.73376 751.46564 181.73376L749.2625 181.73376L749.2625 185.23376L748.1219 185.23376ZM749.2625 180.73376L751.48126 180.73376Q752.59064 180.73376 753.04376 180.32751Q753.5125 179.90564 753.5125 179.15564Q753.5125 178.62439 753.23126 178.24939Q752.96564 177.85876 752.52814 177.73376Q752.23126 177.65564 751.46564 177.65564L749.2625 177.65564L749.2625 180.73376ZM755.98126 185.23376L755.98126 179.01501L756.9344 179.01501L756.9344 179.95251Q757.29376 179.29626 757.59064 179.09314Q757.90314 178.87439 758.27814 178.87439Q758.8094 178.87439 759.35626 179.20251L758.9969 180.18689Q758.60626 179.95251 758.23126 179.95251Q757.8719 179.95251 757.59064 180.17126Q757.325 180.37439 757.21564 180.74939Q757.02814 181.31189 757.02814 181.96814L757.02814 185.23376L755.98126 185.23376ZM759.60626 182.12439Q759.60626 180.39001 760.5594 179.56189Q761.35626 178.87439 762.5125 178.87439Q763.79376 178.87439 764.60626 179.71814Q765.4344 180.54626 765.4344 182.03064Q765.4344 183.23376 765.075 183.92126Q764.71564 184.60876 764.0125 184.99939Q763.325 185.37439 762.5125 185.37439Q761.21564 185.37439 760.40314 184.54626Q759.60626 183.70251 759.60626 182.12439ZM760.6844 182.12439Q760.6844 183.31189 761.2 183.90564Q761.73126 184.49939 762.5125 184.49939Q763.3094 184.49939 763.825 183.90564Q764.34064 183.31189 764.34064 182.09314Q764.34064 180.93689 763.8094 180.34314Q763.29376 179.74939 762.5125 179.74939Q761.73126 179.74939 761.2 180.34314Q760.6844 180.92126 760.6844 182.12439ZM771.0594 182.95251L772.09064 183.09314Q771.91876 184.15564 771.21564 184.76501Q770.5125 185.37439 769.4969 185.37439Q768.21564 185.37439 767.4344 184.54626Q766.66876 183.70251 766.66876 182.14001Q766.66876 181.14001 766.9969 180.39001Q767.34064 179.62439 768.0125 179.24939Q768.7 178.87439 769.5125 178.87439Q770.5125 178.87439 771.15314 179.39001Q771.8094 179.89001 771.9969 180.84314L770.96564 180.99939Q770.825 180.37439 770.45 180.06189Q770.075 179.73376 769.54376 179.73376Q768.7469 179.73376 768.2469 180.31189Q767.7469 180.87439 767.7469 182.10876Q767.7469 183.37439 768.23126 183.93689Q768.71564 184.49939 769.48126 184.49939Q770.10626 184.49939 770.5125 184.12439Q770.9344 183.74939 771.0594 182.95251ZM777.2469 183.23376L778.34064 183.35876Q778.09064 184.31189 777.3875 184.84314Q776.6844 185.37439 775.60626 185.37439Q774.2469 185.37439 773.4344 184.53064Q772.6375 183.68689 772.6375 182.17126Q772.6375 180.60876 773.45 179.74939Q774.2625 178.87439 775.54376 178.87439Q776.79376 178.87439 777.575 179.71814Q778.3719 180.56189 778.3719 182.10876Q778.3719 182.20251 778.3719 182.39001L773.73126 182.39001Q773.79376 183.42126 774.3094 183.96814Q774.825 184.49939 775.60626 184.49939Q776.1844 184.49939 776.59064 184.20251Q777.0125 183.89001 777.2469 183.23376ZM773.79376 181.53064L777.2625 181.53064Q777.2 180.73376 776.8719 180.34314Q776.35626 179.73376 775.5594 179.73376Q774.825 179.73376 774.325 180.21814Q773.84064 180.70251 773.79376 181.53064ZM779.575 183.37439L780.60626 183.21814Q780.7 183.84314 781.09064 184.17126Q781.4969 184.49939 782.23126 184.49939Q782.95 184.49939 783.29376 184.21814Q783.65314 183.92126 783.65314 183.51501Q783.65314 183.15564 783.34064 182.95251Q783.1219 182.81189 782.2625 182.59314Q781.10626 182.29626 780.65314 182.09314Q780.21564 181.87439 779.98126 181.49939Q779.7469 181.12439 779.7469 180.65564Q779.7469 180.24939 779.9344 179.89001Q780.1219 179.53064 780.45 179.29626Q780.7 179.12439 781.1219 178.99939Q781.54376 178.87439 782.04376 178.87439Q782.7625 178.87439 783.3094 179.09314Q783.8719 179.29626 784.1375 179.65564Q784.40314 180.01501 784.4969 180.60876L783.46564 180.74939Q783.40314 180.28064 783.0594 180.01501Q782.73126 179.73376 782.10626 179.73376Q781.3875 179.73376 781.075 179.98376Q780.7625 180.21814 780.7625 180.54626Q780.7625 180.74939 780.8875 180.90564Q781.02814 181.07751 781.29376 181.18689Q781.45 181.24939 782.23126 181.45251Q783.35626 181.76501 783.79376 181.95251Q784.23126 182.14001 784.48126 182.49939Q784.73126 182.85876 784.73126 183.40564Q784.73126 183.93689 784.41876 184.40564Q784.1219 184.85876 783.54376 185.12439Q782.96564 185.37439 782.23126 185.37439Q781.0125 185.37439 780.3719 184.87439Q779.7469 184.35876 779.575 183.37439ZM786.575 183.37439L787.60626 183.21814Q787.7 183.84314 788.09064 184.17126Q788.4969 184.49939 789.23126 184.49939Q789.95 184.49939 790.29376 184.21814Q790.65314 183.92126 790.65314 183.51501Q790.65314 183.15564 790.34064 182.95251Q790.1219 182.81189 789.2625 182.59314Q788.10626 182.29626 787.65314 182.09314Q787.21564 181.87439 786.98126 181.49939Q786.7469 181.12439 786.7469 180.65564Q786.7469 180.24939 786.9344 179.89001Q787.1219 179.53064 787.45 179.29626Q787.7 179.12439 788.1219 178.99939Q788.54376 178.87439 789.04376 178.87439Q789.7625 178.87439 790.3094 179.09314Q790.8719 179.29626 791.1375 179.65564Q791.40314 180.01501 791.4969 180.60876L790.46564 180.74939Q790.40314 180.28064 790.0594 180.01501Q789.73126 179.73376 789.10626 179.73376Q788.3875 179.73376 788.075 179.98376Q787.7625 180.21814 787.7625 180.54626Q787.7625 180.74939 787.8875 180.90564Q788.02814 181.07751 788.29376 181.18689Q788.45 181.24939 789.23126 181.45251Q790.35626 181.76501 790.79376 181.95251Q791.23126 182.14001 791.48126 182.49939Q791.73126 182.85876 791.73126 183.40564Q791.73126 183.93689 791.41876 184.40564Q791.1219 184.85876 790.54376 185.12439Q789.96564 185.37439 789.23126 185.37439Q788.0125 185.37439 787.3719 184.87439Q786.7469 184.35876 786.575 183.37439ZM796.7 180.99939Q796.7 179.46814 797.0125 178.54626Q797.325 177.60876 797.9344 177.10876Q798.5594 176.60876 799.4969 176.60876Q800.1844 176.60876 800.7 176.89001Q801.23126 177.17126 801.575 177.70251Q801.91876 178.21814 802.10626 178.96814Q802.29376 179.71814 802.29376 180.99939Q802.29376 182.51501 801.98126 183.43689Q801.6844 184.35876 801.0594 184.87439Q800.45 185.37439 799.4969 185.37439Q798.2625 185.37439 797.54376 184.48376Q796.7 183.42126 796.7 180.99939ZM797.77814 180.99939Q797.77814 183.10876 798.27814 183.81189Q798.77814 184.51501 799.4969 184.51501Q800.23126 184.51501 800.71564 183.81189Q801.21564 183.10876 801.21564 180.99939Q801.21564 178.87439 800.71564 178.18689Q800.23126 177.48376 799.48126 177.48376Q798.7625 177.48376 798.325 178.09314Q797.77814 178.87439 797.77814 180.99939ZM809.0125 187.76501Q808.1375 186.65564 807.52814 185.18689Q806.9344 183.70251 806.9344 182.12439Q806.9344 180.73376 807.3719 179.45251Q807.90314 177.96814 809.0125 176.49939L809.7625 176.49939Q809.0594 177.71814 808.825 178.23376Q808.46564 179.04626 808.2625 179.92126Q808.0125 181.01501 808.0125 182.12439Q808.0125 184.95251 809.7625 187.76501L809.0125 187.76501ZM810.7469 182.46814L811.8094 182.37439Q811.8875 183.03064 812.16876 183.43689Q812.45 183.84314 813.02814 184.10876Q813.6219 184.35876 814.35626 184.35876Q814.9969 184.35876 815.4969 184.17126Q815.9969 183.96814 816.23126 183.64001Q816.48126 183.29626 816.48126 182.90564Q816.48126 182.49939 816.2469 182.20251Q816.0125 181.89001 815.48126 181.68689Q815.1219 181.54626 813.9344 181.26501Q812.7625 180.98376 812.29376 180.73376Q811.66876 180.40564 811.3719 179.93689Q811.075 179.45251 811.075 178.85876Q811.075 178.21814 811.4344 177.65564Q811.8094 177.07751 812.5125 176.79626Q813.23126 176.49939 814.09064 176.49939Q815.04376 176.49939 815.77814 176.81189Q816.5125 177.10876 816.90314 177.71814Q817.29376 178.31189 817.325 179.06189L816.23126 179.14001Q816.1375 178.32751 815.6219 177.92126Q815.1219 177.49939 814.1375 177.49939Q813.10626 177.49939 812.6375 177.87439Q812.16876 178.24939 812.16876 178.78064Q812.16876 179.24939 812.4969 179.54626Q812.825 179.84314 814.2 180.15564Q815.59064 180.46814 816.10626 180.70251Q816.85626 181.06189 817.21564 181.59314Q817.575 182.10876 817.575 182.81189Q817.575 183.49939 817.1844 184.10876Q816.79376 184.70251 816.0594 185.04626Q815.325 185.37439 814.40314 185.37439Q813.23126 185.37439 812.4344 185.04626Q811.65314 184.70251 811.2 184.01501Q810.7625 183.32751 810.7469 182.46814ZM821.29376 184.29626L821.45 185.21814Q820.9969 185.31189 820.65314 185.31189Q820.075 185.31189 819.7625 185.14001Q819.45 184.95251 819.3094 184.65564Q819.1844 184.35876 819.1844 183.40564L819.1844 179.82751L818.41876 179.82751L818.41876 179.01501L819.1844 179.01501L819.1844 177.46814L820.23126 176.84314L820.23126 179.01501L821.29376 179.01501L821.29376 179.82751L820.23126 179.82751L820.23126 183.46814Q820.23126 183.92126 820.27814 184.04626Q820.34064 184.17126 820.46564 184.24939Q820.59064 184.32751 820.825 184.32751Q821.0125 184.32751 821.29376 184.29626ZM821.98126 185.23376L821.98126 179.01501L822.9344 179.01501L822.9344 179.95251Q823.29376 179.29626 823.59064 179.09314Q823.90314 178.87439 824.27814 178.87439Q824.8094 178.87439 825.35626 179.20251L824.9969 180.18689Q824.60626 179.95251 824.23126 179.95251Q823.8719 179.95251 823.59064 180.17126Q823.325 180.37439 823.21564 180.74939Q823.02814 181.31189 823.02814 181.96814L823.02814 185.23376L821.98126 185.23376ZM825.9969 177.85876L825.9969 176.64001L827.0594 176.64001L827.0594 177.85876L825.9969 177.85876ZM825.9969 185.23376L825.9969 179.01501L827.0594 179.01501L827.0594 185.23376L825.9969 185.23376ZM833.02814 185.23376L833.02814 184.45251Q832.4344 185.37439 831.29376 185.37439Q830.54376 185.37439 829.91876 184.96814Q829.29376 184.54626 828.95 183.81189Q828.60626 183.07751 828.60626 182.12439Q828.60626 181.20251 828.91876 180.43689Q829.23126 179.67126 829.85626 179.28064Q830.48126 178.87439 831.2469 178.87439Q831.8094 178.87439 832.2469 179.10876Q832.6844 179.34314 832.96564 179.71814L832.96564 176.64001L834.0125 176.64001L834.0125 185.23376L833.02814 185.23376ZM829.7 182.12439Q829.7 183.32751 830.2 183.92126Q830.7 184.49939 831.3875 184.49939Q832.075 184.49939 832.5594 183.93689Q833.04376 183.37439 833.04376 182.21814Q833.04376 180.93689 832.54376 180.34314Q832.0594 179.74939 831.34064 179.74939Q830.6375 179.74939 830.16876 180.32751Q829.7 180.89001 829.7 182.12439ZM840.2469 183.23376L841.34064 183.35876Q841.09064 184.31189 840.3875 184.84314Q839.6844 185.37439 838.60626 185.37439Q837.2469 185.37439 836.4344 184.53064Q835.6375 183.68689 835.6375 182.17126Q835.6375 180.60876 836.45 179.74939Q837.2625 178.87439 838.54376 178.87439Q839.79376 178.87439 840.575 179.71814Q841.3719 180.56189 841.3719 182.10876Q841.3719 182.20251 841.3719 182.39001L836.73126 182.39001Q836.79376 183.42126 837.3094 183.96814Q837.825 184.49939 838.60626 184.49939Q839.1844 184.49939 839.59064 184.20251Q840.0125 183.89001 840.2469 183.23376ZM836.79376 181.53064L840.2625 181.53064Q840.2 180.73376 839.8719 180.34314Q839.35626 179.73376 838.5594 179.73376Q837.825 179.73376 837.325 180.21814Q836.84064 180.70251 836.79376 181.53064ZM851.2469 184.21814L851.2469 185.23376L845.5594 185.23376Q845.5594 184.85876 845.6844 184.49939Q845.90314 183.92126 846.3719 183.35876Q846.85626 182.79626 847.7625 182.06189Q849.16876 180.90564 849.65314 180.23376Q850.15314 179.56189 850.15314 178.96814Q850.15314 178.34314 849.7 177.92126Q849.2469 177.48376 848.52814 177.48376Q847.7625 177.48376 847.3094 177.93689Q846.85626 178.39001 846.84064 179.20251L845.7625 179.09314Q845.8719 177.87439 846.59064 177.24939Q847.325 176.60876 848.5594 176.60876Q849.79376 176.60876 850.5125 177.29626Q851.23126 177.98376 851.23126 178.99939Q851.23126 179.51501 851.0125 180.01501Q850.8094 180.49939 850.3094 181.06189Q849.825 181.60876 848.7 182.56189Q847.7469 183.35876 847.46564 183.65564Q847.2 183.93689 847.02814 184.21814L851.2469 184.21814ZM852.7 180.99939Q852.7 179.46814 853.0125 178.54626Q853.325 177.60876 853.9344 177.10876Q854.5594 176.60876 855.4969 176.60876Q856.1844 176.60876 856.7 176.89001Q857.23126 177.17126 857.575 177.70251Q857.91876 178.21814 858.10626 178.96814Q858.29376 179.71814 858.29376 180.99939Q858.29376 182.51501 857.98126 183.43689Q857.6844 184.35876 857.0594 184.87439Q856.45 185.37439 855.4969 185.37439Q854.2625 185.37439 853.54376 184.48376Q852.7 183.42126 852.7 180.99939ZM853.77814 180.99939Q853.77814 183.10876 854.27814 183.81189Q854.77814 184.51501 855.4969 184.51501Q856.23126 184.51501 856.71564 183.81189Q857.21564 183.10876 857.21564 180.99939Q857.21564 178.87439 856.71564 178.18689Q856.23126 177.48376 855.48126 177.48376Q854.7625 177.48376 854.325 178.09314Q853.77814 178.87439 853.77814 180.99939ZM859.7 180.99939Q859.7 179.46814 860.0125 178.54626Q860.325 177.60876 860.9344 177.10876Q861.5594 176.60876 862.4969 176.60876Q863.1844 176.60876 863.7 176.89001Q864.23126 177.17126 864.575 177.70251Q864.91876 178.21814 865.10626 178.96814Q865.29376 179.71814 865.29376 180.99939Q865.29376 182.51501 864.98126 183.43689Q864.6844 184.35876 864.0594 184.87439Q863.45 185.37439 862.4969 185.37439Q861.2625 185.37439 860.54376 184.48376Q859.7 183.42126 859.7 180.99939ZM860.77814 180.99939Q860.77814 183.10876 861.27814 183.81189Q861.77814 184.51501 862.4969 184.51501Q863.23126 184.51501 863.71564 183.81189Q864.21564 183.10876 864.21564 180.99939Q864.21564 178.87439 863.71564 178.18689Q863.23126 177.48376 862.48126 177.48376Q861.7625 177.48376 861.325 178.09314Q860.77814 178.87439 860.77814 180.99939ZM867.6844 187.76501L866.9344 187.76501Q868.6844 184.95251 868.6844 182.12439Q868.6844 181.03064 868.4344 179.93689Q868.23126 179.06189 867.8719 178.24939Q867.6375 177.73376 866.9344 176.49939L867.6844 176.49939Q868.77814 177.96814 869.3094 179.45251Q869.7625 180.73376 869.7625 182.12439Q869.7625 183.70251 869.15314 185.18689Q868.54376 186.65564 867.6844 187.76501Z" fill-rule="nonzero"/><path fill="#9e9e9e" d="M835.7 199.96814L836.7625 199.82751Q836.9344 200.71814 837.3719 201.12439Q837.8094 201.51501 838.4344 201.51501Q839.1844 201.51501 839.7 200.99939Q840.21564 200.48376 840.21564 199.71814Q840.21564 198.99939 839.73126 198.53064Q839.2625 198.04626 838.52814 198.04626Q838.23126 198.04626 837.77814 198.17126L837.90314 197.23376Q838.0125 197.24939 838.075 197.24939Q838.7469 197.24939 839.27814 196.90564Q839.825 196.54626 839.825 195.81189Q839.825 195.23376 839.4344 194.85876Q839.04376 194.46814 838.41876 194.46814Q837.8094 194.46814 837.3875 194.85876Q836.98126 195.24939 836.8719 196.01501L835.8094 195.82751Q835.9969 194.78064 836.6844 194.20251Q837.3719 193.60876 838.3875 193.60876Q839.09064 193.60876 839.6844 193.92126Q840.27814 194.21814 840.59064 194.73376Q840.90314 195.24939 840.90314 195.84314Q840.90314 196.39001 840.60626 196.85876Q840.3094 197.31189 839.73126 197.57751Q840.48126 197.74939 840.90314 198.31189Q841.325 198.85876 841.325 199.70251Q841.325 200.82751 840.4969 201.60876Q839.6844 202.39001 838.4344 202.39001Q837.3094 202.39001 836.5594 201.71814Q835.8094 201.03064 835.7 199.96814ZM842.7 199.96814L843.7625 199.82751Q843.9344 200.71814 844.3719 201.12439Q844.8094 201.51501 845.4344 201.51501Q846.1844 201.51501 846.7 200.99939Q847.21564 200.48376 847.21564 199.71814Q847.21564 198.99939 846.73126 198.53064Q846.2625 198.04626 845.52814 198.04626Q845.23126 198.04626 844.77814 198.17126L844.90314 197.23376Q845.0125 197.24939 845.075 197.24939Q845.7469 197.24939 846.27814 196.90564Q846.825 196.54626 846.825 195.81189Q846.825 195.23376 846.4344 194.85876Q846.04376 194.46814 845.41876 194.46814Q844.8094 194.46814 844.3875 194.85876Q843.98126 195.24939 843.8719 196.01501L842.8094 195.82751Q842.9969 194.78064 843.6844 194.20251Q844.3719 193.60876 845.3875 193.60876Q846.09064 193.60876 846.6844 193.92126Q847.27814 194.21814 847.59064 194.73376Q847.90314 195.24939 847.90314 195.84314Q847.90314 196.39001 847.60626 196.85876Q847.3094 197.31189 846.73126 197.57751Q847.48126 197.74939 847.90314 198.31189Q848.325 198.85876 848.325 199.70251Q848.325 200.82751 847.4969 201.60876Q846.6844 202.39001 845.4344 202.39001Q844.3094 202.39001 843.5594 201.71814Q842.8094 201.03064 842.7 199.96814ZM850.29376 202.23376L850.29376 201.03064L851.4969 201.03064L851.4969 202.23376L850.29376 202.23376ZM858.2469 201.21814L858.2469 202.23376L852.5594 202.23376Q852.5594 201.85876 852.6844 201.49939Q852.90314 200.92126 853.3719 200.35876Q853.85626 199.79626 854.7625 199.06189Q856.16876 197.90564 856.65314 197.23376Q857.15314 196.56189 857.15314 195.96814Q857.15314 195.34314 856.7 194.92126Q856.2469 194.48376 855.52814 194.48376Q854.7625 194.48376 854.3094 194.93689Q853.85626 195.39001 853.84064 196.20251L852.7625 196.09314Q852.8719 194.87439 853.59064 194.24939Q854.325 193.60876 855.5594 193.60876Q856.79376 193.60876 857.5125 194.29626Q858.23126 194.98376 858.23126 195.99939Q858.23126 196.51501 858.0125 197.01501Q857.8094 197.49939 857.3094 198.06189Q856.825 198.60876 855.7 199.56189Q854.7469 200.35876 854.46564 200.65564Q854.2 200.93689 854.02814 201.21814L858.2469 201.21814ZM859.90314 195.70251Q859.90314 194.78064 860.35626 194.14001Q860.825 193.49939 861.7 193.49939Q862.5125 193.49939 863.04376 194.07751Q863.575 194.65564 863.575 195.76501Q863.575 196.85876 863.02814 197.45251Q862.4969 198.03064 861.71564 198.03064Q860.9344 198.03064 860.41876 197.45251Q859.90314 196.87439 859.90314 195.70251ZM861.73126 194.21814Q861.34064 194.21814 861.075 194.56189Q860.825 194.90564 860.825 195.81189Q860.825 196.64001 861.075 196.98376Q861.34064 197.31189 861.73126 197.31189Q862.1375 197.31189 862.3875 196.96814Q862.65314 196.62439 862.65314 195.73376Q862.65314 194.89001 862.3875 194.56189Q862.1219 194.21814 861.73126 194.21814ZM861.73126 202.54626L866.4344 193.49939L867.29376 193.49939L862.60626 202.54626L861.73126 202.54626ZM865.45 200.21814Q865.45 199.29626 865.90314 198.65564Q866.3719 198.01501 867.2625 198.01501Q868.075 198.01501 868.60626 198.59314Q869.1375 199.15564 869.1375 200.28064Q869.1375 201.37439 868.59064 201.96814Q868.0594 202.54626 867.2625 202.54626Q866.4969 202.54626 865.96564 201.96814Q865.45 201.39001 865.45 200.21814ZM867.29376 198.73376Q866.8875 198.73376 866.6219 199.07751Q866.3719 199.42126 866.3719 200.32751Q866.3719 201.14001 866.6375 201.48376Q866.90314 201.82751 867.29376 201.82751Q867.6844 201.82751 867.95 201.48376Q868.21564 201.14001 868.21564 200.23376Q868.21564 199.40564 867.95 199.07751Q867.6844 198.73376 867.29376 198.73376Z" fill-rule="nonzero"/><path stroke="#757575" stroke-width="1.0" stroke-linecap="butt" d="M870.2 189.73376L683.93335 189.73376L636.8909 189.73376" fill-rule="nonzero"/><path fill="#9e9e9e" d="M638.8909 189.73376C638.8909 188.6292 637.9955 187.73376 636.8909 187.73376C635.7863 187.73376 634.8909 188.6292 634.8909 189.73376C634.8909 190.83833 635.7863 191.73376 636.8909 191.73376C637.9955 191.73376 638.8909 190.83833 638.8909 189.73376" fill-rule="nonzero"/><path fill="#757575" d="M28.76875 39.83125Q28.76875 36.26875 30.675 34.253124Q32.596874 32.221874 35.628124 32.221874Q37.6125 32.221874 39.190624 33.175Q40.784374 34.128124 41.6125 35.83125Q42.45625 37.51875 42.45625 39.659374Q42.45625 41.83125 41.58125 43.55Q40.70625 45.26875 39.08125 46.159374Q37.471874 47.05 35.6125 47.05Q33.596874 47.05 32.003124 46.08125Q30.409374 45.096874 29.58125 43.409374Q28.76875 41.70625 28.76875 39.83125ZM30.721874 39.8625Q30.721874 42.440624 32.1125 43.940624Q33.503124 45.425 35.596874 45.425Q37.7375 45.425 39.1125 43.925Q40.503124 42.409374 40.503124 39.64375Q40.503124 37.909374 39.909374 36.6125Q39.33125 35.3 38.190624 34.58125Q37.05 33.8625 35.628124 33.8625Q33.628124 33.8625 32.175 35.253124Q30.721874 36.628124 30.721874 39.8625ZM46.7375 46.8L45.1125 46.8L45.1125 32.4875L46.8625 32.4875L46.8625 37.596874Q47.9875 36.190624 49.70625 36.190624Q50.659374 36.190624 51.51875 36.58125Q52.378124 36.971874 52.925 37.675Q53.471874 38.3625 53.784374 39.346874Q54.096874 40.33125 54.096874 41.45625Q54.096874 44.128124 52.784374 45.58125Q51.471874 47.034374 49.628124 47.034374Q47.784374 47.034374 46.7375 45.503124L46.7375 46.8ZM46.721874 41.534374Q46.721874 43.39375 47.221874 44.2375Q48.065624 45.58125 49.471874 45.58125Q50.628124 45.58125 51.45625 44.58125Q52.3 43.58125 52.3 41.596874Q52.3 39.565624 51.4875 38.6125Q50.690624 37.64375 49.55 37.64375Q48.39375 37.64375 47.55 38.64375Q46.721874 39.64375 46.721874 41.534374ZM55.409374 43.70625L57.159374 43.425Q57.3 44.471874 57.971874 45.034374Q58.64375 45.58125 59.846874 45.58125Q61.05 45.58125 61.628124 45.096874Q62.221874 44.596874 62.221874 43.940624Q62.221874 43.346874 61.70625 43.003124Q61.346874 42.76875 59.909374 42.409374Q57.971874 41.909374 57.221874 41.565624Q56.4875 41.20625 56.096874 40.58125Q55.70625 39.940624 55.70625 39.175Q55.70625 38.4875 56.01875 37.89375Q56.346874 37.3 56.89375 36.909374Q57.3 36.6125 58.003124 36.409374Q58.721874 36.190624 59.534374 36.190624Q60.753124 36.190624 61.675 36.55Q62.596874 36.89375 63.034374 37.503124Q63.471874 38.096874 63.64375 39.096874L61.925 39.33125Q61.8 38.534374 61.2375 38.096874Q60.675 37.64375 59.659374 37.64375Q58.440624 37.64375 57.925 38.05Q57.409374 38.440624 57.409374 38.971874Q57.409374 39.315624 57.628124 39.596874Q57.83125 39.878124 58.3 40.065624Q58.565624 40.159374 59.846874 40.503124Q61.721874 41.003124 62.45625 41.33125Q63.190624 41.64375 63.6125 42.253124Q64.03438 42.846874 64.03438 43.753124Q64.03438 44.628124 63.51875 45.409374Q63.003124 46.190624 62.034374 46.6125Q61.065624 47.034374 59.846874 47.034374Q57.83125 47.034374 56.76875 46.190624Q55.70625 45.346874 55.409374 43.70625ZM73.22188 43.45625L75.03438 43.690624Q74.6125 45.26875 73.44063 46.159374Q72.28438 47.034374 70.47188 47.034374Q68.20625 47.034374 66.8625 45.64375Q65.53438 44.2375 65.53438 41.70625Q65.53438 39.08125 66.87813 37.64375Q68.22188 36.190624 70.37813 36.190624Q72.45625 36.190624 73.76875 37.6125Q75.09688 39.01875 75.09688 41.596874Q75.09688 41.753124 75.08125 42.065624L67.34688 42.065624Q67.44063 43.76875 68.31563 44.675Q69.19063 45.58125 70.4875 45.58125Q71.45625 45.58125 72.12813 45.08125Q72.81563 44.565624 73.22188 43.45625ZM67.44063 40.6125L73.2375 40.6125Q73.12813 39.315624 72.58125 38.659374Q71.7375 37.64375 70.39375 37.64375Q69.19063 37.64375 68.3625 38.45625Q67.53438 39.253124 67.44063 40.6125ZM77.09688 46.8L77.09688 36.425L78.675 36.425L78.675 38.003124Q79.28438 36.89375 79.8 36.55Q80.31563 36.190624 80.925 36.190624Q81.81563 36.190624 82.7375 36.753124L82.12813 38.39375Q81.4875 38.003124 80.84688 38.003124Q80.26875 38.003124 79.8 38.3625Q79.34688 38.70625 79.14375 39.315624Q78.8625 40.253124 78.8625 41.3625L78.8625 46.8L77.09688 46.8ZM87.00313 46.8L83.05 36.425L84.90938 36.425L87.14375 42.64375Q87.50313 43.64375 87.8 44.721874Q88.03438 43.909374 88.45625 42.753124L90.75313 36.425L92.56563 36.425L88.64375 46.8L87.00313 46.8ZM100.22188 43.45625L102.03438 43.690624Q101.6125 45.26875 100.44063 46.159374Q99.28438 47.034374 97.47188 47.034374Q95.20625 47.034374 93.8625 45.64375Q92.53438 44.2375 92.53438 41.70625Q92.53438 39.08125 93.87813 37.64375Q95.22188 36.190624 97.37813 36.190624Q99.45625 36.190624 100.76875 37.6125Q102.09688 39.01875 102.09688 41.596874Q102.09688 41.753124 102.08125 42.065624L94.34688 42.065624Q94.44063 43.76875 95.31563 44.675Q96.19063 45.58125 97.4875 45.58125Q98.45625 45.58125 99.12813 45.08125Q99.81563 44.565624 100.22188 43.45625ZM94.44063 40.6125L100.2375 40.6125Q100.12813 39.315624 99.58125 38.659374Q98.7375 37.64375 97.39375 37.64375Q96.19063 37.64375 95.3625 38.45625Q94.53438 39.253124 94.44063 40.6125ZM110.84688 46.8L110.84688 45.4875Q109.8625 47.034374 107.94063 47.034374Q106.70625 47.034374 105.65938 46.346874Q104.62813 45.659374 104.05 44.440624Q103.4875 43.221874 103.4875 41.628124Q103.4875 40.065624 104.00313 38.8Q104.51875 37.534374 105.55 36.8625Q106.59688 36.190624 107.8625 36.190624Q108.8 36.190624 109.53438 36.596874Q110.26875 36.9875 110.7375 37.6125L110.7375 32.4875L112.47188 32.4875L112.47188 46.8L110.84688 46.8ZM105.28438 41.628124Q105.28438 43.6125 106.12813 44.596874Q106.97188 45.58125 108.1125 45.58125Q109.26875 45.58125 110.06563 44.64375Q110.87813 43.70625 110.87813 41.76875Q110.87813 39.64375 110.05 38.64375Q109.2375 37.64375 108.03438 37.64375Q106.8625 37.64375 106.06563 38.6125Q105.28438 39.565624 105.28438 41.628124ZM120.70625 42.20625L122.4875 42.05Q122.6125 43.1125 123.06563 43.8Q123.53438 44.4875 124.50313 44.925Q125.4875 45.346874 126.72188 45.346874Q127.8 45.346874 128.62813 45.034374Q129.45625 44.70625 129.8625 44.14375Q130.26875 43.58125 130.26875 42.909374Q130.26875 42.2375 129.87813 41.7375Q129.4875 41.2375 128.59688 40.89375Q128.01875 40.659374 126.03438 40.190624Q124.06563 39.721874 123.28438 39.3Q122.25313 38.76875 121.75313 37.971874Q121.25313 37.175 121.25313 36.190624Q121.25313 35.096874 121.8625 34.159374Q122.47188 33.221874 123.65938 32.7375Q124.84688 32.2375 126.28438 32.2375Q127.87813 32.2375 129.09688 32.753124Q130.31563 33.26875 130.95625 34.26875Q131.6125 35.253124 131.65938 36.51875L129.84688 36.659374Q129.70625 35.3 128.8625 34.6125Q128.01875 33.909374 126.3625 33.909374Q124.64375 33.909374 123.84688 34.55Q123.06563 35.175 123.06563 36.05Q123.06563 36.83125 123.62813 37.33125Q124.175 37.83125 126.4875 38.346874Q128.8 38.8625 129.65938 39.253124Q130.90938 39.83125 131.50313 40.721874Q132.09688 41.596874 132.09688 42.753124Q132.09688 43.89375 131.44063 44.909374Q130.78438 45.925 129.55 46.4875Q128.33125 47.05 126.8 47.05Q124.8625 47.05 123.55 46.4875Q122.2375 45.909374 121.4875 44.76875Q120.7375 43.628124 120.70625 42.20625ZM140.89375 43.003124L142.6125 43.221874Q142.33125 45.01875 141.15938 46.034374Q140.00313 47.034374 138.3 47.034374Q136.175 47.034374 134.87813 45.64375Q133.58125 44.253124 133.58125 41.659374Q133.58125 39.971874 134.12813 38.721874Q134.69063 37.45625 135.83125 36.83125Q136.97188 36.190624 138.31563 36.190624Q140.00313 36.190624 141.06563 37.05Q142.14375 37.909374 142.45625 39.471874L140.7375 39.7375Q140.50313 38.690624 139.87813 38.175Q139.25313 37.64375 138.37813 37.64375Q137.05 37.64375 136.22188 38.596874Q135.39375 39.55 135.39375 41.596874Q135.39375 43.690624 136.19063 44.64375Q136.9875 45.58125 138.28438 45.58125Q139.31563 45.58125 140.00313 44.95625Q140.70625 44.315624 140.89375 43.003124ZM144.1125 46.8L144.1125 32.4875L145.87813 32.4875L145.87813 37.6125Q147.1125 36.190624 148.9875 36.190624Q150.12813 36.190624 150.97188 36.64375Q151.83125 37.096874 152.19063 37.909374Q152.56563 38.70625 152.56563 40.221874L152.56563 46.8L150.81563 46.8L150.81563 40.221874Q150.81563 38.909374 150.2375 38.315624Q149.65938 37.70625 148.62813 37.70625Q147.84688 37.70625 147.14375 38.1125Q146.45625 38.51875 146.15938 39.221874Q145.87813 39.909374 145.87813 41.128124L145.87813 46.8L144.1125 46.8ZM161.22188 43.45625L163.03438 43.690624Q162.6125 45.26875 161.44063 46.159374Q160.28438 47.034374 158.47188 47.034374Q156.20625 47.034374 154.8625 45.64375Q153.53438 44.2375 153.53438 41.70625Q153.53438 39.08125 154.87813 37.64375Q156.22188 36.190624 158.37813 36.190624Q160.45625 36.190624 161.76875 37.6125Q163.09688 39.01875 163.09688 41.596874Q163.09688 41.753124 163.08125 42.065624L155.34688 42.065624Q155.44063 43.76875 156.31563 44.675Q157.19063 45.58125 158.4875 45.58125Q159.45625 45.58125 160.12813 45.08125Q160.81563 44.565624 161.22188 43.45625ZM155.44063 40.6125L161.2375 40.6125Q161.12813 39.315624 160.58125 38.659374Q159.7375 37.64375 158.39375 37.64375Q157.19063 37.64375 156.3625 38.45625Q155.53438 39.253124 155.44063 40.6125ZM171.84688 46.8L171.84688 45.4875Q170.8625 47.034374 168.94063 47.034374Q167.70625 47.034374 166.65938 46.346874Q165.62813 45.659374 165.05 44.440624Q164.4875 43.221874 164.4875 41.628124Q164.4875 40.065624 165.00313 38.8Q165.51875 37.534374 166.55 36.8625Q167.59688 36.190624 168.8625 36.190624Q169.8 36.190624 170.53438 36.596874Q171.26875 36.9875 171.7375 37.6125L171.7375 32.4875L173.47188 32.4875L173.47188 46.8L171.84688 46.8ZM166.28438 41.628124Q166.28438 43.6125 167.12813 44.596874Q167.97188 45.58125 169.1125 45.58125Q170.26875 45.58125 171.06563 44.64375Q171.87813 43.70625 171.87813 41.76875Q171.87813 39.64375 171.05 38.64375Q170.2375 37.64375 169.03438 37.64375Q167.8625 37.64375 167.06563 38.6125Q166.28438 39.565624 166.28438 41.628124ZM182.90938 46.8L182.90938 45.26875Q181.70625 47.034374 179.62813 47.034374Q178.70625 47.034374 177.90938 46.690624Q177.1125 46.33125 176.72188 45.8Q176.34688 45.26875 176.19063 44.4875Q176.08125 43.971874 176.08125 42.846874L176.08125 36.425L177.83125 36.425L177.83125 42.175Q177.83125 43.55 177.94063 44.034374Q178.1125 44.721874 178.64375 45.128124Q179.19063 45.51875 179.97188 45.51875Q180.76875 45.51875 181.45625 45.1125Q182.15938 44.70625 182.44063 44.01875Q182.7375 43.315624 182.7375 41.9875L182.7375 36.425L184.4875 36.425L184.4875 46.8L182.90938 46.8ZM186.08125 46.8L186.08125 32.4875L187.83125 32.4875L187.83125 46.8L186.08125 46.8ZM197.22188 43.45625L199.03438 43.690624Q198.6125 45.26875 197.44063 46.159374Q196.28438 47.034374 194.47188 47.034374Q192.20625 47.034374 190.8625 45.64375Q189.53438 44.2375 189.53438 41.70625Q189.53438 39.08125 190.87813 37.64375Q192.22188 36.190624 194.37813 36.190624Q196.45625 36.190624 197.76875 37.6125Q199.09688 39.01875 199.09688 41.596874Q199.09688 41.753124 199.08125 42.065624L191.34688 42.065624Q191.44063 43.76875 192.31563 44.675Q193.19063 45.58125 194.4875 45.58125Q195.45625 45.58125 196.12813 45.08125Q196.81563 44.565624 197.22188 43.45625ZM191.44063 40.6125L197.2375 40.6125Q197.12813 39.315624 196.58125 38.659374Q195.7375 37.64375 194.39375 37.64375Q193.19063 37.64375 192.3625 38.45625Q191.53438 39.253124 191.44063 40.6125ZM205.76875 46.8L211.26875 32.4875L213.31563 32.4875L219.175 46.8L217.01875 46.8L215.34688 42.45625L209.3625 42.45625L207.78438 46.8L205.76875 46.8ZM209.90938 40.925L214.75313 40.925L213.26875 36.95625Q212.58125 35.14375 212.25313 33.9875Q211.97188 35.3625 211.47188 36.721874L209.90938 40.925ZM220.08125 46.8L220.08125 32.4875L221.83125 32.4875L221.83125 46.8L220.08125 46.8ZM224.08125 46.8L224.08125 32.4875L225.83125 32.4875L225.83125 46.8L224.08125 46.8ZM227.47188 41.6125Q227.47188 38.7375 229.06563 37.346874Q230.40938 36.190624 232.33125 36.190624Q234.47188 36.190624 235.81563 37.596874Q237.175 39.003124 237.175 41.471874Q237.175 43.471874 236.58125 44.628124Q235.9875 45.76875 234.83125 46.409374Q233.69063 47.034374 232.33125 47.034374Q230.14375 47.034374 228.8 45.64375Q227.47188 44.2375 227.47188 41.6125ZM229.26875 41.6125Q229.26875 43.6125 230.12813 44.596874Q231.00313 45.58125 232.33125 45.58125Q233.64375 45.58125 234.50313 44.596874Q235.37813 43.596874 235.37813 41.55Q235.37813 39.628124 234.50313 38.64375Q233.62813 37.64375 232.33125 37.64375Q231.00313 37.64375 230.12813 38.64375Q229.26875 39.628124 229.26875 41.6125ZM245.89375 43.003124L247.6125 43.221874Q247.33125 45.01875 246.15938 46.034374Q245.00313 47.034374 243.3 47.034374Q241.175 47.034374 239.87813 45.64375Q238.58125 44.253124 238.58125 41.659374Q238.58125 39.971874 239.12813 38.721874Q239.69063 37.45625 240.83125 36.83125Q241.97188 36.190624 243.31563 36.190624Q245.00313 36.190624 246.06563 37.05Q247.14375 37.909374 247.45625 39.471874L245.7375 39.7375Q245.50313 38.690624 244.87813 38.175Q244.25313 37.64375 243.37813 37.64375Q242.05 37.64375 241.22188 38.596874Q240.39375 39.55 240.39375 41.596874Q240.39375 43.690624 241.19063 44.64375Q241.9875 45.58125 243.28438 45.58125Q244.31563 45.58125 245.00313 44.95625Q245.70625 44.315624 245.89375 43.003124ZM255.89375 45.51875Q254.90938 46.346874 254.00313 46.690624Q253.09688 47.034374 252.06563 47.034374Q250.3625 47.034374 249.44063 46.20625Q248.51875 45.3625 248.51875 44.065624Q248.51875 43.3 248.8625 42.675Q249.22188 42.05 249.78438 41.675Q250.34688 41.284374 251.05 41.08125Q251.56563 40.95625 252.6125 40.815624Q254.7375 40.565624 255.7375 40.221874Q255.75313 39.8625 255.75313 39.753124Q255.75313 38.690624 255.25313 38.2375Q254.58125 37.64375 253.25313 37.64375Q252.00313 37.64375 251.40938 38.08125Q250.83125 38.51875 250.55 39.628124L248.83125 39.39375Q249.06563 38.284374 249.59688 37.6125Q250.12813 36.925 251.14375 36.565624Q252.15938 36.190624 253.50313 36.190624Q254.83125 36.190624 255.65938 36.503124Q256.4875 36.815624 256.8781 37.3Q257.26874 37.76875 257.425 38.4875Q257.51874 38.940624 257.51874 40.1125L257.51874 42.45625Q257.51874 44.909374 257.6281 45.565624Q257.7375 46.20625 258.08124 46.8L256.2375 46.8Q255.97188 46.253124 255.89375 45.51875ZM255.7375 41.596874Q254.78438 41.9875 252.8625 42.253124Q251.78438 42.409374 251.33125 42.6125Q250.89375 42.8 250.64375 43.175Q250.39375 43.55 250.39375 44.01875Q250.39375 44.721874 250.925 45.190624Q251.45625 45.659374 252.4875 45.659374Q253.50313 45.659374 254.28438 45.221874Q255.08125 44.76875 255.45625 44.003124Q255.7375 43.39375 255.7375 42.2375L255.7375 41.596874ZM263.95624 45.221874L264.20624 46.784374Q263.47186 46.940624 262.8781 46.940624Q261.925 46.940624 261.39374 46.64375Q260.8781 46.33125 260.65936 45.846874Q260.4406 45.346874 260.4406 43.76875L260.4406 37.8L259.15936 37.8L259.15936 36.425L260.4406 36.425L260.4406 33.8625L262.1906 32.8L262.1906 36.425L263.95624 36.425L263.95624 37.8L262.1906 37.8L262.1906 43.8625Q262.1906 44.6125 262.28436 44.83125Q262.3781 45.034374 262.58124 45.175Q262.8 45.3 263.1906 45.3Q263.47186 45.3 263.95624 45.221874ZM266.1281 34.503124L266.1281 32.4875L267.89374 32.4875L267.89374 34.503124L266.1281 34.503124ZM266.1281 46.8L266.1281 36.425L267.89374 36.425L267.89374 46.8L266.1281 46.8ZM269.47186 41.6125Q269.47186 38.7375 271.0656 37.346874Q272.40936 36.190624 274.33124 36.190624Q276.47186 36.190624 277.8156 37.596874Q279.175 39.003124 279.175 41.471874Q279.175 43.471874 278.58124 44.628124Q277.9875 45.76875 276.83124 46.409374Q275.6906 47.034374 274.33124 47.034374Q272.14374 47.034374 270.8 45.64375Q269.47186 44.2375 269.47186 41.6125ZM271.26874 41.6125Q271.26874 43.6125 272.1281 44.596874Q273.0031 45.58125 274.33124 45.58125Q275.64374 45.58125 276.5031 44.596874Q277.3781 43.596874 277.3781 41.55Q277.3781 39.628124 276.5031 38.64375Q275.6281 37.64375 274.33124 37.64375Q273.0031 37.64375 272.1281 38.64375Q271.26874 39.628124 271.26874 41.6125ZM281.1125 46.8L281.1125 36.425L282.70624 36.425L282.70624 37.909374Q283.84686 36.190624 286.0031 36.190624Q286.9406 36.190624 287.72186 36.534374Q288.51874 36.8625 288.90936 37.409374Q289.3 37.95625 289.45624 38.70625Q289.55 39.20625 289.55 40.425L289.55 46.8L287.78436 46.8L287.78436 40.4875Q287.78436 39.409374 287.58124 38.878124Q287.3781 38.346874 286.84686 38.034374Q286.33124 37.721874 285.6281 37.721874Q284.5031 37.721874 283.6906 38.440624Q282.8781 39.14375 282.8781 41.128124L282.8781 46.8L281.1125 46.8ZM300.47186 51.003124Q299.01874 49.175 298.01874 46.721874Q297.01874 44.253124 297.01874 41.6125Q297.01874 39.284374 297.76874 37.159374Q298.64374 34.690624 300.47186 32.2375L301.7375 32.2375Q300.55 34.26875 300.175 35.14375Q299.58124 36.4875 299.2375 37.95625Q298.8156 39.784374 298.8156 41.628124Q298.8156 46.315624 301.7375 51.003124L300.47186 51.003124ZM303.70624 42.20625L305.4875 42.05Q305.6125 43.1125 306.0656 43.8Q306.53436 44.4875 307.5031 44.925Q308.4875 45.346874 309.72186 45.346874Q310.8 45.346874 311.6281 45.034374Q312.45624 44.70625 312.8625 44.14375Q313.26874 43.58125 313.26874 42.909374Q313.26874 42.2375 312.8781 41.7375Q312.4875 41.2375 311.59686 40.89375Q311.01874 40.659374 309.03436 40.190624Q307.0656 39.721874 306.28436 39.3Q305.2531 38.76875 304.7531 37.971874Q304.2531 37.175 304.2531 36.190624Q304.2531 35.096874 304.8625 34.159374Q305.47186 33.221874 306.65936 32.7375Q307.84686 32.2375 309.28436 32.2375Q310.8781 32.2375 312.09686 32.753124Q313.3156 33.26875 313.95624 34.26875Q314.6125 35.253124 314.65936 36.51875L312.84686 36.659374Q312.70624 35.3 311.8625 34.6125Q311.01874 33.909374 309.3625 33.909374Q307.64374 33.909374 306.84686 34.55Q306.0656 35.175 306.0656 36.05Q306.0656 36.83125 306.6281 37.33125Q307.175 37.83125 309.4875 38.346874Q311.8 38.8625 312.65936 39.253124Q313.90936 39.83125 314.5031 40.721874Q315.09686 41.596874 315.09686 42.753124Q315.09686 43.89375 314.4406 44.909374Q313.78436 45.925 312.55 46.4875Q311.33124 47.05 309.8 47.05Q307.8625 47.05 306.55 46.4875Q305.2375 45.909374 304.4875 44.76875Q303.7375 43.628124 303.70624 42.20625ZM320.95624 45.221874L321.20624 46.784374Q320.47186 46.940624 319.8781 46.940624Q318.925 46.940624 318.39374 46.64375Q317.8781 46.33125 317.65936 45.846874Q317.4406 45.346874 317.4406 43.76875L317.4406 37.8L316.15936 37.8L316.15936 36.425L317.4406 36.425L317.4406 33.8625L319.1906 32.8L319.1906 36.425L320.95624 36.425L320.95624 37.8L319.1906 37.8L319.1906 43.8625Q319.1906 44.6125 319.28436 44.83125Q319.3781 45.034374 319.58124 45.175Q319.8 45.3 320.1906 45.3Q320.47186 45.3 320.95624 45.221874ZM323.09686 46.8L323.09686 36.425L324.675 36.425L324.675 38.003124Q325.28436 36.89375 325.8 36.55Q326.3156 36.190624 326.925 36.190624Q327.8156 36.190624 328.7375 36.753124L328.1281 38.39375Q327.4875 38.003124 326.84686 38.003124Q326.26874 38.003124 325.8 38.3625Q325.34686 38.70625 325.14374 39.315624Q324.8625 40.253124 324.8625 41.3625L324.8625 46.8L323.09686 46.8ZM330.1281 34.503124L330.1281 32.4875L331.89374 32.4875L331.89374 34.503124L330.1281 34.503124ZM330.1281 46.8L330.1281 36.425L331.89374 36.425L331.89374 46.8L330.1281 46.8ZM340.84686 46.8L340.84686 45.4875Q339.8625 47.034374 337.9406 47.034374Q336.70624 47.034374 335.65936 46.346874Q334.6281 45.659374 334.05 44.440624Q333.4875 43.221874 333.4875 41.628124Q333.4875 40.065624 334.0031 38.8Q334.51874 37.534374 335.55 36.8625Q336.59686 36.190624 337.8625 36.190624Q338.8 36.190624 339.53436 36.596874Q340.26874 36.9875 340.7375 37.6125L340.7375 32.4875L342.47186 32.4875L342.47186 46.8L340.84686 46.8ZM335.28436 41.628124Q335.28436 43.6125 336.1281 44.596874Q336.97186 45.58125 338.1125 45.58125Q339.26874 45.58125 340.0656 44.64375Q340.8781 43.70625 340.8781 41.76875Q340.8781 39.64375 340.05 38.64375Q339.2375 37.64375 338.03436 37.64375Q336.8625 37.64375 336.0656 38.6125Q335.28436 39.565624 335.28436 41.628124ZM352.22186 43.45625L354.03436 43.690624Q353.6125 45.26875 352.4406 46.159374Q351.28436 47.034374 349.47186 47.034374Q347.20624 47.034374 345.8625 45.64375Q344.53436 44.2375 344.53436 41.70625Q344.53436 39.08125 345.8781 37.64375Q347.22186 36.190624 349.3781 36.190624Q351.45624 36.190624 352.76874 37.6125Q354.09686 39.01875 354.09686 41.596874Q354.09686 41.753124 354.08124 42.065624L346.34686 42.065624Q346.4406 43.76875 347.3156 44.675Q348.1906 45.58125 349.4875 45.58125Q350.45624 45.58125 351.1281 45.08125Q351.8156 44.565624 352.22186 43.45625ZM346.4406 40.6125L352.2375 40.6125Q352.1281 39.315624 351.58124 38.659374Q350.7375 37.64375 349.39374 37.64375Q348.1906 37.64375 347.3625 38.45625Q346.53436 39.253124 346.4406 40.6125ZM361.70624 42.20625L363.4875 42.05Q363.6125 43.1125 364.0656 43.8Q364.53436 44.4875 365.5031 44.925Q366.4875 45.346874 367.72186 45.346874Q368.8 45.346874 369.6281 45.034374Q370.45624 44.70625 370.8625 44.14375Q371.26874 43.58125 371.26874 42.909374Q371.26874 42.2375 370.8781 41.7375Q370.4875 41.2375 369.59686 40.89375Q369.01874 40.659374 367.03436 40.190624Q365.0656 39.721874 364.28436 39.3Q363.2531 38.76875 362.7531 37.971874Q362.2531 37.175 362.2531 36.190624Q362.2531 35.096874 362.8625 34.159374Q363.47186 33.221874 364.65936 32.7375Q365.84686 32.2375 367.28436 32.2375Q368.8781 32.2375 370.09686 32.753124Q371.3156 33.26875 371.95624 34.26875Q372.6125 35.253124 372.65936 36.51875L370.84686 36.659374Q370.70624 35.3 369.8625 34.6125Q369.01874 33.909374 367.3625 33.909374Q365.64374 33.909374 364.84686 34.55Q364.0656 35.175 364.0656 36.05Q364.0656 36.83125 364.6281 37.33125Q365.175 37.83125 367.4875 38.346874Q369.8 38.8625 370.65936 39.253124Q371.90936 39.83125 372.5031 40.721874Q373.09686 41.596874 373.09686 42.753124Q373.09686 43.89375 372.4406 44.909374Q371.78436 45.925 370.55 46.4875Q369.33124 47.05 367.8 47.05Q365.8625 47.05 364.55 46.4875Q363.2375 45.909374 362.4875 44.76875Q361.7375 43.628124 361.70624 42.20625ZM381.89374 43.003124L383.6125 43.221874Q383.33124 45.01875 382.15936 46.034374Q381.0031 47.034374 379.3 47.034374Q377.175 47.034374 375.8781 45.64375Q374.58124 44.253124 374.58124 41.659374Q374.58124 39.971874 375.1281 38.721874Q375.6906 37.45625 376.83124 36.83125Q377.97186 36.190624 379.3156 36.190624Q381.0031 36.190624 382.0656 37.05Q383.14374 37.909374 383.45624 39.471874L381.7375 39.7375Q381.5031 38.690624 380.8781 38.175Q380.2531 37.64375 379.3781 37.64375Q378.05 37.64375 377.22186 38.596874Q376.39374 39.55 376.39374 41.596874Q376.39374 43.690624 377.1906 44.64375Q377.9875 45.58125 379.28436 45.58125Q380.3156 45.58125 381.0031 44.95625Q381.70624 44.315624 381.89374 43.003124ZM385.1125 46.8L385.1125 32.4875L386.8781 32.4875L386.8781 37.6125Q388.1125 36.190624 389.9875 36.190624Q391.1281 36.190624 391.97186 36.64375Q392.83124 37.096874 393.1906 37.909374Q393.5656 38.70625 393.5656 40.221874L393.5656 46.8L391.8156 46.8L391.8156 40.221874Q391.8156 38.909374 391.2375 38.315624Q390.65936 37.70625 389.6281 37.70625Q388.84686 37.70625 388.14374 38.1125Q387.45624 38.51875 387.15936 39.221874Q386.8781 39.909374 386.8781 41.128124L386.8781 46.8L385.1125 46.8ZM402.22186 43.45625L404.03436 43.690624Q403.6125 45.26875 402.4406 46.159374Q401.28436 47.034374 399.47186 47.034374Q397.20624 47.034374 395.8625 45.64375Q394.53436 44.2375 394.53436 41.70625Q394.53436 39.08125 395.8781 37.64375Q397.22186 36.190624 399.3781 36.190624Q401.45624 36.190624 402.76874 37.6125Q404.09686 39.01875 404.09686 41.596874Q404.09686 41.753124 404.08124 42.065624L396.34686 42.065624Q396.4406 43.76875 397.3156 44.675Q398.1906 45.58125 399.4875 45.58125Q400.45624 45.58125 401.1281 45.08125Q401.8156 44.565624 402.22186 43.45625ZM396.4406 40.6125L402.2375 40.6125Q402.1281 39.315624 401.58124 38.659374Q400.7375 37.64375 399.39374 37.64375Q398.1906 37.64375 397.3625 38.45625Q396.53436 39.253124 396.4406 40.6125ZM412.84686 46.8L412.84686 45.4875Q411.8625 47.034374 409.9406 47.034374Q408.70624 47.034374 407.65936 46.346874Q406.6281 45.659374 406.05 44.440624Q405.4875 43.221874 405.4875 41.628124Q405.4875 40.065624 406.0031 38.8Q406.51874 37.534374 407.55 36.8625Q408.59686 36.190624 409.8625 36.190624Q410.8 36.190624 411.53436 36.596874Q412.26874 36.9875 412.7375 37.6125L412.7375 32.4875L414.47186 32.4875L414.47186 46.8L412.84686 46.8ZM407.28436 41.628124Q407.28436 43.6125 408.1281 44.596874Q408.97186 45.58125 410.1125 45.58125Q411.26874 45.58125 412.0656 44.64375Q412.8781 43.70625 412.8781 41.76875Q412.8781 39.64375 412.05 38.64375Q411.2375 37.64375 410.03436 37.64375Q408.8625 37.64375 408.0656 38.6125Q407.28436 39.565624 407.28436 41.628124ZM423.90936 46.8L423.90936 45.26875Q422.70624 47.034374 420.6281 47.034374Q419.70624 47.034374 418.90936 46.690624Q418.1125 46.33125 417.72186 45.8Q417.34686 45.26875 417.1906 44.4875Q417.08124 43.971874 417.08124 42.846874L417.08124 36.425L418.83124 36.425L418.83124 42.175Q418.83124 43.55 418.9406 44.034374Q419.1125 44.721874 419.64374 45.128124Q420.1906 45.51875 420.97186 45.51875Q421.76874 45.51875 422.45624 45.1125Q423.15936 44.70625 423.4406 44.01875Q423.7375 43.315624 423.7375 41.9875L423.7375 36.425L425.4875 36.425L425.4875 46.8L423.90936 46.8ZM427.08124 46.8L427.08124 32.4875L428.83124 32.4875L428.83124 46.8L427.08124 46.8ZM431.1281 34.503124L431.1281 32.4875L432.89374 32.4875L432.89374 34.503124L431.1281 34.503124ZM431.1281 46.8L431.1281 36.425L432.89374 36.425L432.89374 46.8L431.1281 46.8ZM435.1125 46.8L435.1125 36.425L436.70624 36.425L436.70624 37.909374Q437.84686 36.190624 440.0031 36.190624Q440.9406 36.190624 441.72186 36.534374Q442.51874 36.8625 442.90936 37.409374Q443.3 37.95625 443.45624 38.70625Q443.55 39.20625 443.55 40.425L443.55 46.8L441.78436 46.8L441.78436 40.4875Q441.78436 39.409374 441.58124 38.878124Q441.3781 38.346874 440.84686 38.034374Q440.33124 37.721874 439.6281 37.721874Q438.5031 37.721874 437.6906 38.440624Q436.8781 39.14375 436.8781 41.128124L436.8781 46.8L435.1125 46.8ZM444.8 47.659374L446.5031 47.909374Q446.6125 48.70625 447.09686 49.065624Q447.7531 49.55 448.89374 49.55Q450.1125 49.55 450.76874 49.065624Q451.4406 48.58125 451.675 47.70625Q451.8156 47.159374 451.8 45.440624Q450.64374 46.8 448.925 46.8Q446.78436 46.8 445.6125 45.253124Q444.4406 43.70625 444.4406 41.55Q444.4406 40.065624 444.97186 38.815624Q445.51874 37.565624 446.53436 36.878124Q447.5656 36.190624 448.9406 36.190624Q450.76874 36.190624 451.97186 37.675L451.97186 36.425L453.58124 36.425L453.58124 45.39375Q453.58124 47.815624 453.08124 48.815624Q452.59686 49.83125 451.51874 50.409374Q450.45624 51.003124 448.89374 51.003124Q447.05 51.003124 445.89374 50.175Q444.7531 49.346874 444.8 47.659374ZM446.2531 41.425Q446.2531 43.471874 447.0656 44.409374Q447.8781 45.346874 449.09686 45.346874Q450.3 45.346874 451.1125 44.409374Q451.9406 43.471874 451.9406 41.4875Q451.9406 39.58125 451.09686 38.6125Q450.2531 37.64375 449.0656 37.64375Q447.89374 37.64375 447.0656 38.596874Q446.2531 39.55 446.2531 41.425ZM457.26874 51.003124L456.01874 51.003124Q458.925 46.315624 458.925 41.628124Q458.925 39.784374 458.51874 37.9875Q458.175 36.51875 457.58124 35.175Q457.20624 34.284374 456.01874 32.2375L457.26874 32.2375Q459.1125 34.690624 459.9875 37.159374Q460.7375 39.284374 460.7375 41.6125Q460.7375 44.253124 459.72186 46.721874Q458.72186 49.175 457.26874 51.003124Z" fill-rule="nonzero"/></svg>