<svg version="1.1" viewBox="0.0 0.0 593.0 371.0" fill="none" stroke="none" stroke-linecap="square" stroke-miterlimit="10" width="593" height="371" xmlns:xlink="http://www.w3.org/1999/xlink" xmlns="http://www.w3.org/2000/svg"><path fill="#ffffff" d="M0 0L593.0 0L593.0 371.0L0 371.0L0 0Z" fill-rule="nonzero"/><path fill="#ea4335" d="M167.66429 278.06668C141.08968 232.0381 141.08968 175.32857 167.66429 129.3C194.23889 83.27143 243.35078 54.916668 296.5 54.916668L296.5 203.68333Z" fill-rule="nonzero"/><path fill="#4285f4" d="M296.5 54.916668C368.69553 54.916668 430.46994 106.751564 443.00656 177.85027C455.54318 248.94897 415.22278 318.78595 347.3812 343.47827C279.5396 368.1706 203.76204 340.5898 167.66429 278.06668L296.5 203.68333Z" fill-rule="nonzero"/><path stroke="#000000" stroke-width="1.0" stroke-linejoin="round" stroke-linecap="round" d="M296.5 203.68333L296.5 54.916668C368.69553 54.916668 430.46994 106.751564 443.00656 177.85027C455.54318 248.94897 415.22278 318.78595 347.3812 343.47827C279.5396 368.1706 203.76204 340.5898 167.66429 278.06668" fill-rule="nonzero"/><path stroke="#000000" stroke-width="1.0" stroke-linejoin="round" stroke-linecap="round" d="M296.5 203.68333L167.66429 278.06668C141.08968 232.0381 141.08968 175.32857 167.66429 129.3C194.23889 83.27143 243.35078 54.916668 296.5 54.916668" fill-rule="nonzero"/><path fill="#1a1a1a" d="M19.471874 128.51917L19.471874 119.925415L22.721874 119.925415Q23.565624 119.925415 24.01875 120.00354Q24.659374 120.112915 25.08125 120.40979Q25.51875 120.706665 25.76875 121.237915Q26.034374 121.769165 26.034374 122.40979Q26.034374 123.50354 25.33125 124.269165Q24.64375 125.019165 22.815624 125.019165L20.6125 125.019165L20.6125 128.51917L19.471874 128.51917ZM20.6125 124.019165L22.83125 124.019165Q23.940624 124.019165 24.39375 123.612915Q24.8625 123.19104 24.8625 122.44104Q24.8625 121.90979 24.58125 121.53479Q24.315624 121.144165 23.878124 121.019165Q23.58125 120.94104 22.815624 120.94104L20.6125 120.94104L20.6125 124.019165ZM27.33125 128.51917L27.33125 122.300415L28.284374 122.300415L28.284374 123.237915Q28.64375 122.581665 28.940624 122.37854Q29.253124 122.15979 29.628124 122.15979Q30.159374 122.15979 30.70625 122.487915L30.346874 123.47229Q29.95625 123.237915 29.58125 123.237915Q29.221874 123.237915 28.940624 123.456665Q28.675 123.65979 28.565624 124.03479Q28.378124 124.59729 28.378124 125.25354L28.378124 128.51917L27.33125 128.51917ZM30.95625 125.40979Q30.95625 123.675415 31.909374 122.84729Q32.70625 122.15979 33.8625 122.15979Q35.14375 122.15979 35.95625 123.00354Q36.784374 123.831665 36.784374 125.31604Q36.784374 126.519165 36.425 127.206665Q36.065624 127.894165 35.3625 128.28479Q34.675 128.65979 33.8625 128.65979Q32.565624 128.65979 31.753124 127.831665Q30.95625 126.987915 30.95625 125.40979ZM32.034374 125.40979Q32.034374 126.59729 32.55 127.19104Q33.08125 127.78479 33.8625 127.78479Q34.659374 127.78479 35.175 127.19104Q35.690624 126.59729 35.690624 125.37854Q35.690624 124.22229 35.159374 123.62854Q34.64375 123.03479 33.8625 123.03479Q33.08125 123.03479 32.55 123.62854Q32.034374 124.206665 32.034374 125.40979ZM42.409374 126.237915L43.440624 126.37854Q43.26875 127.44104 42.565624 128.05042Q41.8625 128.65979 40.846874 128.65979Q39.565624 128.65979 38.784374 127.831665Q38.01875 126.987915 38.01875 125.425415Q38.01875 124.425415 38.346874 123.675415Q38.690624 122.90979 39.3625 122.53479Q40.05 122.15979 40.8625 122.15979Q41.8625 122.15979 42.503124 122.675415Q43.159374 123.175415 43.346874 124.12854L42.315624 124.28479Q42.175 123.65979 41.8 123.34729Q41.425 123.019165 40.89375 123.019165Q40.096874 123.019165 39.596874 123.59729Q39.096874 124.15979 39.096874 125.394165Q39.096874 126.65979 39.58125 127.22229Q40.065624 127.78479 40.83125 127.78479Q41.45625 127.78479 41.8625 127.40979Q42.284374 127.03479 42.409374 126.237915ZM48.596874 126.519165L49.690624 126.644165Q49.440624 127.59729 48.7375 128.12854Q48.034374 128.65979 46.95625 128.65979Q45.596874 128.65979 44.784374 127.81604Q43.9875 126.97229 43.9875 125.456665Q43.9875 123.894165 44.8 123.03479Q45.6125 122.15979 46.89375 122.15979Q48.14375 122.15979 48.925 123.00354Q49.721874 123.84729 49.721874 125.394165Q49.721874 125.487915 49.721874 125.675415L45.08125 125.675415Q45.14375 126.706665 45.659374 127.25354Q46.175 127.78479 46.95625 127.78479Q47.534374 127.78479 47.940624 127.487915Q48.3625 127.175415 48.596874 126.519165ZM45.14375 124.81604L48.6125 124.81604Q48.55 124.019165 48.221874 123.62854Q47.70625 123.019165 46.909374 123.019165Q46.175 123.019165 45.675 123.50354Q45.190624 123.987915 45.14375 124.81604ZM50.925 126.65979L51.95625 126.50354Q52.05 127.12854 52.440624 127.456665Q52.846874 127.78479 53.58125 127.78479Q54.3 127.78479 54.64375 127.50354Q55.003124 127.206665 55.003124 126.800415Q55.003124 126.44104 54.690624 126.237915Q54.471874 126.09729 53.6125 125.87854Q52.45625 125.581665 52.003124 125.37854Q51.565624 125.15979 51.33125 124.78479Q51.096874 124.40979 51.096874 123.94104Q51.096874 123.53479 51.284374 123.175415Q51.471874 122.81604 51.8 122.581665Q52.05 122.40979 52.471874 122.28479Q52.89375 122.15979 53.39375 122.15979Q54.1125 122.15979 54.659374 122.37854Q55.221874 122.581665 55.4875 122.94104Q55.753124 123.300415 55.846874 123.894165L54.815624 124.03479Q54.753124 123.56604 54.409374 123.300415Q54.08125 123.019165 53.45625 123.019165Q52.7375 123.019165 52.425 123.269165Q52.1125 123.50354 52.1125 123.831665Q52.1125 124.03479 52.2375 124.19104Q52.378124 124.362915 52.64375 124.47229Q52.8 124.53479 53.58125 124.737915Q54.70625 125.050415 55.14375 125.237915Q55.58125 125.425415 55.83125 125.78479Q56.08125 126.144165 56.08125 126.69104Q56.08125 127.22229 55.76875 127.69104Q55.471874 128.14417 54.89375 128.40979Q54.315624 128.65979 53.58125 128.65979Q52.3625 128.65979 51.721874 128.15979Q51.096874 127.644165 50.925 126.65979ZM57.925 126.65979L58.95625 126.50354Q59.05 127.12854 59.440624 127.456665Q59.846874 127.78479 60.58125 127.78479Q61.3 127.78479 61.64375 127.50354Q62.003124 127.206665 62.003124 126.800415Q62.003124 126.44104 61.690624 126.237915Q61.471874 126.09729 60.6125 125.87854Q59.45625 125.581665 59.003124 125.37854Q58.565624 125.15979 58.33125 124.78479Q58.096874 124.40979 58.096874 123.94104Q58.096874 123.53479 58.284374 123.175415Q58.471874 122.81604 58.8 122.581665Q59.05 122.40979 59.471874 122.28479Q59.89375 122.15979 60.39375 122.15979Q61.1125 122.15979 61.659374 122.37854Q62.221874 122.581665 62.4875 122.94104Q62.753124 123.300415 62.846874 123.894165L61.815624 124.03479Q61.753124 123.56604 61.409374 123.300415Q61.08125 123.019165 60.45625 123.019165Q59.7375 123.019165 59.425 123.269165Q59.1125 123.50354 59.1125 123.831665Q59.1125 124.03479 59.2375 124.19104Q59.378124 124.362915 59.64375 124.47229Q59.8 124.53479 60.58125 124.737915Q61.70625 125.050415 62.14375 125.237915Q62.58125 125.425415 62.83125 125.78479Q63.08125 126.144165 63.08125 126.69104Q63.08125 127.22229 62.76875 127.69104Q62.471874 128.14417 61.89375 128.40979Q61.315624 128.65979 60.58125 128.65979Q59.3625 128.65979 58.721874 128.15979Q58.096874 127.644165 57.925 126.65979ZM73.59688 127.50354L73.59688 128.51917L67.90938 128.51917Q67.90938 128.14417 68.03438 127.78479Q68.25313 127.206665 68.72188 126.644165Q69.20625 126.081665 70.1125 125.34729Q71.51875 124.19104 72.00313 123.519165Q72.50313 122.84729 72.50313 122.25354Q72.50313 121.62854 72.05 121.206665Q71.59688 120.769165 70.87813 120.769165Q70.1125 120.769165 69.65938 121.22229Q69.20625 121.675415 69.19063 122.487915L68.1125 122.37854Q68.22188 121.15979 68.94063 120.53479Q69.675 119.894165 70.90938 119.894165Q72.14375 119.894165 72.8625 120.581665Q73.58125 121.269165 73.58125 122.28479Q73.58125 122.800415 73.3625 123.300415Q73.15938 123.78479 72.65938 124.34729Q72.175 124.894165 71.05 125.84729Q70.09688 126.644165 69.81563 126.94104Q69.55 127.22229 69.37813 127.50354L73.59688 127.50354ZM80.3625 131.05042Q79.4875 129.94104 78.87813 128.47229Q78.28438 126.987915 78.28438 125.40979Q78.28438 124.019165 78.72188 122.737915Q79.25313 121.25354 80.3625 119.78479L81.1125 119.78479Q80.40938 121.00354 80.175 121.519165Q79.81563 122.331665 79.6125 123.206665Q79.3625 124.300415 79.3625 125.40979Q79.3625 128.23792 81.1125 131.05042L80.3625 131.05042ZM82.09688 125.75354L83.15938 125.65979Q83.2375 126.31604 83.51875 126.72229Q83.8 127.12854 84.37813 127.394165Q84.97188 127.644165 85.70625 127.644165Q86.34688 127.644165 86.84688 127.456665Q87.34688 127.25354 87.58125 126.925415Q87.83125 126.581665 87.83125 126.19104Q87.83125 125.78479 87.59688 125.487915Q87.3625 125.175415 86.83125 124.97229Q86.47188 124.831665 85.28438 124.550415Q84.1125 124.269165 83.64375 124.019165Q83.01875 123.69104 82.72188 123.22229Q82.425 122.737915 82.425 122.144165Q82.425 121.50354 82.78438 120.94104Q83.15938 120.362915 83.8625 120.081665Q84.58125 119.78479 85.44063 119.78479Q86.39375 119.78479 87.12813 120.09729Q87.8625 120.394165 88.25313 121.00354Q88.64375 121.59729 88.675 122.34729L87.58125 122.425415Q87.4875 121.612915 86.97188 121.206665Q86.47188 120.78479 85.4875 120.78479Q84.45625 120.78479 83.9875 121.15979Q83.51875 121.53479 83.51875 122.06604Q83.51875 122.53479 83.84688 122.831665Q84.175 123.12854 85.55 123.44104Q86.94063 123.75354 87.45625 123.987915Q88.20625 124.34729 88.56563 124.87854Q88.925 125.394165 88.925 126.09729Q88.925 126.78479 88.53438 127.394165Q88.14375 127.987915 87.40938 128.33167Q86.675 128.65979 85.75313 128.65979Q84.58125 128.65979 83.78438 128.33167Q83.00313 127.987915 82.55 127.300415Q82.1125 126.612915 82.09688 125.75354ZM92.64375 127.581665L92.8 128.50354Q92.34688 128.59729 92.00313 128.59729Q91.425 128.59729 91.1125 128.42542Q90.8 128.23792 90.65938 127.94104Q90.53438 127.644165 90.53438 126.69104L90.53438 123.112915L89.76875 123.112915L89.76875 122.300415L90.53438 122.300415L90.53438 120.75354L91.58125 120.12854L91.58125 122.300415L92.64375 122.300415L92.64375 123.112915L91.58125 123.112915L91.58125 126.75354Q91.58125 127.206665 91.62813 127.331665Q91.69063 127.456665 91.81563 127.53479Q91.94063 127.612915 92.175 127.612915Q92.3625 127.612915 92.64375 127.581665ZM93.33125 128.51917L93.33125 122.300415L94.28438 122.300415L94.28438 123.237915Q94.64375 122.581665 94.94063 122.37854Q95.25313 122.15979 95.62813 122.15979Q96.15938 122.15979 96.70625 122.487915L96.34688 123.47229Q95.95625 123.237915 95.58125 123.237915Q95.22188 123.237915 94.94063 123.456665Q94.675 123.65979 94.56563 124.03479Q94.37813 124.59729 94.37813 125.25354L94.37813 128.51917L93.33125 128.51917ZM97.34688 121.144165L97.34688 119.925415L98.40938 119.925415L98.40938 121.144165L97.34688 121.144165ZM97.34688 128.51917L97.34688 122.300415L98.40938 122.300415L98.40938 128.51917L97.34688 128.51917ZM104.37813 128.51917L104.37813 127.737915Q103.78438 128.65979 102.64375 128.65979Q101.89375 128.65979 101.26875 128.25354Q100.64375 127.831665 100.3 127.09729Q99.95625 126.362915 99.95625 125.40979Q99.95625 124.487915 100.26875 123.72229Q100.58125 122.956665 101.20625 122.56604Q101.83125 122.15979 102.59688 122.15979Q103.15938 122.15979 103.59688 122.394165Q104.03438 122.62854 104.31563 123.00354L104.31563 119.925415L105.3625 119.925415L105.3625 128.51917L104.37813 128.51917ZM101.05 125.40979Q101.05 126.612915 101.55 127.206665Q102.05 127.78479 102.7375 127.78479Q103.425 127.78479 103.90938 127.22229Q104.39375 126.65979 104.39375 125.50354Q104.39375 124.22229 103.89375 123.62854Q103.40938 123.03479 102.69063 123.03479Q101.9875 123.03479 101.51875 123.612915Q101.05 124.175415 101.05 125.40979ZM111.59688 126.519165L112.69063 126.644165Q112.44063 127.59729 111.7375 128.12854Q111.03438 128.65979 109.95625 128.65979Q108.59688 128.65979 107.78438 127.81604Q106.9875 126.97229 106.9875 125.456665Q106.9875 123.894165 107.8 123.03479Q108.6125 122.15979 109.89375 122.15979Q111.14375 122.15979 111.925 123.00354Q112.72188 123.84729 112.72188 125.394165Q112.72188 125.487915 112.72188 125.675415L108.08125 125.675415Q108.14375 126.706665 108.65938 127.25354Q109.175 127.78479 109.95625 127.78479Q110.53438 127.78479 110.94063 127.487915Q111.3625 127.175415 111.59688 126.519165ZM108.14375 124.81604L111.6125 124.81604Q111.55 124.019165 111.22188 123.62854Q110.70625 123.019165 109.90938 123.019165Q109.175 123.019165 108.675 123.50354Q108.19063 123.987915 108.14375 124.81604ZM122.59688 127.50354L122.59688 128.51917L116.90938 128.51917Q116.90938 128.14417 117.03438 127.78479Q117.25313 127.206665 117.72188 126.644165Q118.20625 126.081665 119.1125 125.34729Q120.51875 124.19104 121.00313 123.519165Q121.50313 122.84729 121.50313 122.25354Q121.50313 121.62854 121.05 121.206665Q120.59688 120.769165 119.87813 120.769165Q119.1125 120.769165 118.65938 121.22229Q118.20625 121.675415 118.19063 122.487915L117.1125 122.37854Q117.22188 121.15979 117.94063 120.53479Q118.675 119.894165 119.90938 119.894165Q121.14375 119.894165 121.8625 120.581665Q122.58125 121.269165 122.58125 122.28479Q122.58125 122.800415 122.3625 123.300415Q122.15938 123.78479 121.65938 124.34729Q121.175 124.894165 120.05 125.84729Q119.09688 126.644165 118.81563 126.94104Q118.55 127.22229 118.37813 127.50354L122.59688 127.50354ZM124.05 124.28479Q124.05 122.75354 124.3625 121.831665Q124.675 120.894165 125.28438 120.394165Q125.90938 119.894165 126.84688 119.894165Q127.53438 119.894165 128.05 120.175415Q128.58125 120.456665 128.925 120.987915Q129.26875 121.50354 129.45625 122.25354Q129.64375 123.00354 129.64375 124.28479Q129.64375 125.800415 129.33125 126.72229Q129.03438 127.644165 128.40938 128.15979Q127.8 128.65979 126.84688 128.65979Q125.6125 128.65979 124.89375 127.769165Q124.05 126.706665 124.05 124.28479ZM125.12813 124.28479Q125.12813 126.394165 125.62813 127.09729Q126.12813 127.800415 126.84688 127.800415Q127.58125 127.800415 128.06563 127.09729Q128.56563 126.394165 128.56563 124.28479Q128.56563 122.15979 128.06563 121.47229Q127.58125 120.769165 126.83125 120.769165Q126.1125 120.769165 125.675 121.37854Q125.12813 122.15979 125.12813 124.28479ZM131.05 124.28479Q131.05 122.75354 131.3625 121.831665Q131.675 120.894165 132.28438 120.394165Q132.90938 119.894165 133.84688 119.894165Q134.53438 119.894165 135.05 120.175415Q135.58125 120.456665 135.925 120.987915Q136.26875 121.50354 136.45625 122.25354Q136.64375 123.00354 136.64375 124.28479Q136.64375 125.800415 136.33125 126.72229Q136.03438 127.644165 135.40938 128.15979Q134.8 128.65979 133.84688 128.65979Q132.6125 128.65979 131.89375 127.769165Q131.05 126.706665 131.05 124.28479ZM132.12813 124.28479Q132.12813 126.394165 132.62813 127.09729Q133.12813 127.800415 133.84688 127.800415Q134.58125 127.800415 135.06563 127.09729Q135.56563 126.394165 135.56563 124.28479Q135.56563 122.15979 135.06563 121.47229Q134.58125 120.769165 133.83125 120.769165Q133.1125 120.769165 132.675 121.37854Q132.12813 122.15979 132.12813 124.28479ZM139.03438 131.05042L138.28438 131.05042Q140.03438 128.23792 140.03438 125.40979Q140.03438 124.31604 139.78438 123.22229Q139.58125 122.34729 139.22188 121.53479Q138.9875 121.019165 138.28438 119.78479L139.03438 119.78479Q140.12813 121.25354 140.65938 122.737915Q141.1125 124.019165 141.1125 125.40979Q141.1125 126.987915 140.50313 128.47229Q139.89375 129.94104 139.03438 131.05042Z" fill-rule="nonzero"/><path fill="#9e9e9e" d="M19.05 143.25354L20.1125 143.11292Q20.284374 144.00354 20.721874 144.40979Q21.159374 144.80042 21.784374 144.80042Q22.534374 144.80042 23.05 144.28479Q23.565624 143.76917 23.565624 143.00354Q23.565624 142.28479 23.08125 141.81604Q22.6125 141.33167 21.878124 141.33167Q21.58125 141.33167 21.128124 141.45667L21.253124 140.51917Q21.3625 140.53479 21.425 140.53479Q22.096874 140.53479 22.628124 140.19104Q23.175 139.83167 23.175 139.09729Q23.175 138.51917 22.784374 138.14417Q22.39375 137.75354 21.76875 137.75354Q21.159374 137.75354 20.7375 138.14417Q20.33125 138.53479 20.221874 139.30042L19.159374 139.11292Q19.346874 138.06604 20.034374 137.48792Q20.721874 136.89417 21.7375 136.89417Q22.440624 136.89417 23.034374 137.20667Q23.628124 137.50354 23.940624 138.01917Q24.253124 138.53479 24.253124 139.12854Q24.253124 139.67542 23.95625 140.14417Q23.659374 140.59729 23.08125 140.86292Q23.83125 141.03479 24.253124 141.59729Q24.675 142.14417 24.675 142.98792Q24.675 144.11292 23.846874 144.89417Q23.034374 145.67542 21.784374 145.67542Q20.659374 145.67542 19.909374 145.00354Q19.159374 144.31604 19.05 143.25354ZM26.05 143.25354L27.1125 143.11292Q27.284374 144.00354 27.721874 144.40979Q28.159374 144.80042 28.784374 144.80042Q29.534374 144.80042 30.05 144.28479Q30.565624 143.76917 30.565624 143.00354Q30.565624 142.28479 30.08125 141.81604Q29.6125 141.33167 28.878124 141.33167Q28.58125 141.33167 28.128124 141.45667L28.253124 140.51917Q28.3625 140.53479 28.425 140.53479Q29.096874 140.53479 29.628124 140.19104Q30.175 139.83167 30.175 139.09729Q30.175 138.51917 29.784374 138.14417Q29.39375 137.75354 28.76875 137.75354Q28.159374 137.75354 27.7375 138.14417Q27.33125 138.53479 27.221874 139.30042L26.159374 139.11292Q26.346874 138.06604 27.034374 137.48792Q27.721874 136.89417 28.7375 136.89417Q29.440624 136.89417 30.034374 137.20667Q30.628124 137.50354 30.940624 138.01917Q31.253124 138.53479 31.253124 139.12854Q31.253124 139.67542 30.95625 140.14417Q30.659374 140.59729 30.08125 140.86292Q30.83125 141.03479 31.253124 141.59729Q31.675 142.14417 31.675 142.98792Q31.675 144.11292 30.846874 144.89417Q30.034374 145.67542 28.784374 145.67542Q27.659374 145.67542 26.909374 145.00354Q26.159374 144.31604 26.05 143.25354ZM33.64375 145.51917L33.64375 144.31604L34.846874 144.31604L34.846874 145.51917L33.64375 145.51917ZM36.05 143.25354L37.1125 143.11292Q37.284374 144.00354 37.721874 144.40979Q38.159374 144.80042 38.784374 144.80042Q39.534374 144.80042 40.05 144.28479Q40.565624 143.76917 40.565624 143.00354Q40.565624 142.28479 40.08125 141.81604Q39.6125 141.33167 38.878124 141.33167Q38.58125 141.33167 38.128124 141.45667L38.253124 140.51917Q38.3625 140.53479 38.425 140.53479Q39.096874 140.53479 39.628124 140.19104Q40.175 139.83167 40.175 139.09729Q40.175 138.51917 39.784374 138.14417Q39.39375 137.75354 38.76875 137.75354Q38.159374 137.75354 37.7375 138.14417Q37.33125 138.53479 37.221874 139.30042L36.159374 139.11292Q36.346874 138.06604 37.034374 137.48792Q37.721874 136.89417 38.7375 136.89417Q39.440624 136.89417 40.034374 137.20667Q40.628124 137.50354 40.940624 138.01917Q41.253124 138.53479 41.253124 139.12854Q41.253124 139.67542 40.95625 140.14417Q40.659374 140.59729 40.08125 140.86292Q40.83125 141.03479 41.253124 141.59729Q41.675 142.14417 41.675 142.98792Q41.675 144.11292 40.846874 144.89417Q40.034374 145.67542 38.784374 145.67542Q37.659374 145.67542 36.909374 145.00354Q36.159374 144.31604 36.05 143.25354ZM43.253124 138.98792Q43.253124 138.06604 43.70625 137.42542Q44.175 136.78479 45.05 136.78479Q45.8625 136.78479 46.39375 137.36292Q46.925 137.94104 46.925 139.05042Q46.925 140.14417 46.378124 140.73792Q45.846874 141.31604 45.065624 141.31604Q44.284374 141.31604 43.76875 140.73792Q43.253124 140.15979 43.253124 138.98792ZM45.08125 137.50354Q44.690624 137.50354 44.425 137.84729Q44.175 138.19104 44.175 139.09729Q44.175 139.92542 44.425 140.26917Q44.690624 140.59729 45.08125 140.59729Q45.4875 140.59729 45.7375 140.25354Q46.003124 139.90979 46.003124 139.01917Q46.003124 138.17542 45.7375 137.84729Q45.471874 137.50354 45.08125 137.50354ZM45.08125 145.83167L49.784374 136.78479L50.64375 136.78479L45.95625 145.83167L45.08125 145.83167ZM48.8 143.50354Q48.8 142.58167 49.253124 141.94104Q49.721874 141.30042 50.6125 141.30042Q51.425 141.30042 51.95625 141.87854Q52.4875 142.44104 52.4875 143.56604Q52.4875 144.65979 51.940624 145.25354Q51.409374 145.83167 50.6125 145.83167Q49.846874 145.83167 49.315624 145.25354Q48.8 144.67542 48.8 143.50354ZM50.64375 142.01917Q50.2375 142.01917 49.971874 142.36292Q49.721874 142.70667 49.721874 143.61292Q49.721874 144.42542 49.9875 144.76917Q50.253124 145.11292 50.64375 145.11292Q51.034374 145.11292 51.3 144.76917Q51.565624 144.42542 51.565624 143.51917Q51.565624 142.69104 51.3 142.36292Q51.034374 142.01917 50.64375 142.01917Z" fill-rule="nonzero"/><path stroke="#757575" stroke-width="1.0" stroke-linecap="butt" d="M18.55 133.01917L141.73334 133.01917L174.10608 133.01917" fill-rule="nonzero"/><path fill="#9e9e9e" d="M176.10608 133.01917C176.10608 131.9146 175.21065 131.01917 174.10608 131.01917C173.00151 131.01917 172.10608 131.9146 172.10608 133.01917C172.10608 134.12373 173.00151 135.01917 174.10608 135.01917C175.21065 135.01917 176.10608 134.12373 176.10608 133.01917" fill-rule="nonzero"/><path fill="#1a1a1a" d="M452.3719 269.8475L452.3719 261.25375L455.6219 261.25375Q456.46564 261.25375 456.91876 261.33188Q457.5594 261.44125 457.98126 261.73813Q458.41876 262.035 458.66876 262.56625Q458.9344 263.0975 458.9344 263.73813Q458.9344 264.83188 458.23126 265.5975Q457.54376 266.3475 455.71564 266.3475L453.5125 266.3475L453.5125 269.8475L452.3719 269.8475ZM453.5125 265.3475L455.73126 265.3475Q456.84064 265.3475 457.29376 264.94125Q457.7625 264.51938 457.7625 263.76938Q457.7625 263.23813 457.48126 262.86313Q457.21564 262.4725 456.77814 262.3475Q456.48126 262.26938 455.71564 262.26938L453.5125 262.26938L453.5125 265.3475ZM460.23126 269.8475L460.23126 263.62875L461.1844 263.62875L461.1844 264.56625Q461.54376 263.91 461.84064 263.70688Q462.15314 263.48813 462.52814 263.48813Q463.0594 263.48813 463.60626 263.81625L463.2469 264.80063Q462.85626 264.56625 462.48126 264.56625Q462.1219 264.56625 461.84064 264.785Q461.575 264.98813 461.46564 265.36313Q461.27814 265.92563 461.27814 266.58188L461.27814 269.8475L460.23126 269.8475ZM463.85626 266.73813Q463.85626 265.00375 464.8094 264.17563Q465.60626 263.48813 466.7625 263.48813Q468.04376 263.48813 468.85626 264.33188Q469.6844 265.16 469.6844 266.64438Q469.6844 267.8475 469.325 268.535Q468.96564 269.2225 468.2625 269.61313Q467.575 269.98813 466.7625 269.98813Q465.46564 269.98813 464.65314 269.16Q463.85626 268.31625 463.85626 266.73813ZM464.9344 266.73813Q464.9344 267.92563 465.45 268.51938Q465.98126 269.11313 466.7625 269.11313Q467.5594 269.11313 468.075 268.51938Q468.59064 267.92563 468.59064 266.70688Q468.59064 265.55063 468.0594 264.95688Q467.54376 264.36313 466.7625 264.36313Q465.98126 264.36313 465.45 264.95688Q464.9344 265.535 464.9344 266.73813ZM475.3094 267.56625L476.34064 267.70688Q476.16876 268.76938 475.46564 269.37875Q474.7625 269.98813 473.7469 269.98813Q472.46564 269.98813 471.6844 269.16Q470.91876 268.31625 470.91876 266.75375Q470.91876 265.75375 471.2469 265.00375Q471.59064 264.23813 472.2625 263.86313Q472.95 263.48813 473.7625 263.48813Q474.7625 263.48813 475.40314 264.00375Q476.0594 264.50375 476.2469 265.45688L475.21564 265.61313Q475.075 264.98813 474.7 264.67563Q474.325 264.3475 473.79376 264.3475Q472.9969 264.3475 472.4969 264.92563Q471.9969 265.48813 471.9969 266.7225Q471.9969 267.98813 472.48126 268.55063Q472.96564 269.11313 473.73126 269.11313Q474.35626 269.11313 474.7625 268.73813Q475.1844 268.36313 475.3094 267.56625ZM481.4969 267.8475L482.59064 267.9725Q482.34064 268.92563 481.6375 269.45688Q480.9344 269.98813 479.85626 269.98813Q478.4969 269.98813 477.6844 269.14438Q476.8875 268.30063 476.8875 266.785Q476.8875 265.2225 477.7 264.36313Q478.5125 263.48813 479.79376 263.48813Q481.04376 263.48813 481.825 264.33188Q482.6219 265.17563 482.6219 266.7225Q482.6219 266.81625 482.6219 267.00375L477.98126 267.00375Q478.04376 268.035 478.5594 268.58188Q479.075 269.11313 479.85626 269.11313Q480.4344 269.11313 480.84064 268.81625Q481.2625 268.50375 481.4969 267.8475ZM478.04376 266.14438L481.5125 266.14438Q481.45 265.3475 481.1219 264.95688Q480.60626 264.3475 479.8094 264.3475Q479.075 264.3475 478.575 264.83188Q478.09064 265.31625 478.04376 266.14438ZM483.825 267.98813L484.85626 267.83188Q484.95 268.45688 485.34064 268.785Q485.7469 269.11313 486.48126 269.11313Q487.2 269.11313 487.54376 268.83188Q487.90314 268.535 487.90314 268.12875Q487.90314 267.76938 487.59064 267.56625Q487.3719 267.42563 486.5125 267.20688Q485.35626 266.91 484.90314 266.70688Q484.46564 266.48813 484.23126 266.11313Q483.9969 265.73813 483.9969 265.26938Q483.9969 264.86313 484.1844 264.50375Q484.3719 264.14438 484.7 263.91Q484.95 263.73813 485.3719 263.61313Q485.79376 263.48813 486.29376 263.48813Q487.0125 263.48813 487.5594 263.70688Q488.1219 263.91 488.3875 264.26938Q488.65314 264.62875 488.7469 265.2225L487.71564 265.36313Q487.65314 264.89438 487.3094 264.62875Q486.98126 264.3475 486.35626 264.3475Q485.6375 264.3475 485.325 264.5975Q485.0125 264.83188 485.0125 265.16Q485.0125 265.36313 485.1375 265.51938Q485.27814 265.69125 485.54376 265.80063Q485.7 265.86313 486.48126 266.06625Q487.60626 266.37875 488.04376 266.56625Q488.48126 266.75375 488.73126 267.11313Q488.98126 267.4725 488.98126 268.01938Q488.98126 268.55063 488.66876 269.01938Q488.3719 269.4725 487.79376 269.73813Q487.21564 269.98813 486.48126 269.98813Q485.2625 269.98813 484.6219 269.48813Q483.9969 268.9725 483.825 267.98813ZM490.825 267.98813L491.85626 267.83188Q491.95 268.45688 492.34064 268.785Q492.7469 269.11313 493.48126 269.11313Q494.2 269.11313 494.54376 268.83188Q494.90314 268.535 494.90314 268.12875Q494.90314 267.76938 494.59064 267.56625Q494.3719 267.42563 493.5125 267.20688Q492.35626 266.91 491.90314 266.70688Q491.46564 266.48813 491.23126 266.11313Q490.9969 265.73813 490.9969 265.26938Q490.9969 264.86313 491.1844 264.50375Q491.3719 264.14438 491.7 263.91Q491.95 263.73813 492.3719 263.61313Q492.79376 263.48813 493.29376 263.48813Q494.0125 263.48813 494.5594 263.70688Q495.1219 263.91 495.3875 264.26938Q495.65314 264.62875 495.7469 265.2225L494.71564 265.36313Q494.65314 264.89438 494.3094 264.62875Q493.98126 264.3475 493.35626 264.3475Q492.6375 264.3475 492.325 264.5975Q492.0125 264.83188 492.0125 265.16Q492.0125 265.36313 492.1375 265.51938Q492.27814 265.69125 492.54376 265.80063Q492.7 265.86313 493.48126 266.06625Q494.60626 266.37875 495.04376 266.56625Q495.48126 266.75375 495.73126 267.11313Q495.98126 267.4725 495.98126 268.01938Q495.98126 268.55063 495.66876 269.01938Q495.3719 269.4725 494.79376 269.73813Q494.21564 269.98813 493.48126 269.98813Q492.2625 269.98813 491.6219 269.48813Q490.9969 268.9725 490.825 267.98813ZM504.91876 269.8475L503.8719 269.8475L503.8719 263.12875Q503.48126 263.48813 502.85626 263.86313Q502.2469 264.2225 501.7625 264.39438L501.7625 263.37875Q502.6375 262.95688 503.29376 262.37875Q503.96564 261.785 504.2469 261.2225L504.91876 261.2225L504.91876 269.8475ZM513.2625 272.37875Q512.3875 271.26938 511.77814 269.80063Q511.1844 268.31625 511.1844 266.73813Q511.1844 265.3475 511.6219 264.06625Q512.15314 262.58188 513.2625 261.11313L514.0125 261.11313Q513.3094 262.33188 513.075 262.8475Q512.71564 263.66 512.5125 264.535Q512.2625 265.62875 512.2625 266.73813Q512.2625 269.56625 514.0125 272.37875L513.2625 272.37875ZM514.9969 267.08188L516.0594 266.98813Q516.1375 267.64438 516.41876 268.05063Q516.7 268.45688 517.27814 268.7225Q517.8719 268.9725 518.60626 268.9725Q519.2469 268.9725 519.7469 268.785Q520.2469 268.58188 520.48126 268.25375Q520.73126 267.91 520.73126 267.51938Q520.73126 267.11313 520.4969 266.81625Q520.2625 266.50375 519.73126 266.30063Q519.3719 266.16 518.1844 265.87875Q517.0125 265.5975 516.54376 265.3475Q515.91876 265.01938 515.6219 264.55063Q515.325 264.06625 515.325 263.4725Q515.325 262.83188 515.6844 262.26938Q516.0594 261.69125 516.7625 261.41Q517.48126 261.11313 518.34064 261.11313Q519.29376 261.11313 520.02814 261.42563Q520.7625 261.7225 521.15314 262.33188Q521.54376 262.92563 521.575 263.67563L520.48126 263.75375Q520.3875 262.94125 519.8719 262.535Q519.3719 262.11313 518.3875 262.11313Q517.35626 262.11313 516.8875 262.48813Q516.41876 262.86313 516.41876 263.39438Q516.41876 263.86313 516.7469 264.16Q517.075 264.45688 518.45 264.76938Q519.84064 265.08188 520.35626 265.31625Q521.10626 265.67563 521.46564 266.20688Q521.825 266.7225 521.825 267.42563Q521.825 268.11313 521.4344 268.7225Q521.04376 269.31625 520.3094 269.66Q519.575 269.98813 518.65314 269.98813Q517.48126 269.98813 516.6844 269.66Q515.90314 269.31625 515.45 268.62875Q515.0125 267.94125 514.9969 267.08188ZM525.54376 268.91L525.7 269.83188Q525.2469 269.92563 524.90314 269.92563Q524.325 269.92563 524.0125 269.75375Q523.7 269.56625 523.5594 269.26938Q523.4344 268.9725 523.4344 268.01938L523.4344 264.44125L522.66876 264.44125L522.66876 263.62875L523.4344 263.62875L523.4344 262.08188L524.48126 261.45688L524.48126 263.62875L525.54376 263.62875L525.54376 264.44125L524.48126 264.44125L524.48126 268.08188Q524.48126 268.535 524.52814 268.66Q524.59064 268.785 524.71564 268.86313Q524.84064 268.94125 525.075 268.94125Q525.2625 268.94125 525.54376 268.91ZM526.23126 269.8475L526.23126 263.62875L527.1844 263.62875L527.1844 264.56625Q527.54376 263.91 527.84064 263.70688Q528.15314 263.48813 528.52814 263.48813Q529.0594 263.48813 529.60626 263.81625L529.2469 264.80063Q528.85626 264.56625 528.48126 264.56625Q528.1219 264.56625 527.84064 264.785Q527.575 264.98813 527.46564 265.36313Q527.27814 265.92563 527.27814 266.58188L527.27814 269.8475L526.23126 269.8475ZM530.2469 262.4725L530.2469 261.25375L531.3094 261.25375L531.3094 262.4725L530.2469 262.4725ZM530.2469 269.8475L530.2469 263.62875L531.3094 263.62875L531.3094 269.8475L530.2469 269.8475ZM537.27814 269.8475L537.27814 269.06625Q536.6844 269.98813 535.54376 269.98813Q534.79376 269.98813 534.16876 269.58188Q533.54376 269.16 533.2 268.42563Q532.85626 267.69125 532.85626 266.73813Q532.85626 265.81625 533.16876 265.05063Q533.48126 264.285 534.10626 263.89438Q534.73126 263.48813 535.4969 263.48813Q536.0594 263.48813 536.4969 263.7225Q536.9344 263.95688 537.21564 264.33188L537.21564 261.25375L538.2625 261.25375L538.2625 269.8475L537.27814 269.8475ZM533.95 266.73813Q533.95 267.94125 534.45 268.535Q534.95 269.11313 535.6375 269.11313Q536.325 269.11313 536.8094 268.55063Q537.29376 267.98813 537.29376 266.83188Q537.29376 265.55063 536.79376 264.95688Q536.3094 264.36313 535.59064 264.36313Q534.8875 264.36313 534.41876 264.94125Q533.95 265.50375 533.95 266.73813ZM544.4969 267.8475L545.59064 267.9725Q545.34064 268.92563 544.6375 269.45688Q543.9344 269.98813 542.85626 269.98813Q541.4969 269.98813 540.6844 269.14438Q539.8875 268.30063 539.8875 266.785Q539.8875 265.2225 540.7 264.36313Q541.5125 263.48813 542.79376 263.48813Q544.04376 263.48813 544.825 264.33188Q545.6219 265.17563 545.6219 266.7225Q545.6219 266.81625 545.6219 267.00375L540.98126 267.00375Q541.04376 268.035 541.5594 268.58188Q542.075 269.11313 542.85626 269.11313Q543.4344 269.11313 543.84064 268.81625Q544.2625 268.50375 544.4969 267.8475ZM541.04376 266.14438L544.5125 266.14438Q544.45 265.3475 544.1219 264.95688Q543.60626 264.3475 542.8094 264.3475Q542.075 264.3475 541.575 264.83188Q541.09064 265.31625 541.04376 266.14438ZM553.91876 269.8475L552.8719 269.8475L552.8719 263.12875Q552.48126 263.48813 551.85626 263.86313Q551.2469 264.2225 550.7625 264.39438L550.7625 263.37875Q551.6375 262.95688 552.29376 262.37875Q552.96564 261.785 553.2469 261.2225L553.91876 261.2225L553.91876 269.8475ZM556.95 265.61313Q556.95 264.08188 557.2625 263.16Q557.575 262.2225 558.1844 261.7225Q558.8094 261.2225 559.7469 261.2225Q560.4344 261.2225 560.95 261.50375Q561.48126 261.785 561.825 262.31625Q562.16876 262.83188 562.35626 263.58188Q562.54376 264.33188 562.54376 265.61313Q562.54376 267.12875 562.23126 268.05063Q561.9344 268.9725 561.3094 269.48813Q560.7 269.98813 559.7469 269.98813Q558.5125 269.98813 557.79376 269.0975Q556.95 268.035 556.95 265.61313ZM558.02814 265.61313Q558.02814 267.7225 558.52814 268.42563Q559.02814 269.12875 559.7469 269.12875Q560.48126 269.12875 560.96564 268.42563Q561.46564 267.7225 561.46564 265.61313Q561.46564 263.48813 560.96564 262.80063Q560.48126 262.0975 559.73126 262.0975Q559.0125 262.0975 558.575 262.70688Q558.02814 263.48813 558.02814 265.61313ZM563.95 265.61313Q563.95 264.08188 564.2625 263.16Q564.575 262.2225 565.1844 261.7225Q565.8094 261.2225 566.7469 261.2225Q567.4344 261.2225 567.95 261.50375Q568.48126 261.785 568.825 262.31625Q569.16876 262.83188 569.35626 263.58188Q569.54376 264.33188 569.54376 265.61313Q569.54376 267.12875 569.23126 268.05063Q568.9344 268.9725 568.3094 269.48813Q567.7 269.98813 566.7469 269.98813Q565.5125 269.98813 564.79376 269.0975Q563.95 268.035 563.95 265.61313ZM565.02814 265.61313Q565.02814 267.7225 565.52814 268.42563Q566.02814 269.12875 566.7469 269.12875Q567.48126 269.12875 567.96564 268.42563Q568.46564 267.7225 568.46564 265.61313Q568.46564 263.48813 567.96564 262.80063Q567.48126 262.0975 566.73126 262.0975Q566.0125 262.0975 565.575 262.70688Q565.02814 263.48813 565.02814 265.61313ZM571.9344 272.37875L571.1844 272.37875Q572.9344 269.56625 572.9344 266.73813Q572.9344 265.64438 572.6844 264.55063Q572.48126 263.67563 572.1219 262.86313Q571.8875 262.3475 571.1844 261.11313L571.9344 261.11313Q573.02814 262.58188 573.5594 264.06625Q574.0125 265.3475 574.0125 266.73813Q574.0125 268.31625 573.40314 269.80063Q572.79376 271.26938 571.9344 272.37875Z" fill-rule="nonzero"/><path fill="#9e9e9e" d="M545.41876 280.36313L544.3719 280.44125Q544.23126 279.81625 543.98126 279.535Q543.54376 279.08188 542.91876 279.08188Q542.41876 279.08188 542.02814 279.36313Q541.54376 279.73813 541.2469 280.44125Q540.96564 281.12875 540.95 282.41Q541.325 281.83188 541.8719 281.55063Q542.4344 281.26938 543.04376 281.26938Q544.09064 281.26938 544.825 282.05063Q545.575 282.83188 545.575 284.05063Q545.575 284.86313 545.21564 285.56625Q544.8719 286.25375 544.2625 286.62875Q543.65314 286.98813 542.8875 286.98813Q541.5594 286.98813 540.73126 286.01938Q539.90314 285.05063 539.90314 282.83188Q539.90314 280.33188 540.825 279.20688Q541.6219 278.2225 542.98126 278.2225Q543.9969 278.2225 544.6375 278.80063Q545.29376 279.36313 545.41876 280.36313ZM541.1219 284.06625Q541.1219 284.61313 541.34064 285.11313Q541.575 285.5975 541.98126 285.86313Q542.40314 286.12875 542.8719 286.12875Q543.52814 286.12875 544.0125 285.5975Q544.4969 285.05063 544.4969 284.12875Q544.4969 283.23813 544.0125 282.7225Q543.54376 282.20688 542.825 282.20688Q542.10626 282.20688 541.60626 282.7225Q541.1219 283.23813 541.1219 284.06625ZM552.41876 280.36313L551.3719 280.44125Q551.23126 279.81625 550.98126 279.535Q550.54376 279.08188 549.91876 279.08188Q549.41876 279.08188 549.02814 279.36313Q548.54376 279.73813 548.2469 280.44125Q547.96564 281.12875 547.95 282.41Q548.325 281.83188 548.8719 281.55063Q549.4344 281.26938 550.04376 281.26938Q551.09064 281.26938 551.825 282.05063Q552.575 282.83188 552.575 284.05063Q552.575 284.86313 552.21564 285.56625Q551.8719 286.25375 551.2625 286.62875Q550.65314 286.98813 549.8875 286.98813Q548.5594 286.98813 547.73126 286.01938Q546.90314 285.05063 546.90314 282.83188Q546.90314 280.33188 547.825 279.20688Q548.6219 278.2225 549.98126 278.2225Q550.9969 278.2225 551.6375 278.80063Q552.29376 279.36313 552.41876 280.36313ZM548.1219 284.06625Q548.1219 284.61313 548.34064 285.11313Q548.575 285.5975 548.98126 285.86313Q549.40314 286.12875 549.8719 286.12875Q550.52814 286.12875 551.0125 285.5975Q551.4969 285.05063 551.4969 284.12875Q551.4969 283.23813 551.0125 282.7225Q550.54376 282.20688 549.825 282.20688Q549.10626 282.20688 548.60626 282.7225Q548.1219 283.23813 548.1219 284.06625ZM554.54376 286.8475L554.54376 285.64438L555.7469 285.64438L555.7469 286.8475L554.54376 286.8475ZM557.0125 279.37875L557.0125 278.36313L562.575 278.36313L562.575 279.19125Q561.7625 280.06625 560.95 281.51938Q560.15314 282.95688 559.71564 284.48813Q559.3875 285.56625 559.3094 286.8475L558.21564 286.8475Q558.23126 285.83188 558.60626 284.39438Q558.9969 282.95688 559.7 281.62875Q560.41876 280.30063 561.23126 279.37875L557.0125 279.37875ZM564.15314 280.31625Q564.15314 279.39438 564.60626 278.75375Q565.075 278.11313 565.95 278.11313Q566.7625 278.11313 567.29376 278.69125Q567.825 279.26938 567.825 280.37875Q567.825 281.4725 567.27814 282.06625Q566.7469 282.64438 565.96564 282.64438Q565.1844 282.64438 564.66876 282.06625Q564.15314 281.48813 564.15314 280.31625ZM565.98126 278.83188Q565.59064 278.83188 565.325 279.17563Q565.075 279.51938 565.075 280.42563Q565.075 281.25375 565.325 281.5975Q565.59064 281.92563 565.98126 281.92563Q566.3875 281.92563 566.6375 281.58188Q566.90314 281.23813 566.90314 280.3475Q566.90314 279.50375 566.6375 279.17563Q566.3719 278.83188 565.98126 278.83188ZM565.98126 287.16L570.6844 278.11313L571.54376 278.11313L566.85626 287.16L565.98126 287.16ZM569.7 284.83188Q569.7 283.91 570.15314 283.26938Q570.6219 282.62875 571.5125 282.62875Q572.325 282.62875 572.85626 283.20688Q573.3875 283.76938 573.3875 284.89438Q573.3875 285.98813 572.84064 286.58188Q572.3094 287.16 571.5125 287.16Q570.7469 287.16 570.21564 286.58188Q569.7 286.00375 569.7 284.83188ZM571.54376 283.3475Q571.1375 283.3475 570.8719 283.69125Q570.6219 284.035 570.6219 284.94125Q570.6219 285.75375 570.8875 286.0975Q571.15314 286.44125 571.54376 286.44125Q571.9344 286.44125 572.2 286.0975Q572.46564 285.75375 572.46564 284.8475Q572.46564 284.01938 572.2 283.69125Q571.9344 283.3475 571.54376 283.3475Z" fill-rule="nonzero"/><path stroke="#757575" stroke-width="1.0" stroke-linecap="butt" d="M574.45 274.3475L451.26666 274.3475L418.89392 274.3475" fill-rule="nonzero"/><path fill="#9e9e9e" d="M420.89392 274.3475C420.89392 273.24292 419.9985 272.3475 418.89392 272.3475C417.78937 272.3475 416.89392 273.24292 416.89392 274.3475C416.89392 275.45206 417.78937 276.3475 418.89392 276.3475C419.9985 276.3475 420.89392 275.45206 420.89392 274.3475" fill-rule="nonzero"/><path fill="#757575" d="M23.7375 37.55L23.7375 24.925L19.01875 24.925L19.01875 23.2375L30.3625 23.2375L30.3625 24.925L25.628124 24.925L25.628124 37.55L23.7375 37.55ZM31.8625 37.55L31.8625 23.2375L33.628124 23.2375L33.628124 28.3625Q34.8625 26.940624 36.7375 26.940624Q37.878124 26.940624 38.721874 27.39375Q39.58125 27.846874 39.940624 28.659374Q40.315624 29.45625 40.315624 30.971874L40.315624 37.55L38.565624 37.55L38.565624 30.971874Q38.565624 29.659374 37.9875 29.065624Q37.409374 28.45625 36.378124 28.45625Q35.596874 28.45625 34.89375 28.8625Q34.20625 29.26875 33.909374 29.971874Q33.628124 30.659374 33.628124 31.878124L33.628124 37.55L31.8625 37.55ZM48.971874 34.20625L50.784374 34.440624Q50.3625 36.01875 49.190624 36.909374Q48.034374 37.784374 46.221874 37.784374Q43.95625 37.784374 42.6125 36.39375Q41.284374 34.9875 41.284374 32.45625Q41.284374 29.83125 42.628124 28.39375Q43.971874 26.940624 46.128124 26.940624Q48.20625 26.940624 49.51875 28.3625Q50.846874 29.76875 50.846874 32.346874Q50.846874 32.503124 50.83125 32.815624L43.096874 32.815624Q43.190624 34.51875 44.065624 35.425Q44.940624 36.33125 46.2375 36.33125Q47.20625 36.33125 47.878124 35.83125Q48.565624 35.315624 48.971874 34.20625ZM43.190624 31.3625L48.9875 31.3625Q48.878124 30.065624 48.33125 29.409374Q47.4875 28.39375 46.14375 28.39375Q44.940624 28.39375 44.1125 29.20625Q43.284374 30.003124 43.190624 31.3625ZM52.221874 32.3625Q52.221874 29.4875 53.815624 28.096874Q55.159374 26.940624 57.08125 26.940624Q59.221874 26.940624 60.565624 28.346874Q61.925 29.753124 61.925 32.221874Q61.925 34.221874 61.33125 35.378124Q60.7375 36.51875 59.58125 37.159374Q58.440624 37.784374 57.08125 37.784374Q54.89375 37.784374 53.55 36.39375Q52.221874 34.9875 52.221874 32.3625ZM54.01875 32.3625Q54.01875 34.3625 54.878124 35.346874Q55.753124 36.33125 57.08125 36.33125Q58.39375 36.33125 59.253124 35.346874Q60.128124 34.346874 60.128124 32.3Q60.128124 30.378124 59.253124 29.39375Q58.378124 28.39375 57.08125 28.39375Q55.753124 28.39375 54.878124 29.39375Q54.01875 30.378124 54.01875 32.3625ZM63.846874 37.55L63.846874 27.175L65.425 27.175L65.425 28.753124Q66.03438 27.64375 66.55 27.3Q67.06563 26.940624 67.675 26.940624Q68.56563 26.940624 69.4875 27.503124L68.87813 29.14375Q68.2375 28.753124 67.59688 28.753124Q67.01875 28.753124 66.55 29.1125Q66.09688 29.45625 65.89375 30.065624Q65.6125 31.003124 65.6125 32.1125L65.6125 37.55L63.846874 37.55ZM77.97188 34.20625L79.78438 34.440624Q79.3625 36.01875 78.19063 36.909374Q77.03438 37.784374 75.22188 37.784374Q72.95625 37.784374 71.6125 36.39375Q70.28438 34.9875 70.28438 32.45625Q70.28438 29.83125 71.62813 28.39375Q72.97188 26.940624 75.12813 26.940624Q77.20625 26.940624 78.51875 28.3625Q79.84688 29.76875 79.84688 32.346874Q79.84688 32.503124 79.83125 32.815624L72.09688 32.815624Q72.19063 34.51875 73.06563 35.425Q73.94063 36.33125 75.2375 36.33125Q76.20625 36.33125 76.87813 35.83125Q77.56563 35.315624 77.97188 34.20625ZM72.19063 31.3625L77.9875 31.3625Q77.87813 30.065624 77.33125 29.409374Q76.4875 28.39375 75.14375 28.39375Q73.94063 28.39375 73.1125 29.20625Q72.28438 30.003124 72.19063 31.3625ZM85.70625 35.971874L85.95625 37.534374Q85.22188 37.690624 84.62813 37.690624Q83.675 37.690624 83.14375 37.39375Q82.62813 37.08125 82.40938 36.596874Q82.19063 36.096874 82.19063 34.51875L82.19063 28.55L80.90938 28.55L80.90938 27.175L82.19063 27.175L82.19063 24.6125L83.94063 23.55L83.94063 27.175L85.70625 27.175L85.70625 28.55L83.94063 28.55L83.94063 34.6125Q83.94063 35.3625 84.03438 35.58125Q84.12813 35.784374 84.33125 35.925Q84.55 36.05 84.94063 36.05Q85.22188 36.05 85.70625 35.971874ZM87.87813 25.253124L87.87813 23.2375L89.64375 23.2375L89.64375 25.253124L87.87813 25.253124ZM87.87813 37.55L87.87813 27.175L89.64375 27.175L89.64375 37.55L87.87813 37.55ZM98.64375 33.753124L100.3625 33.971874Q100.08125 35.76875 98.90938 36.784374Q97.75313 37.784374 96.05 37.784374Q93.925 37.784374 92.62813 36.39375Q91.33125 35.003124 91.33125 32.409374Q91.33125 30.721874 91.87813 29.471874Q92.44063 28.20625 93.58125 27.58125Q94.72188 26.940624 96.06563 26.940624Q97.75313 26.940624 98.81563 27.8Q99.89375 28.659374 100.20625 30.221874L98.4875 30.4875Q98.25313 29.440624 97.62813 28.925Q97.00313 28.39375 96.12813 28.39375Q94.8 28.39375 93.97188 29.346874Q93.14375 30.3 93.14375 32.346874Q93.14375 34.440624 93.94063 35.39375Q94.7375 36.33125 96.03438 36.33125Q97.06563 36.33125 97.75313 35.70625Q98.45625 35.065624 98.64375 33.753124ZM108.64375 36.26875Q107.65938 37.096874 106.75313 37.440624Q105.84688 37.784374 104.81563 37.784374Q103.1125 37.784374 102.19063 36.95625Q101.26875 36.1125 101.26875 34.815624Q101.26875 34.05 101.6125 33.425Q101.97188 32.8 102.53438 32.425Q103.09688 32.034374 103.8 31.83125Q104.31563 31.70625 105.3625 31.565624Q107.4875 31.315624 108.4875 30.971874Q108.50313 30.6125 108.50313 30.503124Q108.50313 29.440624 108.00313 28.9875Q107.33125 28.39375 106.00313 28.39375Q104.75313 28.39375 104.15938 28.83125Q103.58125 29.26875 103.3 30.378124L101.58125 30.14375Q101.81563 29.034374 102.34688 28.3625Q102.87813 27.675 103.89375 27.315624Q104.90938 26.940624 106.25313 26.940624Q107.58125 26.940624 108.40938 27.253124Q109.2375 27.565624 109.62813 28.05Q110.01875 28.51875 110.175 29.2375Q110.26875 29.690624 110.26875 30.8625L110.26875 33.20625Q110.26875 35.659374 110.37813 36.315624Q110.4875 36.95625 110.83125 37.55L108.9875 37.55Q108.72188 37.003124 108.64375 36.26875ZM108.4875 32.346874Q107.53438 32.7375 105.6125 33.003124Q104.53438 33.159374 104.08125 33.3625Q103.64375 33.55 103.39375 33.925Q103.14375 34.3 103.14375 34.76875Q103.14375 35.471874 103.675 35.940624Q104.20625 36.409374 105.2375 36.409374Q106.25313 36.409374 107.03438 35.971874Q107.83125 35.51875 108.20625 34.753124Q108.4875 34.14375 108.4875 32.9875L108.4875 32.346874ZM112.83125 37.55L112.83125 23.2375L114.58125 23.2375L114.58125 37.55L112.83125 37.55ZM122.45625 32.95625L124.2375 32.8Q124.3625 33.8625 124.81563 34.55Q125.28438 35.2375 126.25313 35.675Q127.2375 36.096874 128.47188 36.096874Q129.55 36.096874 130.37813 35.784374Q131.20625 35.45625 131.6125 34.89375Q132.01875 34.33125 132.01875 33.659374Q132.01875 32.9875 131.62813 32.4875Q131.2375 31.9875 130.34688 31.64375Q129.76875 31.409374 127.78438 30.940624Q125.81563 30.471874 125.03438 30.05Q124.00313 29.51875 123.50313 28.721874Q123.00313 27.925 123.00313 26.940624Q123.00313 25.846874 123.6125 24.909374Q124.22188 23.971874 125.40938 23.4875Q126.59688 22.9875 128.03438 22.9875Q129.62813 22.9875 130.84688 23.503124Q132.06563 24.01875 132.70625 25.01875Q133.3625 26.003124 133.40938 27.26875L131.59688 27.409374Q131.45625 26.05 130.6125 25.3625Q129.76875 24.659374 128.1125 24.659374Q126.39375 24.659374 125.59688 25.3Q124.81563 25.925 124.81563 26.8Q124.81563 27.58125 125.37813 28.08125Q125.925 28.58125 128.2375 29.096874Q130.55 29.6125 131.40938 30.003124Q132.65938 30.58125 133.25313 31.471874Q133.84688 32.346874 133.84688 33.503124Q133.84688 34.64375 133.19063 35.659374Q132.53438 36.675 131.3 37.2375Q130.08125 37.8 128.55 37.8Q126.6125 37.8 125.3 37.2375Q123.9875 36.659374 123.2375 35.51875Q122.4875 34.378124 122.45625 32.95625ZM142.64375 33.753124L144.3625 33.971874Q144.08125 35.76875 142.90938 36.784374Q141.75313 37.784374 140.05 37.784374Q137.925 37.784374 136.62813 36.39375Q135.33125 35.003124 135.33125 32.409374Q135.33125 30.721874 135.87813 29.471874Q136.44063 28.20625 137.58125 27.58125Q138.72188 26.940624 140.06563 26.940624Q141.75313 26.940624 142.81563 27.8Q143.89375 28.659374 144.20625 30.221874L142.4875 30.4875Q142.25313 29.440624 141.62813 28.925Q141.00313 28.39375 140.12813 28.39375Q138.8 28.39375 137.97188 29.346874Q137.14375 30.3 137.14375 32.346874Q137.14375 34.440624 137.94063 35.39375Q138.7375 36.33125 140.03438 36.33125Q141.06563 36.33125 141.75313 35.70625Q142.45625 35.065624 142.64375 33.753124ZM145.8625 37.55L145.8625 23.2375L147.62813 23.2375L147.62813 28.3625Q148.8625 26.940624 150.7375 26.940624Q151.87813 26.940624 152.72188 27.39375Q153.58125 27.846874 153.94063 28.659374Q154.31563 29.45625 154.31563 30.971874L154.31563 37.55L152.56563 37.55L152.56563 30.971874Q152.56563 29.659374 151.9875 29.065624Q151.40938 28.45625 150.37813 28.45625Q149.59688 28.45625 148.89375 28.8625Q148.20625 29.26875 147.90938 29.971874Q147.62813 30.659374 147.62813 31.878124L147.62813 37.55L145.8625 37.55ZM162.97188 34.20625L164.78438 34.440624Q164.3625 36.01875 163.19063 36.909374Q162.03438 37.784374 160.22188 37.784374Q157.95625 37.784374 156.6125 36.39375Q155.28438 34.9875 155.28438 32.45625Q155.28438 29.83125 156.62813 28.39375Q157.97188 26.940624 160.12813 26.940624Q162.20625 26.940624 163.51875 28.3625Q164.84688 29.76875 164.84688 32.346874Q164.84688 32.503124 164.83125 32.815624L157.09688 32.815624Q157.19063 34.51875 158.06563 35.425Q158.94063 36.33125 160.2375 36.33125Q161.20625 36.33125 161.87813 35.83125Q162.56563 35.315624 162.97188 34.20625ZM157.19063 31.3625L162.9875 31.3625Q162.87813 30.065624 162.33125 29.409374Q161.4875 28.39375 160.14375 28.39375Q158.94063 28.39375 158.1125 29.20625Q157.28438 30.003124 157.19063 31.3625ZM173.59688 37.55L173.59688 36.2375Q172.6125 37.784374 170.69063 37.784374Q169.45625 37.784374 168.40938 37.096874Q167.37813 36.409374 166.8 35.190624Q166.2375 33.971874 166.2375 32.378124Q166.2375 30.815624 166.75313 29.55Q167.26875 28.284374 168.3 27.6125Q169.34688 26.940624 170.6125 26.940624Q171.55 26.940624 172.28438 27.346874Q173.01875 27.7375 173.4875 28.3625L173.4875 23.2375L175.22188 23.2375L175.22188 37.55L173.59688 37.55ZM168.03438 32.378124Q168.03438 34.3625 168.87813 35.346874Q169.72188 36.33125 170.8625 36.33125Q172.01875 36.33125 172.81563 35.39375Q173.62813 34.45625 173.62813 32.51875Q173.62813 30.39375 172.8 29.39375Q171.9875 28.39375 170.78438 28.39375Q169.6125 28.39375 168.81563 29.3625Q168.03438 30.315624 168.03438 32.378124ZM184.65938 37.55L184.65938 36.01875Q183.45625 37.784374 181.37813 37.784374Q180.45625 37.784374 179.65938 37.440624Q178.8625 37.08125 178.47188 36.55Q178.09688 36.01875 177.94063 35.2375Q177.83125 34.721874 177.83125 33.596874L177.83125 27.175L179.58125 27.175L179.58125 32.925Q179.58125 34.3 179.69063 34.784374Q179.8625 35.471874 180.39375 35.878124Q180.94063 36.26875 181.72188 36.26875Q182.51875 36.26875 183.20625 35.8625Q183.90938 35.45625 184.19063 34.76875Q184.4875 34.065624 184.4875 32.7375L184.4875 27.175L186.2375 27.175L186.2375 37.55L184.65938 37.55ZM187.83125 37.55L187.83125 23.2375L189.58125 23.2375L189.58125 37.55L187.83125 37.55ZM198.97188 34.20625L200.78438 34.440624Q200.3625 36.01875 199.19063 36.909374Q198.03438 37.784374 196.22188 37.784374Q193.95625 37.784374 192.6125 36.39375Q191.28438 34.9875 191.28438 32.45625Q191.28438 29.83125 192.62813 28.39375Q193.97188 26.940624 196.12813 26.940624Q198.20625 26.940624 199.51875 28.3625Q200.84688 29.76875 200.84688 32.346874Q200.84688 32.503124 200.83125 32.815624L193.09688 32.815624Q193.19063 34.51875 194.06563 35.425Q194.94063 36.33125 196.2375 36.33125Q197.20625 36.33125 197.87813 35.83125Q198.56563 35.315624 198.97188 34.20625ZM193.19063 31.3625L198.9875 31.3625Q198.87813 30.065624 198.33125 29.409374Q197.4875 28.39375 196.14375 28.39375Q194.94063 28.39375 194.1125 29.20625Q193.28438 30.003124 193.19063 31.3625ZM207.51875 37.55L213.01875 23.2375L215.06563 23.2375L220.925 37.55L218.76875 37.55L217.09688 33.20625L211.1125 33.20625L209.53438 37.55L207.51875 37.55ZM211.65938 31.675L216.50313 31.675L215.01875 27.70625Q214.33125 25.89375 214.00313 24.7375Q213.72188 26.1125 213.22188 27.471874L211.65938 31.675ZM221.83125 37.55L221.83125 23.2375L223.58125 23.2375L223.58125 37.55L221.83125 37.55ZM225.83125 37.55L225.83125 23.2375L227.58125 23.2375L227.58125 37.55L225.83125 37.55ZM229.22188 32.3625Q229.22188 29.4875 230.81563 28.096874Q232.15938 26.940624 234.08125 26.940624Q236.22188 26.940624 237.56563 28.346874Q238.925 29.753124 238.925 32.221874Q238.925 34.221874 238.33125 35.378124Q237.7375 36.51875 236.58125 37.159374Q235.44063 37.784374 234.08125 37.784374Q231.89375 37.784374 230.55 36.39375Q229.22188 34.9875 229.22188 32.3625ZM231.01875 32.3625Q231.01875 34.3625 231.87813 35.346874Q232.75313 36.33125 234.08125 36.33125Q235.39375 36.33125 236.25313 35.346874Q237.12813 34.346874 237.12813 32.3Q237.12813 30.378124 236.25313 29.39375Q235.37813 28.39375 234.08125 28.39375Q232.75313 28.39375 231.87813 29.39375Q231.01875 30.378124 231.01875 32.3625ZM247.64375 33.753124L249.3625 33.971874Q249.08125 35.76875 247.90938 36.784374Q246.75313 37.784374 245.05 37.784374Q242.925 37.784374 241.62813 36.39375Q240.33125 35.003124 240.33125 32.409374Q240.33125 30.721874 240.87813 29.471874Q241.44063 28.20625 242.58125 27.58125Q243.72188 26.940624 245.06563 26.940624Q246.75313 26.940624 247.81563 27.8Q248.89375 28.659374 249.20625 30.221874L247.4875 30.4875Q247.25313 29.440624 246.62813 28.925Q246.00313 28.39375 245.12813 28.39375Q243.8 28.39375 242.97188 29.346874Q242.14375 30.3 242.14375 32.346874Q242.14375 34.440624 242.94063 35.39375Q243.7375 36.33125 245.03438 36.33125Q246.06563 36.33125 246.75313 35.70625Q247.45625 35.065624 247.64375 33.753124ZM257.64374 36.26875Q256.65936 37.096874 255.75313 37.440624Q254.84688 37.784374 253.81563 37.784374Q252.1125 37.784374 251.19063 36.95625Q250.26875 36.1125 250.26875 34.815624Q250.26875 34.05 250.6125 33.425Q250.97188 32.8 251.53438 32.425Q252.09688 32.034374 252.8 31.83125Q253.31563 31.70625 254.3625 31.565624Q256.4875 31.315624 257.4875 30.971874Q257.5031 30.6125 257.5031 30.503124Q257.5031 29.440624 257.0031 28.9875Q256.33124 28.39375 255.00313 28.39375Q253.75313 28.39375 253.15938 28.83125Q252.58125 29.26875 252.3 30.378124L250.58125 30.14375Q250.81563 29.034374 251.34688 28.3625Q251.87813 27.675 252.89375 27.315624Q253.90938 26.940624 255.25313 26.940624Q256.58124 26.940624 257.40936 27.253124Q258.2375 27.565624 258.6281 28.05Q259.01874 28.51875 259.175 29.2375Q259.26874 29.690624 259.26874 30.8625L259.26874 33.20625Q259.26874 35.659374 259.3781 36.315624Q259.4875 36.95625 259.83124 37.55L257.9875 37.55Q257.72186 37.003124 257.64374 36.26875ZM257.4875 32.346874Q256.53436 32.7375 254.6125 33.003124Q253.53438 33.159374 253.08125 33.3625Q252.64375 33.55 252.39375 33.925Q252.14375 34.3 252.14375 34.76875Q252.14375 35.471874 252.675 35.940624Q253.20625 36.409374 254.2375 36.409374Q255.25313 36.409374 256.03436 35.971874Q256.83124 35.51875 257.20624 34.753124Q257.4875 34.14375 257.4875 32.9875L257.4875 32.346874ZM265.70624 35.971874L265.95624 37.534374Q265.22186 37.690624 264.6281 37.690624Q263.675 37.690624 263.14374 37.39375Q262.6281 37.08125 262.40936 36.596874Q262.1906 36.096874 262.1906 34.51875L262.1906 28.55L260.90936 28.55L260.90936 27.175L262.1906 27.175L262.1906 24.6125L263.9406 23.55L263.9406 27.175L265.70624 27.175L265.70624 28.55L263.9406 28.55L263.9406 34.6125Q263.9406 35.3625 264.03436 35.58125Q264.1281 35.784374 264.33124 35.925Q264.55 36.05 264.9406 36.05Q265.22186 36.05 265.70624 35.971874ZM267.8781 25.253124L267.8781 23.2375L269.64374 23.2375L269.64374 25.253124L267.8781 25.253124ZM267.8781 37.55L267.8781 27.175L269.64374 27.175L269.64374 37.55L267.8781 37.55ZM271.22186 32.3625Q271.22186 29.4875 272.8156 28.096874Q274.15936 26.940624 276.08124 26.940624Q278.22186 26.940624 279.5656 28.346874Q280.925 29.753124 280.925 32.221874Q280.925 34.221874 280.33124 35.378124Q279.7375 36.51875 278.58124 37.159374Q277.4406 37.784374 276.08124 37.784374Q273.89374 37.784374 272.55 36.39375Q271.22186 34.9875 271.22186 32.3625ZM273.01874 32.3625Q273.01874 34.3625 273.8781 35.346874Q274.7531 36.33125 276.08124 36.33125Q277.39374 36.33125 278.2531 35.346874Q279.1281 34.346874 279.1281 32.3Q279.1281 30.378124 278.2531 29.39375Q277.3781 28.39375 276.08124 28.39375Q274.7531 28.39375 273.8781 29.39375Q273.01874 30.378124 273.01874 32.3625ZM282.8625 37.55L282.8625 27.175L284.45624 27.175L284.45624 28.659374Q285.59686 26.940624 287.7531 26.940624Q288.6906 26.940624 289.47186 27.284374Q290.26874 27.6125 290.65936 28.159374Q291.05 28.70625 291.20624 29.45625Q291.3 29.95625 291.3 31.175L291.3 37.55L289.53436 37.55L289.53436 31.2375Q289.53436 30.159374 289.33124 29.628124Q289.1281 29.096874 288.59686 28.784374Q288.08124 28.471874 287.3781 28.471874Q286.2531 28.471874 285.4406 29.190624Q284.6281 29.89375 284.6281 31.878124L284.6281 37.55L282.8625 37.55ZM302.22186 41.753124Q300.76874 39.925 299.76874 37.471874Q298.76874 35.003124 298.76874 32.3625Q298.76874 30.034374 299.51874 27.909374Q300.39374 25.440624 302.22186 22.9875L303.4875 22.9875Q302.3 25.01875 301.925 25.89375Q301.33124 27.2375 300.9875 28.70625Q300.5656 30.534374 300.5656 32.378124Q300.5656 37.065624 303.4875 41.753124L302.22186 41.753124ZM305.45624 32.95625L307.2375 32.8Q307.3625 33.8625 307.8156 34.55Q308.28436 35.2375 309.2531 35.675Q310.2375 36.096874 311.47186 36.096874Q312.55 36.096874 313.3781 35.784374Q314.20624 35.45625 314.6125 34.89375Q315.01874 34.33125 315.01874 33.659374Q315.01874 32.9875 314.6281 32.4875Q314.2375 31.9875 313.34686 31.64375Q312.76874 31.409374 310.78436 30.940624Q308.8156 30.471874 308.03436 30.05Q307.0031 29.51875 306.5031 28.721874Q306.0031 27.925 306.0031 26.940624Q306.0031 25.846874 306.6125 24.909374Q307.22186 23.971874 308.40936 23.4875Q309.59686 22.9875 311.03436 22.9875Q312.6281 22.9875 313.84686 23.503124Q315.0656 24.01875 315.70624 25.01875Q316.3625 26.003124 316.40936 27.26875L314.59686 27.409374Q314.45624 26.05 313.6125 25.3625Q312.76874 24.659374 311.1125 24.659374Q309.39374 24.659374 308.59686 25.3Q307.8156 25.925 307.8156 26.8Q307.8156 27.58125 308.3781 28.08125Q308.925 28.58125 311.2375 29.096874Q313.55 29.6125 314.40936 30.003124Q315.65936 30.58125 316.2531 31.471874Q316.84686 32.346874 316.84686 33.503124Q316.84686 34.64375 316.1906 35.659374Q315.53436 36.675 314.3 37.2375Q313.08124 37.8 311.55 37.8Q309.6125 37.8 308.3 37.2375Q306.9875 36.659374 306.2375 35.51875Q305.4875 34.378124 305.45624 32.95625ZM322.70624 35.971874L322.95624 37.534374Q322.22186 37.690624 321.6281 37.690624Q320.675 37.690624 320.14374 37.39375Q319.6281 37.08125 319.40936 36.596874Q319.1906 36.096874 319.1906 34.51875L319.1906 28.55L317.90936 28.55L317.90936 27.175L319.1906 27.175L319.1906 24.6125L320.9406 23.55L320.9406 27.175L322.70624 27.175L322.70624 28.55L320.9406 28.55L320.9406 34.6125Q320.9406 35.3625 321.03436 35.58125Q321.1281 35.784374 321.33124 35.925Q321.55 36.05 321.9406 36.05Q322.22186 36.05 322.70624 35.971874ZM324.84686 37.55L324.84686 27.175L326.425 27.175L326.425 28.753124Q327.03436 27.64375 327.55 27.3Q328.0656 26.940624 328.675 26.940624Q329.5656 26.940624 330.4875 27.503124L329.8781 29.14375Q329.2375 28.753124 328.59686 28.753124Q328.01874 28.753124 327.55 29.1125Q327.09686 29.45625 326.89374 30.065624Q326.6125 31.003124 326.6125 32.1125L326.6125 37.55L324.84686 37.55ZM331.8781 25.253124L331.8781 23.2375L333.64374 23.2375L333.64374 25.253124L331.8781 25.253124ZM331.8781 37.55L331.8781 27.175L333.64374 27.175L333.64374 37.55L331.8781 37.55ZM342.59686 37.55L342.59686 36.2375Q341.6125 37.784374 339.6906 37.784374Q338.45624 37.784374 337.40936 37.096874Q336.3781 36.409374 335.8 35.190624Q335.2375 33.971874 335.2375 32.378124Q335.2375 30.815624 335.7531 29.55Q336.26874 28.284374 337.3 27.6125Q338.34686 26.940624 339.6125 26.940624Q340.55 26.940624 341.28436 27.346874Q342.01874 27.7375 342.4875 28.3625L342.4875 23.2375L344.22186 23.2375L344.22186 37.55L342.59686 37.55ZM337.03436 32.378124Q337.03436 34.3625 337.8781 35.346874Q338.72186 36.33125 339.8625 36.33125Q341.01874 36.33125 341.8156 35.39375Q342.6281 34.45625 342.6281 32.51875Q342.6281 30.39375 341.8 29.39375Q340.9875 28.39375 339.78436 28.39375Q338.6125 28.39375 337.8156 29.3625Q337.03436 30.315624 337.03436 32.378124ZM353.97186 34.20625L355.78436 34.440624Q355.3625 36.01875 354.1906 36.909374Q353.03436 37.784374 351.22186 37.784374Q348.95624 37.784374 347.6125 36.39375Q346.28436 34.9875 346.28436 32.45625Q346.28436 29.83125 347.6281 28.39375Q348.97186 26.940624 351.1281 26.940624Q353.20624 26.940624 354.51874 28.3625Q355.84686 29.76875 355.84686 32.346874Q355.84686 32.503124 355.83124 32.815624L348.09686 32.815624Q348.1906 34.51875 349.0656 35.425Q349.9406 36.33125 351.2375 36.33125Q352.20624 36.33125 352.8781 35.83125Q353.5656 35.315624 353.97186 34.20625ZM348.1906 31.3625L353.9875 31.3625Q353.8781 30.065624 353.33124 29.409374Q352.4875 28.39375 351.14374 28.39375Q349.9406 28.39375 349.1125 29.20625Q348.28436 30.003124 348.1906 31.3625ZM363.45624 32.95625L365.2375 32.8Q365.3625 33.8625 365.8156 34.55Q366.28436 35.2375 367.2531 35.675Q368.2375 36.096874 369.47186 36.096874Q370.55 36.096874 371.3781 35.784374Q372.20624 35.45625 372.6125 34.89375Q373.01874 34.33125 373.01874 33.659374Q373.01874 32.9875 372.6281 32.4875Q372.2375 31.9875 371.34686 31.64375Q370.76874 31.409374 368.78436 30.940624Q366.8156 30.471874 366.03436 30.05Q365.0031 29.51875 364.5031 28.721874Q364.0031 27.925 364.0031 26.940624Q364.0031 25.846874 364.6125 24.909374Q365.22186 23.971874 366.40936 23.4875Q367.59686 22.9875 369.03436 22.9875Q370.6281 22.9875 371.84686 23.503124Q373.0656 24.01875 373.70624 25.01875Q374.3625 26.003124 374.40936 27.26875L372.59686 27.409374Q372.45624 26.05 371.6125 25.3625Q370.76874 24.659374 369.1125 24.659374Q367.39374 24.659374 366.59686 25.3Q365.8156 25.925 365.8156 26.8Q365.8156 27.58125 366.3781 28.08125Q366.925 28.58125 369.2375 29.096874Q371.55 29.6125 372.40936 30.003124Q373.65936 30.58125 374.2531 31.471874Q374.84686 32.346874 374.84686 33.503124Q374.84686 34.64375 374.1906 35.659374Q373.53436 36.675 372.3 37.2375Q371.08124 37.8 369.55 37.8Q367.6125 37.8 366.3 37.2375Q364.9875 36.659374 364.2375 35.51875Q363.4875 34.378124 363.45624 32.95625ZM383.64374 33.753124L385.3625 33.971874Q385.08124 35.76875 383.90936 36.784374Q382.7531 37.784374 381.05 37.784374Q378.925 37.784374 377.6281 36.39375Q376.33124 35.003124 376.33124 32.409374Q376.33124 30.721874 376.8781 29.471874Q377.4406 28.20625 378.58124 27.58125Q379.72186 26.940624 381.0656 26.940624Q382.7531 26.940624 383.8156 27.8Q384.89374 28.659374 385.20624 30.221874L383.4875 30.4875Q383.2531 29.440624 382.6281 28.925Q382.0031 28.39375 381.1281 28.39375Q379.8 28.39375 378.97186 29.346874Q378.14374 30.3 378.14374 32.346874Q378.14374 34.440624 378.9406 35.39375Q379.7375 36.33125 381.03436 36.33125Q382.0656 36.33125 382.7531 35.70625Q383.45624 35.065624 383.64374 33.753124ZM386.8625 37.55L386.8625 23.2375L388.6281 23.2375L388.6281 28.3625Q389.8625 26.940624 391.7375 26.940624Q392.8781 26.940624 393.72186 27.39375Q394.58124 27.846874 394.9406 28.659374Q395.3156 29.45625 395.3156 30.971874L395.3156 37.55L393.5656 37.55L393.5656 30.971874Q393.5656 29.659374 392.9875 29.065624Q392.40936 28.45625 391.3781 28.45625Q390.59686 28.45625 389.89374 28.8625Q389.20624 29.26875 388.90936 29.971874Q388.6281 30.659374 388.6281 31.878124L388.6281 37.55L386.8625 37.55ZM403.97186 34.20625L405.78436 34.440624Q405.3625 36.01875 404.1906 36.909374Q403.03436 37.784374 401.22186 37.784374Q398.95624 37.784374 397.6125 36.39375Q396.28436 34.9875 396.28436 32.45625Q396.28436 29.83125 397.6281 28.39375Q398.97186 26.940624 401.1281 26.940624Q403.20624 26.940624 404.51874 28.3625Q405.84686 29.76875 405.84686 32.346874Q405.84686 32.503124 405.83124 32.815624L398.09686 32.815624Q398.1906 34.51875 399.0656 35.425Q399.9406 36.33125 401.2375 36.33125Q402.20624 36.33125 402.8781 35.83125Q403.5656 35.315624 403.97186 34.20625ZM398.1906 31.3625L403.9875 31.3625Q403.8781 30.065624 403.33124 29.409374Q402.4875 28.39375 401.14374 28.39375Q399.9406 28.39375 399.1125 29.20625Q398.28436 30.003124 398.1906 31.3625ZM414.59686 37.55L414.59686 36.2375Q413.6125 37.784374 411.6906 37.784374Q410.45624 37.784374 409.40936 37.096874Q408.3781 36.409374 407.8 35.190624Q407.2375 33.971874 407.2375 32.378124Q407.2375 30.815624 407.7531 29.55Q408.26874 28.284374 409.3 27.6125Q410.34686 26.940624 411.6125 26.940624Q412.55 26.940624 413.28436 27.346874Q414.01874 27.7375 414.4875 28.3625L414.4875 23.2375L416.22186 23.2375L416.22186 37.55L414.59686 37.55ZM409.03436 32.378124Q409.03436 34.3625 409.8781 35.346874Q410.72186 36.33125 411.8625 36.33125Q413.01874 36.33125 413.8156 35.39375Q414.6281 34.45625 414.6281 32.51875Q414.6281 30.39375 413.8 29.39375Q412.9875 28.39375 411.78436 28.39375Q410.6125 28.39375 409.8156 29.3625Q409.03436 30.315624 409.03436 32.378124ZM425.65936 37.55L425.65936 36.01875Q424.45624 37.784374 422.3781 37.784374Q421.45624 37.784374 420.65936 37.440624Q419.8625 37.08125 419.47186 36.55Q419.09686 36.01875 418.9406 35.2375Q418.83124 34.721874 418.83124 33.596874L418.83124 27.175L420.58124 27.175L420.58124 32.925Q420.58124 34.3 420.6906 34.784374Q420.8625 35.471874 421.39374 35.878124Q421.9406 36.26875 422.72186 36.26875Q423.51874 36.26875 424.20624 35.8625Q424.90936 35.45625 425.1906 34.76875Q425.4875 34.065624 425.4875 32.7375L425.4875 27.175L427.2375 27.175L427.2375 37.55L425.65936 37.55ZM428.83124 37.55L428.83124 23.2375L430.58124 23.2375L430.58124 37.55L428.83124 37.55ZM432.8781 25.253124L432.8781 23.2375L434.64374 23.2375L434.64374 25.253124L432.8781 25.253124ZM432.8781 37.55L432.8781 27.175L434.64374 27.175L434.64374 37.55L432.8781 37.55ZM436.8625 37.55L436.8625 27.175L438.45624 27.175L438.45624 28.659374Q439.59686 26.940624 441.7531 26.940624Q442.6906 26.940624 443.47186 27.284374Q444.26874 27.6125 444.65936 28.159374Q445.05 28.70625 445.20624 29.45625Q445.3 29.95625 445.3 31.175L445.3 37.55L443.53436 37.55L443.53436 31.2375Q443.53436 30.159374 443.33124 29.628124Q443.1281 29.096874 442.59686 28.784374Q442.08124 28.471874 441.3781 28.471874Q440.2531 28.471874 439.4406 29.190624Q438.6281 29.89375 438.6281 31.878124L438.6281 37.55L436.8625 37.55ZM446.55 38.409374L448.2531 38.659374Q448.3625 39.45625 448.84686 39.815624Q449.5031 40.3 450.64374 40.3Q451.8625 40.3 452.51874 39.815624Q453.1906 39.33125 453.425 38.45625Q453.5656 37.909374 453.55 36.190624Q452.39374 37.55 450.675 37.55Q448.53436 37.55 447.3625 36.003124Q446.1906 34.45625 446.1906 32.3Q446.1906 30.815624 446.72186 29.565624Q447.26874 28.315624 448.28436 27.628124Q449.3156 26.940624 450.6906 26.940624Q452.51874 26.940624 453.72186 28.425L453.72186 27.175L455.33124 27.175L455.33124 36.14375Q455.33124 38.565624 454.83124 39.565624Q454.34686 40.58125 453.26874 41.159374Q452.20624 41.753124 450.64374 41.753124Q448.8 41.753124 447.64374 40.925Q446.5031 40.096874 446.55 38.409374ZM448.0031 32.175Q448.0031 34.221874 448.8156 35.159374Q449.6281 36.096874 450.84686 36.096874Q452.05 36.096874 452.8625 35.159374Q453.6906 34.221874 453.6906 32.2375Q453.6906 30.33125 452.84686 29.3625Q452.0031 28.39375 450.8156 28.39375Q449.64374 28.39375 448.8156 29.346874Q448.0031 30.3 448.0031 32.175ZM459.01874 41.753124L457.76874 41.753124Q460.675 37.065624 460.675 32.378124Q460.675 30.534374 460.26874 28.7375Q459.925 27.26875 459.33124 25.925Q458.95624 25.034374 457.76874 22.9875L459.01874 22.9875Q460.8625 25.440624 461.7375 27.909374Q462.4875 30.034374 462.4875 32.3625Q462.4875 35.003124 461.47186 37.471874Q460.47186 39.925 459.01874 41.753124Z" fill-rule="nonzero"/></svg>